<?xml version="1.0" encoding="UTF-8" standalone="no"?>
<!DOCTYPE svg PUBLIC "-//W3C//DTD SVG 20010904//EN"
              "http://www.w3.org/TR/2001/REC-SVG-20010904/DTD/svg10.dtd">

<svg xmlns="http://www.w3.org/2000/svg"
     width="400" height="400"
     viewBox="0 0 1040 1024" fill="black" stroke="none" stroke-width="1">
  <path d="M 379.00,123.00
           C 381.88,119.15 387.71,117.66 392.00,115.69
             392.00,115.69 422.00,103.58 422.00,103.58
             465.09,87.46 515.01,77.53 561.00,77.00
             561.00,77.00 571.00,76.05 571.00,76.05
             571.00,76.05 585.00,76.05 585.00,76.05
             585.00,76.05 600.00,77.00 600.00,77.00
             614.12,77.02 638.78,80.05 653.00,82.43
             752.71,99.16 842.95,147.98 911.91,222.00
             969.21,283.50 1007.55,359.75 1024.00,442.00
             1028.11,462.57 1030.66,483.11 1032.09,504.00
             1032.09,504.00 1033.00,514.00 1033.00,514.00
             1033.00,514.00 1033.00,551.00 1033.00,551.00
             1033.00,551.00 1029.72,590.00 1029.72,590.00
             1022.32,649.31 1002.55,707.35 972.58,759.00
             949.14,799.38 918.64,837.49 884.00,868.83
             758.16,982.67 580.13,1017.26 421.00,959.05
             400.78,951.66 380.95,942.96 362.00,932.69
             362.00,932.69 347.00,923.86 347.00,923.86
             347.00,923.86 322.00,911.00 322.00,911.00
             322.00,911.00 329.00,912.00 329.00,912.00
             329.00,912.00 279.00,878.00 279.00,878.00
             277.92,874.21 274.76,871.74 272.00,869.00
             272.00,869.00 254.00,852.00 254.00,852.00
             240.61,838.61 230.04,824.28 213.00,815.32
             197.25,807.03 173.55,801.27 156.00,797.42
             156.00,797.42 136.00,794.00 136.00,794.00
             154.06,794.00 180.99,801.01 198.00,807.42
             198.00,807.42 218.00,816.00 218.00,816.00
             206.06,804.61 179.92,784.28 166.00,775.00
             162.08,772.38 148.55,762.87 145.00,761.99
             141.22,761.04 135.80,763.96 127.00,764.00
             127.00,764.00 120.00,764.00 120.00,764.00
             96.97,763.96 66.94,743.27 48.00,730.67
             48.00,730.67 32.00,719.95 32.00,719.95
             28.70,717.86 25.13,716.33 23.00,713.00
             23.00,713.00 50.00,711.00 50.00,711.00
             69.79,710.97 79.79,711.07 99.00,718.05
             110.55,722.25 124.66,730.72 132.70,740.00
             132.70,740.00 146.21,759.48 146.21,759.48
             146.21,759.48 174.00,778.43 174.00,778.43
             190.62,790.30 207.97,804.19 223.00,818.00
             223.00,818.00 219.00,810.00 219.00,810.00
             219.00,810.00 222.00,814.00 222.00,814.00
             219.09,791.91 218.74,784.24 219.00,762.00
             219.06,757.44 219.50,746.39 222.00,743.00
             219.37,757.68 219.41,777.13 220.83,792.00
             221.66,800.68 221.54,808.74 225.00,817.00
             225.00,817.00 225.00,813.00 225.00,813.00
             225.05,802.84 228.48,792.58 231.67,783.00
             235.90,770.28 239.72,759.06 245.75,747.00
             249.52,739.48 254.88,728.67 261.00,723.00
             261.00,723.00 247.26,747.00 247.26,747.00
             240.42,760.34 235.79,774.74 231.34,789.00
             229.32,795.46 224.87,810.65 226.42,817.00
             227.66,822.08 238.06,832.84 242.04,837.00
             252.21,847.64 275.01,870.68 286.00,879.00
             287.85,873.07 288.71,866.64 291.32,861.00
             296.27,850.32 306.34,838.08 313.92,829.00
             318.79,823.16 323.84,816.43 330.00,812.00
             319.32,827.95 303.92,840.74 294.78,858.00
             292.23,862.81 287.61,873.53 288.48,878.96
             289.23,883.63 300.07,890.52 304.00,893.28
             304.00,893.28 353.00,925.42 353.00,925.42
             396.57,950.72 441.66,967.13 491.00,977.00
             508.61,980.52 526.11,982.84 544.00,984.09
             544.00,984.09 554.00,985.00 554.00,985.00
             554.00,985.00 574.00,986.00 574.00,986.00
             574.00,986.00 595.00,985.00 595.00,985.00
             624.72,984.95 654.15,979.73 683.00,972.88
             787.71,948.05 876.16,888.39 941.35,803.00
             1002.91,722.36 1033.18,622.87 1032.00,522.00
             1032.00,522.00 1030.09,496.00 1030.09,496.00
             1025.09,424.44 1000.30,350.55 961.95,290.00
             924.61,231.04 875.17,182.43 816.00,145.58
             759.69,110.51 693.22,86.61 627.00,80.17
             627.00,80.17 598.00,78.00 598.00,78.00
             598.00,78.00 556.00,78.00 556.00,78.00
             556.00,78.00 546.00,78.91 546.00,78.91
             518.83,80.77 492.45,85.01 466.00,91.63
             458.46,93.51 431.55,100.89 426.00,104.08
             426.00,104.08 418.00,110.00 418.00,110.00
             418.00,110.00 421.00,106.00 421.00,106.00
             412.06,108.10 383.27,120.63 376.00,125.93
             371.43,129.26 364.11,136.74 360.04,141.00
             356.44,144.77 350.67,151.70 347.75,156.00
             344.94,160.13 343.38,164.39 339.00,167.00
             339.00,167.00 339.00,181.00 339.00,181.00
             338.97,187.85 337.56,197.15 336.41,204.00
             331.73,231.92 322.14,251.77 302.00,272.00
             297.25,276.77 285.52,288.39 280.00,291.00
             285.10,281.03 290.72,273.14 293.85,262.00
             300.36,238.81 298.09,221.80 310.32,196.00
             313.53,189.22 320.43,179.20 326.01,174.30
             326.01,174.30 339.62,164.61 339.62,164.61
             339.62,164.61 349.24,151.00 349.24,151.00
             357.49,140.18 360.78,136.88 371.00,128.00
             347.57,138.09 319.46,158.19 299.00,173.63
             291.17,179.53 274.50,192.22 269.62,200.00
             262.80,210.86 258.98,222.65 255.89,235.00
             254.48,240.68 253.82,249.19 251.00,254.00
             252.48,235.91 258.90,218.51 266.00,202.00
             261.67,206.33 252.09,215.17 249.41,220.00
             244.77,228.35 243.52,240.14 232.83,250.83
             221.11,262.56 206.85,265.00 191.00,265.00
             193.41,260.58 198.97,256.21 202.57,252.00
             210.08,243.23 219.63,229.26 229.00,223.11
             237.41,217.58 244.62,218.75 247.72,216.98
             250.60,215.33 264.68,200.24 267.00,197.00
             267.00,197.00 257.00,199.02 257.00,199.02
             252.63,201.15 249.75,206.48 239.00,209.24
             219.82,214.16 200.81,200.44 191.00,185.00
             191.00,185.00 210.00,188.83 210.00,188.83
             210.00,188.83 239.00,190.47 239.00,190.47
             239.00,190.47 257.00,196.83 257.00,196.83
             257.00,196.83 270.00,196.83 270.00,196.83
             271.08,192.44 280.20,186.38 284.00,183.13
             295.43,173.34 316.20,157.71 329.00,150.00
             329.00,150.00 299.00,154.72 299.00,154.72
             285.47,156.32 271.63,156.16 258.00,156.00
             253.22,155.94 245.06,155.36 241.00,153.00
             241.00,153.00 264.00,154.96 264.00,154.96
             264.00,154.96 277.00,154.96 277.00,154.96
             277.00,154.96 287.00,154.00 287.00,154.00
             287.00,154.00 310.00,151.75 310.00,151.75
             310.00,151.75 331.00,147.45 331.00,147.45
             331.00,147.45 349.00,137.43 349.00,137.43
             349.00,137.43 376.00,123.00 376.00,123.00
             353.67,123.00 340.68,120.89 319.00,116.21
             312.09,114.72 299.00,111.76 294.00,107.00
             311.67,114.03 332.12,118.44 351.00,120.72
             351.00,120.72 379.00,123.00 379.00,123.00 Z
           M 422.00,105.00
           C 422.00,105.00 421.00,105.00 421.00,105.00
             421.00,105.00 422.00,106.00 422.00,106.00
             422.00,106.00 422.00,105.00 422.00,105.00 Z
           M 416.00,111.00
           C 415.94,115.29 409.74,120.63 406.92,124.00
             406.92,124.00 380.00,157.00 380.00,157.00
             384.57,147.68 400.94,128.40 408.29,120.00
             411.39,116.45 413.12,115.02 416.00,111.00 Z
           M 372.00,127.00
           C 372.00,127.00 371.00,127.00 371.00,127.00
             371.00,127.00 372.00,128.00 372.00,128.00
             372.00,128.00 372.00,127.00 372.00,127.00 Z
           M 338.00,168.00
           C 328.47,171.71 321.08,180.50 315.81,189.00
             306.70,203.71 302.06,222.01 299.42,239.00
             299.42,239.00 296.53,257.00 296.53,257.00
             293.21,270.33 289.04,274.98 285.00,286.00
             290.19,282.29 294.50,277.50 299.00,273.00
             321.23,250.77 330.41,232.84 335.59,202.00
             336.63,195.76 339.07,176.22 337.00,171.00
             337.00,171.00 317.00,210.00 317.00,210.00
             322.80,193.27 329.57,183.02 338.00,168.00 Z
           M 253.00,197.00
           C 238.13,190.61 232.16,190.03 216.00,190.00
             205.46,189.98 203.28,188.31 194.00,187.00
             203.55,201.00 220.54,211.90 238.00,208.18
             243.81,206.95 249.95,204.30 253.00,199.00
             253.00,199.00 240.00,199.00 240.00,199.00
             240.00,199.00 253.00,197.00 253.00,197.00 Z
           M 268.00,200.00
           C 268.00,200.00 267.00,200.00 267.00,200.00
             267.00,200.00 268.00,201.00 268.00,201.00
             268.00,201.00 268.00,200.00 268.00,200.00 Z
           M 229.00,200.00
           C 229.00,200.00 239.00,201.00 239.00,201.00
             239.00,201.00 229.00,200.00 229.00,200.00 Z
           M 267.00,201.00
           C 267.00,201.00 266.00,201.00 266.00,201.00
             266.00,201.00 267.00,202.00 267.00,202.00
             267.00,202.00 267.00,201.00 267.00,201.00 Z
           M 315.00,214.00
           C 315.00,214.00 316.00,214.00 316.00,214.00
             316.00,214.00 315.00,215.00 315.00,215.00
             315.00,215.00 315.00,214.00 315.00,214.00 Z
           M 247.00,219.00
           C 226.97,219.45 218.95,234.32 207.41,248.00
             203.56,252.57 196.61,259.12 194.00,264.00
             215.64,263.01 231.59,256.78 241.36,236.00
             243.45,231.55 245.12,227.87 246.00,223.00
             239.30,226.60 237.12,230.64 232.00,236.00
             232.00,236.00 247.00,219.00 247.00,219.00 Z
           M 247.00,222.00
           C 247.00,222.00 246.00,222.00 246.00,222.00
             246.00,222.00 247.00,223.00 247.00,223.00
             247.00,223.00 247.00,222.00 247.00,222.00 Z
           M 124.00,369.00
           C 124.00,369.00 137.71,388.00 137.71,388.00
             146.00,399.58 151.79,407.42 156.94,421.00
             167.04,447.65 165.41,479.74 149.95,504.00
             144.41,512.68 133.37,524.77 124.00,529.00
             124.00,529.00 132.85,483.00 132.85,483.00
             132.85,483.00 136.00,449.00 136.00,449.00
             136.00,464.05 135.25,479.16 132.58,494.00
             132.58,494.00 126.00,526.00 126.00,526.00
             162.70,501.41 170.20,455.85 153.57,417.00
             146.54,400.55 133.87,387.40 125.00,372.00
             125.00,372.00 124.00,379.00 124.00,379.00
             124.00,379.00 124.00,369.00 124.00,369.00 Z
           M 123.00,380.00
           C 125.43,386.12 122.92,401.96 122.16,409.00
             122.16,409.00 114.00,476.00 114.00,476.00
             113.99,483.71 113.53,492.48 114.75,500.00
             115.48,504.50 118.11,513.04 117.00,517.00
             114.86,506.35 112.13,495.96 112.00,485.00
             112.00,485.00 112.91,472.00 112.91,472.00
             115.02,441.28 123.00,410.83 123.00,380.00 Z
           M 62.00,442.00
           C 67.80,446.52 73.87,455.00 78.37,461.00
             83.93,468.40 89.45,476.02 94.14,484.00
             105.56,503.43 103.54,505.98 120.00,525.00
             120.00,525.00 119.00,518.00 119.00,518.00
             119.00,518.00 122.00,530.00 122.00,530.00
             122.00,530.00 107.09,511.00 107.09,511.00
             107.09,511.00 96.69,492.00 96.69,492.00
             96.69,492.00 83.66,471.00 83.66,471.00
             83.66,471.00 62.00,442.00 62.00,442.00 Z
           M 211.00,484.00
           C 215.92,487.16 219.42,499.31 221.33,505.00
             228.82,527.24 231.84,547.20 224.33,570.00
             219.99,583.17 211.48,594.60 201.00,603.57
             195.95,607.89 182.72,617.46 179.56,622.01
             177.33,625.23 172.88,643.10 171.63,648.00
             165.80,670.80 159.59,703.51 168.00,726.00
             168.25,720.48 169.45,713.14 171.46,708.00
             177.60,692.32 197.18,671.50 210.00,660.75
             214.34,657.12 225.81,646.00 231.00,646.00
             220.59,653.22 198.09,673.10 191.00,683.00
             207.55,687.02 226.44,679.96 240.00,670.65
             266.96,652.15 282.80,622.78 291.57,592.00
             291.57,592.00 296.00,573.00 296.00,573.00
             296.00,573.00 282.00,584.57 282.00,584.57
             282.00,584.57 262.00,599.96 262.00,599.96
             237.91,616.90 219.42,625.80 201.16,651.00
             197.01,656.72 192.27,666.28 190.00,673.00
             190.00,673.00 187.00,682.00 187.00,682.00
             187.25,670.82 192.93,660.17 199.00,651.00
             215.87,625.54 241.85,611.92 266.00,594.71
             266.00,594.71 297.00,571.00 297.00,571.00
             294.05,607.35 271.82,652.14 241.00,672.30
             225.56,682.41 212.32,685.98 194.04,685.01
             187.31,684.65 185.08,688.92 181.43,694.00
             175.52,702.23 169.06,714.61 169.18,725.00
             169.26,731.94 177.02,745.71 180.58,752.00
             180.58,752.00 197.51,780.00 197.51,780.00
             197.51,780.00 218.00,809.00 218.00,809.00
             212.27,805.85 203.90,792.82 200.00,787.00
             200.00,787.00 175.31,746.00 175.31,746.00
             171.71,739.34 165.53,724.98 161.48,720.04
             150.96,707.18 120.00,687.00 105.00,677.81
             99.20,674.26 84.89,666.90 81.00,663.00
             103.50,672.69 143.67,699.82 161.00,717.00
             154.58,705.83 140.90,688.90 132.28,679.00
             128.88,675.10 118.86,664.03 115.00,661.60
             111.75,659.55 103.97,659.97 99.00,658.76
             92.44,657.16 84.72,652.57 79.00,648.95
             58.19,635.76 37.64,617.62 13.00,612.00
             14.64,607.46 18.66,607.35 23.00,606.02
             35.78,602.11 42.00,601.98 55.00,602.00
             77.69,602.04 99.31,614.26 109.22,635.00
             111.57,639.94 112.91,644.66 114.00,650.00
             114.54,652.69 114.93,657.34 116.31,659.49
             116.31,659.49 133.83,678.00 133.83,678.00
             133.83,678.00 157.00,708.00 157.00,708.00
             157.00,708.00 147.69,683.00 147.69,683.00
             147.69,683.00 134.73,640.00 134.73,640.00
             129.84,621.44 130.74,606.56 118.48,591.00
             109.16,579.16 85.87,561.76 73.00,552.72
             67.47,548.83 59.53,544.44 55.00,540.00
             61.46,542.06 73.10,550.64 79.00,554.86
             89.43,562.33 107.61,575.81 115.83,585.00
             115.83,585.00 126.00,598.00 126.00,598.00
             126.00,598.00 123.00,560.00 123.00,560.00
             122.99,552.10 119.75,537.57 124.00,531.00
             124.00,531.00 124.00,548.00 124.00,548.00
             124.68,608.44 139.71,663.93 164.14,719.00
             162.85,704.84 162.52,691.16 164.14,677.00
             166.45,659.59 171.89,642.94 176.13,626.00
             179.40,612.94 181.36,608.32 185.95,596.00
             187.87,590.86 189.69,584.28 193.00,580.00
             193.00,580.00 179.00,619.00 179.00,619.00
             190.72,609.41 204.84,599.35 213.56,587.00
             230.89,562.44 230.13,536.38 221.00,509.00
             218.39,501.18 216.03,494.27 212.00,487.00
             207.98,508.38 199.57,528.92 191.40,549.00
             191.40,549.00 179.72,580.00 179.72,580.00
             176.62,590.42 175.88,595.21 176.00,606.00
             176.05,610.38 177.58,614.90 176.00,619.00
             175.46,614.94 174.27,605.78 174.51,602.00
             176.99,563.08 205.67,523.50 211.00,484.00 Z
           M 88.00,530.00
           C 93.09,534.00 96.93,540.53 100.41,546.00
             106.82,556.06 112.65,566.05 117.42,577.00
             119.53,581.83 124.10,588.86 124.00,594.00
             124.00,594.00 116.74,579.00 116.74,579.00
             116.74,579.00 105.15,557.00 105.15,557.00
             105.15,557.00 88.00,530.00 88.00,530.00 Z
           M 114.00,657.00
           C 113.03,649.81 110.53,639.34 107.10,633.00
             97.63,615.50 75.80,603.24 56.00,603.00
             56.00,603.00 49.00,603.00 49.00,603.00
             40.49,603.01 21.79,606.14 15.00,611.00
             43.09,620.74 56.16,632.32 80.00,648.17
             88.35,653.72 103.76,662.06 114.00,658.00
             114.00,658.00 83.00,632.00 83.00,632.00
             83.00,632.00 100.00,645.17 100.00,645.17
             100.00,645.17 114.00,657.00 114.00,657.00 Z
           M 11.00,610.00
           C 11.00,610.00 12.00,610.00 12.00,610.00
             12.00,610.00 11.00,611.00 11.00,611.00
             11.00,611.00 11.00,610.00 11.00,610.00 Z
           M 297.00,703.00
           C 301.24,706.25 304.77,721.36 306.67,727.00
             315.23,752.45 321.98,779.02 307.66,804.00
             304.35,809.78 299.13,815.32 294.00,819.54
             291.28,821.78 285.65,825.38 284.01,828.17
             282.15,831.35 282.01,838.30 282.00,842.00
             281.98,851.65 281.76,853.22 283.27,863.00
             283.90,867.09 285.79,872.03 285.00,876.00
             280.06,858.97 280.98,854.14 281.00,837.00
             281.02,819.65 278.80,825.43 275.67,811.00
             273.81,802.43 273.99,795.61 274.00,787.00
             274.05,757.26 290.56,731.22 297.00,703.00 Z
           M 298.00,707.00
           C 298.00,707.00 288.95,732.00 288.95,732.00
             280.20,755.93 274.70,769.89 275.00,796.00
             275.10,804.05 277.27,817.47 282.00,824.00
             282.00,824.00 284.27,809.00 284.27,809.00
             285.58,800.53 289.54,780.13 293.00,773.00
             288.40,790.37 285.35,808.21 283.00,826.00
             290.71,821.13 298.69,814.38 304.07,807.00
             320.33,784.72 315.13,754.14 306.43,730.00
             304.03,723.33 301.94,712.50 298.00,707.00 Z
           M 158.00,708.00
           C 158.00,708.00 157.00,708.00 157.00,708.00
             157.00,708.00 158.00,709.00 158.00,709.00
             158.00,709.00 158.00,708.00 158.00,708.00 Z
           M 142.00,758.00
           C 138.96,747.58 129.60,737.44 121.00,731.16
             105.55,719.87 81.15,712.03 62.00,712.00
             62.00,712.00 49.00,712.00 49.00,712.00
             44.33,712.06 31.01,713.28 27.00,715.00
             27.00,715.00 74.00,745.40 74.00,745.40
             84.61,751.76 93.83,757.60 106.00,760.85
             115.68,763.43 133.50,765.05 142.00,759.00
             142.00,759.00 122.00,747.97 122.00,747.97
             122.00,747.97 99.00,737.00 99.00,737.00
             99.00,737.00 126.00,749.31 126.00,749.31
             126.00,749.31 142.00,758.00 142.00,758.00 Z
           M 162.00,717.00
           C 162.00,717.00 161.00,717.00 161.00,717.00
             161.00,717.00 162.00,718.00 162.00,718.00
             162.00,718.00 162.00,717.00 162.00,717.00 Z
           M 223.00,814.00
           C 223.00,814.00 222.00,814.00 222.00,814.00
             222.00,814.00 223.00,815.00 223.00,815.00
             223.00,815.00 223.00,814.00 223.00,814.00 Z
           M 219.00,816.00
           C 219.00,816.00 218.00,816.00 218.00,816.00
             218.00,816.00 219.00,817.00 219.00,817.00
             219.00,817.00 219.00,816.00 219.00,816.00 Z
           M 122.00,857.00
           C 150.42,849.34 180.91,830.25 211.00,841.44
             218.38,844.18 224.13,848.21 229.96,853.43
             233.30,856.41 235.85,860.44 240.00,862.35
             240.00,862.35 249.00,865.02 249.00,865.02
             256.67,867.40 272.04,872.28 278.00,877.00
             278.00,877.00 248.00,866.28 248.00,866.28
             245.13,865.42 239.81,863.49 237.00,863.51
             233.54,863.54 226.05,867.60 222.00,868.91
             215.41,871.04 208.82,871.03 202.00,871.00
             186.74,870.93 162.66,865.25 147.00,862.42
             141.15,861.37 126.22,859.75 122.00,857.00 Z
           M 235.00,861.00
           C 230.80,855.14 226.09,851.04 220.00,847.23
             197.52,833.14 173.00,840.09 150.00,848.81
             143.79,851.16 131.70,854.18 127.00,858.00
             127.00,858.00 143.00,860.58 143.00,860.58
             157.82,863.25 189.55,869.84 203.00,870.00
             212.87,870.11 226.09,868.26 234.00,862.00
             234.00,862.00 198.00,854.00 198.00,854.00
             198.00,854.00 235.00,861.00 235.00,861.00 Z
           M 284.00,906.00
           C 294.15,906.00 312.28,905.82 321.00,911.00
             321.00,911.00 297.00,907.17 297.00,907.17
             297.00,907.17 284.00,906.00 284.00,906.00 Z" />
</svg>
