<?xml version="1.0" encoding="UTF-8" standalone="no"?>
<!DOCTYPE svg PUBLIC "-//W3C//DTD SVG 20010904//EN"
              "http://www.w3.org/TR/2001/REC-SVG-20010904/DTD/svg10.dtd">

<svg xmlns="http://www.w3.org/2000/svg"
     width="100" height="100" fill="none" stroke="#7fa573" stroke-width="8"
     viewBox="0 0 768 768">
  <path id="Selection"
         d="M 620.58,47.17
           C 624.13,46.74 624.66,48.75 624.97,52.00
             624.97,52.00 624.97,71.00 624.97,71.00
             625.00,72.94 625.09,82.47 620.58,79.83
             618.64,78.69 619.00,73.97 619.00,72.00
             618.99,66.62 617.73,50.86 620.58,47.17 Z
           M 154.00,55.21
           C 154.00,55.21 178.00,55.21 178.00,55.21
             182.22,55.01 192.37,55.29 195.27,58.51
             198.82,62.46 199.36,82.67 202.73,86.49
             203.90,87.82 205.44,88.38 207.02,89.03
             207.02,89.03 222.00,95.27 222.00,95.27
             224.57,96.52 227.03,98.30 230.00,97.43
             234.74,96.03 249.04,82.53 255.00,83.03
             257.72,83.26 260.94,85.65 263.00,87.32
             270.60,93.49 277.61,100.23 283.57,108.00
             285.90,111.03 289.16,114.91 288.20,119.00
             286.16,127.70 271.51,137.96 274.83,147.00
             276.33,151.09 282.17,166.02 285.22,168.02
             289.35,170.72 308.74,171.78 312.27,175.56
             314.14,177.57 314.67,182.32 314.93,185.00
             314.93,185.00 316.00,203.00 316.00,203.00
             315.95,207.33 315.00,221.55 311.69,224.07
             304.92,229.21 286.45,225.92 282.10,235.04
             282.10,235.04 276.74,248.00 276.74,248.00
             275.40,250.80 273.41,253.77 274.30,257.00
             276.54,265.18 291.75,276.02 287.42,285.00
             284.49,291.08 270.41,305.07 265.00,309.70
             262.24,312.06 257.80,315.80 254.00,315.65
             248.37,315.42 233.42,302.63 229.00,301.77
             226.03,301.19 211.65,308.00 208.00,309.62
             196.24,314.86 200.96,332.35 195.84,339.57
             194.06,342.08 189.85,342.65 187.00,343.20
             180.56,344.43 168.93,344.08 162.00,344.00
             158.58,343.96 147.98,343.07 145.51,341.07
             143.35,339.31 142.92,335.60 142.40,333.00
             141.66,329.34 139.32,315.56 137.84,313.22
             136.22,310.66 133.66,309.97 131.00,308.95
             131.00,308.95 114.00,301.63 114.00,301.63
             110.34,300.90 107.81,303.34 105.00,305.28
             101.54,307.68 91.57,314.88 88.00,315.54
             83.75,316.34 80.01,313.44 77.00,310.82
             69.52,304.31 64.77,299.63 58.43,292.00
             56.27,289.39 52.75,285.44 52.38,282.00
             51.65,275.16 63.21,264.52 65.94,258.00
             67.84,253.46 61.28,242.85 59.42,238.00
             58.66,236.01 57.79,233.07 56.30,231.56
             52.31,227.52 31.90,227.89 27.51,223.49
             25.31,221.29 24.86,216.99 24.51,214.00
             23.63,208.49 23.73,190.51 24.51,185.00
             25.09,181.77 25.53,176.23 28.43,174.28
             32.14,171.80 51.62,170.79 55.73,167.42
             58.33,165.27 59.21,161.06 60.45,158.00
             60.45,158.00 66.07,146.00 66.07,146.00
             68.55,138.13 54.17,127.09 52.18,119.00
             51.06,114.46 54.96,110.25 57.62,107.00
             62.32,101.26 75.78,87.69 82.00,84.16
             91.46,78.79 102.32,95.45 111.00,97.69
             114.08,98.49 116.37,96.66 119.00,95.37
             119.00,95.37 133.98,88.95 133.98,88.95
             143.76,84.12 139.52,64.37 144.74,58.51
             146.78,56.21 151.09,55.91 154.00,55.21 Z
           M 191.00,62.00
           C 191.00,62.00 168.00,60.18 168.00,60.18
             168.00,60.18 162.00,60.91 162.00,60.91
             158.91,61.14 153.03,61.00 150.56,62.98
             148.48,64.66 148.17,68.51 147.75,71.00
             147.11,74.83 145.25,87.10 143.69,89.89
             141.65,93.54 137.61,94.22 134.00,95.61
             134.00,95.61 123.00,100.26 123.00,100.26
             123.00,100.26 115.00,104.43 115.00,104.43
             110.60,106.21 108.53,104.17 105.00,101.71
             101.98,99.60 90.63,91.27 88.00,90.42
             84.33,89.23 81.58,91.90 79.00,94.17
             74.57,98.09 63.01,109.26 60.30,114.00
             55.79,121.91 71.01,133.12 73.38,141.00
             74.46,144.62 72.32,147.85 70.75,151.00
             70.75,151.00 63.38,168.00 63.38,168.00
             62.45,170.08 61.70,171.76 59.78,173.15
             56.83,175.27 45.10,176.90 41.00,177.59
             38.74,177.97 34.28,178.43 32.60,179.93
             30.95,181.40 30.72,184.88 30.21,187.00
             30.21,187.00 30.21,207.00 30.21,207.00
             30.03,209.66 30.38,216.38 32.01,218.42
             33.56,220.36 37.67,220.68 40.00,221.08
             43.70,221.71 57.40,224.16 59.87,225.85
             63.47,228.32 64.95,234.92 66.60,239.00
             68.01,242.46 73.87,253.51 73.86,256.00
             73.85,259.02 70.84,262.61 69.14,265.00
             69.14,265.00 58.00,282.00 58.00,282.00
             63.79,289.06 70.10,296.62 77.00,302.58
             79.09,304.38 83.35,308.49 86.00,308.85
             88.68,309.20 91.86,306.75 94.00,305.33
             97.30,303.15 108.16,295.05 111.00,294.47
             114.87,293.68 121.28,298.28 125.00,299.97
             128.81,301.71 139.45,305.23 141.70,307.42
             144.28,309.92 144.72,313.64 145.40,317.00
             145.40,317.00 149.00,336.00 149.00,336.00
             161.85,338.42 164.07,338.15 177.00,338.00
             180.09,337.96 187.00,337.46 189.49,335.69
             191.74,334.09 192.09,330.53 192.60,328.00
             193.34,324.35 195.50,311.53 196.98,309.11
             199.04,305.74 202.57,305.06 206.00,303.77
             206.00,303.77 226.00,294.67 226.00,294.67
             229.77,293.45 232.01,295.66 235.00,297.66
             235.00,297.66 252.00,308.58 252.00,308.58
             255.71,309.78 258.35,307.09 261.00,304.87
             266.92,299.89 275.05,292.30 279.43,286.00
             280.49,284.47 281.40,282.93 281.30,281.00
             281.06,276.61 268.19,262.01 267.05,257.00
             266.20,253.27 270.57,246.51 272.22,243.00
             273.96,239.29 276.84,229.46 278.70,227.30
             280.97,224.66 284.77,224.25 288.00,223.60
             288.00,223.60 308.00,220.00 308.00,220.00
             309.66,210.72 310.83,199.36 309.58,190.00
             309.22,187.33 309.05,182.52 307.26,180.56
             303.86,176.85 286.09,176.47 281.11,173.69
             277.35,171.60 276.66,167.73 275.31,164.00
             275.31,164.00 267.39,146.00 267.39,146.00
             264.49,137.52 279.09,126.77 281.03,119.00
             281.93,115.38 279.19,112.59 277.08,110.00
             272.47,104.37 264.06,95.36 258.00,91.55
             253.18,88.52 251.16,90.83 247.00,93.66
             243.71,95.89 232.97,103.92 230.00,104.71
             226.08,105.74 219.92,101.12 216.00,99.43
             212.10,97.75 200.74,93.99 198.31,91.58
             195.86,89.16 195.43,85.25 194.80,82.00
             194.80,82.00 191.00,62.00 191.00,62.00 Z
           M 523.62,89.08
           C 527.23,88.21 528.32,89.61 531.00,92.06
             533.42,94.26 544.03,104.80 545.40,107.00
             547.79,110.82 546.28,113.76 542.95,112.60
             539.98,111.57 528.71,99.91 526.06,97.00
             523.60,94.31 521.50,92.48 523.62,89.08 Z
           M 716.96,89.07
           C 719.38,88.54 721.83,88.49 720.60,92.05
             719.88,94.13 716.80,97.25 715.28,99.00
             712.30,102.44 704.88,111.10 701.02,112.77
             697.24,114.40 694.90,111.64 698.32,107.00
             701.07,103.27 713.09,91.61 716.96,89.07 Z
           M 583.00,315.00
           C 575.84,307.73 580.55,302.74 580.17,295.00
             579.68,285.21 577.11,271.75 572.73,263.00
             567.90,253.35 560.58,246.58 554.43,238.00
             545.32,225.31 538.19,207.78 538.00,192.00
             537.80,174.97 538.40,162.71 546.27,147.00
             571.96,95.75 640.34,85.21 680.99,125.04
             695.57,139.33 705.90,161.40 706.00,182.00
             706.00,182.00 706.00,191.00 706.00,191.00
             705.84,203.94 699.69,221.05 692.94,232.00
             692.94,232.00 673.46,259.00 673.46,259.00
             667.48,268.83 663.17,285.49 663.94,297.00
             664.54,306.08 667.09,307.36 661.00,316.00
             665.49,320.81 665.80,327.70 661.57,332.90
             661.57,332.90 654.69,339.21 654.69,339.21
             652.17,342.42 649.94,351.87 637.00,358.18
             624.17,364.44 607.32,362.15 597.10,351.90
             592.66,347.44 592.05,343.51 589.37,340.10
             586.73,336.76 584.04,336.06 581.65,332.90
             577.13,326.92 579.20,320.59 583.00,315.00 Z
           M 641.00,215.00
           C 641.00,215.00 638.17,240.00 638.17,240.00
             638.17,240.00 636.00,281.00 636.00,281.00
             635.95,290.96 633.10,292.93 643.00,293.00
             643.00,293.00 651.00,293.00 651.00,293.00
             653.08,292.96 655.55,293.09 657.07,291.40
             658.84,289.43 658.93,284.60 659.28,282.00
             659.98,276.80 661.29,269.78 663.34,265.00
             669.33,250.96 676.07,245.73 684.28,234.00
             692.61,222.10 699.82,205.75 700.00,191.00
             700.11,180.94 700.23,173.85 697.28,164.00
             688.14,133.51 658.81,107.16 626.00,107.00
             614.94,106.95 609.90,106.58 599.00,110.03
             567.70,119.94 544.05,148.65 544.00,182.00
             543.97,200.82 546.10,213.76 556.44,230.00
             563.49,241.09 572.56,248.68 578.63,261.00
             584.38,272.67 583.88,281.17 586.00,293.00
             586.00,293.00 608.00,293.00 608.00,293.00
             608.00,293.00 608.00,272.00 608.00,272.00
             608.00,272.00 603.00,215.00 603.00,215.00
             594.58,214.31 585.85,212.23 581.69,204.00
             577.68,196.07 581.76,183.42 592.00,183.37
             600.55,183.33 604.71,191.97 606.52,199.00
             607.14,201.40 607.64,206.49 609.58,207.98
             611.23,209.24 614.96,209.00 617.00,209.00
             620.62,209.01 632.83,209.94 635.02,207.40
             636.28,205.93 636.96,201.06 637.42,199.00
             639.07,191.72 643.96,182.17 653.00,183.62
             663.96,185.39 666.48,198.04 660.44,205.98
             655.03,213.11 649.06,213.53 641.00,215.00 Z
           M 161.00,122.21
           C 161.00,122.21 173.00,122.21 173.00,122.21
             187.20,122.07 201.28,126.81 213.00,134.67
             245.28,156.31 256.80,197.88 240.22,233.00
             235.80,242.36 232.46,247.62 225.00,254.99
             218.61,261.29 210.34,267.14 202.00,270.55
             190.78,275.13 181.13,277.14 169.00,277.00
             160.48,276.90 148.90,274.59 141.00,271.40
             87.35,249.73 76.23,179.37 119.00,141.17
             131.69,129.84 144.54,125.12 161.00,122.21 Z
           M 161.00,128.29
           C 126.55,133.99 99.06,162.32 99.00,198.00
             98.99,207.20 99.56,214.21 102.70,223.00
             112.04,249.17 138.68,270.67 167.00,271.00
             178.98,271.14 188.99,269.77 200.00,264.69
             208.91,260.58 216.21,255.09 222.96,248.00
             228.27,242.43 230.89,237.81 234.24,231.00
             248.39,202.29 241.97,167.67 218.00,146.17
             201.92,131.75 182.23,126.28 161.00,128.29 Z
           M 164.00,152.24
           C 166.60,152.11 168.36,151.94 171.00,152.24
             177.87,152.31 187.02,154.67 193.00,158.04
             228.05,177.83 224.20,230.73 186.00,244.14
             181.73,245.63 173.48,246.78 169.00,246.49
             160.26,245.92 151.40,243.74 144.00,238.90
             124.18,225.95 117.07,197.97 128.32,177.00
             131.47,171.13 137.68,164.52 143.00,160.51
             149.00,155.99 156.71,153.80 164.00,152.24 Z
           M 167.00,158.29
           C 152.17,160.74 140.10,166.74 133.32,181.00
             121.24,206.43 137.19,239.65 167.00,240.00
             177.08,240.11 183.07,240.21 192.00,234.45
             221.31,215.57 215.86,170.15 182.00,160.04
             177.18,158.60 172.01,157.86 167.00,158.29 Z
           M 452.00,197.00
           C 449.33,193.44 448.18,192.73 445.00,189.83
             445.00,189.83 441.08,186.00 441.08,186.00
             439.57,184.36 435.06,177.31 441.08,178.73
             444.00,179.41 457.28,191.48 459.89,194.17
             461.75,196.09 463.51,198.15 462.60,201.00
             461.38,204.84 449.57,215.03 446.00,218.03
             444.44,219.34 441.72,222.00 439.47,220.83
             434.53,218.27 443.32,211.49 445.00,209.91
             445.00,209.91 452.00,203.00 452.00,203.00
             452.00,203.00 363.00,203.00 363.00,203.00
             363.00,203.00 345.00,203.00 345.00,203.00
             343.05,202.99 334.71,202.77 337.17,198.58
             338.31,196.64 343.03,197.00 345.00,197.00
             345.00,197.00 452.00,197.00 452.00,197.00 Z
           M 516.00,189.00
           C 516.00,189.00 503.00,189.00 503.00,189.00
             503.00,189.00 490.00,189.00 490.00,189.00
             488.06,188.96 482.30,188.85 484.17,185.26
             485.36,182.97 488.81,183.04 491.00,183.00
             491.00,183.00 508.00,183.00 508.00,183.00
             509.82,183.01 512.92,182.85 514.40,184.02
             515.96,185.26 515.85,187.23 516.00,189.00 Z
           M 729.36,184.02
           C 734.14,182.17 746.32,182.96 752.00,183.00
             753.63,183.01 756.37,182.94 757.84,183.60
             758.90,184.07 759.80,184.78 759.97,186.01
             760.43,189.38 755.00,188.99 753.00,189.00
             753.00,189.00 736.00,189.00 736.00,189.00
             732.70,188.99 724.97,189.42 729.36,184.02 Z
           M 602.00,208.00
           C 601.59,204.97 601.10,201.94 600.25,199.00
             599.71,197.14 598.90,194.80 597.78,193.16
             594.76,188.92 588.95,187.94 586.74,193.16
             584.32,198.76 587.59,204.71 593.00,206.85
             595.97,208.03 598.88,207.97 602.00,208.00 Z
           M 642.00,208.00
           C 644.79,207.97 647.35,208.07 650.00,206.99
             651.76,206.27 653.42,205.18 654.72,203.79
             662.92,195.09 652.36,183.82 646.00,193.11
             645.03,194.53 644.39,196.34 643.93,198.00
             643.93,198.00 642.00,208.00 642.00,208.00 Z
           M 635.00,215.00
           C 635.00,215.00 609.00,216.00 609.00,216.00
             609.00,216.00 613.04,257.00 613.04,257.00
             613.04,257.00 613.96,265.00 613.96,265.00
             613.96,265.00 613.96,277.00 613.96,277.00
             613.96,277.00 615.00,293.00 615.00,293.00
             615.00,293.00 629.00,293.00 629.00,293.00
             629.00,293.00 630.00,276.00 630.00,276.00
             630.00,276.00 630.91,263.00 630.91,263.00
             630.91,263.00 632.17,241.00 632.17,241.00
             632.17,241.00 635.00,215.00 635.00,215.00 Z
           M 545.00,256.00
           C 544.34,264.16 535.66,270.57 530.00,275.98
             528.33,277.58 524.25,281.81 521.64,279.92
             518.63,277.73 523.57,272.57 525.04,271.00
             530.37,265.32 536.90,256.65 545.00,256.00 Z
           M 700.62,257.13
           C 706.67,255.92 715.38,267.60 719.15,272.00
             720.44,273.50 724.83,277.91 722.21,279.95
             720.03,281.64 716.46,278.28 715.00,276.94
             715.00,276.94 702.15,264.00 702.15,264.00
             699.97,261.42 698.73,260.07 700.62,257.13 Z
           M 324.11,292.56
           C 329.40,291.58 338.31,291.99 344.00,292.00
             347.43,292.01 353.66,291.71 356.07,294.56
             358.48,297.42 358.78,308.47 360.98,311.73
             362.41,313.85 364.75,314.65 367.00,315.60
             370.23,316.97 374.55,319.59 378.00,318.51
             385.22,316.25 389.67,306.51 398.00,312.43
             400.93,314.51 410.41,323.21 412.81,326.00
             414.81,328.32 416.78,330.74 416.22,334.00
             414.63,343.34 404.76,343.96 409.40,356.00
             410.45,358.71 411.81,363.40 414.27,364.98
             417.02,366.74 428.44,366.87 431.26,369.73
             434.04,372.56 434.04,384.90 434.00,389.00
             433.95,392.63 433.73,400.76 430.69,403.07
             425.29,407.16 415.19,403.09 411.11,412.02
             409.55,415.43 407.23,421.39 408.52,425.00
             410.53,430.63 418.65,436.73 415.67,443.00
             414.06,446.39 403.22,457.04 400.00,459.81
             397.70,461.79 395.23,463.83 392.00,463.17
             384.78,461.70 380.34,452.07 372.00,455.31
             368.65,456.61 362.10,459.02 360.43,462.13
             358.31,466.07 358.32,476.54 355.28,479.02
             352.13,481.59 336.56,481.05 332.00,481.00
             328.83,480.96 323.94,480.87 321.58,478.44
             318.57,475.33 319.20,465.77 316.99,462.21
             315.45,459.72 312.58,458.67 310.00,457.60
             306.61,456.20 302.66,454.01 299.00,455.38
             292.74,457.72 287.36,466.71 280.00,462.26
             277.24,460.59 266.63,449.82 264.33,447.00
             262.50,444.76 260.46,442.07 260.87,439.00
             261.98,430.58 272.35,428.48 268.41,418.00
             266.84,413.85 265.41,408.72 260.96,406.89
             257.14,405.32 247.58,405.53 244.99,402.28
             242.81,399.54 242.96,386.83 243.00,383.00
             243.05,379.46 243.35,371.34 246.43,369.17
             249.30,367.16 260.23,367.15 263.49,364.27
             265.20,362.76 266.80,358.23 267.72,356.00
             268.66,353.70 269.65,351.56 269.12,349.00
             268.18,344.51 261.43,338.21 260.87,334.00
             260.33,329.86 265.38,324.77 268.04,322.00
             270.98,318.93 279.76,309.95 284.00,310.08
             288.15,310.20 295.34,317.17 299.00,318.35
             302.42,319.46 309.85,316.23 312.95,314.47
             322.10,309.27 315.40,296.62 324.11,292.56 Z
           M 355.00,455.00
           C 355.00,455.00 376.00,447.66 376.00,447.66
             380.70,447.61 386.65,454.62 391.00,455.76
             392.14,456.07 392.86,456.13 394.00,455.76
             397.16,454.71 408.08,444.37 409.01,441.00
             410.34,436.21 403.27,429.71 401.74,425.00
             400.63,421.56 405.60,408.52 407.56,405.13
             411.49,398.32 423.62,401.67 426.83,397.44
             428.05,395.83 427.97,392.94 428.00,391.00
             428.05,386.90 428.90,376.56 425.49,374.01
             422.56,371.81 412.97,372.50 409.41,369.42
             407.02,367.34 403.68,357.49 402.25,354.00
             398.11,343.89 408.65,341.61 409.04,334.00
             409.24,330.06 400.14,321.62 397.00,319.32
             389.74,314.00 384.62,323.69 378.00,325.34
             374.74,326.15 364.55,320.96 361.00,319.38
             350.46,314.68 355.59,304.61 351.07,299.60
             348.79,297.07 337.60,297.99 334.00,298.00
             332.34,298.00 328.86,297.86 327.43,298.57
             323.29,300.64 324.44,312.73 321.26,316.70
             319.85,318.47 305.06,324.72 302.28,325.49
             296.00,327.24 288.56,316.03 283.00,317.44
             280.32,318.12 270.08,328.42 268.70,331.00
             265.74,336.57 274.15,342.83 275.81,348.00
             277.08,351.93 273.32,358.13 271.81,362.00
             270.63,365.04 269.81,368.88 266.78,370.57
             261.81,373.34 251.42,370.40 249.22,377.06
             249.02,378.43 249.02,380.55 249.22,382.00
             248.95,386.00 247.90,396.35 251.43,398.71
             254.78,400.95 264.37,399.91 267.59,402.60
             269.60,404.29 275.12,417.69 276.20,420.83
             278.85,428.49 266.59,434.30 267.96,441.00
             268.71,444.62 278.74,453.63 282.00,455.36
             289.05,459.12 294.56,446.62 302.00,447.77
             304.88,448.21 320.41,455.09 321.84,457.27
             324.46,461.26 323.45,472.44 327.43,474.43
             328.75,475.08 331.50,474.99 333.00,475.00
             336.37,475.02 347.29,475.55 349.69,473.98
             352.97,471.82 354.67,459.00 355.00,455.00 Z
           M 589.06,299.60
           C 584.69,302.28 583.25,308.09 588.15,310.98
             590.20,312.19 593.65,312.00 596.00,312.00
             596.00,312.00 650.00,312.00 650.00,312.00
             654.91,311.91 659.92,310.23 658.53,304.04
             657.45,299.25 653.01,299.06 649.00,299.00
             649.00,299.00 611.00,299.00 611.00,299.00
             605.18,299.00 594.25,298.46 589.06,299.60 Z
           M 590.04,318.60
           C 584.91,321.60 583.04,327.68 589.06,330.98
             591.27,332.19 594.52,332.00 597.00,332.00
             597.00,332.00 646.00,332.00 646.00,332.00
             648.68,332.00 652.44,332.22 654.83,330.83
             659.28,328.16 659.49,321.69 654.83,319.02
             652.76,317.80 649.40,318.00 647.00,318.00
             647.00,318.00 610.00,318.00 610.00,318.00
             604.38,318.00 595.20,317.48 590.04,318.60 Z
           M 647.00,338.00
           C 647.00,338.00 596.00,338.00 596.00,338.00
             603.47,361.43 640.12,361.34 647.00,338.00 Z
           M 333.00,338.23
           C 335.58,338.11 337.38,337.94 340.00,338.23
             346.91,338.31 353.83,340.18 360.00,343.27
             398.35,362.44 395.03,418.81 354.00,432.25
             350.24,433.48 340.85,434.97 337.00,434.68
             323.76,433.68 311.36,429.11 302.30,418.96
             284.07,398.54 286.58,364.29 309.00,347.93
             316.47,342.48 324.00,339.91 333.00,338.23 Z
           M 335.00,344.29
           C 313.44,347.58 296.53,362.10 296.01,385.00
             295.53,406.11 310.06,424.40 331.00,428.08
             334.83,428.75 337.06,429.18 341.00,428.71
             354.16,427.16 365.29,422.07 373.21,411.00
             393.96,382.02 370.53,340.99 335.00,344.29 Z
           M 160.58,366.08
           C 165.08,364.89 164.93,368.51 164.96,372.00
             164.96,372.00 164.96,388.00 164.96,388.00
             164.96,388.00 164.96,446.00 164.96,446.00
             164.96,446.00 164.96,459.94 164.96,459.94
             164.54,461.77 163.55,464.03 161.26,462.83
             158.59,461.44 159.01,456.54 159.00,454.00
             159.00,454.00 159.00,390.00 159.00,390.00
             159.00,384.54 157.71,370.00 160.58,366.08 Z
           M 620.56,384.07
           C 623.91,383.12 624.52,384.83 624.96,388.02
             624.96,388.02 624.96,404.00 624.96,404.00
             624.96,404.00 624.96,465.00 624.96,465.00
             624.98,467.38 625.27,472.52 621.99,472.97
             621.20,473.08 620.51,472.78 619.99,472.21
             618.75,470.84 619.00,466.81 619.00,465.00
             619.00,465.00 619.00,407.00 619.00,407.00
             619.00,401.63 617.74,388.02 620.56,384.07 Z
           M 563.00,476.00
           C 563.00,476.00 563.00,439.00 563.00,439.00
             563.00,424.84 564.33,414.47 553.82,403.04
             541.79,389.96 529.01,391.00 513.00,391.00
             513.00,391.00 478.00,391.00 478.00,391.00
             478.00,391.00 461.00,391.00 461.00,391.00
             459.06,390.96 453.30,390.85 455.17,387.26
             456.56,384.59 461.46,385.01 464.00,385.00
             464.00,385.00 510.00,385.00 510.00,385.00
             527.07,385.00 542.36,383.42 556.00,396.09
             559.44,399.29 562.50,402.78 564.62,407.00
             569.90,417.46 569.00,425.84 569.00,437.00
             569.00,437.00 569.00,476.00 569.00,476.00
             572.21,473.68 573.52,472.28 576.28,469.58
             576.28,469.58 580.01,466.02 580.01,466.02
             586.86,459.95 588.16,464.15 586.92,467.02
             585.77,469.67 574.70,480.49 572.00,482.94
             570.00,484.76 567.93,486.84 565.00,485.83
             563.17,485.20 560.50,482.49 559.00,481.16
             555.66,478.21 545.68,470.03 544.74,466.06
             544.18,463.68 545.73,462.30 548.06,462.88
             550.70,463.54 554.07,467.10 556.00,469.00
             556.00,469.00 563.00,476.00 563.00,476.00 Z
           M 289.00,630.00
           C 289.00,630.00 271.00,633.57 271.00,633.57
             268.36,634.01 264.61,634.10 262.51,635.85
             260.28,637.72 258.09,645.05 256.94,648.00
             255.70,651.17 253.43,654.53 254.44,658.00
             257.23,667.71 272.47,675.52 263.86,687.00
             259.47,692.86 251.63,700.69 246.00,705.41
             243.53,707.48 240.36,710.47 237.00,710.64
             231.37,710.94 220.19,700.11 215.00,698.49
             211.35,697.34 198.93,703.28 195.02,705.10
             185.96,709.34 189.98,725.90 184.86,732.52
             183.06,734.85 179.69,734.88 177.00,735.27
             170.05,736.27 163.01,736.08 156.00,736.00
             152.74,735.96 143.00,735.28 140.72,733.18
             137.08,729.80 136.40,711.50 133.15,707.42
             131.41,705.24 118.32,700.08 115.00,698.80
             103.88,694.51 95.04,715.86 84.00,709.44
             78.54,706.26 67.03,694.14 62.75,689.00
             60.71,686.54 57.64,683.42 57.83,680.00
             58.11,674.85 69.37,661.77 70.34,658.00
             71.15,654.83 66.12,643.56 64.61,640.02
             60.33,629.91 43.92,634.37 37.43,629.83
             34.39,627.70 34.21,621.40 33.98,618.00
             33.98,618.00 33.04,609.00 33.04,609.00
             32.89,605.42 34.18,590.09 35.34,587.12
             37.80,580.80 54.00,582.30 59.95,579.49
             63.97,577.59 68.37,565.47 70.02,561.00
             73.46,551.69 60.41,544.56 58.44,536.00
             57.44,531.65 59.88,528.21 62.47,525.00
             66.41,520.11 78.74,507.98 84.00,504.88
             94.09,498.93 104.28,515.76 111.42,516.56
             113.03,516.73 114.61,515.88 116.01,515.23
             119.11,513.79 131.90,508.34 133.42,506.59
             136.54,502.99 137.38,486.90 139.43,483.14
             140.90,480.45 143.18,479.94 146.00,479.44
             146.00,479.44 166.00,478.09 166.00,478.09
             170.39,478.34 182.30,478.94 184.86,482.43
             189.42,488.62 185.80,503.94 194.05,508.21
             194.05,508.21 207.99,514.48 207.99,514.48
             209.99,515.44 211.98,516.99 214.28,516.38
             218.85,515.16 230.66,503.55 236.00,503.37
             239.73,503.24 243.41,506.74 246.00,509.07
             251.80,514.30 261.11,522.42 265.11,529.00
             270.97,538.64 256.13,547.45 253.83,556.00
             252.97,559.19 258.47,570.38 259.97,574.00
             260.62,575.58 261.20,577.22 262.51,578.42
             266.44,582.03 283.46,581.48 287.47,585.01
             290.57,587.74 290.99,598.89 291.00,603.00
             291.00,603.00 291.00,614.00 291.00,614.00
             291.00,614.00 289.00,630.00 289.00,630.00 Z
           M 284.00,589.00
           C 278.37,588.25 260.94,586.46 257.51,582.70
             255.85,580.88 252.35,570.21 250.99,567.00
             249.68,563.91 246.40,559.13 246.92,556.00
             248.27,547.84 264.17,538.15 258.55,530.00
             257.07,527.85 245.42,516.31 243.00,514.17
             240.84,512.27 238.13,509.73 235.00,510.43
             228.36,511.94 218.91,525.19 211.00,522.60
             211.00,522.60 195.00,515.34 195.00,515.34
             191.50,514.12 187.28,513.36 185.31,509.87
             182.95,505.68 182.47,489.54 179.42,486.60
             177.24,484.50 172.86,485.11 170.00,484.91
             170.00,484.91 164.00,484.18 164.00,484.18
             164.00,484.18 144.00,486.00 144.00,486.00
             143.61,490.78 141.30,508.48 138.44,511.49
             137.03,512.98 124.86,517.74 122.00,519.00
             119.10,520.28 113.88,523.63 111.00,523.27
             105.47,522.57 93.52,509.40 88.00,510.27
             86.11,510.57 84.42,512.00 83.00,513.19
             78.28,517.13 74.04,521.45 69.93,526.00
             68.26,527.84 65.47,530.52 64.96,533.00
             64.36,535.95 66.73,538.73 68.28,541.00
             68.28,541.00 77.43,554.72 77.43,554.72
             78.44,557.53 76.84,560.47 75.69,563.00
             75.69,563.00 68.21,580.94 68.21,580.94
             65.16,586.85 54.95,586.75 49.00,587.75
             46.24,588.22 41.97,588.43 40.60,591.30
             38.43,595.84 39.28,611.63 39.83,617.00
             40.18,620.36 39.55,623.55 43.15,625.28
             47.19,627.22 63.18,627.69 66.58,630.59
             68.54,632.26 74.72,649.28 76.20,653.00
             79.14,660.40 72.19,667.15 68.33,673.00
             66.20,676.24 63.66,679.08 65.79,683.00
             67.16,685.51 77.33,695.40 80.00,697.98
             81.81,699.73 84.52,702.50 87.00,703.13
             94.59,705.05 105.24,688.53 114.00,691.40
             114.00,691.40 129.00,698.39 129.00,698.39
             132.16,699.63 136.12,700.42 138.27,703.22
             140.38,705.99 141.99,717.03 142.80,721.00
             143.25,723.18 143.68,726.56 145.56,727.98
             147.51,729.46 155.38,729.97 158.00,730.00
             162.55,730.05 177.15,730.70 180.07,727.41
             182.68,724.44 183.24,707.46 186.58,703.22
             188.76,700.46 192.82,699.43 196.00,698.19
             196.00,698.19 211.00,691.46 211.00,691.46
             221.78,688.26 230.38,709.84 242.00,700.66
             242.00,700.66 255.98,687.00 255.98,687.00
             257.82,685.07 260.19,682.91 260.04,680.00
             259.83,675.87 249.40,663.28 247.69,659.28
             246.48,656.48 247.62,654.58 248.77,652.00
             250.87,647.29 255.57,632.15 259.13,630.01
             259.13,630.01 284.00,625.00 284.00,625.00
             285.16,610.65 285.16,603.35 284.00,589.00 Z
           M 421.00,508.00
           C 421.00,508.00 421.00,494.00 421.00,494.00
             421.00,491.81 420.79,488.16 422.02,486.31
             423.93,483.45 435.46,483.05 439.00,483.00
             439.00,483.00 454.00,484.04 454.00,484.04
             454.00,484.04 463.00,484.04 463.00,484.04
             487.30,486.48 514.46,492.63 536.00,504.44
             536.00,504.44 555.00,516.04 555.00,516.04
             557.06,517.48 563.30,522.64 565.00,523.18
             568.40,524.25 571.50,520.78 574.00,518.90
             580.95,513.67 588.23,509.13 596.00,505.25
             619.59,493.45 649.41,484.04 676.00,484.14
             676.00,484.14 703.00,484.14 703.00,484.14
             704.42,484.02 706.55,484.02 707.89,484.14
             715.79,486.85 708.79,500.79 712.02,505.69
             714.21,509.00 722.36,507.95 726.00,508.00
             727.63,508.03 730.25,508.00 731.71,508.74
             736.66,511.24 731.95,525.07 735.02,529.69
             737.19,532.94 744.46,531.94 748.00,532.00
             750.52,532.05 753.40,531.95 754.98,534.31
             756.21,536.16 756.00,539.81 756.00,542.00
             756.00,542.00 756.00,569.00 756.00,569.00
             756.00,569.00 756.00,689.00 756.00,689.00
             756.00,689.00 756.00,739.00 756.00,739.00
             755.93,748.76 752.84,748.99 744.00,749.01
             744.00,749.01 616.00,749.01 616.00,749.01
             612.10,748.99 605.08,747.88 602.00,749.01
             596.09,751.19 589.48,759.32 584.00,761.28
             580.56,762.50 560.03,762.06 555.00,762.00
             542.54,761.83 542.16,754.32 533.00,750.14
             530.07,748.80 527.13,749.01 524.00,749.00
             524.00,749.00 468.00,749.00 468.00,749.00
             468.00,749.00 389.00,749.00 389.00,749.00
             378.85,748.95 376.02,748.53 376.00,738.00
             376.00,738.00 376.00,583.00 376.00,583.00
             376.00,583.00 376.00,541.00 376.00,541.00
             376.03,534.37 375.75,532.13 383.00,532.00
             383.00,532.00 397.00,532.00 397.00,532.00
             397.00,532.00 397.00,516.00 397.00,516.00
             397.00,516.00 398.60,509.60 398.60,509.60
             398.60,509.60 406.00,508.00 406.00,508.00
             406.00,508.00 421.00,508.00 421.00,508.00 Z
           M 563.00,729.00
           C 563.00,729.00 563.00,698.00 563.00,698.00
             563.00,698.00 564.00,681.00 564.00,681.00
             564.00,681.00 564.00,539.00 564.00,539.00
             563.99,536.40 564.19,533.38 562.98,531.01
             560.52,526.21 547.04,517.90 542.00,514.81
             516.93,499.45 491.74,493.69 463.00,490.10
             463.00,490.10 454.00,490.10 454.00,490.10
             454.00,490.10 436.00,489.00 436.00,489.00
             434.01,489.00 430.19,488.77 428.60,490.02
             426.62,491.59 427.00,495.70 427.00,498.00
             427.00,498.00 427.00,693.00 427.00,693.00
             427.00,693.00 440.00,692.00 440.00,692.00
             440.00,692.00 460.00,692.00 460.00,692.00
             477.36,692.03 504.94,698.24 521.00,704.86
             528.07,707.78 538.65,712.66 545.00,716.69
             545.00,716.69 563.00,729.00 563.00,729.00 Z
           M 569.00,730.00
           C 569.00,730.00 594.00,713.31 594.00,713.31
             615.59,701.60 647.34,692.29 672.00,691.99
             672.00,691.99 692.00,691.99 692.00,691.99
             694.72,692.01 702.71,693.24 704.40,691.99
             706.37,690.48 706.00,686.24 706.00,684.00
             706.00,684.00 706.00,535.00 706.00,535.00
             706.00,535.00 706.00,500.00 706.00,500.00
             706.00,497.24 706.35,492.82 704.26,490.74
             701.83,488.30 693.45,488.96 690.00,489.00
             690.00,489.00 680.00,489.91 680.00,489.91
             647.95,492.10 622.41,496.91 594.00,513.15
             588.63,516.22 572.65,526.19 570.02,531.09
             568.80,533.36 569.01,536.47 569.00,539.00
             569.00,539.00 569.00,730.00 569.00,730.00 Z
           M 421.00,514.00
           C 417.61,514.00 406.00,513.10 404.02,515.60
             402.77,517.19 403.00,521.01 403.00,523.00
             403.00,523.00 403.00,673.00 403.00,673.00
             403.00,673.00 403.00,707.00 403.00,707.00
             403.00,709.77 402.50,718.48 404.02,720.40
             405.59,722.38 409.70,722.00 412.00,722.06
             412.00,722.06 507.00,722.06 507.00,722.06
             507.00,722.06 531.00,722.06 531.00,722.06
             535.59,722.63 539.55,724.63 544.00,723.00
             521.85,708.58 486.49,698.04 460.00,698.00
             460.00,698.00 441.00,698.00 441.00,698.00
             435.31,698.07 424.27,701.57 421.60,694.94
             420.89,693.18 421.00,689.95 421.00,688.00
             421.00,688.00 421.00,514.00 421.00,514.00 Z
           M 729.00,722.00
           C 729.00,722.00 729.00,564.00 729.00,564.00
             729.00,564.00 729.00,528.00 729.00,528.00
             729.00,525.06 729.73,516.87 727.40,515.02
             725.40,513.44 715.00,514.00 711.94,514.00
             711.94,514.00 711.94,686.00 711.94,686.00
             711.94,686.00 711.94,692.00 711.94,692.00
             710.33,702.67 698.58,698.01 691.00,698.00
             662.62,697.96 640.89,699.55 614.00,710.20
             607.13,712.92 593.85,718.82 589.00,724.00
             589.00,724.00 607.00,722.00 607.00,722.00
             607.00,722.00 648.00,722.00 648.00,722.00
             648.00,722.00 729.00,722.00 729.00,722.00 Z
           M 450.84,526.99
           C 455.70,524.79 467.53,526.25 473.00,526.99
             490.48,529.39 504.44,532.42 521.00,538.81
             524.96,540.34 534.97,544.13 537.84,546.63
             541.35,549.69 540.46,553.29 535.96,552.32
             535.96,552.32 510.00,541.42 510.00,541.42
             500.09,537.73 479.69,533.57 469.00,532.28
             469.00,532.28 455.02,531.27 455.02,531.27
             452.06,530.79 449.02,530.63 450.84,526.99 Z
           M 665.00,526.51
           C 667.94,526.07 678.32,525.45 680.68,526.51
             681.63,527.05 682.38,527.79 682.39,528.92
             682.42,532.36 676.22,531.99 674.00,532.00
             655.73,532.09 633.03,537.48 616.00,544.06
             616.00,544.06 602.00,550.24 602.00,550.24
             600.30,551.06 597.24,552.75 595.32,552.19
             592.43,551.36 593.77,548.35 595.32,546.90
             598.03,544.36 606.30,540.93 610.00,539.45
             629.96,531.47 644.18,529.39 665.00,526.51 Z
           M 397.00,538.00
           C 397.00,538.00 382.00,538.00 382.00,538.00
             382.00,538.00 382.00,743.00 382.00,743.00
             382.00,743.00 526.00,743.00 526.00,743.00
             529.15,743.01 532.03,742.82 535.00,744.09
             540.52,746.44 546.65,753.39 551.00,755.15
             554.50,756.56 571.21,756.06 576.00,756.00
             587.06,755.84 587.96,749.19 597.00,744.57
             600.52,742.77 603.19,743.01 607.00,743.00
             607.00,743.00 658.00,743.00 658.00,743.00
             658.00,743.00 728.00,743.00 728.00,743.00
             728.00,743.00 743.00,743.00 743.00,743.00
             744.95,742.96 747.63,743.10 748.98,741.40
             750.23,739.81 750.00,735.99 750.00,734.00
             750.00,734.00 750.00,538.00 750.00,538.00
             750.00,538.00 734.00,538.00 734.00,538.00
             734.00,538.00 734.00,684.00 734.00,684.00
             734.00,684.00 734.00,718.00 734.00,718.00
             733.99,720.53 734.34,724.36 732.40,726.26
             730.29,728.32 725.77,728.00 723.00,728.00
             723.00,728.00 607.00,728.00 607.00,728.00
             598.84,728.01 590.60,729.38 583.00,732.45
             578.38,734.32 571.76,738.57 567.00,738.64
             561.35,738.73 555.18,734.49 550.00,732.46
             542.82,729.65 533.69,728.01 526.00,728.00
             526.00,728.00 476.00,728.00 476.00,728.00
             476.00,728.00 409.00,728.00 409.00,728.00
             397.73,727.98 397.02,725.97 397.00,715.00
             397.00,715.00 397.00,538.00 397.00,538.00 Z
           M 154.00,540.43
           C 179.49,537.28 204.26,548.30 218.30,570.00
             239.39,602.57 228.79,651.20 192.00,667.56
             180.05,672.88 172.93,674.15 160.00,674.00
             111.80,673.43 82.56,620.40 101.90,578.00
             111.71,556.49 131.29,544.15 154.00,540.43 Z
           M 155.00,546.29
           C 125.07,551.24 102.05,573.73 102.00,605.00
             101.98,614.64 102.75,621.92 106.45,631.00
             114.66,651.16 136.95,667.74 159.00,668.00
             171.25,668.14 177.59,667.66 189.00,662.22
             229.32,642.96 234.85,587.53 201.00,559.32
             187.78,548.31 171.82,544.69 155.00,546.29 Z
           M 451.62,557.01
           C 456.73,554.83 462.63,556.74 468.00,557.01
             483.76,557.76 506.32,563.58 521.00,569.45
             524.60,570.89 538.25,576.24 539.60,579.37
             540.50,581.46 539.05,583.22 536.89,583.30
             534.63,583.38 529.21,580.35 527.00,579.25
             511.82,571.66 484.94,563.62 468.00,563.01
             468.00,563.01 459.00,562.17 459.00,562.17
             455.76,561.85 448.12,562.53 451.62,557.01 Z
           M 671.00,556.51
           C 673.55,556.11 678.50,555.56 680.84,556.51
             682.63,557.39 683.96,559.43 682.21,561.01
             680.91,562.19 677.68,561.95 676.00,562.04
             676.00,562.04 662.00,563.28 662.00,563.28
             648.48,564.91 628.52,569.70 616.00,574.86
             616.00,574.86 601.00,581.74 601.00,581.74
             599.36,582.50 596.36,584.05 594.62,582.88
             592.15,581.21 594.58,578.18 596.15,576.96
             598.44,575.19 606.89,571.73 610.00,570.42
             625.88,563.76 643.90,559.34 661.00,557.28
             661.00,557.28 671.00,556.51 671.00,556.51 Z
           M 450.00,587.00
           C 473.74,587.00 496.78,590.41 519.00,599.20
             523.17,600.85 538.05,606.42 539.60,610.16
             540.77,612.96 538.28,613.90 535.96,613.56
             533.24,613.17 525.21,608.82 522.00,607.42
             503.29,599.29 485.26,595.10 465.00,593.17
             465.00,593.17 450.00,592.00 450.00,592.00
             450.00,592.00 450.00,587.00 450.00,587.00 Z
           M 683.00,592.00
           C 683.00,592.00 673.00,592.91 673.00,592.91
             653.35,594.26 636.62,597.82 618.00,604.34
             618.00,604.34 601.00,611.74 601.00,611.74
             599.34,612.50 596.38,614.05 594.62,612.88
             592.15,611.24 594.61,608.29 596.15,607.13
             598.61,605.26 610.58,600.23 614.00,598.95
             637.48,590.17 658.05,587.00 683.00,587.00
             683.00,587.00 683.00,592.00 683.00,592.00 Z
           M 312.33,606.02
           C 316.59,604.39 321.48,605.00 326.00,605.00
             326.00,605.00 350.00,605.00 350.00,605.00
             352.00,605.03 359.86,605.40 357.60,609.47
             356.53,611.40 351.92,611.00 350.00,611.00
             350.00,611.00 317.00,611.00 317.00,611.00
             313.44,610.93 308.44,610.53 312.33,606.02 Z
           M 451.62,618.00
           C 456.75,615.82 462.62,617.61 468.00,618.00
             485.89,619.19 503.27,623.72 520.00,630.06
             523.55,631.41 534.20,635.97 536.93,637.96
             538.46,639.09 541.38,642.08 538.51,643.62
             536.62,644.63 533.72,643.04 532.00,642.25
             532.00,642.25 519.00,636.45 519.00,636.45
             501.81,629.51 483.45,625.26 465.00,623.91
             465.00,623.91 459.00,623.17 459.00,623.17
             455.76,622.85 448.12,623.53 451.62,618.00 Z
           M 593.00,644.00
           C 594.28,636.26 602.61,634.57 609.00,631.70
             623.45,625.18 645.17,620.21 661.00,618.28
             661.00,618.28 677.98,617.06 677.98,617.06
             679.94,617.23 683.15,617.97 682.26,620.74
             681.36,623.53 676.29,622.93 674.00,623.04
             674.00,623.04 650.00,626.20 650.00,626.20
             650.00,626.20 626.00,632.33 626.00,632.33
             626.00,632.33 612.00,637.43 612.00,637.43
             612.00,637.43 599.00,643.37 599.00,643.37
             596.87,643.97 595.16,643.95 593.00,644.00 Z
           M 450.00,648.00
           C 474.99,648.00 496.53,652.15 520.00,660.69
             523.45,661.95 534.15,666.50 536.89,668.35
             538.59,669.50 541.43,672.17 539.29,674.30
             537.64,675.96 534.72,674.51 533.00,673.73
             533.00,673.73 519.00,667.20 519.00,667.20
             500.30,659.80 486.70,657.28 467.00,654.72
             454.08,653.04 450.69,656.30 450.00,648.00 Z
           M 593.00,675.00
           C 593.14,673.33 593.07,671.88 594.02,670.39
             595.94,667.38 607.30,662.92 611.00,661.45
             626.55,655.28 655.40,648.20 672.00,648.00
             674.06,647.98 685.31,646.98 682.83,651.74
             681.43,654.44 667.46,654.75 664.00,655.07
             664.00,655.07 650.00,657.00 650.00,657.00
             650.00,657.00 626.00,663.00 626.00,663.00
             626.00,663.00 611.00,668.43 611.00,668.43
             611.00,668.43 598.00,674.37 598.00,674.37
             596.19,674.88 594.83,674.90 593.00,675.00 Z" />
</svg>
