<?xml version="1.0" encoding="UTF-8" standalone="no"?>
<!DOCTYPE svg PUBLIC "-//W3C//DTD SVG 20010904//EN"
              "http://www.w3.org/TR/2001/REC-SVG-20010904/DTD/svg10.dtd">

<svg xmlns="http://www.w3.org/2000/svg"
     width="100" height="100" fill="none" stroke="#7fa573" stroke-width="10"
     viewBox="0 0 1026 1026">
  <path  d="M 528.00,70.53
           C 528.00,70.53 567.00,70.00 567.00,70.00
             567.00,70.00 641.00,70.00 641.00,70.00
             641.00,70.00 871.00,70.00 871.00,70.00
             871.00,70.00 943.00,70.00 943.00,70.00
             961.97,70.03 971.97,82.74 972.00,101.00
             972.00,101.00 972.00,395.00 972.00,395.00
             972.00,395.00 972.00,455.00 972.00,455.00
             971.97,473.24 961.21,483.97 943.00,484.00
             943.00,484.00 607.00,484.00 607.00,484.00
             607.00,484.00 536.00,484.00 536.00,484.00
             517.82,483.97 506.03,473.57 506.00,455.00
             506.00,455.00 506.00,164.00 506.00,164.00
             506.00,164.00 506.00,115.00 506.00,115.00
             506.00,99.46 503.47,84.10 519.00,74.47
             522.07,72.56 524.57,71.54 528.00,70.53 Z
           M 970.01,147.00
           C 970.01,147.00 970.01,115.00 970.01,115.00
             970.01,115.00 970.81,105.83 970.81,105.83
             970.81,105.83 970.17,99.00 970.17,99.00
             970.17,99.00 969.47,91.00 969.47,91.00
             967.33,81.65 960.09,74.88 951.00,72.30
             946.68,71.07 943.41,71.01 939.00,71.00
             939.00,71.00 609.00,71.00 609.00,71.00
             609.00,71.00 538.00,71.00 538.00,71.00
             529.31,71.11 520.34,73.39 514.33,80.09
             506.42,88.90 506.90,102.82 507.00,114.00
             507.00,114.00 507.58,127.96 507.58,127.96
             507.58,127.96 507.00,147.00 507.00,147.00
             507.00,147.00 970.01,147.00 970.01,147.00 Z
           M 551.00,100.69
           C 564.67,99.00 566.92,116.94 555.00,119.57
             548.11,121.09 542.81,114.22 543.49,109.00
             544.08,104.53 547.17,102.27 551.00,100.69 Z
           M 591.01,100.71
           C 605.01,98.27 607.04,117.75 595.00,119.62
             584.59,121.23 578.38,106.59 591.01,100.71 Z
           M 632.00,100.69
           C 645.14,99.07 647.92,115.77 636.98,119.29
             631.11,121.17 624.39,116.21 624.54,110.00
             624.65,105.08 627.84,102.41 632.00,100.69 Z
           M 551.02,102.45
           C 540.32,106.82 545.76,119.86 555.00,117.68
             563.40,115.70 563.66,101.21 551.02,102.45 Z
           M 591.04,102.43
           C 582.64,106.07 583.80,116.51 592.00,117.76
             601.59,119.22 604.75,107.54 597.79,103.31
             595.43,101.88 593.60,102.12 591.04,102.43 Z
           M 632.02,102.43
           C 621.20,106.91 626.95,119.69 636.00,117.67
             644.35,115.81 644.71,100.93 632.02,102.43 Z
           M 970.00,149.00
           C 970.00,149.00 507.11,149.00 507.11,149.00
             507.11,149.00 507.11,183.00 507.11,183.00
             507.11,183.00 508.00,209.00 508.00,209.00
             508.00,209.00 508.00,248.00 508.00,248.00
             508.00,248.00 507.00,269.00 507.00,269.00
             507.00,269.00 507.00,295.00 507.00,295.00
             507.00,295.00 507.60,308.00 507.60,308.00
             507.60,308.00 507.08,315.72 507.08,315.72
             507.08,315.72 507.08,368.00 507.08,368.00
             507.08,368.00 508.00,398.00 508.00,398.00
             508.00,398.00 507.00,422.00 507.00,422.00
             507.00,422.00 507.99,436.00 507.99,436.00
             507.77,449.14 504.34,463.06 514.18,473.98
             517.09,477.21 519.84,479.43 524.00,480.78
             527.89,482.04 531.00,481.99 535.00,482.00
             535.00,482.00 870.00,482.00 870.00,482.00
             870.00,482.00 945.00,482.00 945.00,482.00
             964.69,481.97 970.97,467.35 971.00,450.00
             971.00,450.00 971.00,411.00 971.00,411.00
             971.00,411.00 971.00,286.00 971.00,286.00
             971.00,286.00 971.00,257.00 971.00,257.00
             971.00,257.00 970.03,243.00 970.03,243.00
             970.03,243.00 970.67,232.00 970.67,232.00
             970.67,232.00 970.67,226.00 970.67,226.00
             970.67,226.00 970.00,208.00 970.00,208.00
             970.00,208.00 970.00,180.00 970.00,180.00
             970.00,180.00 970.00,169.00 970.00,169.00
             970.05,158.59 971.57,160.93 970.00,149.00 Z
           M 438.00,350.00
           C 436.94,356.88 433.52,365.68 430.52,372.00
             429.43,374.28 426.15,379.21 426.28,381.42
             426.42,383.64 429.70,388.05 431.00,390.00
             433.38,393.57 442.35,406.12 443.30,409.00
             445.25,414.92 441.83,418.09 438.00,422.00
             438.00,422.00 419.00,441.00 419.00,441.00
             416.45,443.53 412.76,447.74 409.00,448.09
             405.64,448.41 401.68,445.46 399.00,443.66
             395.36,441.20 382.21,431.44 379.00,430.67
             375.70,429.87 372.76,432.21 370.00,433.69
             370.00,433.69 348.14,443.56 348.14,443.56
             344.71,445.59 344.47,449.40 343.65,453.00
             342.43,458.40 340.20,474.19 337.30,477.77
             334.76,480.92 331.70,480.95 328.00,481.00
             328.00,481.00 297.00,481.00 297.00,481.00
             294.23,481.00 290.57,481.21 288.11,479.83
             284.40,477.74 283.99,473.75 283.12,470.00
             283.12,470.00 277.69,446.21 277.69,446.21
             275.69,442.83 271.41,441.92 268.00,440.55
             268.00,440.55 248.00,430.84 248.00,430.84
             243.65,429.25 240.47,432.36 237.00,434.67
             233.08,437.28 219.30,447.31 216.00,448.04
             211.36,449.07 207.97,444.92 205.00,442.00
             205.00,442.00 180.60,417.00 180.60,417.00
             177.52,412.11 179.92,408.24 182.67,404.00
             184.98,400.45 196.21,384.91 196.68,382.42
             196.99,380.75 196.36,379.45 195.70,377.96
             195.70,377.96 187.69,360.00 187.69,360.00
             186.57,356.84 185.67,352.18 182.73,350.30
             180.19,348.67 163.09,345.43 159.00,344.60
             155.37,343.87 151.21,343.42 149.17,339.87
             147.79,337.46 148.00,333.73 148.00,331.00
             148.00,331.00 148.00,301.00 148.00,301.00
             148.00,298.27 147.79,294.54 149.17,292.13
             151.19,288.63 155.39,288.08 159.00,287.42
             163.06,286.68 179.25,284.14 181.89,282.69
             183.63,281.73 184.52,280.67 185.43,278.95
             185.43,278.95 193.26,259.00 193.26,259.00
             194.68,256.05 197.18,252.36 196.34,249.00
             194.77,242.72 178.87,226.49 179.25,219.00
             179.45,215.05 183.51,210.78 186.09,208.00
             189.74,204.07 206.53,187.02 210.00,184.89
             215.39,181.58 218.46,184.17 223.00,187.28
             226.64,189.79 240.91,200.25 244.00,200.95
             245.94,201.39 247.24,200.92 249.00,200.16
             249.00,200.16 268.00,191.05 268.00,191.05
             271.28,189.85 275.90,188.91 277.83,185.78
             279.25,183.47 282.10,165.87 282.75,162.00
             283.28,158.86 283.67,154.75 286.30,152.60
             288.25,151.01 290.63,151.05 293.00,151.00
             293.00,151.00 328.00,151.00 328.00,151.00
             330.63,151.00 334.49,150.78 336.77,152.17
             340.10,154.21 340.04,158.56 340.59,162.00
             341.27,166.21 343.65,183.07 345.31,185.72
             347.11,188.60 351.90,189.40 355.00,190.61
             355.00,190.61 375.00,200.16 375.00,200.16
             380.35,202.22 382.78,199.41 387.00,196.42
             390.42,194.01 403.04,184.88 406.00,183.85
             410.71,182.21 413.76,185.00 417.00,188.04
             417.00,188.04 429.09,200.72 429.09,200.72
             433.29,204.69 440.66,210.69 443.01,216.00
             444.99,220.48 442.51,224.29 440.14,228.00
             437.13,232.70 426.55,246.12 426.66,251.00
             426.71,253.38 428.68,256.84 429.75,259.00
             432.00,263.54 433.90,268.18 435.48,273.00
             436.76,276.89 436.93,280.52 441.06,282.49
             441.06,282.49 463.00,287.20 463.00,287.20
             466.37,287.87 470.93,288.29 473.07,291.28
             475.14,294.18 474.99,299.54 475.00,303.00
             475.00,303.00 475.00,331.00 475.00,331.00
             474.96,333.97 474.85,338.23 473.07,340.72
             470.98,343.65 466.31,344.31 463.00,345.00
             463.00,345.00 438.00,350.00 438.00,350.00 Z
           M 290.04,152.21
           C 284.70,154.78 285.13,157.73 284.25,163.00
             284.25,163.00 279.57,185.95 279.57,185.95
             278.65,187.78 277.71,188.70 275.94,189.73
             275.94,189.73 266.00,193.45 266.00,193.45
             266.00,193.45 256.00,198.25 256.00,198.25
             253.35,199.57 247.78,202.77 245.00,202.72
             242.04,202.67 238.38,199.94 236.00,198.28
             232.38,195.75 219.33,185.73 216.00,184.99
             212.10,184.11 208.70,188.27 206.17,190.72
             206.17,190.72 190.00,207.00 190.00,207.00
             187.66,209.34 182.47,214.17 181.22,217.00
             179.37,221.17 182.33,224.72 184.59,228.00
             187.39,232.06 197.10,245.21 198.08,249.00
             199.00,252.56 196.78,255.93 195.25,259.00
             195.25,259.00 189.44,272.00 189.44,272.00
             189.44,272.00 186.87,279.96 186.87,279.96
             186.11,281.67 185.40,282.82 183.78,283.84
             181.20,285.47 164.27,287.96 160.00,288.80
             153.03,290.17 150.15,290.19 150.00,298.00
             150.00,298.00 150.00,332.00 150.00,332.00
             150.00,334.18 149.78,337.74 151.02,339.57
             152.71,342.07 157.24,342.61 160.00,343.21
             160.00,343.21 182.94,348.51 182.94,348.51
             184.40,349.21 185.15,349.80 186.07,351.14
             186.07,351.14 194.27,372.00 194.27,372.00
             195.44,374.34 198.21,378.57 198.31,381.00
             198.44,383.97 195.61,387.58 194.00,390.00
             191.42,393.88 181.45,407.63 180.71,411.00
             179.47,416.56 188.38,423.38 192.00,427.00
             192.00,427.00 207.00,441.98 207.00,441.98
             209.21,444.10 211.66,446.75 215.00,446.44
             218.86,446.08 233.05,435.47 237.00,432.72
             240.55,430.25 243.68,427.06 248.09,428.99
             248.09,428.99 267.00,438.40 267.00,438.40
             270.56,439.84 275.92,441.18 278.28,444.22
             280.85,447.55 283.14,463.00 284.21,468.00
             285.78,475.38 285.65,478.84 294.00,479.00
             294.00,479.00 327.00,479.00 327.00,479.00
             329.28,479.00 332.77,479.21 334.72,477.98
             337.61,476.16 338.35,471.12 339.00,468.00
             339.85,463.89 342.63,447.67 344.16,445.13
             346.23,441.70 350.50,440.90 354.00,439.58
             364.14,435.74 372.67,429.90 375.00,429.03
             379.11,427.50 381.71,429.78 385.00,432.03
             385.00,432.03 401.00,443.25 401.00,443.25
             403.58,444.96 406.76,447.07 410.00,446.16
             413.02,445.31 416.77,441.22 419.00,439.00
             419.00,439.00 434.00,424.00 434.00,424.00
             436.18,421.82 440.59,417.69 441.78,415.00
             443.57,410.97 440.78,407.28 438.66,404.00
             436.33,400.41 425.70,385.66 425.06,383.00
             424.30,379.82 426.84,375.81 428.25,373.00
             428.25,373.00 433.56,361.00 433.56,361.00
             433.56,361.00 436.13,353.04 436.13,353.04
             438.35,348.04 442.16,347.79 447.00,346.80
             447.00,346.80 463.00,343.42 463.00,343.42
             465.56,342.85 469.41,342.29 471.26,340.30
             473.07,338.36 472.96,335.47 473.00,333.00
             473.00,333.00 473.00,301.00 473.00,301.00
             473.00,298.46 473.22,294.47 471.83,292.30
             470.10,289.63 465.90,289.16 463.00,288.61
             463.00,288.61 439.22,283.69 439.22,283.69
             435.89,281.72 435.32,277.41 434.28,274.00
             434.28,274.00 425.17,252.00 425.17,252.00
             424.46,248.32 426.82,244.96 428.69,242.00
             431.38,237.77 441.26,224.50 442.04,221.00
             442.99,216.76 439.68,213.60 437.03,210.75
             437.03,210.75 421.00,194.66 421.00,194.66
             418.59,192.15 414.75,187.34 412.00,185.78
             407.84,183.43 404.42,186.08 401.00,188.44
             397.37,190.93 382.44,202.24 379.42,202.82
             377.75,203.13 376.44,202.52 374.96,201.84
             374.96,201.84 356.00,192.54 356.00,192.54
             352.30,191.19 346.45,190.16 344.14,186.73
             342.04,183.62 339.86,167.64 339.08,163.00
             338.50,159.51 338.25,155.17 334.86,153.17
             332.50,151.79 328.68,152.00 326.00,152.21
             326.00,152.21 290.04,152.21 290.04,152.21 Z
           M 775.00,217.00
           C 775.87,221.79 772.33,228.41 770.69,233.00
             770.69,233.00 758.67,268.00 758.67,268.00
             758.67,268.00 724.00,369.00 724.00,369.00
             724.00,369.00 713.00,401.00 713.00,401.00
             711.22,406.35 709.15,414.59 706.00,419.00
             706.68,411.44 712.18,397.57 714.95,390.00
             714.95,390.00 729.00,349.00 729.00,349.00
             729.00,349.00 760.95,256.00 760.95,256.00
             760.95,256.00 775.00,217.00 775.00,217.00 Z
           M 306.00,248.43
           C 313.06,247.56 322.11,248.86 329.00,250.63
             337.23,252.74 342.98,255.59 350.00,260.36
             393.23,289.70 387.47,356.95 340.00,378.69
             330.61,382.99 320.31,385.11 310.00,385.00
             273.26,384.58 245.71,354.61 243.18,319.00
             242.75,312.86 245.18,298.85 247.46,293.00
             254.92,273.94 270.34,258.03 290.00,251.75
             294.85,250.19 300.93,249.26 306.00,248.43 Z
           M 665.00,388.00
           C 658.27,384.82 650.76,375.54 645.09,370.18
             645.09,370.18 609.00,336.00 609.00,336.00
             609.00,336.00 597.29,324.51 597.29,324.51
             595.52,322.87 592.63,320.73 592.74,318.05
             592.83,315.68 595.47,313.47 597.04,311.91
             597.04,311.91 611.00,298.58 611.00,298.58
             611.00,298.58 627.00,283.04 627.00,283.04
             627.00,283.04 645.00,266.00 645.00,266.00
             649.62,261.40 660.65,250.53 666.00,248.00
             666.00,248.00 645.00,269.04 645.00,269.04
             645.00,269.04 613.00,299.91 613.00,299.91
             613.00,299.91 600.01,312.00 600.01,312.00
             600.01,312.00 595.77,318.83 595.77,318.83
             595.77,318.83 601.00,325.04 601.00,325.04
             601.00,325.04 614.00,337.47 614.00,337.47
             614.00,337.47 634.00,356.96 634.00,356.96
             634.00,356.96 649.00,371.00 649.00,371.00
             649.00,371.00 665.00,388.00 665.00,388.00 Z
           M 816.00,248.00
           C 816.00,248.00 872.00,300.28 872.00,300.28
             872.00,300.28 884.94,313.00 884.94,313.00
             886.75,315.00 888.84,317.08 887.83,320.00
             886.96,322.53 872.91,335.09 870.00,338.00
             870.00,338.00 854.00,353.04 854.00,353.04
             854.00,353.04 832.00,374.28 832.00,374.28
             826.76,378.90 822.39,384.98 816.00,388.00
             818.99,382.65 831.92,371.43 837.00,366.83
             837.00,366.83 858.00,346.01 858.00,346.01
             858.00,346.01 868.00,336.96 868.00,336.96
             868.00,336.96 880.98,324.28 880.98,324.28
             882.71,322.71 885.56,320.65 885.24,317.99
             884.98,315.88 882.41,313.46 880.99,312.00
             880.99,312.00 868.00,299.99 868.00,299.99
             868.00,299.99 832.00,265.01 832.00,265.01
             826.46,259.61 819.38,255.16 816.00,248.00 Z
           M 305.00,250.29
           C 281.15,253.93 260.87,266.11 250.87,289.00
             236.46,322.02 249.55,360.01 282.00,376.24
             289.81,380.14 299.23,382.89 308.00,383.00
             320.96,383.15 328.01,382.57 340.00,376.74
             348.97,372.38 355.35,367.59 361.86,359.99
             393.52,323.00 375.85,265.65 329.00,252.43
             320.51,250.03 313.78,249.47 305.00,250.29 Z
           M 92.23,406.02
           C 96.36,404.51 113.10,403.73 115.86,407.43
             118.14,410.47 118.25,419.02 120.01,421.73
             121.40,423.87 126.58,426.25 129.00,427.16
             138.10,430.61 141.91,417.52 149.96,421.36
             152.42,422.53 161.87,432.59 163.12,435.00
             163.56,436.42 163.62,437.50 163.12,439.00
             161.58,446.99 152.72,448.58 159.71,460.89
             163.58,467.73 173.22,465.07 177.18,469.65
             179.02,471.78 178.97,475.34 179.00,478.00
             179.04,481.82 179.22,489.46 176.42,492.30
             173.67,495.08 166.47,495.38 163.11,497.30
             160.10,499.02 158.38,502.81 157.36,506.00
             154.97,513.50 162.23,516.58 163.45,523.00
             164.38,527.91 154.60,537.44 150.72,540.11
             142.79,545.54 137.81,532.85 130.83,534.52
             127.53,535.31 121.24,537.97 119.70,541.13
             117.72,545.20 118.74,552.47 115.49,555.40
             112.83,557.80 103.69,557.01 100.00,556.84
             98.48,557.00 95.42,557.06 94.05,556.84
             87.31,554.87 89.69,545.14 86.69,540.27
             85.29,538.01 80.49,535.74 78.00,534.85
             71.13,532.39 67.93,539.47 62.00,541.23
             60.68,541.63 59.48,541.68 58.17,541.23
             55.70,540.34 46.07,530.37 44.60,528.00
             38.81,518.63 53.84,515.94 48.84,504.00
             43.96,492.35 36.91,497.62 31.31,493.15
             27.94,490.46 28.11,477.01 28.95,473.02
             30.95,463.56 42.41,468.67 46.73,461.86
             48.62,458.87 50.71,453.41 49.34,450.00
             47.20,444.65 40.66,440.30 44.05,434.00
             46.52,429.40 56.22,419.00 62.00,420.78
             67.83,422.57 70.07,429.54 77.00,427.16
             80.24,426.05 84.99,423.98 86.69,420.89
             89.56,415.67 86.86,410.94 92.23,406.02 Z
           M 115.00,555.00
           C 115.83,550.58 117.03,540.55 120.30,537.70
             121.70,536.47 124.27,535.50 126.00,534.69
             127.67,533.91 130.62,532.14 132.42,532.31
             138.08,532.82 142.87,543.73 151.00,537.69
             154.07,535.41 162.04,527.94 161.92,524.00
             161.82,520.23 156.28,514.58 155.29,511.00
             154.45,507.94 156.35,503.82 157.62,501.02
             161.70,492.03 170.88,495.49 175.40,491.15
             177.73,488.91 177.06,480.28 177.00,477.00
             176.73,462.78 163.45,471.92 158.05,460.98
             156.57,457.96 154.55,453.32 155.65,450.00
             157.25,445.14 164.06,440.59 161.16,435.00
             159.30,431.42 150.29,422.08 146.00,422.65
             142.19,423.16 136.98,428.73 134.00,429.57
             131.25,430.34 124.58,426.93 122.05,425.47
             114.35,421.03 118.08,411.29 113.49,408.02
             111.73,406.77 108.12,407.00 106.00,407.00
             103.13,406.99 94.62,406.50 92.56,408.02
             89.50,410.29 89.89,418.40 88.28,421.87
             86.84,424.97 81.12,427.45 78.00,428.68
             70.27,431.74 68.17,424.68 62.00,422.78
             56.49,421.08 47.22,430.44 45.22,435.00
             42.81,440.48 49.17,445.29 50.99,450.00
             52.37,453.56 50.32,457.72 48.76,460.98
             43.13,472.73 30.28,462.30 30.00,477.00
             29.95,479.92 29.53,488.39 31.02,490.57
             33.02,493.49 40.60,493.91 43.96,495.51
             47.84,497.35 49.38,501.20 50.83,505.00
             54.29,514.11 46.02,516.04 44.92,523.00
             44.21,527.57 53.00,535.83 56.42,538.39
             62.56,542.97 67.43,534.45 73.00,532.80
             76.14,531.87 79.21,533.86 82.00,535.14
             85.37,536.69 87.46,537.30 88.86,541.04
             90.00,544.13 90.39,552.15 92.73,554.01
             94.31,555.26 98.03,555.00 100.00,555.00
             100.00,555.00 115.00,555.00 115.00,555.00 Z
           M 99.00,449.27
           C 101.31,449.14 102.62,448.95 105.00,449.27
             139.48,451.10 146.19,500.18 114.00,510.96
             110.11,512.26 106.12,513.15 102.00,512.91
             74.27,511.29 61.67,477.52 81.09,458.09
             86.63,452.55 91.55,450.83 99.00,449.27 Z
           M 97.00,451.33
           C 68.24,458.22 65.26,497.22 91.00,508.65
             94.75,510.32 97.93,510.89 102.00,510.99
             108.06,511.13 113.74,510.27 119.00,507.01
             138.31,495.02 137.74,465.68 118.00,454.36
             111.65,450.72 104.10,450.54 97.00,451.33 Z
           M 265.04,516.74
           C 265.04,516.74 304.00,516.00 304.00,516.00
             306.40,516.00 309.75,515.80 311.87,517.02
             315.25,518.97 316.04,523.49 316.79,527.00
             317.70,531.23 320.22,546.05 321.98,548.87
             324.27,552.52 337.37,556.47 342.00,558.76
             344.94,560.21 352.43,565.23 355.28,564.40
             359.74,563.10 376.53,547.82 383.00,547.28
             387.64,546.89 391.01,551.03 394.00,554.00
             394.00,554.00 412.98,573.00 412.98,573.00
             416.33,576.45 419.70,579.76 418.57,585.00
             417.71,588.97 409.68,599.85 407.05,604.00
             405.52,606.42 402.93,610.09 403.05,613.00
             403.15,615.40 406.45,621.37 407.57,624.00
             407.57,624.00 413.65,640.87 413.65,640.87
             415.82,644.96 420.90,645.32 425.00,646.21
             430.80,647.46 444.91,649.42 448.26,654.13
             449.97,656.54 449.96,659.19 450.00,662.00
             450.00,662.00 450.00,693.00 450.00,693.00
             449.95,696.70 449.92,699.76 446.77,702.30
             443.83,704.68 427.72,707.94 423.00,709.13
             418.59,710.24 415.19,710.49 413.13,715.05
             413.13,715.05 410.92,722.00 410.92,722.00
             410.92,722.00 406.00,734.00 406.00,734.00
             404.95,736.46 402.78,740.40 403.09,743.00
             403.67,747.95 417.38,764.48 418.57,770.00
             419.70,775.24 416.33,778.55 412.98,782.00
             408.68,786.44 392.19,803.56 388.00,805.69
             382.74,808.36 379.19,805.67 375.00,802.63
             371.83,800.32 358.93,791.07 356.00,790.29
             352.38,789.34 349.03,792.06 346.00,793.69
             346.00,793.69 326.04,802.11 326.04,802.11
             324.33,802.91 323.20,803.58 322.16,805.22
             322.16,805.22 316.42,828.00 316.42,828.00
             315.64,831.46 315.11,835.82 311.78,837.83
             309.46,839.22 305.66,839.00 303.00,839.00
             303.00,839.00 273.00,839.00 273.00,839.00
             270.34,839.00 266.54,839.22 264.22,837.83
             260.94,835.85 260.31,831.44 259.60,828.00
             258.78,823.97 255.70,807.79 254.02,805.22
             251.99,802.14 247.32,801.17 244.00,799.95
             239.90,798.44 235.85,796.76 232.00,794.69
             232.00,794.69 225.00,790.75 225.00,790.75
             220.25,788.70 217.93,791.28 214.00,793.78
             207.98,797.62 194.89,809.17 188.00,805.82
             185.03,804.37 180.47,799.47 178.00,797.00
             178.00,797.00 162.04,781.00 162.04,781.00
             159.05,777.81 156.32,774.69 157.52,770.00
             158.94,764.46 172.42,747.21 172.91,743.00
             173.13,741.13 172.45,739.66 171.72,738.00
             171.72,738.00 164.75,722.00 164.75,722.00
             163.71,718.82 163.15,713.93 160.57,711.73
             158.12,709.64 141.13,705.89 137.00,705.00
             133.31,704.20 129.05,703.51 127.02,699.89
             125.81,697.73 126.00,694.44 126.00,692.00
             126.00,692.00 126.00,661.00 126.00,661.00
             126.07,657.45 126.18,654.97 129.15,652.51
             132.39,649.82 147.94,647.15 153.00,645.87
             156.80,644.92 160.20,644.63 162.20,640.87
             162.20,640.87 169.78,621.00 169.78,621.00
             171.23,617.93 173.61,614.52 172.72,611.00
             170.60,602.64 154.31,589.31 157.74,580.00
             159.00,576.58 163.40,572.61 166.00,570.00
             166.00,570.00 183.00,553.00 183.00,553.00
             186.10,549.96 189.19,546.35 194.00,547.52
             197.73,548.44 210.16,557.59 214.00,560.28
             215.65,561.44 219.51,564.35 221.42,564.55
             223.97,564.82 228.68,561.56 231.00,560.31
             239.67,555.65 248.45,553.46 250.94,552.20
             255.35,549.99 255.55,546.42 256.39,542.00
             257.16,537.95 259.57,522.66 261.14,520.11
             262.45,517.96 263.05,517.90 265.04,516.74 Z
           M 308.98,517.93
           C 308.98,517.93 272.00,517.93 272.00,517.93
             269.76,518.00 266.21,517.79 264.30,519.02
             261.56,520.79 261.27,525.07 260.75,528.00
             259.98,532.40 257.45,547.90 255.27,550.78
             252.67,554.20 246.02,555.53 242.00,557.06
             242.00,557.06 225.00,565.55 225.00,565.55
             220.30,567.34 217.72,564.57 214.00,562.02
             210.65,559.73 196.65,549.81 194.00,549.10
             189.37,547.85 185.96,552.09 183.00,555.00
             178.76,559.19 162.19,575.18 160.02,579.00
             157.30,583.77 159.36,586.86 162.01,591.00
             162.01,591.00 174.62,610.72 174.62,610.72
             175.57,613.76 173.43,617.28 172.16,620.00
             172.16,620.00 167.69,630.00 167.69,630.00
             167.69,630.00 163.89,640.98 163.89,640.98
             159.44,650.70 137.40,647.65 130.31,653.72
             127.99,655.71 128.06,658.20 128.00,661.00
             128.00,661.00 128.00,693.00 128.00,693.00
             128.02,695.50 127.81,698.50 129.60,700.49
             131.35,702.43 134.57,702.87 137.00,703.42
             137.00,703.42 153.00,707.35 153.00,707.35
             157.44,708.37 161.22,708.57 163.58,713.05
             163.58,713.05 167.23,724.00 167.23,724.00
             167.23,724.00 172.14,735.00 172.14,735.00
             173.39,737.79 175.40,741.11 174.45,744.17
             173.55,747.08 165.22,759.56 163.05,763.00
             161.37,765.67 158.59,769.75 158.99,773.00
             159.44,776.67 163.52,780.48 166.00,783.00
             166.00,783.00 187.00,803.40 187.00,803.40
             194.83,808.34 207.49,795.91 214.00,791.69
             217.79,789.24 220.45,787.02 225.00,788.96
             225.00,788.96 244.00,798.19 244.00,798.19
             247.82,799.67 252.71,800.63 255.15,804.13
             257.27,807.17 260.05,822.39 261.12,827.00
             261.84,830.10 262.27,834.18 265.23,835.98
             267.24,837.20 270.68,837.00 273.00,837.00
             273.00,837.00 306.00,837.00 306.00,837.00
             313.85,836.85 313.47,834.04 315.21,826.00
             316.03,822.22 319.38,806.50 320.93,804.13
             323.21,800.64 328.27,799.64 332.00,798.19
             332.00,798.19 351.00,788.95 351.00,788.95
             352.83,788.15 354.00,787.77 356.00,788.29
             358.93,789.07 372.41,799.13 376.00,801.56
             379.71,804.07 383.45,806.14 387.83,803.69
             387.83,803.69 411.27,781.25 411.27,781.25
             414.72,778.10 417.67,775.09 416.57,770.00
             415.43,764.73 401.89,747.92 401.20,743.00
             400.93,741.06 401.53,739.73 402.28,738.00
             402.28,738.00 409.92,720.00 409.92,720.00
             411.02,716.80 411.51,712.96 414.28,710.72
             417.06,708.48 433.48,705.01 438.00,703.87
             440.92,703.14 445.27,702.45 446.98,699.72
             448.21,697.77 448.00,694.28 448.00,692.00
             448.00,692.00 448.00,663.00 448.00,663.00
             448.00,660.68 448.20,657.24 446.98,655.22
             445.21,652.31 441.06,651.65 438.00,650.87
             438.00,650.87 415.14,645.02 415.14,645.02
             411.92,642.97 411.16,638.44 410.00,635.00
             410.00,635.00 401.90,616.00 401.90,616.00
             399.54,609.18 409.87,596.71 413.71,591.00
             415.65,588.10 418.27,584.71 417.17,581.00
             416.27,577.95 412.25,574.26 410.00,572.00
             410.00,572.00 395.00,557.00 395.00,557.00
             392.83,554.84 388.67,550.39 386.00,549.22
             382.05,547.48 379.11,550.15 376.00,552.28
             376.00,552.28 356.00,565.65 356.00,565.65
             352.42,566.73 348.96,564.09 346.00,562.42
             338.40,558.15 323.17,552.72 323.14,552.70
             319.80,550.71 319.55,547.47 318.79,544.00
             318.79,544.00 315.45,529.00 315.45,529.00
             314.94,526.45 314.58,522.36 313.07,520.28
             311.71,518.41 310.94,518.49 308.98,517.93 Z
           M 740.00,519.00
           C 740.00,519.00 742.00,519.00 742.00,519.00
             742.00,519.00 741.00,539.00 741.00,539.00
             741.00,539.00 740.00,519.00 740.00,519.00 Z
           M 904.00,519.00
           C 904.00,519.00 906.00,519.00 906.00,519.00
             906.00,519.00 906.00,539.00 906.00,539.00
             906.00,539.00 904.00,539.00 904.00,539.00
             904.00,539.00 904.00,519.00 904.00,519.00 Z
           M 740.00,557.00
           C 740.00,557.00 742.00,557.00 742.00,557.00
             742.00,557.00 741.00,577.00 741.00,577.00
             741.00,577.00 740.00,557.00 740.00,557.00 Z
           M 904.00,557.00
           C 904.00,557.00 906.00,557.00 906.00,557.00
             906.00,562.77 907.43,572.34 904.00,577.00
             904.00,577.00 904.00,557.00 904.00,557.00 Z
           M 446.00,583.00
           C 446.00,583.00 465.00,582.00 465.00,582.00
             465.00,582.00 465.00,584.00 465.00,584.00
             465.00,584.00 446.00,583.00 446.00,583.00 Z
           M 485.00,583.00
           C 485.00,583.00 504.00,582.00 504.00,582.00
             504.00,582.00 504.00,584.00 504.00,584.00
             504.00,584.00 485.00,583.00 485.00,583.00 Z
           M 525.00,582.00
           C 530.61,582.00 539.44,580.64 544.00,584.00
             544.00,584.00 525.00,584.00 525.00,584.00
             525.00,584.00 525.00,582.00 525.00,582.00 Z
           M 565.00,582.00
           C 569.85,582.00 574.47,580.88 574.94,587.02
             575.12,589.41 574.86,590.82 574.00,593.00
             574.00,593.00 574.00,584.00 574.00,584.00
             574.00,584.00 565.00,584.00 565.00,584.00
             565.00,584.00 565.00,582.00 565.00,582.00 Z
           M 740.00,595.00
           C 740.00,595.00 742.00,595.00 742.00,595.00
             742.00,595.00 741.00,615.00 741.00,615.00
             741.00,615.00 740.00,595.00 740.00,595.00 Z
           M 904.00,595.00
           C 904.00,595.00 906.00,595.00 906.00,595.00
             906.00,595.00 906.00,615.00 906.00,615.00
             906.00,615.00 904.00,615.00 904.00,615.00
             904.00,615.00 904.00,595.00 904.00,595.00 Z
           M 285.00,610.30
           C 286.99,610.20 287.95,610.04 290.00,610.30
             298.85,610.81 307.89,612.63 316.00,616.31
             339.13,626.82 355.66,651.32 355.90,676.91
             356.17,706.99 335.93,734.93 307.00,743.56
             299.93,745.67 293.31,746.08 286.00,746.00
             276.63,745.89 267.37,743.37 259.00,739.24
             224.81,722.39 210.13,682.35 227.27,648.00
             236.67,629.16 253.56,616.53 274.00,611.89
             274.00,611.89 285.00,610.30 285.00,610.30 Z
           M 281.00,612.29
           C 266.08,614.76 254.55,619.30 243.04,629.44
             237.18,634.60 232.72,641.06 229.25,648.00
             222.53,661.43 221.83,667.28 222.00,682.00
             222.11,691.19 224.73,698.85 228.76,707.00
             241.92,733.69 268.66,747.58 298.00,743.71
             305.54,742.72 315.55,738.93 322.00,734.94
             352.10,716.29 362.83,678.36 346.22,647.00
             343.79,642.42 339.43,635.81 335.83,632.17
             328.79,625.04 319.44,619.07 310.00,615.70
             300.30,612.23 291.22,611.32 281.00,612.29 Z
           M 574.00,611.00
           C 574.00,611.00 575.45,613.69 575.45,613.69
             575.45,613.69 574.00,631.00 574.00,631.00
             574.00,631.00 574.00,611.00 574.00,611.00 Z
           M 847.05,638.74
           C 852.85,637.30 872.76,638.00 880.00,638.00
             880.00,638.00 944.00,638.00 944.00,638.00
             944.00,638.00 963.00,638.00 963.00,638.00
             965.73,638.05 968.47,638.03 970.40,640.31
             972.29,642.56 971.99,646.23 971.90,649.00
             971.90,649.00 971.90,741.00 971.90,741.00
             971.90,741.00 971.90,763.98 971.90,763.98
             971.21,765.85 970.43,767.11 968.85,768.26
             966.10,770.28 962.25,769.99 959.00,770.00
             959.00,770.00 870.00,770.00 870.00,770.00
             863.37,770.00 847.14,772.00 843.45,765.79
             841.79,762.99 842.01,759.15 842.00,756.00
             842.00,756.00 842.00,669.00 842.00,669.00
             842.00,663.62 841.20,645.97 843.31,642.11
             844.49,639.96 845.14,639.88 847.05,638.74 Z
           M 849.04,639.14
           C 844.05,641.63 844.07,643.89 844.00,649.00
             844.00,649.00 844.00,691.00 844.00,691.00
             844.00,691.00 844.00,757.00 844.00,757.00
             844.02,766.68 845.32,767.98 855.00,768.00
             855.00,768.00 943.00,768.00 943.00,768.00
             943.00,768.00 962.00,768.00 962.00,768.00
             964.73,767.95 967.35,768.00 969.26,765.69
             971.29,763.23 971.00,759.03 971.00,756.00
             971.00,756.00 971.00,667.00 971.00,667.00
             971.00,667.00 971.00,649.00 971.00,649.00
             970.96,646.06 971.02,642.83 968.57,640.74
             966.16,638.69 961.99,639.00 959.00,639.14
             959.00,639.14 887.00,639.14 887.00,639.14
             887.00,639.14 849.04,639.14 849.04,639.14 Z
           M 682.00,641.57
           C 682.00,641.57 716.00,641.00 716.00,641.00
             716.00,641.00 780.00,641.00 780.00,641.00
             784.39,641.00 799.84,640.49 802.98,641.74
             805.14,642.59 806.62,643.99 807.69,646.04
             809.18,648.92 809.00,652.83 809.00,656.00
             809.00,656.00 809.00,743.00 809.00,743.00
             809.00,749.45 810.89,765.20 804.79,768.83
             802.44,770.22 798.68,770.00 796.00,769.90
             796.00,769.90 704.00,769.90 704.00,769.90
             704.00,769.90 681.02,769.90 681.02,769.90
             679.15,769.21 677.89,768.43 676.74,766.85
             674.72,764.10 675.01,760.25 675.00,757.00
             675.00,757.00 675.00,670.00 675.00,670.00
             675.00,665.38 674.28,649.28 676.02,646.05
             677.50,643.32 679.32,642.63 682.00,641.57 Z
           M 682.02,643.14
           C 674.99,646.41 676.01,653.42 676.00,660.00
             676.00,660.00 676.00,695.00 676.00,695.00
             676.00,695.00 676.00,756.00 676.00,756.00
             676.12,765.72 677.40,767.98 687.00,768.00
             687.00,768.00 779.00,768.00 779.00,768.00
             779.00,768.00 798.00,768.00 798.00,768.00
             800.73,767.95 803.47,767.97 805.40,765.69
             807.29,763.44 806.99,759.77 807.00,757.00
             807.00,757.00 807.00,670.00 807.00,670.00
             807.00,664.68 808.40,647.99 804.57,644.74
             802.16,642.69 797.99,643.00 795.00,643.14
             795.00,643.14 721.00,643.14 721.00,643.14
             721.00,643.14 682.02,643.14 682.02,643.14 Z
           M 574.00,650.00
           C 574.00,650.00 574.00,656.00 574.00,656.00
             574.00,656.00 574.00,650.00 574.00,650.00 Z
           M 574.00,673.00
           C 575.35,676.30 575.76,678.82 574.00,682.00
             574.00,682.00 574.00,673.00 574.00,673.00 Z
           M 574.00,700.00
           C 574.00,700.00 574.00,706.00 574.00,706.00
             574.00,706.00 574.00,700.00 574.00,700.00 Z
           M 574.00,723.00
           C 575.39,726.50 575.39,730.50 574.00,734.00
             574.00,734.00 574.00,723.00 574.00,723.00 Z
           M 574.00,751.00
           C 575.59,755.01 575.59,767.99 574.00,772.00
             574.00,772.00 574.00,751.00 574.00,751.00 Z
           M 512.02,800.74
           C 518.00,799.28 538.53,800.00 546.00,800.00
             546.00,800.00 614.00,800.00 614.00,800.00
             620.73,800.00 637.84,797.96 641.55,804.21
             643.21,807.01 642.99,810.85 643.00,814.00
             643.00,814.00 643.00,905.00 643.00,905.00
             643.00,909.39 643.51,924.84 642.26,927.98
             641.41,930.14 640.01,931.62 637.96,932.69
             635.08,934.18 631.17,934.00 628.00,934.00
             628.00,934.00 535.00,934.00 535.00,934.00
             530.64,934.00 515.12,934.48 512.02,933.26
             509.89,932.43 508.25,930.97 507.17,928.96
             505.79,926.37 506.00,922.87 506.00,920.00
             506.00,920.00 506.00,831.00 506.00,831.00
             506.00,825.80 505.18,808.78 507.17,805.04
             508.52,802.52 509.69,802.02 512.02,800.74 Z
           M 681.02,800.74
           C 686.64,799.37 699.57,800.00 706.00,800.00
             706.00,800.00 754.00,800.00 754.00,800.00
             754.00,800.00 906.00,800.00 906.00,800.00
             906.00,800.00 961.00,800.00 961.00,800.00
             971.15,800.14 971.99,803.94 972.00,813.00
             972.00,813.00 972.00,915.00 972.00,915.00
             972.09,922.07 974.80,931.63 965.00,933.91
             963.10,934.05 960.00,934.00 958.00,933.91
             958.00,933.91 741.00,933.91 741.00,933.91
             741.00,933.91 698.00,933.91 698.00,933.91
             693.36,934.00 682.93,934.72 679.19,932.55
             674.65,929.92 675.01,925.55 675.00,921.00
             675.00,921.00 675.00,831.00 675.00,831.00
             675.00,825.80 674.18,808.78 676.17,805.04
             677.52,802.52 678.69,802.02 681.02,800.74 Z
           M 512.06,802.60
           C 507.68,805.29 508.03,807.17 508.00,812.00
             508.00,812.00 508.00,854.00 508.00,854.00
             508.00,854.00 508.00,921.00 508.00,921.00
             508.02,931.30 510.06,931.98 520.00,932.00
             520.00,932.00 613.00,932.00 613.00,932.00
             613.00,932.00 631.00,932.00 631.00,932.00
             633.93,931.96 637.30,931.99 639.40,929.57
             641.31,927.38 640.99,923.74 641.00,921.00
             641.00,921.00 641.00,830.00 641.00,830.00
             641.00,830.00 641.00,811.00 641.00,811.00
             640.95,808.27 640.97,805.53 638.69,803.60
             636.44,801.71 632.77,802.01 630.00,802.00
             630.00,802.00 552.00,802.00 552.00,802.00
             552.00,802.00 512.06,802.60 512.06,802.60 Z
           M 681.06,802.60
           C 679.19,803.75 678.52,803.77 677.60,806.06
             676.53,808.70 677.00,828.64 677.00,833.00
             677.00,833.00 677.00,908.00 677.00,908.00
             677.00,912.86 675.69,927.27 679.31,930.26
             681.77,932.29 685.97,932.00 689.00,932.00
             689.00,932.00 905.00,932.00 905.00,932.00
             905.00,932.00 960.00,932.00 960.00,932.00
             970.15,931.86 970.99,928.06 971.00,919.00
             971.00,919.00 971.00,830.00 971.00,830.00
             971.00,830.00 971.00,814.00 971.00,814.00
             970.98,810.72 971.18,806.11 968.49,803.74
             966.16,801.68 961.94,802.00 959.00,802.00
             959.00,802.00 771.00,802.00 771.00,802.00
             771.00,802.00 712.00,802.00 712.00,802.00
             712.00,802.00 681.06,802.60 681.06,802.60 Z
           M 800.00,840.00
           C 800.00,840.00 826.00,840.00 826.00,840.00
             830.68,840.00 835.12,839.14 839.00,842.00
             839.00,842.00 800.00,842.00 800.00,842.00
             800.00,842.00 800.00,840.00 800.00,840.00 Z
           M 868.00,840.00
           C 868.00,840.00 919.00,840.00 919.00,840.00
             924.77,840.00 934.34,838.57 939.00,842.00
             939.00,842.00 868.00,842.00 868.00,842.00
             868.00,842.00 868.00,840.00 868.00,840.00 Z" />
</svg>
