<?xml version="1.0" encoding="UTF-8" standalone="no"?>
<!DOCTYPE svg PUBLIC "-//W3C//DTD SVG 20010904//EN"
              "http://www.w3.org/TR/2001/REC-SVG-20010904/DTD/svg10.dtd">

<svg xmlns="http://www.w3.org/2000/svg"
     width="100" height="100"
     viewBox="0 0 1200 896"
fill="none" stroke="#7fa573" stroke-width="14">
  <path id="Selection"
         
        d="M 447.00,273.00
           C 447.00,273.00 447.00,143.00 447.00,143.00
             447.04,116.17 466.28,93.04 494.00,93.00
             494.00,93.00 688.00,93.00 688.00,93.00
             688.00,93.00 796.00,93.00 796.00,93.00
             821.80,93.31 840.96,116.01 841.00,141.00
             841.00,141.00 841.00,173.00 841.00,173.00
             841.00,173.00 842.00,190.00 842.00,190.00
             842.00,190.00 842.00,260.00 842.00,260.00
             842.00,260.00 841.00,277.00 841.00,277.00
             841.00,277.00 841.91,298.00 841.91,298.00
             841.91,298.00 841.00,309.00 841.00,309.00
             841.00,309.00 841.00,319.00 841.00,319.00
             841.00,319.00 841.66,328.00 841.66,328.00
             841.66,342.53 837.97,357.10 827.83,367.96
             811.23,385.74 792.85,384.00 771.00,384.00
             771.00,384.00 771.00,439.00 771.00,439.00
             771.00,439.00 770.00,467.00 770.00,467.00
             763.96,464.94 750.17,451.14 745.00,446.00
             745.00,446.00 701.00,404.91 701.00,404.91
             696.81,401.01 682.26,386.17 678.00,384.60
             676.06,383.88 673.09,384.00 671.00,384.00
             671.00,384.00 614.00,384.00 614.00,384.00
             605.87,384.00 590.20,383.25 583.00,385.00
             583.00,385.00 584.00,406.00 584.00,406.00
             584.00,406.00 584.00,443.00 584.00,443.00
             605.16,443.00 625.08,443.65 646.00,447.42
             713.85,459.66 787.32,502.13 807.86,572.00
             813.10,589.86 814.21,601.53 814.00,620.00
             813.84,633.08 810.13,648.61 806.00,661.00
             813.52,659.84 821.90,656.24 829.00,653.40
             846.39,646.44 854.88,642.27 871.00,632.60
             937.79,592.53 981.64,524.88 987.09,447.00
             987.09,447.00 988.00,435.00 988.00,435.00
             988.00,435.00 988.00,431.00 988.00,431.00
             988.00,431.00 987.09,421.00 987.09,421.00
             985.52,398.58 981.49,377.14 973.68,356.00
             964.04,329.91 952.09,310.30 934.25,289.00
             928.68,282.36 916.28,268.91 909.00,265.00
             907.11,270.15 904.13,275.22 901.42,280.00
             901.42,280.00 893.74,293.98 893.74,293.98
             892.76,295.74 891.40,298.37 889.04,298.37
             885.18,298.37 883.41,286.13 882.63,283.00
             882.63,283.00 873.63,247.00 873.63,247.00
             872.97,244.37 870.16,233.10 870.49,231.15
             871.13,227.32 876.11,228.01 879.00,228.00
             879.00,228.00 896.00,228.00 896.00,228.00
             896.00,228.00 912.00,229.00 912.00,229.00
             912.00,229.00 936.00,229.00 936.00,229.00
             937.63,229.03 940.91,228.91 941.83,230.60
             943.44,233.54 937.85,237.80 936.00,239.42
             936.00,239.42 920.01,254.00 920.01,254.00
             918.39,255.66 915.44,258.23 916.20,260.83
             916.68,262.49 921.54,266.59 923.00,268.01
             923.00,268.01 938.93,285.00 938.93,285.00
             950.41,297.72 963.22,318.47 970.74,334.00
             986.91,367.40 993.06,403.19 993.00,440.00
             993.00,440.00 992.09,452.00 992.09,452.00
             988.36,503.02 967.38,549.68 933.72,588.00
             910.33,614.62 881.84,635.33 850.00,650.74
             850.00,650.74 820.00,663.00 820.00,663.00
             816.08,664.32 807.05,666.41 804.27,668.70
             801.39,671.08 796.06,683.79 793.55,688.00
             787.28,698.54 774.82,714.60 766.00,722.91
             730.72,756.16 685.52,776.27 638.00,784.08
             638.00,784.08 612.00,787.04 612.00,787.04
             612.00,787.04 602.00,787.04 602.00,787.04
             602.00,787.04 595.00,787.82 595.00,787.82
             595.00,787.82 585.00,787.00 585.00,787.00
             585.00,787.00 563.00,785.72 563.00,785.72
             559.55,785.29 550.86,783.60 548.00,784.12
             544.21,784.81 531.14,793.71 527.00,796.32
             527.00,796.32 482.00,824.58 482.00,824.58
             482.00,824.58 455.00,841.40 455.00,841.40
             452.75,842.75 447.18,846.74 444.61,844.92
             442.79,843.64 443.56,840.75 444.05,839.00
             444.05,839.00 449.34,824.00 449.34,824.00
             449.34,824.00 466.33,776.00 466.33,776.00
             467.56,772.36 472.26,761.52 470.22,758.39
             469.10,756.67 465.81,755.16 464.00,754.14
             464.00,754.14 451.00,746.19 451.00,746.19
             440.36,739.58 429.85,730.84 421.00,722.00
             394.54,695.58 377.92,664.53 374.92,627.00
             374.92,627.00 374.00,617.00 374.00,617.00
             373.79,598.40 378.17,581.49 384.00,564.00
             384.00,564.00 361.00,564.00 361.00,564.00
             358.55,564.00 355.28,563.87 353.00,564.74
             349.68,566.01 337.28,577.82 334.00,580.99
             334.00,580.99 292.00,619.17 292.00,619.17
             292.00,619.17 271.00,638.42 271.00,638.42
             266.46,642.34 265.04,644.72 259.00,646.00
             259.00,646.00 258.00,617.00 258.00,617.00
             258.00,617.00 258.00,564.00 258.00,564.00
             240.30,564.00 227.74,565.49 212.00,555.30
             206.15,551.52 201.34,546.86 197.55,541.00
             187.98,526.23 189.00,514.55 189.00,498.00
             189.00,498.00 189.00,472.00 189.00,472.00
             189.00,472.00 189.00,324.00 189.00,324.00
             189.05,293.72 211.06,273.05 241.00,273.00
             241.00,273.00 447.00,273.00 447.00,273.00 Z
           M 766.00,457.00
           C 766.00,457.00 766.00,398.00 766.00,398.00
             766.00,381.29 764.53,379.07 775.00,379.00
             775.00,379.00 788.00,379.00 788.00,379.00
             815.19,378.68 835.96,359.61 836.00,332.00
             836.00,332.00 836.00,143.00 836.00,143.00
             835.96,117.51 817.81,98.04 792.00,98.00
             792.00,98.00 496.00,98.00 496.00,98.00
             468.48,98.13 452.04,119.77 452.00,146.00
             452.00,146.00 452.00,273.00 452.00,273.00
             452.00,273.00 511.00,273.00 511.00,273.00
             521.40,273.00 536.28,272.15 546.00,274.76
             556.87,277.67 560.27,281.93 569.00,287.00
             620.37,242.41 675.27,217.08 743.00,209.84
             743.00,209.84 774.00,208.00 774.00,208.00
             774.00,208.00 786.00,208.91 786.00,208.91
             790.12,209.19 799.22,208.88 802.84,210.58
             805.34,211.75 806.95,215.43 799.96,215.01
             799.96,215.01 789.00,214.00 789.00,214.00
             789.00,214.00 785.00,214.00 785.00,214.00
             785.00,214.00 771.00,213.04 771.00,213.04
             771.00,213.04 760.00,214.00 760.00,214.00
             710.45,214.58 652.25,233.81 611.00,261.00
             600.67,267.81 578.78,282.61 572.00,292.00
             584.02,306.26 584.00,322.33 584.00,340.00
             584.00,340.00 584.00,362.00 584.00,362.00
             583.95,365.66 581.92,375.64 584.76,378.01
             586.26,379.26 590.09,379.00 592.00,379.00
             592.00,379.00 673.00,379.00 673.00,379.00
             675.16,379.00 677.97,378.89 680.00,379.58
             683.87,380.91 689.02,386.12 692.00,388.99
             692.00,388.99 705.00,401.00 705.00,401.00
             705.00,401.00 732.00,426.17 732.00,426.17
             732.00,426.17 747.00,440.28 747.00,440.28
             754.21,446.64 757.49,451.60 766.00,457.00 Z
           M 932.00,234.00
           C 932.00,234.00 898.00,234.00 898.00,234.00
             898.00,234.00 876.00,234.00 876.00,234.00
             876.00,234.00 889.00,288.00 889.00,288.00
             889.00,288.00 896.23,278.00 896.23,278.00
             896.23,278.00 907.16,259.04 907.16,259.04
             907.16,259.04 932.00,234.00 932.00,234.00 Z
           M 447.00,278.00
           C 447.00,278.00 244.00,278.00 244.00,278.00
             238.28,278.01 230.43,278.76 225.00,280.52
             203.06,287.65 194.03,306.19 194.00,328.00
             194.00,328.00 194.00,507.00 194.00,507.00
             194.03,529.42 204.15,549.76 227.00,556.56
             234.50,558.79 244.08,557.92 252.00,558.00
             262.22,558.11 262.95,559.21 263.00,567.00
             263.00,567.00 263.00,636.00 263.00,636.00
             270.46,633.08 278.91,623.68 285.00,618.17
             285.00,618.17 329.00,578.09 329.00,578.09
             332.74,574.62 348.52,560.07 352.00,558.74
             354.29,557.87 357.54,558.00 360.00,557.90
             360.00,557.90 378.00,557.90 378.00,557.90
             379.91,558.02 384.17,558.43 385.73,557.90
             388.06,556.59 393.81,544.95 395.69,542.00
             402.53,531.27 410.41,521.30 419.09,512.00
             430.30,499.99 448.86,486.45 463.00,477.81
             463.00,477.81 479.00,469.25 479.00,469.25
             481.17,468.16 484.66,466.68 485.98,464.61
             487.39,462.39 486.95,457.67 487.01,455.00
             487.01,455.00 488.28,439.00 488.28,439.00
             490.04,424.20 492.24,413.32 496.42,399.00
             496.42,399.00 501.00,384.00 501.00,384.00
             493.96,383.99 488.73,383.50 482.00,381.14
             477.08,379.41 473.20,377.36 469.00,374.24
             456.05,364.62 447.20,350.39 447.00,334.00
             447.00,334.00 447.00,315.00 447.00,315.00
             447.00,315.00 447.00,278.00 447.00,278.00 Z
           M 454.31,278.60
           C 451.71,280.79 452.07,281.62 452.00,285.00
             452.00,285.00 452.00,309.00 452.00,309.00
             452.00,331.97 449.27,353.22 470.00,369.10
             473.76,371.98 476.56,373.67 481.00,375.30
             486.15,377.20 491.52,378.40 497.00,378.83
             505.67,379.50 504.91,374.30 511.26,362.00
             520.92,343.27 532.90,325.89 546.72,310.00
             546.72,310.00 558.98,297.00 558.98,297.00
             560.63,295.26 563.40,292.78 562.66,290.09
             562.04,287.80 557.97,285.26 556.00,284.09
             548.04,279.35 538.13,278.01 529.00,278.00
             529.00,278.00 480.00,278.00 480.00,278.00
             474.06,278.00 459.22,277.41 454.31,278.60 Z
           M 568.00,295.00
           C 562.55,298.94 560.56,302.29 555.99,307.00
             543.29,320.07 530.94,337.17 521.85,353.00
             517.39,360.78 511.60,370.15 510.00,379.00
             510.00,379.00 578.00,379.00 578.00,379.00
             578.00,379.00 578.00,336.00 578.00,336.00
             578.00,319.32 579.63,308.80 568.00,295.00 Z
           M 578.00,384.00
           C 578.00,384.00 515.00,384.00 515.00,384.00
             512.90,384.00 509.39,383.75 507.65,384.99
             504.82,387.01 501.65,399.26 500.58,403.00
             497.38,414.21 493.06,435.57 493.00,447.00
             493.00,447.00 492.00,462.00 492.00,462.00
             492.00,462.00 521.00,453.43 521.00,453.43
             536.07,449.13 562.53,444.01 578.00,444.00
             578.00,444.00 578.00,384.00 578.00,384.00 Z
           M 796.00,670.00
           C 796.00,670.00 777.00,673.92 777.00,673.92
             777.00,673.92 747.00,678.00 747.00,678.00
             747.00,678.00 738.00,678.00 738.00,678.00
             738.00,678.00 721.00,679.00 721.00,679.00
             721.00,679.00 698.00,677.71 698.00,677.71
             696.22,677.49 691.09,676.97 690.62,674.83
             690.13,672.59 693.57,672.21 695.01,672.23
             695.01,672.23 701.00,672.96 701.00,672.96
             701.00,672.96 711.00,672.96 711.00,672.96
             711.00,672.96 723.00,673.97 723.00,673.97
             723.00,673.97 737.00,673.00 737.00,673.00
             750.37,672.98 763.88,671.22 777.00,668.60
             781.79,667.64 796.36,665.62 799.30,662.49
             801.34,660.32 803.28,652.17 804.12,649.00
             807.06,637.78 809.13,623.58 809.00,612.00
             809.00,612.00 808.08,602.00 808.08,602.00
             801.38,518.18 720.68,465.46 644.00,452.59
             632.72,450.69 621.44,449.13 610.00,449.00
             610.00,449.00 600.00,448.09 600.00,448.09
             593.12,447.62 590.34,448.49 584.00,449.00
             584.00,449.00 584.00,493.00 584.00,493.00
             584.00,500.48 583.73,517.20 582.10,524.00
             578.04,540.98 564.66,555.79 548.00,561.25
             538.36,564.41 529.89,564.00 520.00,564.00
             532.01,588.62 558.42,614.19 581.00,629.33
             587.57,633.74 602.78,642.94 610.00,645.00
             610.00,645.00 626.85,616.00 626.85,616.00
             628.07,613.86 631.20,607.20 633.88,607.20
             637.01,607.20 639.80,617.41 640.67,620.00
             640.67,620.00 652.66,654.00 652.66,654.00
             653.48,656.38 656.59,663.88 655.52,666.01
             653.97,669.11 646.20,669.27 643.00,669.73
             643.00,669.73 606.00,675.00 606.00,675.00
             603.25,675.38 593.74,677.47 592.24,674.48
             591.14,672.28 593.95,668.71 595.14,667.00
             598.81,661.73 604.35,655.11 606.00,649.00
             580.90,638.18 553.18,615.83 535.75,595.00
             535.75,595.00 522.03,577.00 522.03,577.00
             513.98,565.22 516.54,564.02 506.00,564.00
             506.00,564.00 398.00,564.00 398.00,564.00
             395.90,564.00 392.39,563.75 390.65,564.99
             388.44,566.57 386.87,572.37 386.00,575.00
             382.64,585.17 380.02,596.26 380.00,607.00
             380.00,607.00 380.00,623.00 380.00,623.00
             380.04,648.59 392.30,677.70 407.38,698.00
             420.73,715.97 434.43,728.56 453.00,741.00
             453.00,741.00 470.00,751.23 470.00,751.23
             472.45,752.57 476.38,754.34 477.31,757.18
             478.09,759.56 476.64,762.78 475.81,765.00
             475.81,765.00 470.58,780.00 470.58,780.00
             470.58,780.00 451.00,837.00 451.00,837.00
             451.00,837.00 518.00,795.58 518.00,795.58
             518.00,795.58 535.00,785.00 535.00,785.00
             537.85,783.12 542.84,779.50 546.00,778.68
             549.83,777.70 562.23,780.37 567.00,780.83
             567.00,780.83 606.00,782.00 606.00,782.00
             606.00,782.00 618.00,781.09 618.00,781.09
             668.67,777.39 725.63,754.96 762.00,719.00
             773.75,707.38 791.43,686.01 796.00,670.00 Z
           M 578.00,449.00
           C 559.70,449.40 531.68,455.39 514.00,460.72
             514.00,460.72 493.00,468.00 493.00,468.00
             493.00,491.45 497.82,515.24 506.60,537.00
             508.28,541.14 514.00,555.87 517.39,557.91
             519.21,558.74 526.39,558.00 529.00,557.91
             529.00,557.91 535.00,557.91 535.00,557.91
             558.41,557.72 577.73,537.12 578.00,514.00
             578.00,514.00 578.00,449.00 578.00,449.00 Z
           M 487.00,471.00
           C 449.67,487.08 409.30,520.15 393.00,558.00
             393.00,558.00 473.00,558.00 473.00,558.00
             473.00,558.00 491.00,558.00 491.00,558.00
             491.00,558.00 510.00,558.00 510.00,558.00
             510.00,558.00 504.43,545.00 504.43,545.00
             504.43,545.00 496.42,523.00 496.42,523.00
             496.42,523.00 489.15,490.00 489.15,490.00
             489.15,490.00 487.00,471.00 487.00,471.00 Z
           M 634.00,616.00
           C 634.00,616.00 632.00,616.00 632.00,616.00
             632.00,616.00 612.67,650.00 612.67,650.00
             612.67,650.00 600.00,670.00 600.00,670.00
             600.00,670.00 650.00,664.00 650.00,664.00
             650.00,664.00 634.00,616.00 634.00,616.00 Z" />
</svg>
