<?xml version="1.0" encoding="UTF-8" standalone="no"?>
<!DOCTYPE svg PUBLIC "-//W3C//DTD SVG 20010904//EN"
              "http://www.w3.org/TR/2001/REC-SVG-20010904/DTD/svg10.dtd">

<svg xmlns="http://www.w3.org/2000/svg"
     width="100" height="100"


fill="none" stroke="#7fa573" stroke-width="10"
     viewBox="0 0 1056 992">
  <path id="Selection"
      
        d="M 466.00,84.00
           C 474.61,56.74 509.78,47.31 534.00,58.31
             540.07,61.07 543.24,63.33 548.00,68.01
             549.86,69.84 553.73,74.59 556.17,75.01
             558.14,75.35 562.84,73.07 565.00,72.36
             569.69,70.81 574.06,70.06 579.00,70.00
             598.26,69.79 614.79,78.78 624.10,96.00
             624.10,96.00 630.74,115.44 630.74,115.44
             632.24,117.08 635.87,117.97 638.00,118.87
             641.71,120.45 645.71,122.72 649.00,125.04
             660.78,133.37 667.47,146.95 669.15,161.00
             669.52,164.05 670.04,165.83 669.82,169.00
             668.40,188.85 659.90,206.17 641.00,214.69
             636.60,216.67 631.75,217.79 627.00,218.56
             624.62,218.95 621.52,218.87 619.70,220.60
             619.70,220.60 613.37,234.00 613.37,234.00
             607.55,243.84 599.67,250.95 589.00,255.17
             583.92,257.19 574.41,259.28 569.00,258.83
             565.15,258.50 556.22,255.98 553.17,257.77
             550.53,259.32 544.66,268.09 542.58,271.00
             542.58,271.00 520.00,303.00 520.00,303.00
             520.00,303.00 512.25,313.85 512.25,313.85
             511.16,315.05 509.37,316.85 507.58,315.83
             505.40,314.59 505.02,303.61 505.00,301.00
             505.00,301.00 504.00,287.00 504.00,287.00
             504.00,287.00 503.00,260.00 503.00,260.00
             484.01,268.05 465.06,268.91 448.00,255.48
             443.52,251.96 438.89,246.88 435.93,242.00
             434.34,239.40 431.98,233.47 429.61,231.97
             426.83,230.35 423.64,232.23 418.00,231.97
             384.07,229.97 360.51,196.04 373.45,164.00
             376.05,157.58 379.79,151.89 385.01,147.30
             387.46,145.16 393.69,141.26 394.95,138.82
             395.77,137.03 394.97,128.73 394.95,126.00
             395.29,100.74 415.69,80.04 441.00,80.00
             457.29,79.97 451.99,80.80 466.00,84.00 Z
           M 510.00,305.00
           C 515.33,302.23 518.56,295.83 522.00,291.00
             522.00,291.00 541.15,264.00 541.15,264.00
             542.82,261.71 548.43,253.74 550.18,252.41
             553.94,249.55 556.64,252.16 563.00,252.95
             571.91,254.05 578.43,253.92 587.00,250.54
             597.17,246.52 605.31,238.73 610.19,229.00
             610.19,229.00 615.72,215.60 615.72,215.60
             617.75,213.61 621.34,214.10 624.00,213.83
             628.67,213.35 635.76,211.65 640.00,209.68
             659.95,200.40 667.26,177.45 663.54,157.00
             661.24,144.40 652.84,133.02 642.00,126.46
             642.00,126.46 626.60,119.30 626.60,119.30
             624.88,117.50 624.53,112.62 623.84,110.00
             622.49,104.83 620.35,99.55 617.53,95.00
             609.02,81.29 594.73,74.82 579.00,75.00
             566.78,75.14 559.42,80.65 556.30,81.48
             552.62,82.45 550.72,78.39 548.68,76.00
             544.36,70.92 538.99,66.37 533.00,63.37
             514.92,54.34 493.56,57.71 479.44,72.29
             474.03,77.87 471.03,83.97 468.00,91.00
             460.17,87.68 454.73,85.11 446.00,85.00
             446.00,85.00 440.00,85.00 440.00,85.00
             423.92,85.20 408.24,97.04 402.71,112.00
             400.41,118.23 399.75,124.41 400.21,131.00
             400.16,133.90 401.31,138.42 400.21,140.96
             399.07,144.58 394.04,146.73 391.00,149.04
             385.92,152.92 381.58,158.17 378.90,164.00
             365.36,193.43 388.52,228.23 421.00,226.96
             421.00,226.96 428.00,226.06 428.00,226.06
             435.53,225.27 435.61,231.51 439.45,238.00
             444.36,246.28 449.57,251.10 458.00,255.69
             468.28,261.29 479.75,262.26 491.00,259.24
             491.00,259.24 502.98,254.66 502.98,254.66
             508.18,253.84 507.98,259.50 508.00,263.00
             508.00,263.00 508.00,270.00 508.00,270.00
             508.00,270.00 508.91,280.00 508.91,280.00
             508.91,280.00 510.00,305.00 510.00,305.00 Z
           M 300.04,286.00
           C 300.04,286.00 300.04,298.00 300.04,298.00
             300.04,298.00 301.00,308.00 301.00,308.00
             301.00,308.00 301.00,324.00 301.00,324.00
             301.00,325.82 301.23,329.97 299.98,331.35
             296.98,334.65 287.35,324.74 285.00,322.73
             285.00,322.73 256.00,298.00 256.00,298.00
             247.83,290.95 245.11,286.02 234.00,286.00
             234.00,286.00 173.00,286.00 173.00,286.00
             173.00,286.00 152.00,286.00 152.00,286.00
             136.92,285.93 123.17,278.17 118.79,263.00
             117.55,258.71 117.01,251.53 117.00,247.00
             117.00,247.00 117.00,173.00 117.00,173.00
             117.10,151.81 129.09,137.03 151.00,137.00
             151.00,137.00 308.00,137.00 308.00,137.00
             329.86,137.03 341.97,151.87 342.00,173.00
             342.00,173.00 342.00,238.00 342.00,238.00
             342.00,249.32 343.44,261.04 336.89,271.00
             327.22,285.72 315.63,286.00 300.04,286.00 Z
           M 296.00,324.00
           C 296.00,324.00 296.00,311.00 296.00,311.00
             296.00,311.00 295.00,291.00 295.00,291.00
             295.01,288.46 294.68,284.52 296.60,282.60
             298.80,280.40 304.96,281.03 308.00,281.00
             326.84,280.77 336.97,268.11 337.00,250.00
             337.00,250.00 337.00,173.00 337.00,173.00
             336.97,154.27 326.08,142.03 307.00,142.00
             307.00,142.00 152.00,142.00 152.00,142.00
             131.85,142.03 122.03,154.59 122.00,174.00
             122.00,174.00 122.00,248.00 122.00,248.00
             122.03,267.89 132.38,280.97 153.00,281.00
             153.00,281.00 236.00,281.00 236.00,281.00
             247.48,281.02 249.52,285.68 258.00,293.00
             258.00,293.00 282.00,313.42 282.00,313.42
             286.45,317.21 290.67,321.53 296.00,324.00 Z
           M 485.00,156.61
           C 498.98,155.25 500.18,172.83 489.00,175.55
             478.64,178.08 472.08,161.52 485.00,156.61 Z
           M 518.00,156.66
           C 532.40,155.70 532.60,172.95 522.00,175.55
             515.76,177.09 509.63,170.96 510.48,165.00
             511.13,160.50 514.02,158.12 518.00,156.66 Z
           M 551.00,156.61
           C 564.84,155.44 564.95,173.11 555.00,175.55
             548.76,177.09 542.63,170.96 543.48,165.00
             544.13,160.49 547.04,158.13 551.00,156.61 Z
           M 739.00,321.00
           C 711.30,329.03 683.53,329.80 663.14,305.99
             659.13,301.29 656.39,296.83 654.34,291.00
             652.27,285.07 651.08,280.32 651.00,274.00
             650.73,250.93 659.16,232.62 680.00,220.87
             684.06,218.59 688.48,217.00 693.00,215.90
             695.45,215.30 699.63,214.96 701.42,213.26
             703.14,211.63 705.89,197.87 707.45,194.00
             711.89,183.01 720.87,172.09 731.00,165.93
             748.93,155.01 770.92,152.98 790.00,162.26
             794.61,164.50 796.98,165.85 801.00,169.09
             802.85,170.59 806.90,174.30 809.00,174.88
             812.07,175.74 819.63,170.78 823.00,169.46
             831.53,166.13 839.04,165.90 848.00,166.00
             867.64,166.23 886.50,178.89 895.68,196.00
             901.02,205.96 901.37,214.28 902.98,216.87
             904.84,219.85 915.72,224.35 920.00,227.49
             932.53,236.68 941.81,252.24 942.00,268.00
             942.11,277.39 942.17,282.91 938.91,292.00
             930.75,314.73 910.12,326.34 887.00,327.91
             881.47,328.29 871.50,326.96 866.00,325.79
             863.53,325.26 858.38,323.50 856.18,324.35
             853.80,325.26 849.09,332.58 847.08,335.00
             842.12,340.94 836.72,345.29 830.00,349.13
             803.17,364.48 767.51,359.56 747.81,335.00
             744.35,330.69 740.98,326.18 739.00,321.00 Z
           M 761.00,161.29
           C 740.23,164.33 722.72,172.93 713.32,193.00
             711.34,197.23 709.45,203.39 708.62,208.00
             708.19,210.33 708.01,214.91 706.83,216.69
             704.91,219.57 695.61,220.34 692.00,221.52
             682.77,224.53 674.63,229.70 668.18,237.00
             648.83,258.91 652.60,293.84 676.00,311.24
             687.43,319.74 697.30,321.06 711.00,321.00
             717.96,320.97 723.31,319.80 730.00,318.13
             732.87,317.41 737.18,315.86 739.96,317.11
             743.13,318.53 750.32,330.13 754.04,334.00
             765.97,346.44 783.50,354.50 801.00,352.83
             815.67,351.43 828.28,346.24 839.00,335.96
             839.00,335.96 854.04,319.06 854.04,319.06
             857.19,317.57 861.72,319.57 865.00,320.35
             871.13,321.79 879.74,323.13 886.00,322.99
             907.83,322.49 927.97,309.02 934.91,288.00
             937.26,280.89 937.08,275.33 937.00,268.00
             936.94,263.12 936.33,259.57 934.54,255.00
             931.69,247.71 927.58,241.51 921.99,236.04
             917.93,232.07 914.12,229.24 909.00,226.79
             906.17,225.43 900.69,223.95 898.98,221.58
             896.90,218.70 897.28,210.48 892.03,200.00
             882.07,180.14 864.55,170.97 843.00,171.00
             834.81,171.01 827.35,172.64 820.00,176.37
             817.03,177.88 811.24,182.71 808.17,181.70
             808.17,181.70 796.00,171.57 796.00,171.57
             786.43,164.87 772.75,160.30 761.00,161.29 Z
           M 160.00,179.00
           C 160.00,179.00 299.00,179.00 299.00,179.00
             297.97,184.87 295.26,183.99 290.00,184.00
             290.00,184.00 270.00,184.00 270.00,184.00
             270.00,184.00 186.00,184.00 186.00,184.00
             186.00,184.00 168.00,184.00 168.00,184.00
             166.18,183.99 163.08,184.15 161.60,182.98
             160.21,181.89 160.27,180.53 160.00,179.00 Z
           M 160.00,209.00
           C 160.00,209.00 266.00,209.00 266.00,209.00
             266.00,209.00 292.00,209.00 292.00,209.00
             296.46,209.03 298.41,208.45 300.00,213.00
             300.00,213.00 206.00,213.00 206.00,213.00
             206.00,213.00 160.00,213.00 160.00,213.00
             160.00,213.00 160.00,209.00 160.00,209.00 Z
           M 160.88,239.97
           C 164.82,238.16 176.12,239.00 181.00,239.05
             181.00,239.05 226.00,239.05 226.00,239.05
             226.00,239.05 241.94,239.05 241.94,239.05
             243.45,239.40 246.14,240.40 244.83,242.46
             243.63,244.35 238.99,244.00 237.00,244.00
             237.00,244.00 178.00,244.00 178.00,244.00
             174.58,244.00 158.61,245.87 160.88,239.97 Z
           M 711.00,346.65
           C 718.99,345.00 726.93,345.84 732.79,352.10
             742.63,362.62 738.13,381.28 724.00,385.36
             704.02,391.14 688.83,367.78 702.53,352.18
             705.06,349.30 707.52,348.03 711.00,346.65 Z
           M 714.00,351.39
           C 694.18,357.79 702.43,385.09 722.00,380.61
             733.05,378.08 736.07,363.88 729.58,356.10
             725.33,351.00 720.13,350.56 714.00,351.39 Z
           M 246.00,585.00
           C 238.84,584.24 234.16,580.64 228.00,577.31
             228.00,577.31 198.00,562.07 198.00,562.07
             195.64,561.54 189.85,562.00 187.00,562.07
             147.80,562.06 113.62,542.48 94.37,508.00
             78.12,478.68 78.46,438.42 94.37,409.00
             112.34,375.52 148.71,353.34 187.00,354.74
             197.23,355.12 202.85,355.35 213.00,357.89
             241.44,365.04 266.67,385.88 279.73,412.00
             297.72,447.98 292.36,492.87 267.20,524.00
             261.05,531.60 249.12,543.45 240.00,547.00
             242.31,555.73 245.97,576.22 246.00,585.00 Z
           M 391.02,519.00
           C 391.02,519.00 368.00,519.00 368.00,519.00
             347.53,518.76 334.10,504.18 334.00,484.00
             334.00,484.00 334.00,430.00 334.00,430.00
             334.00,430.00 334.00,405.00 334.00,405.00
             334.00,390.34 332.41,378.31 344.04,367.09
             347.47,363.78 351.43,361.20 356.00,359.77
             360.91,358.24 364.93,358.01 370.00,358.00
             370.00,358.00 419.00,358.00 419.00,358.00
             419.00,358.00 430.00,357.32 430.00,357.32
             430.00,357.32 440.00,358.00 440.00,358.00
             440.00,358.00 521.00,358.00 521.00,358.00
             543.04,358.03 556.97,370.55 557.00,393.00
             557.00,393.00 557.00,430.00 557.00,430.00
             557.00,430.00 634.00,430.00 634.00,430.00
             638.61,430.02 642.56,430.40 647.00,431.77
             650.25,432.78 653.24,434.29 655.99,436.30
             662.83,441.31 668.45,449.51 669.89,458.00
             669.89,458.00 669.89,467.00 669.89,467.00
             669.89,467.00 670.82,474.00 670.82,474.00
             670.82,474.00 670.00,490.00 670.00,490.00
             670.00,490.00 670.81,499.00 670.81,499.00
             670.81,499.00 670.81,506.00 670.81,506.00
             670.81,506.00 670.81,520.00 670.81,520.00
             670.81,520.00 670.81,544.00 670.81,544.00
             671.00,563.56 670.34,584.86 648.00,592.25
             643.94,593.59 641.23,593.95 637.00,594.00
             637.00,594.00 614.00,594.00 614.00,594.00
             614.00,594.00 614.00,627.00 614.00,627.00
             614.00,627.00 613.00,647.00 613.00,647.00
             606.02,645.27 600.32,638.84 595.00,634.15
             595.00,634.15 564.00,607.15 564.00,607.15
             560.81,604.35 551.39,595.80 548.00,594.59
             546.01,593.88 543.13,594.00 541.00,594.00
             541.00,594.00 498.00,594.00 498.00,594.00
             479.52,594.00 462.71,594.89 453.33,575.00
             449.28,566.44 450.00,560.07 450.00,551.00
             450.00,551.00 450.00,519.00 450.00,519.00
             450.00,519.00 408.00,556.28 408.00,556.28
             405.18,558.77 392.03,574.25 391.02,562.96
             391.02,562.96 391.02,559.00 391.02,559.00
             391.02,559.00 391.02,519.00 391.02,519.00 Z
           M 241.00,578.00
           C 241.00,578.00 236.80,556.00 236.80,556.00
             236.38,553.78 235.15,548.17 235.77,546.18
             236.61,543.46 240.74,541.20 243.00,539.57
             247.95,536.01 253.75,531.41 257.91,527.00
             272.40,511.60 284.74,487.51 285.00,466.00
             285.28,442.03 283.56,428.22 270.99,407.00
             263.73,394.76 255.45,386.46 244.00,378.15
             205.43,350.15 149.89,354.19 116.04,388.04
             91.65,412.42 82.79,446.69 89.60,480.00
             92.06,492.02 97.74,504.96 104.77,515.00
             112.87,526.57 125.57,537.95 138.00,544.69
             155.70,554.29 169.09,557.03 189.00,557.13
             191.75,557.00 196.76,556.61 199.17,557.13
             199.17,557.13 241.00,578.00 241.00,578.00 Z
           M 396.00,559.00
           C 402.66,555.11 425.44,533.59 433.00,526.84
             436.14,524.03 444.59,515.85 448.00,514.60
             449.95,513.88 452.90,514.00 455.00,514.00
             455.00,514.00 504.00,514.00 504.00,514.00
             512.80,514.00 524.79,514.79 533.00,512.23
             546.67,507.96 551.98,496.38 552.00,483.00
             552.00,483.00 552.00,393.00 552.00,393.00
             551.97,372.85 539.41,363.03 520.00,363.00
             520.00,363.00 370.00,363.00 370.00,363.00
             350.38,363.03 339.03,374.41 339.00,394.00
             339.00,394.00 339.00,482.00 339.00,482.00
             339.03,502.57 350.40,513.97 371.00,514.00
             371.00,514.00 388.00,514.00 388.00,514.00
             390.14,514.04 392.77,513.96 394.40,515.60
             396.32,517.52 395.99,521.46 396.00,524.00
             396.00,524.00 396.00,559.00 396.00,559.00 Z
           M 679.00,390.49
           C 683.90,390.01 689.08,391.22 692.35,395.21
             698.57,402.80 694.69,415.39 685.00,417.61
             666.47,421.86 659.47,395.60 679.00,390.49 Z
           M 680.00,395.43
           C 666.99,399.50 672.14,414.56 683.00,412.77
             693.00,411.12 693.52,394.90 680.00,395.43 Z
           M 382.66,405.00
           C 387.27,403.03 405.83,404.00 412.00,404.00
             412.00,404.00 480.00,404.00 480.00,404.00
             480.00,404.00 503.00,404.00 503.00,404.00
             504.52,404.03 510.88,404.22 508.83,407.46
             507.63,409.35 502.99,409.00 501.00,409.00
             501.00,409.00 410.00,409.00 410.00,409.00
             410.00,409.00 388.00,409.00 388.00,409.00
             385.16,408.94 380.40,409.04 382.66,405.00 Z
           M 770.00,570.00
           C 755.55,570.00 743.00,569.13 733.80,556.00
             726.66,545.82 728.00,533.72 728.00,522.00
             728.00,522.00 728.00,456.00 728.00,456.00
             728.03,434.74 739.99,420.03 762.00,420.00
             762.00,420.00 860.00,420.00 860.00,420.00
             860.00,420.00 923.00,420.00 923.00,420.00
             943.82,420.03 957.97,432.81 958.00,454.00
             958.00,454.00 958.00,535.00 958.00,535.00
             957.97,557.39 944.04,569.97 922.00,570.00
             922.00,570.00 836.00,570.00 836.00,570.00
             833.55,570.00 830.28,569.87 828.00,570.74
             824.65,572.02 815.20,581.02 812.00,583.93
             812.00,583.93 789.00,604.17 789.00,604.17
             789.00,604.17 777.00,614.80 777.00,614.80
             775.61,615.84 773.42,617.53 771.57,616.60
             769.59,615.60 770.00,610.89 770.00,609.00
             770.00,609.00 770.00,570.00 770.00,570.00 Z
           M 775.00,608.00
           C 780.73,605.42 784.31,601.47 789.00,597.42
             789.00,597.42 811.00,578.00 811.00,578.00
             819.55,570.19 822.25,565.02 834.00,565.00
             834.00,565.00 921.00,565.00 921.00,565.00
             940.16,564.97 952.97,554.94 953.00,535.00
             953.00,535.00 953.00,455.00 953.00,455.00
             952.97,436.30 941.69,425.03 923.00,425.00
             923.00,425.00 763.00,425.00 763.00,425.00
             742.98,425.03 733.03,437.75 733.00,457.00
             733.00,457.00 733.00,533.00 733.00,533.00
             733.02,546.31 737.04,556.77 750.00,562.47
             755.66,564.97 760.03,564.96 766.00,565.00
             768.35,565.02 771.61,564.80 773.40,566.60
             775.32,568.52 774.99,572.46 775.00,575.00
             775.00,575.00 775.00,608.00 775.00,608.00 Z
           M 381.00,433.96
           C 381.00,433.96 395.00,433.96 395.00,433.96
             395.00,433.96 407.00,433.00 407.00,433.00
             407.00,433.00 471.00,433.00 471.00,433.00
             480.57,433.00 502.17,431.37 510.00,435.00
             510.00,435.00 510.00,437.00 510.00,437.00
             503.28,438.91 476.75,438.00 468.00,438.00
             468.00,438.00 381.00,438.00 381.00,438.00
             381.00,438.00 381.00,433.96 381.00,433.96 Z
           M 609.00,638.00
           C 609.00,638.00 609.00,605.00 609.00,605.00
             609.00,601.97 608.51,593.58 610.02,591.31
             611.86,588.55 616.09,589.01 619.00,589.00
             619.00,589.00 637.00,589.00 637.00,589.00
             656.84,588.76 665.97,573.05 666.00,555.00
             666.00,555.00 666.00,492.00 666.00,492.00
             666.00,482.26 666.76,464.82 664.21,456.00
             660.05,441.59 647.06,435.07 633.00,435.00
             633.00,435.00 557.00,435.00 557.00,435.00
             557.00,435.00 557.00,474.00 557.00,474.00
             557.00,484.10 557.79,492.80 552.47,502.00
             545.55,513.97 533.27,518.98 520.00,519.00
             520.00,519.00 455.00,519.00 455.00,519.00
             455.00,519.00 455.00,559.00 455.00,559.00
             455.20,575.84 466.85,588.79 484.00,589.00
             484.00,589.00 542.00,589.00 542.00,589.00
             554.27,589.02 557.00,594.56 566.00,602.27
             566.00,602.27 591.00,623.95 591.00,623.95
             595.94,628.34 603.21,635.31 609.00,638.00 Z
           M 150.00,450.61
           C 163.98,449.25 165.18,466.83 154.00,469.55
             143.64,472.08 137.08,455.52 150.00,450.61 Z
           M 183.00,450.66
           C 197.40,449.70 197.60,466.95 187.00,469.55
             180.76,471.09 174.63,464.96 175.48,459.00
             176.13,454.50 179.02,452.12 183.00,450.66 Z
           M 216.00,450.61
           C 229.84,449.44 229.95,467.11 220.00,469.55
             213.76,471.09 207.63,464.96 208.48,459.00
             209.13,454.49 212.04,452.13 216.00,450.61 Z
           M 771.00,462.00
           C 771.00,462.00 880.00,462.00 880.00,462.00
             880.00,462.00 907.00,462.00 907.00,462.00
             911.46,462.03 913.41,461.45 915.00,466.00
             907.48,467.83 885.97,467.00 877.00,467.00
             877.00,467.00 804.00,467.00 804.00,467.00
             804.00,467.00 779.00,467.00 779.00,467.00
             774.17,466.93 771.90,467.23 771.00,462.00 Z
           M 380.00,465.00
           C 380.00,465.00 407.00,464.00 407.00,464.00
             407.00,464.00 459.00,464.00 459.00,464.00
             459.00,464.00 459.00,468.00 459.00,468.00
             459.00,468.00 407.00,468.00 407.00,468.00
             407.00,468.00 380.00,467.00 380.00,467.00
             380.00,467.00 380.00,465.00 380.00,465.00 Z
           M 771.00,492.00
           C 771.00,492.00 881.00,492.00 881.00,492.00
             881.00,492.00 909.00,492.00 909.00,492.00
             910.52,492.03 916.88,492.22 914.83,495.46
             913.63,497.35 908.99,497.00 907.00,497.00
             907.00,497.00 803.00,497.00 803.00,497.00
             803.00,497.00 779.00,497.00 779.00,497.00
             773.95,496.97 771.96,497.45 771.00,492.00 Z
           M 866.00,526.00
           C 859.07,527.68 847.50,527.00 840.00,527.00
             840.00,527.00 794.00,527.00 794.00,527.00
             794.00,527.00 778.00,527.00 778.00,527.00
             776.48,526.97 770.12,526.78 772.17,523.54
             773.37,521.65 778.01,522.00 780.00,522.00
             780.00,522.00 845.00,522.00 845.00,522.00
             848.54,522.00 862.15,521.30 864.41,523.02
             865.62,523.95 865.57,524.77 866.00,526.00 Z
           M 317.00,589.74
           C 321.95,588.55 326.83,588.72 330.78,592.39
             338.00,599.10 335.19,611.53 326.00,614.80
             317.08,617.98 307.10,610.60 308.37,601.00
             309.07,595.63 312.41,592.16 317.00,589.74 Z
           M 321.00,592.56
           C 317.20,593.55 314.26,595.11 312.74,599.02
             310.26,605.41 315.10,612.30 322.00,611.77
             333.77,610.87 335.17,592.97 321.00,592.56 Z
           M 283.00,622.48
           C 309.92,619.17 315.29,656.59 290.00,661.47
             275.28,664.31 263.34,648.61 268.18,634.96
             270.61,628.12 276.24,624.28 283.00,622.48 Z
           M 283.00,626.39
           C 261.88,632.74 270.89,661.43 290.00,657.62
             302.03,655.22 306.94,640.28 298.61,631.21
             294.59,626.83 288.64,625.68 283.00,626.39 Z
           M 733.00,698.00
           C 733.00,698.00 726.61,663.00 726.61,663.00
             726.12,660.38 724.11,652.79 726.61,651.08
             728.54,649.74 731.30,651.39 733.00,652.39
             733.00,652.39 747.00,661.92 747.00,661.92
             747.00,661.92 771.00,678.00 771.00,678.00
             774.13,680.09 780.68,684.86 784.00,685.86
             784.00,685.86 802.00,685.86 802.00,685.86
             840.94,686.18 893.33,708.46 906.25,748.00
             908.88,756.04 909.09,761.71 909.00,770.00
             908.64,800.38 883.57,823.15 858.00,835.22
             808.29,858.69 735.19,852.99 696.04,812.00
             690.76,806.47 685.44,799.05 682.43,792.00
             668.30,758.99 683.63,727.79 712.00,708.67
             717.69,704.83 726.44,699.87 733.00,698.00 Z
           M 201.00,654.43
           C 219.16,652.18 236.90,656.23 251.00,668.30
             254.42,671.23 258.54,675.40 261.24,679.00
             263.00,681.35 265.30,685.63 268.09,686.65
             270.50,687.54 276.34,685.52 279.00,684.88
             284.73,683.52 294.17,682.07 300.00,682.00
             311.76,681.87 324.29,684.91 334.00,691.78
             359.31,709.70 364.30,745.29 346.08,770.00
             340.05,778.16 332.14,784.10 323.00,788.37
             315.40,791.92 310.45,790.68 308.01,794.30
             306.77,796.13 306.19,801.61 305.74,804.00
             304.91,808.40 303.54,812.92 301.69,817.00
             293.00,836.14 275.59,848.71 255.00,851.91
             242.88,853.79 229.79,851.58 219.00,845.69
             219.00,845.69 203.00,835.49 203.00,835.49
             200.11,835.00 193.99,839.47 191.00,840.88
             183.93,844.22 176.79,845.94 169.00,846.00
             169.00,846.00 162.00,846.00 162.00,846.00
             143.11,845.78 125.58,834.00 116.09,818.00
             116.09,818.00 107.30,796.51 107.30,796.51
             104.78,793.80 98.09,793.13 89.04,786.57
             73.42,775.24 66.97,759.85 67.00,741.00
             67.05,710.18 91.28,689.14 121.00,687.15
             127.08,686.75 135.00,687.65 141.00,688.80
             143.45,689.27 148.45,690.87 150.62,689.81
             152.44,688.92 154.22,685.69 155.35,684.00
             158.08,679.95 160.60,676.53 164.04,673.01
             174.21,662.62 186.79,656.76 201.00,654.43 Z
           M 303.00,790.00
           C 303.00,790.00 317.00,786.56 317.00,786.56
             327.33,783.39 337.40,775.78 343.56,767.00
             365.28,736.07 349.31,694.37 312.00,686.67
             301.19,684.43 292.64,685.83 282.00,688.00
             278.70,688.68 269.53,691.77 267.09,691.08
             264.09,690.23 262.00,686.40 260.26,684.00
             257.34,680.00 253.68,675.46 250.00,672.18
             236.18,659.90 218.00,655.81 200.00,658.18
             187.89,659.77 173.41,668.22 165.17,677.04
             162.00,680.44 154.70,692.59 151.90,693.81
             149.41,694.89 145.56,693.47 143.00,692.89
             138.14,691.79 131.98,691.02 127.00,691.00
             111.75,690.93 98.86,694.21 87.01,704.32
             69.86,718.98 65.18,747.52 76.46,767.00
             81.14,775.07 87.81,782.15 96.00,786.69
             99.55,788.65 109.41,791.96 111.07,794.28
             111.07,794.28 115.25,808.00 115.25,808.00
             119.04,817.65 125.65,826.35 134.00,832.51
             148.80,843.42 166.81,845.43 184.00,839.64
             188.21,838.23 192.26,836.30 196.00,833.90
             197.93,832.67 200.60,830.24 203.00,830.61
             205.04,830.92 211.63,836.90 214.00,838.56
             220.31,842.99 227.45,846.15 235.00,847.72
             263.20,853.55 291.29,837.43 300.33,810.00
             302.50,803.40 303.73,796.96 303.00,790.00 Z
           M 731.00,659.00
           C 731.00,659.00 736.20,688.00 736.20,688.00
             736.75,690.89 738.34,697.23 736.94,699.78
             735.57,702.27 731.50,703.59 729.00,704.78
             723.79,707.26 717.73,710.75 713.00,714.04
             695.67,726.10 682.88,744.37 682.04,766.00
             680.97,793.50 703.02,816.56 726.00,828.24
             770.00,850.62 828.12,849.75 870.00,822.78
             895.21,806.55 912.23,776.90 900.54,747.00
             896.36,736.31 891.11,729.93 883.00,722.01
             873.45,712.70 860.46,705.13 848.00,700.42
             823.48,691.17 812.31,691.42 787.00,691.00
             779.12,690.86 775.35,686.88 769.00,682.67
             769.00,682.67 746.00,667.33 746.00,667.33
             741.22,664.14 736.65,660.38 731.00,659.00 Z
           M 455.00,722.00
           C 461.94,723.12 466.87,729.16 472.00,733.58
             472.00,733.58 501.00,759.13 501.00,759.13
             503.14,760.97 511.82,768.83 513.58,769.87
             515.36,770.38 520.79,770.00 523.00,769.87
             523.00,769.87 578.00,769.87 578.00,769.87
             587.29,770.00 601.46,769.20 610.00,772.10
             626.00,777.55 631.98,791.17 632.00,807.00
             632.00,807.00 632.00,895.00 632.00,895.00
             631.89,918.17 619.53,931.96 596.00,932.00
             596.00,932.00 437.00,932.00 437.00,932.00
             416.03,931.97 402.03,920.75 402.00,899.00
             402.00,899.00 402.00,804.00 402.00,804.00
             402.02,788.46 410.19,775.34 426.00,771.52
             431.36,770.23 437.50,769.94 443.00,770.00
             445.75,770.04 451.45,771.18 453.40,769.36
             455.32,767.58 455.00,763.44 455.00,761.00
             455.00,761.00 455.00,722.00 455.00,722.00 Z
           M 461.00,731.00
           C 459.51,734.76 460.00,739.00 460.00,743.00
             460.00,743.00 460.00,765.00 460.00,765.00
             459.99,767.91 460.45,772.14 457.69,773.98
             455.09,775.71 440.92,774.96 437.00,775.00
             418.45,775.22 407.03,786.47 407.00,805.00
             407.00,805.00 407.00,898.00 407.00,898.00
             407.03,916.90 418.48,926.97 437.00,927.00
             437.00,927.00 596.00,927.00 596.00,927.00
             617.21,926.97 626.97,914.35 627.00,894.00
             627.00,894.00 627.00,805.00 627.00,805.00
             626.75,784.47 613.37,775.03 594.00,775.00
             594.00,775.00 519.00,775.00 519.00,775.00
             507.84,774.98 505.06,769.35 497.00,762.28
             497.00,762.28 461.00,731.00 461.00,731.00 Z
           M 482.00,843.61
           C 495.98,842.25 497.18,859.83 486.00,862.55
             475.64,865.08 469.08,848.52 482.00,843.61 Z
           M 515.00,843.66
           C 529.40,842.70 529.60,859.95 519.00,862.55
             512.76,864.09 506.63,857.96 507.48,852.00
             508.13,847.50 511.02,845.12 515.00,843.66 Z
           M 548.00,843.61
           C 561.84,842.44 561.95,860.11 552.00,862.55
             545.76,864.09 539.63,857.96 540.48,852.00
             541.13,847.49 544.04,845.13 548.00,843.61 Z" />
</svg>
