<?xml version="1.0" encoding="UTF-8" standalone="no"?>
<!DOCTYPE svg PUBLIC "-//W3C//DTD SVG 20010904//EN"
              "http://www.w3.org/TR/2001/REC-SVG-20010904/DTD/svg10.dtd">

<svg xmlns="http://www.w3.org/2000/svg"
     width="100" height="100"  fill="none" stroke="#7fa573" stroke-width="14"
     viewBox="0 0 1120 944">
  <path id="Selection"
       
        d="M 185.00,237.00
           C 185.00,237.00 185.00,130.00 185.00,130.00
             185.04,106.64 202.30,92.04 225.00,92.00
             225.00,92.00 738.00,92.00 738.00,92.00
             738.00,92.00 924.00,92.00 924.00,92.00
             929.50,92.01 932.63,92.23 938.00,93.75
             959.82,99.90 964.97,118.86 965.00,139.00
             965.00,139.00 965.00,341.00 965.00,341.00
             965.00,341.00 965.00,453.00 965.00,453.00
             965.00,453.00 964.00,468.00 964.00,468.00
             964.00,468.00 964.00,473.00 964.00,473.00
             964.00,473.00 962.00,473.00 962.00,473.00
             962.00,473.00 962.00,197.00 962.00,197.00
             962.00,197.00 943.95,197.96 943.95,197.96
             943.95,197.96 887.00,197.96 887.00,197.96
             887.00,197.96 821.00,197.96 821.00,197.96
             821.00,197.96 806.00,197.05 806.00,197.05
             806.00,197.05 794.00,198.00 794.00,198.00
             794.00,198.00 771.00,198.00 771.00,198.00
             771.00,198.00 762.00,197.12 762.00,197.12
             762.00,197.12 728.00,197.12 728.00,197.12
             728.00,197.12 719.00,197.66 719.00,197.66
             719.00,197.66 708.00,197.00 708.00,197.00
             708.00,197.00 676.00,197.00 676.00,197.00
             676.00,197.00 647.00,198.00 647.00,198.00
             647.00,198.00 628.00,197.01 628.00,197.01
             628.00,197.01 614.00,197.92 614.00,197.92
             614.00,197.92 577.00,197.92 577.00,197.92
             577.00,197.92 564.09,197.92 564.09,197.92
             564.09,197.92 552.00,197.92 552.00,197.92
             552.00,197.92 477.00,197.92 477.00,197.92
             477.00,197.92 464.00,197.92 464.00,197.92
             464.00,197.92 449.00,197.36 449.00,197.36
             449.00,197.36 392.49,197.94 392.49,197.94
             392.49,197.94 343.00,197.94 343.00,197.94
             343.00,197.94 302.00,197.94 302.00,197.94
             302.00,197.94 203.00,197.94 203.00,197.94
             196.28,197.92 189.01,194.84 187.10,201.06
             186.94,202.41 187.00,205.50 187.10,207.00
             187.10,207.00 187.10,237.00 187.10,237.00
             187.10,237.00 185.00,237.00 185.00,237.00 Z
           M 962.00,195.00
           C 962.00,195.00 962.00,132.00 962.00,132.00
             961.97,115.48 953.76,100.54 937.00,95.93
             931.81,94.50 926.36,94.01 921.00,94.00
             921.00,94.00 357.00,94.00 357.00,94.00
             357.00,94.00 227.00,94.00 227.00,94.00
             202.58,94.04 187.04,108.23 187.00,133.00
             187.00,133.00 187.00,195.00 187.00,195.00
             187.00,195.00 962.00,195.00 962.00,195.00 Z
           M 246.00,139.75
           C 258.82,137.24 263.23,153.64 252.96,157.99
             245.60,161.11 238.50,154.40 239.27,148.00
             239.78,143.75 242.50,141.60 246.00,139.75 Z
           M 301.00,139.66
           C 315.11,137.47 316.80,155.44 306.00,158.43
             294.86,161.51 288.01,145.17 301.00,139.66 Z
           M 356.00,139.58
           C 369.14,137.93 371.92,154.97 360.98,158.35
             349.91,161.77 342.06,145.09 356.00,139.58 Z
           M 246.11,142.60
           C 237.84,147.85 243.49,158.81 251.89,155.26
             256.70,153.23 256.87,146.54 253.57,143.74
             251.26,141.77 248.80,142.07 246.11,142.60 Z
           M 301.04,142.47
           C 293.40,147.06 296.73,154.53 302.02,155.67
             310.94,157.59 314.10,144.28 304.98,142.47
             303.20,141.95 302.65,142.31 301.04,142.47 Z
           M 356.04,142.45
           C 347.19,146.27 351.32,157.78 359.98,155.68
             365.92,154.24 365.68,147.27 363.26,144.43
             361.22,142.02 358.85,142.17 356.04,142.45 Z
           M 259.00,264.00
           C 259.00,264.00 407.00,264.00 407.00,264.00
             407.00,264.00 407.00,377.00 407.00,377.00
             407.00,377.00 407.00,403.00 407.00,403.00
             407.00,403.00 405.98,410.40 405.98,410.40
             405.98,410.40 398.00,412.00 398.00,412.00
             398.00,412.00 345.00,412.00 345.00,412.00
             345.00,412.00 325.00,411.00 325.00,411.00
             325.00,411.00 311.00,411.90 311.00,411.90
             311.00,411.90 301.00,411.07 301.00,411.07
             301.00,411.07 290.82,411.93 290.82,411.93
             290.82,411.93 277.00,411.93 277.00,411.93
             277.00,411.93 265.00,411.21 265.00,411.21
             265.00,411.21 259.99,410.17 259.99,410.17
             259.99,410.17 259.00,403.00 259.00,403.00
             259.00,403.00 259.00,264.00 259.00,264.00 Z
           M 451.00,264.00
           C 451.00,264.00 599.00,264.00 599.00,264.00
             599.00,264.00 599.99,276.00 599.99,276.00
             599.99,276.00 599.99,304.00 599.99,304.00
             599.99,304.00 599.00,321.00 599.00,321.00
             599.00,321.00 599.00,359.00 599.00,359.00
             599.00,359.00 599.00,374.00 599.00,374.00
             599.00,374.00 600.00,391.00 600.00,391.00
             600.00,391.00 599.00,405.00 599.00,405.00
             599.00,405.00 597.40,410.98 597.40,410.98
             597.40,410.98 587.00,412.00 587.00,412.00
             587.00,412.00 573.00,411.41 573.00,411.41
             573.00,411.41 565.00,411.41 565.00,411.41
             565.00,411.41 556.01,411.41 556.01,411.41
             556.01,411.41 548.49,411.41 548.49,411.41
             548.49,411.41 543.00,411.41 543.00,411.41
             543.00,411.41 536.00,411.41 536.00,411.41
             536.00,411.41 525.91,411.41 525.91,411.41
             525.91,411.41 518.28,411.41 518.28,411.41
             518.28,411.41 503.00,411.41 503.00,411.41
             503.00,411.41 488.00,412.00 488.00,412.00
             488.00,412.00 461.00,412.00 461.00,412.00
             461.00,412.00 452.57,410.83 452.57,410.83
             452.57,410.83 451.00,403.00 451.00,403.00
             451.00,403.00 451.00,264.00 451.00,264.00 Z
           M 405.00,266.00
           C 405.00,266.00 261.00,266.00 261.00,266.00
             261.00,266.00 261.00,409.00 261.00,409.00
             261.00,409.00 405.00,409.00 405.00,409.00
             405.00,409.00 405.00,266.00 405.00,266.00 Z
           M 597.00,266.00
           C 597.00,266.00 454.00,266.00 454.00,266.00
             454.00,266.00 454.00,409.00 454.00,409.00
             454.00,409.00 597.00,409.00 597.00,409.00
             597.00,409.00 597.00,266.00 597.00,266.00 Z
           M 133.00,267.21
           C 133.00,267.21 153.00,267.21 153.00,267.21
             167.70,267.02 187.66,272.49 195.47,286.00
             201.46,296.35 200.00,307.55 200.00,319.00
             200.00,319.00 200.00,380.00 200.00,380.00
             200.00,380.00 200.00,753.00 200.00,753.00
             199.98,765.49 193.69,774.03 188.25,785.00
             188.25,785.00 163.74,836.00 163.74,836.00
             160.84,841.99 154.27,859.39 147.00,859.56
             139.12,859.76 133.31,843.13 130.25,837.00
             130.25,837.00 105.75,787.00 105.75,787.00
             105.75,787.00 94.10,762.00 94.10,762.00
             93.93,759.88 94.00,757.19 94.10,755.00
             94.10,755.00 94.10,385.00 94.10,385.00
             94.10,385.00 94.10,318.00 94.10,318.00
             94.00,307.83 92.50,294.84 97.99,286.00
             105.62,273.73 119.64,269.62 133.00,267.21 Z
           M 198.00,340.00
           C 198.00,340.00 198.00,317.00 198.00,317.00
             198.00,301.59 199.02,288.94 185.00,278.61
             179.70,274.71 173.33,272.65 167.00,271.13
             141.10,264.92 96.17,269.07 96.00,304.00
             96.00,304.00 96.00,340.00 96.00,340.00
             96.00,340.00 198.00,340.00 198.00,340.00 Z
           M 769.00,275.21
           C 769.00,275.21 792.00,275.21 792.00,275.21
             797.53,275.07 804.53,276.30 810.00,277.40
             840.20,283.44 865.15,297.43 888.00,317.84
             895.73,324.74 902.60,332.02 909.25,340.00
             911.40,342.58 915.93,347.52 915.84,351.00
             915.77,353.97 912.40,357.76 910.58,360.00
             904.39,367.60 898.90,373.13 892.00,380.00
             867.26,404.63 825.51,425.94 790.00,426.00
             790.00,426.00 776.00,426.00 776.00,426.00
             739.41,425.57 698.70,404.06 673.00,378.99
             666.10,372.26 660.62,366.63 654.66,359.00
             652.60,356.36 649.04,352.60 650.08,349.00
             650.68,346.89 654.13,342.82 655.61,341.00
             661.72,333.47 665.15,329.82 672.00,323.00
             691.04,304.05 720.02,286.92 746.00,279.74
             746.00,279.74 769.00,275.21 769.00,275.21 Z
           M 774.00,277.14
           C 774.00,277.14 749.00,281.48 749.00,281.48
             722.70,288.21 694.13,304.90 675.00,324.00
             668.40,330.59 663.17,335.66 657.26,343.00
             655.25,345.50 652.39,348.53 653.36,352.00
             654.00,354.29 657.34,358.10 658.92,360.00
             664.23,366.39 670.10,372.16 676.00,378.00
             702.67,404.36 743.12,423.55 781.00,424.00
             821.72,424.47 856.60,407.33 887.00,381.27
             895.20,374.24 900.44,368.35 907.20,360.00
             908.87,357.93 912.79,353.61 912.91,351.00
             913.04,348.01 908.62,343.24 906.73,341.00
             900.29,333.38 893.56,325.96 886.00,319.42
             862.59,299.21 839.55,285.91 809.00,279.80
             801.91,278.38 793.21,277.03 786.00,277.14
             786.00,277.14 774.00,277.14 774.00,277.14 Z
           M 780.00,298.42
           C 786.03,297.71 792.17,298.78 798.00,300.43
             830.83,309.69 844.06,349.73 826.53,378.00
             819.26,389.73 805.70,398.73 792.00,400.85
             792.00,400.85 780.00,400.85 780.00,400.85
             772.55,400.91 765.57,398.66 759.00,395.22
             733.85,382.05 725.55,352.17 737.32,327.00
             745.91,308.66 761.01,301.29 780.00,298.42 Z
           M 740.00,328.00
           C 735.10,336.95 734.89,343.12 735.00,353.00
             735.41,387.73 774.42,409.75 806.00,393.22
             811.39,390.39 816.50,386.74 820.41,381.99
             835.78,362.82 835.82,337.27 820.41,318.00
             806.28,300.16 773.62,293.98 756.00,310.00
             759.96,310.18 763.44,310.56 766.99,312.56
             786.45,323.49 772.23,352.38 753.00,344.85
             750.25,343.78 748.13,342.07 746.10,339.96
             741.11,334.75 742.37,333.49 740.00,328.00 Z
           M 755.00,313.39
           C 748.88,315.37 743.79,320.29 743.23,327.00
             742.39,336.88 752.32,345.70 762.00,343.47
             773.67,340.77 778.15,325.81 769.67,317.33
             765.24,312.89 760.86,312.60 755.00,313.39 Z
           M 198.00,343.00
           C 198.00,343.00 96.00,343.00 96.00,343.00
             96.00,343.00 96.00,382.00 96.00,382.00
             96.00,382.00 117.00,382.00 117.00,382.00
             117.00,382.00 140.00,383.00 140.00,383.00
             140.00,383.00 174.00,383.00 174.00,383.00
             174.00,383.00 191.00,383.00 191.00,383.00
             191.00,383.00 196.98,381.40 196.98,381.40
             196.98,381.40 198.00,374.00 198.00,374.00
             198.00,374.00 198.00,343.00 198.00,343.00 Z
           M 145.00,385.00
           C 145.00,385.00 96.00,385.00 96.00,385.00
             96.00,385.00 96.00,755.00 96.00,755.00
             96.00,755.00 128.00,755.00 128.00,755.00
             128.00,755.00 146.00,754.00 146.00,754.00
             146.00,754.00 145.00,714.00 145.00,714.00
             145.00,714.00 145.00,636.00 145.00,636.00
             145.00,636.00 145.00,385.00 145.00,385.00 Z
           M 198.00,385.00
           C 198.00,385.00 148.00,385.00 148.00,385.00
             148.00,385.00 148.00,755.00 148.00,755.00
             148.00,755.00 198.00,755.00 198.00,755.00
             198.00,755.00 198.00,385.00 198.00,385.00 Z
           M 407.00,456.00
           C 407.00,456.00 407.00,570.00 407.00,570.00
             407.00,570.00 407.00,596.00 407.00,596.00
             407.00,596.00 405.98,603.40 405.98,603.40
             405.98,603.40 398.00,605.00 398.00,605.00
             398.00,605.00 291.00,605.00 291.00,605.00
             291.00,605.00 267.00,605.00 267.00,605.00
             267.00,605.00 260.60,603.98 260.60,603.98
             260.60,603.98 259.00,596.00 259.00,596.00
             259.00,596.00 259.00,489.00 259.00,489.00
             259.00,489.00 259.00,465.00 259.00,465.00
             259.00,465.00 260.02,457.60 260.02,457.60
             260.02,457.60 268.00,456.00 268.00,456.00
             268.00,456.00 407.00,456.00 407.00,456.00 Z
           M 599.00,456.00
           C 599.00,456.00 600.00,500.00 600.00,500.00
             600.00,500.00 600.00,571.00 600.00,571.00
             600.00,571.00 599.28,596.00 599.28,596.00
             599.28,596.00 597.40,603.98 597.40,603.98
             597.40,603.98 590.00,605.00 590.00,605.00
             590.00,605.00 483.00,605.00 483.00,605.00
             483.00,605.00 459.00,605.00 459.00,605.00
             459.00,605.00 452.60,603.98 452.60,603.98
             452.60,603.98 451.00,596.00 451.00,596.00
             451.00,596.00 451.00,489.00 451.00,489.00
             451.00,489.00 451.00,465.00 451.00,465.00
             451.00,465.00 452.02,457.60 452.02,457.60
             452.02,457.60 460.00,456.00 460.00,456.00
             460.00,456.00 599.00,456.00 599.00,456.00 Z
           M 405.00,459.00
           C 405.00,459.00 261.00,459.00 261.00,459.00
             261.00,459.00 261.00,602.00 261.00,602.00
             261.00,602.00 405.00,602.00 405.00,602.00
             405.00,602.00 405.00,459.00 405.00,459.00 Z
           M 597.00,459.00
           C 597.00,459.00 454.00,459.00 454.00,459.00
             454.00,459.00 454.00,602.00 454.00,602.00
             454.00,602.00 597.00,602.00 597.00,602.00
             597.00,602.00 597.00,459.00 597.00,459.00 Z
           M 868.00,490.21
           C 868.00,490.21 875.00,490.21 875.00,490.21
             945.88,489.67 1020.19,523.25 1050.14,591.00
             1055.68,603.53 1060.98,623.31 1061.00,637.00
             1061.00,637.00 1061.00,654.00 1061.00,654.00
             1060.97,675.41 1051.12,701.80 1040.20,720.00
             1011.17,768.38 956.87,800.30 902.00,809.92
             884.90,812.92 871.22,813.20 854.00,813.00
             835.27,812.78 812.79,807.28 805.47,788.00
             803.95,784.02 803.05,776.33 803.00,772.00
             802.86,759.66 803.83,745.96 796.87,735.00
             787.05,719.53 772.53,721.55 757.00,719.72
             731.69,716.72 706.19,715.45 690.36,692.00
             675.95,670.66 677.48,640.90 683.63,617.00
             698.83,557.95 754.91,516.70 811.00,500.04
             825.40,495.76 840.10,493.05 855.00,491.28
             855.00,491.28 868.00,490.21 868.00,490.21 Z
           M 861.00,493.14
           C 861.00,493.14 843.00,495.43 843.00,495.43
             823.85,498.27 801.70,505.04 784.00,512.86
             727.39,537.89 681.90,587.61 682.00,652.00
             682.01,659.67 683.29,668.71 685.67,676.00
             687.42,681.35 689.55,686.35 692.77,691.00
             706.85,711.31 731.28,714.67 754.00,716.83
             766.62,718.03 781.41,717.00 792.00,725.39
             803.67,734.63 805.98,751.99 806.00,766.00
             806.02,776.45 805.12,784.87 811.64,794.00
             819.60,805.16 832.31,807.60 845.00,809.42
             845.00,809.42 857.00,810.09 857.00,810.09
             857.00,810.09 864.00,810.91 864.00,810.91
             864.00,810.91 875.00,810.04 875.00,810.04
             894.89,809.17 915.19,805.76 934.00,798.95
             934.00,798.95 961.00,787.73 961.00,787.73
             1016.97,759.75 1059.75,706.44 1059.00,642.00
             1058.90,634.16 1057.04,622.66 1055.13,615.00
             1051.79,601.62 1048.01,591.00 1040.99,579.00
             1034.14,567.30 1023.13,552.28 1013.00,543.42
             996.74,529.22 981.97,518.56 962.00,510.00
             933.69,497.87 908.69,493.00 878.00,493.14
             878.00,493.14 861.00,493.14 861.00,493.14 Z
           M 495.00,495.00
           C 500.71,493.98 506.83,497.93 512.00,500.31
             512.00,500.31 542.00,514.75 542.00,514.75
             547.31,517.41 553.02,519.49 557.00,524.00
             551.35,526.90 541.29,530.43 535.00,531.00
             538.73,538.26 549.14,552.02 554.37,559.00
             556.27,561.53 561.57,567.77 561.43,570.83
             561.32,573.25 554.31,581.55 548.30,575.84
             548.30,575.84 522.00,541.00 522.00,541.00
             518.96,546.91 512.96,556.04 507.00,559.00
             507.00,559.00 495.00,495.00 495.00,495.00 Z
           M 551.00,522.00
           C 551.00,522.00 499.00,498.00 499.00,498.00
             499.00,498.00 508.00,554.00 508.00,554.00
             513.40,551.03 518.71,541.99 523.00,537.00
             523.00,537.00 551.00,576.00 551.00,576.00
             551.00,576.00 559.00,572.00 559.00,572.00
             556.82,565.44 544.35,549.38 539.63,543.00
             537.98,540.78 532.32,534.15 533.32,531.42
             533.93,529.75 536.50,528.91 538.00,528.35
             538.00,528.35 551.00,524.00 551.00,524.00
             551.00,524.00 551.00,522.00 551.00,522.00 Z
           M 887.00,525.45
           C 913.43,523.18 925.17,556.33 907.82,572.67
             903.42,576.82 896.94,579.07 891.00,579.70
             875.03,581.39 861.13,566.66 862.09,551.00
             863.00,536.34 873.35,527.92 887.00,525.45 Z
           M 885.00,528.33
           C 880.43,529.42 876.60,531.04 873.04,534.21
             855.36,549.96 868.21,581.20 894.00,576.67
             909.64,573.93 918.10,554.82 910.59,541.00
             905.20,531.09 895.80,527.14 885.00,528.33 Z
           M 797.00,545.47
           C 809.39,543.74 820.86,549.34 826.10,561.00
             832.95,576.27 823.52,595.42 807.00,598.53
             788.19,602.08 774.56,588.56 775.01,570.00
             775.16,563.88 777.21,558.68 781.33,554.09
             785.47,549.48 791.08,546.87 797.00,545.47 Z
           M 797.00,548.33
           C 791.54,549.63 787.09,551.72 783.33,556.04
             769.84,571.53 780.72,595.19 800.00,596.81
             825.52,598.96 836.14,561.88 812.00,550.14
             806.89,547.65 802.51,547.72 797.00,548.33 Z
           M 964.00,562.52
           C 974.13,560.91 983.48,562.17 990.79,570.09
             1004.55,585.00 996.90,610.59 977.00,614.98
             948.60,621.25 932.56,586.46 953.02,568.19
             956.71,564.89 959.33,563.80 964.00,562.52 Z
           M 967.00,564.32
           C 957.81,566.39 951.43,570.95 947.95,580.00
             942.17,595.06 952.57,612.24 969.00,612.96
             998.48,614.25 1004.29,574.59 979.00,565.55
             974.71,564.01 971.47,563.85 967.00,564.32 Z
           M 742.00,614.44
           C 772.03,610.67 783.12,649.14 760.99,663.44
             757.62,665.62 752.97,667.15 749.00,667.70
             723.51,671.26 709.23,640.33 726.33,622.18
             730.61,617.63 736.03,615.60 742.00,614.44 Z
           M 741.00,617.33
           C 733.67,619.09 727.46,623.10 724.00,630.00
             716.33,645.27 726.33,664.56 744.00,664.99
             751.28,665.16 757.25,663.95 762.70,658.67
             775.21,646.57 771.22,625.03 755.00,618.48
             750.54,616.68 745.69,616.81 741.00,617.33 Z
           M 990.00,645.28
           C 992.73,645.08 994.20,644.93 997.00,645.28
             1026.39,646.23 1032.66,688.09 1005.00,697.25
             1001.46,698.42 997.74,699.14 994.00,698.91
             973.48,697.65 961.85,674.19 972.97,657.00
             977.17,650.49 982.75,647.47 990.00,645.28 Z
           M 995.00,647.46
           C 985.19,648.49 977.61,652.67 973.35,662.00
             966.47,677.10 976.97,695.57 994.00,695.99
             999.08,696.11 1002.31,695.90 1007.00,693.67
             1020.83,687.09 1024.10,667.59 1014.47,656.09
             1009.53,650.19 1002.47,647.74 995.00,647.46 Z
           M 407.00,797.00
           C 407.00,797.00 280.00,797.00 280.00,797.00
             275.90,797.02 262.45,799.23 259.99,796.25
             258.75,794.74 259.00,790.92 259.00,789.00
             259.00,789.00 259.00,682.00 259.00,682.00
             259.00,682.00 259.00,658.00 259.00,658.00
             259.00,656.01 258.77,652.19 260.02,650.60
             261.59,648.62 265.70,649.00 268.00,649.00
             268.00,649.00 375.00,649.00 375.00,649.00
             375.00,649.00 399.00,649.00 399.00,649.00
             400.82,649.01 403.92,648.85 405.40,650.02
             407.38,651.59 407.00,655.70 407.00,658.00
             407.00,658.00 407.00,797.00 407.00,797.00 Z
           M 599.00,797.00
           C 599.00,797.00 472.00,797.00 472.00,797.00
             467.95,797.02 454.50,799.36 451.99,796.25
             450.74,794.71 451.00,790.94 451.00,789.00
             451.00,789.00 451.00,682.00 451.00,682.00
             451.00,682.00 451.00,658.00 451.00,658.00
             451.00,656.01 450.77,652.19 452.02,650.60
             453.59,648.62 457.70,649.00 460.00,649.00
             460.00,649.00 566.00,649.00 566.00,649.00
             566.00,649.00 591.00,649.00 591.00,649.00
             593.23,649.02 596.42,648.74 598.02,650.60
             600.04,652.95 600.00,659.94 600.00,663.00
             600.00,663.00 600.00,782.00 600.00,782.00
             600.00,782.00 599.00,797.00 599.00,797.00 Z
           M 405.00,652.00
           C 405.00,652.00 261.00,652.00 261.00,652.00
             261.00,652.00 261.00,795.00 261.00,795.00
             261.00,795.00 405.00,795.00 405.00,795.00
             405.00,795.00 405.00,652.00 405.00,652.00 Z
           M 597.00,652.00
           C 597.00,652.00 454.00,652.00 454.00,652.00
             454.00,652.00 454.00,795.00 454.00,795.00
             454.00,795.00 597.00,795.00 597.00,795.00
             597.00,795.00 597.00,652.00 597.00,652.00 Z
           M 870.00,709.47
           C 878.58,708.27 887.67,708.67 895.00,713.80
             918.30,730.10 911.72,767.15 883.00,772.53
             849.32,778.85 831.29,735.80 857.00,715.39
             860.86,712.33 865.27,710.59 870.00,709.47 Z
           M 874.00,711.29
           C 863.97,712.95 856.55,716.80 851.36,726.00
             848.76,730.62 848.06,734.79 848.00,740.00
             847.84,756.50 858.12,769.21 875.00,770.67
             878.76,771.00 884.49,769.77 888.00,768.37
             913.69,758.14 910.96,721.35 888.00,713.10
             883.52,711.49 878.72,710.88 874.00,711.29 Z
           M 197.00,758.00
           C 197.00,758.00 96.00,758.00 96.00,758.00
             97.16,764.17 101.86,773.21 104.75,779.00
             104.75,779.00 118.26,807.00 118.26,807.00
             119.77,810.13 124.83,821.52 127.39,822.89
             129.37,823.95 142.30,820.45 146.00,820.18
             152.19,819.74 160.16,822.06 166.00,824.00
             166.00,824.00 187.78,780.00 187.78,780.00
             191.02,773.14 196.20,765.53 197.00,758.00 Z
           M 165.00,826.00
           C 149.55,820.94 144.12,822.59 129.00,826.00
             130.17,832.25 137.01,844.94 140.26,851.00
             141.78,853.83 144.05,857.94 147.96,856.60
             151.20,855.49 153.31,850.86 154.75,848.00
             154.75,848.00 165.00,826.00 165.00,826.00 Z
           M 963.00,824.00
           C 963.00,824.00 965.00,824.00 965.00,824.00
             965.00,830.85 965.54,837.36 963.56,844.00
             959.44,857.84 947.33,866.83 933.00,867.00
             933.00,867.00 826.00,867.00 826.00,867.00
             826.00,867.00 366.00,867.00 366.00,867.00
             366.00,867.00 218.00,867.00 218.00,867.00
             204.77,866.84 196.13,859.50 196.00,846.00
             196.00,846.00 198.00,846.00 198.00,846.00
             200.19,859.94 209.83,864.94 223.00,865.00
             223.00,865.00 374.00,865.00 374.00,865.00
             374.00,865.00 816.00,865.00 816.00,865.00
             816.00,865.00 911.00,865.00 911.00,865.00
             925.91,865.00 941.18,867.30 952.83,855.82
             956.73,851.97 960.72,845.46 961.67,840.00
             962.70,834.17 961.09,830.72 963.00,824.00 Z" />
</svg>
