<?xml version="1.0" encoding="UTF-8" standalone="no"?>
<!DOCTYPE svg PUBLIC "-//W3C//DTD SVG 20010904//EN"
              "http://www.w3.org/TR/2001/REC-SVG-20010904/DTD/svg10.dtd">

<svg xmlns="http://www.w3.org/2000/svg"
         width="100" height="100"
fill="none" stroke="#7fa573" stroke-width="8"     viewBox="0 0 1024 1024">
  <path id="Selection"
        d="M 909.00,680.00
           C 909.00,680.00 817.00,680.00 817.00,680.00
             805.53,680.02 802.71,683.75 793.00,689.14
             793.00,689.14 757.00,708.74 757.00,708.74
             757.00,708.74 724.00,726.69 724.00,726.69
             724.00,726.69 606.00,790.78 606.00,790.78
             606.00,790.78 581.00,804.69 581.00,804.69
             581.00,804.69 519.00,838.42 519.00,838.42
             519.00,838.42 494.00,851.78 494.00,851.78
             490.90,853.42 486.49,856.58 483.00,856.45
             479.44,856.32 463.13,846.90 459.00,844.58
             459.00,844.58 408.00,816.86 408.00,816.86
             408.00,816.86 228.00,719.14 228.00,719.14
             228.00,719.14 177.00,691.69 177.00,691.69
             166.49,686.01 160.40,680.02 148.00,680.00
             148.00,680.00 107.00,680.00 107.00,680.00
             107.00,680.00 88.00,680.00 88.00,680.00
             71.74,679.81 56.81,668.44 51.75,653.00
             48.02,641.63 49.98,635.78 50.00,625.00
             50.00,625.00 50.00,392.00 50.00,392.00
             50.00,392.00 50.00,315.00 50.00,315.00
             50.00,315.00 49.03,298.99 49.03,298.99
             49.03,298.99 49.68,279.58 49.68,279.58
             49.68,279.58 49.68,271.00 49.68,271.00
             49.68,271.00 49.01,250.00 49.01,250.00
             49.01,250.00 49.93,229.00 49.93,229.00
             49.93,229.00 49.00,212.00 49.00,212.00
             49.00,212.00 49.00,186.00 49.00,186.00
             49.00,156.92 43.21,117.14 78.00,105.10
             92.24,100.17 99.65,102.96 113.00,103.00
             113.00,103.00 113.00,149.00 113.00,149.00
             113.15,157.15 115.78,156.99 123.00,157.00
             123.00,157.00 365.00,157.00 365.00,157.00
             365.00,157.00 415.00,157.00 415.00,157.00
             420.77,157.00 430.34,155.57 435.00,159.00
             428.68,160.80 415.16,160.00 408.00,160.00
             408.00,160.00 357.00,160.00 357.00,160.00
             357.00,160.00 188.00,160.00 188.00,160.00
             188.00,160.00 132.00,160.00 132.00,160.00
             127.93,160.00 116.35,158.83 114.02,162.31
             112.79,164.16 113.00,167.81 113.00,170.00
             113.00,170.00 113.00,601.00 113.00,601.00
             113.00,601.00 97.00,599.04 97.00,599.04
             90.28,598.78 79.81,601.21 74.00,604.53
             70.60,606.47 67.75,609.23 65.01,612.00
             47.28,629.99 49.31,655.40 70.00,670.21
             81.08,678.14 91.25,677.00 104.00,677.00
             104.00,677.00 155.00,677.00 155.00,677.00
             155.00,677.00 155.00,651.00 155.00,651.00
             155.00,648.62 154.80,645.29 156.02,643.21
             158.38,639.22 174.54,633.34 178.57,629.37
             181.95,626.03 180.92,619.44 181.00,615.00
             181.21,603.89 187.91,607.17 192.40,601.61
             194.66,598.82 194.99,588.76 195.00,585.00
             195.00,585.00 195.00,398.00 195.00,398.00
             194.99,394.63 195.27,390.20 193.15,387.39
             189.34,382.34 185.16,385.38 185.00,376.00
             185.00,376.00 185.00,356.00 185.00,356.00
             185.00,353.62 184.79,350.30 186.02,348.21
             187.91,345.00 203.85,336.92 208.00,334.75
             208.00,334.75 279.00,295.69 279.00,295.69
             279.00,295.69 299.00,284.31 299.00,284.31
             299.00,284.31 434.00,209.86 434.00,209.86
             434.00,209.86 468.00,191.14 468.00,191.14
             480.41,184.22 481.98,185.51 482.00,175.00
             482.00,175.00 482.00,116.00 482.00,116.00
             482.00,116.00 465.00,137.00 465.00,137.00
             464.35,130.13 473.62,118.73 477.72,113.00
             480.20,109.55 480.91,108.31 485.00,107.00
             485.00,107.00 503.00,136.00 503.00,136.00
             494.58,133.41 491.28,121.83 485.00,116.00
             485.00,116.00 485.00,175.00 485.00,175.00
             485.02,186.58 489.27,186.01 499.00,191.58
             499.00,191.58 532.00,210.00 532.00,210.00
             532.00,210.00 611.00,253.86 611.00,253.86
             611.00,253.86 686.00,295.70 686.00,295.70
             686.00,295.70 751.00,331.75 751.00,331.75
             751.00,331.75 770.00,342.28 770.00,342.28
             772.36,343.62 777.35,346.08 778.64,348.39
             780.42,351.58 780.06,369.39 780.00,374.00
             779.84,385.69 774.42,382.23 771.02,388.18
             769.80,390.33 770.00,393.57 770.00,396.00
             770.00,396.00 770.00,593.00 770.00,593.00
             770.00,595.27 769.78,598.66 771.02,600.61
             773.11,603.88 779.79,605.15 782.40,608.39
             784.66,611.19 783.98,617.44 784.00,621.00
             784.02,623.22 783.89,625.83 785.02,627.82
             788.25,633.47 805.75,638.21 808.98,643.38
             810.22,645.37 810.00,648.69 810.00,651.00
             810.00,651.00 810.00,677.00 810.00,677.00
             810.00,677.00 877.00,677.00 877.00,677.00
             877.00,677.00 910.00,676.00 910.00,676.00
             910.00,676.00 890.71,662.68 890.71,662.68
             890.71,662.68 890.00,659.00 890.00,659.00
             897.00,662.17 914.75,673.45 918.00,680.00
             918.00,680.00 890.00,699.00 890.00,699.00
             890.00,699.00 890.71,695.30 890.71,695.30
             890.71,695.30 909.00,680.00 909.00,680.00 Z
           M 610.00,103.00
           C 614.29,102.43 615.49,102.05 620.00,102.00
             622.71,101.97 627.36,101.59 629.41,103.60
             632.91,107.04 629.26,114.20 638.00,117.75
             645.14,120.65 647.13,114.04 652.00,113.82
             655.36,113.67 659.80,118.66 661.94,121.00
             663.44,122.64 665.35,124.63 665.38,127.00
             665.42,130.85 660.52,133.61 660.46,138.00
             660.34,147.87 671.86,146.85 674.26,148.95
             676.27,150.72 675.99,154.56 676.00,157.00
             676.01,159.88 676.50,165.27 674.40,167.41
             670.92,170.95 663.02,167.15 660.46,177.00
             658.47,184.64 669.08,186.48 663.67,194.00
             661.67,196.78 655.64,203.10 652.00,202.87
             646.80,202.54 645.45,195.91 637.02,199.38
             629.01,202.68 633.28,209.60 629.41,213.40
             627.22,215.54 621.00,215.04 618.00,215.00
             616.02,214.97 613.19,215.04 611.53,213.83
             607.07,210.53 612.11,204.02 603.98,199.89
             601.68,198.73 599.51,197.98 597.00,198.96
             593.26,200.42 590.76,205.00 586.00,202.35
             583.11,200.74 575.68,193.46 575.74,190.00
             575.84,184.58 584.33,182.57 578.47,173.15
             574.05,166.04 565.23,174.19 565.00,162.00
             564.95,158.93 564.30,151.00 566.60,148.93
             570.17,145.72 576.39,149.42 579.75,141.00
             582.35,134.47 576.80,132.62 575.87,128.00
             575.04,123.89 581.93,117.52 585.00,115.33
             591.00,111.06 593.16,117.19 598.00,118.45
             599.80,118.92 601.33,118.46 603.00,117.76
             609.81,114.90 609.17,109.32 610.00,103.00 Z
           M 782.14,103.74
           C 787.30,102.41 801.00,102.93 807.00,103.00
             809.51,103.03 813.25,102.95 815.15,104.85
             818.23,107.94 817.12,122.23 819.51,126.78
             821.26,130.11 831.24,133.17 835.00,134.76
             842.98,138.15 846.03,132.19 852.00,127.46
             854.70,125.32 857.46,122.86 861.00,124.71
             863.38,125.95 876.05,139.03 878.96,141.91
             880.89,143.83 883.61,146.04 883.47,149.04
             883.25,153.85 873.28,162.43 871.79,166.58
             870.95,168.92 876.40,182.14 877.80,184.96
             882.10,193.67 896.20,188.85 901.43,193.16
             903.67,195.01 903.99,204.99 904.00,208.00
             904.02,211.72 904.06,225.75 902.01,228.26
             899.62,231.19 885.34,230.69 881.13,232.58
             879.71,233.22 879.10,233.84 878.27,235.15
             878.27,235.15 871.87,250.83 871.87,250.83
             869.47,257.51 881.82,264.45 883.38,271.00
             884.19,274.39 882.06,276.68 879.94,279.00
             877.54,281.63 864.19,295.08 862.00,296.38
             854.83,300.64 847.47,287.86 841.00,285.82
             838.02,284.88 827.44,289.92 824.02,291.39
             816.83,294.47 818.17,303.30 817.28,310.00
             817.00,312.11 817.03,315.58 815.26,317.01
             813.72,318.25 809.94,318.00 808.00,318.00
             808.00,318.00 786.00,318.00 786.00,318.00
             784.30,317.96 781.99,318.04 780.56,316.98
             776.67,314.10 778.25,300.69 776.40,296.05
             774.69,291.77 766.19,289.40 762.00,287.57
             760.41,286.87 757.67,285.40 756.00,285.39
             751.05,285.39 743.37,295.77 738.00,297.16
             734.71,298.01 732.30,295.93 730.00,293.89
             730.00,293.89 716.04,280.00 716.04,280.00
             714.31,278.15 711.88,275.68 711.71,273.00
             711.39,268.35 720.28,260.45 722.64,256.00
             723.40,254.55 723.75,253.67 723.61,252.00
             723.47,250.27 717.46,235.62 716.30,234.31
             713.44,231.07 704.32,230.92 700.00,230.27
             697.15,229.84 693.96,229.79 692.60,226.77
             691.88,225.17 692.00,221.82 692.00,220.00
             692.00,220.00 692.00,200.00 692.00,200.00
             692.04,198.21 691.99,195.87 693.02,194.31
             695.89,189.98 710.82,191.44 714.73,188.98
             717.02,187.53 722.85,173.07 723.45,170.00
             724.77,163.26 713.48,156.05 712.00,150.00
             711.17,146.63 713.91,144.21 716.02,142.00
             718.63,139.27 731.78,125.88 734.00,124.65
             740.37,121.15 748.22,133.70 754.00,136.05
             755.13,136.32 755.81,136.38 757.00,136.05
             757.00,136.05 773.85,129.16 773.85,129.16
             780.54,124.25 773.96,109.26 782.14,103.74 Z
           M 110.00,106.00
           C 103.22,106.00 90.00,105.44 84.00,106.90
             64.10,111.73 53.03,128.09 53.00,148.00
             53.00,148.00 53.00,481.00 53.00,481.00
             53.00,481.00 53.00,578.00 53.00,578.00
             53.00,578.00 53.00,606.00 53.00,606.00
             53.00,610.44 52.36,615.88 54.00,620.00
             63.37,604.99 75.98,596.21 94.00,596.00
             94.00,596.00 110.00,597.00 110.00,597.00
             110.00,597.00 110.00,106.00 110.00,106.00 Z
           M 628.00,106.00
           C 628.00,106.00 613.00,106.00 613.00,106.00
             611.61,113.77 613.29,117.39 605.00,120.69
             603.44,121.30 600.61,122.52 599.00,122.25
             592.93,122.32 590.17,112.81 582.15,122.25
             574.76,130.51 587.28,131.21 584.10,140.04
             583.13,142.73 581.24,147.47 578.78,148.98
             574.55,151.58 568.73,148.55 568.04,156.02
             568.04,156.02 568.04,160.00 568.04,160.00
             568.44,170.10 575.82,162.85 580.79,170.14
             582.37,172.46 585.17,178.23 584.45,181.00
             583.67,184.04 579.89,186.85 580.11,190.00
             580.36,193.60 586.25,198.03 589.00,200.00
             595.88,194.68 596.84,192.98 605.00,196.40
             607.17,197.31 609.52,198.17 610.83,200.27
             611.89,201.97 612.56,208.54 613.00,210.99
             616.20,211.26 623.90,212.94 626.40,210.99
             628.63,209.23 628.94,200.82 629.00,198.00
             635.52,196.98 639.23,194.18 642.00,194.33
             648.41,194.68 649.90,203.45 657.94,194.98
             664.59,187.97 657.87,186.55 656.52,181.00
             655.98,178.75 656.83,177.06 657.56,175.00
             660.65,166.27 662.66,166.20 672.00,166.00
             672.00,166.00 672.00,151.00 672.00,151.00
             663.23,150.29 658.43,148.63 656.55,139.00
             655.04,131.28 665.87,130.42 657.94,122.02
             649.67,113.25 648.33,122.17 642.00,122.64
             640.08,122.78 637.73,121.62 636.00,120.85
             628.03,117.32 628.07,114.16 628.00,106.00 Z
           M 813.00,107.00
           C 813.00,107.00 782.00,107.00 782.00,107.00
             782.00,107.00 780.28,123.00 780.28,123.00
             779.96,125.56 780.15,128.50 778.40,130.58
             776.47,132.89 768.21,135.44 765.00,136.86
             761.81,138.27 757.52,141.12 754.00,140.16
             750.63,139.24 740.54,129.88 736.00,127.00
             736.00,127.00 722.00,141.00 722.00,141.00
             720.37,142.65 716.97,145.76 716.45,148.00
             715.37,152.68 726.43,161.74 727.86,167.00
             728.66,169.95 726.84,172.46 725.60,175.00
             725.60,175.00 720.15,188.89 720.15,188.89
             716.55,196.21 700.68,192.76 696.60,196.02
             694.74,197.51 695.02,200.86 695.00,203.00
             695.00,203.00 695.00,217.00 695.00,217.00
             695.00,218.85 694.88,222.21 695.60,223.85
             698.24,229.92 713.46,225.79 718.49,230.56
             718.49,230.56 726.72,249.00 726.72,249.00
             727.66,251.18 728.27,252.61 727.51,255.00
             725.58,261.09 717.60,266.37 715.00,274.00
             715.00,274.00 729.00,288.00 729.00,288.00
             730.70,289.67 733.56,292.77 736.00,293.09
             740.80,293.72 748.85,282.89 754.00,281.55
             757.10,280.74 762.01,283.74 765.00,284.99
             767.75,286.13 775.81,288.89 777.57,290.56
             780.92,293.72 781.77,309.94 782.00,315.00
             782.00,315.00 813.00,315.00 813.00,315.00
             813.53,311.00 814.94,294.57 816.31,292.22
             817.83,289.63 820.36,288.95 823.00,288.00
             828.34,286.09 838.01,279.71 843.00,282.25
             847.05,284.31 854.14,292.49 858.00,292.95
             860.48,293.25 862.30,291.47 864.00,289.94
             864.00,289.94 876.85,277.00 876.85,277.00
             885.25,266.85 864.33,261.34 868.36,250.00
             869.49,246.85 875.50,231.34 877.42,230.01
             879.83,228.33 889.55,227.76 893.00,227.28
             894.90,227.02 897.69,227.03 898.98,225.40
             900.23,223.81 900.00,219.99 900.00,218.00
             900.00,218.00 900.00,202.00 900.00,202.00
             899.96,200.02 900.11,197.40 898.40,196.02
             893.74,192.25 879.25,196.79 875.11,187.96
             873.37,184.25 866.99,169.16 868.04,166.00
             869.62,161.21 879.00,153.06 878.84,149.00
             878.75,146.66 875.91,143.73 874.42,142.01
             871.34,138.47 861.78,129.70 858.00,127.00
             854.62,130.22 844.39,140.27 840.00,140.31
             837.69,140.34 828.77,136.00 826.00,134.86
             823.00,133.62 817.91,132.49 816.17,129.73
             814.89,127.67 813.29,110.53 813.00,107.00 Z
           M 616.00,135.28
           C 618.30,135.15 619.63,134.95 622.00,135.28
             645.12,136.52 651.30,168.77 631.00,179.17
             627.47,180.97 622.98,182.15 619.00,181.81
             599.24,180.15 589.63,156.56 603.21,142.10
             606.85,138.23 610.98,136.66 616.00,135.28 Z
           M 619.00,138.34
           C 612.13,139.53 607.02,141.65 603.36,148.00
             596.21,160.43 604.43,177.32 619.00,177.96
             622.02,178.09 625.18,177.96 628.00,176.77
             647.69,168.54 641.91,137.76 619.00,138.34 Z
           M 788.00,162.46
           C 804.49,160.18 821.01,163.77 832.91,176.04
             860.06,204.01 845.89,252.59 807.00,259.91
             790.39,263.03 772.69,257.57 761.17,244.99
             742.65,224.75 744.17,189.89 766.00,172.52
             772.71,167.18 779.71,164.30 788.00,162.46 Z
           M 791.00,165.30
           C 773.63,168.58 760.72,177.99 754.70,195.00
             745.03,222.33 763.07,256.62 794.00,257.00
             803.52,257.11 809.17,257.04 818.00,252.63
             845.00,239.12 852.04,202.46 831.82,180.01
             820.91,167.91 806.84,163.72 791.00,165.30 Z
           M 773.00,348.00
           C 773.00,348.00 685.00,299.14 685.00,299.14
             685.00,299.14 560.00,229.70 560.00,229.70
             560.00,229.70 506.00,199.42 506.00,199.42
             506.00,199.42 491.00,191.14 491.00,191.14
             491.00,191.14 483.00,187.89 483.00,187.89
             483.00,187.89 460.00,199.69 460.00,199.69
             460.00,199.69 402.00,231.69 402.00,231.69
             402.00,231.69 264.00,307.86 264.00,307.86
             264.00,307.86 220.00,332.30 220.00,332.30
             220.00,332.30 191.00,348.00 191.00,348.00
             191.00,348.00 191.00,350.00 191.00,350.00
             191.00,350.00 262.00,389.14 262.00,389.14
             262.00,389.14 403.00,467.30 403.00,467.30
             403.00,467.30 459.00,498.30 459.00,498.30
             459.00,498.30 483.00,510.34 483.00,510.34
             483.00,510.34 505.00,499.30 505.00,499.30
             505.00,499.30 559.00,469.25 559.00,469.25
             559.00,469.25 608.00,441.86 608.00,441.86
             608.00,441.86 708.00,386.14 708.00,386.14
             708.00,386.14 749.00,363.14 749.00,363.14
             749.00,363.14 773.00,350.00 773.00,350.00
             773.00,350.00 773.00,348.00 773.00,348.00 Z
           M 323.00,196.00
           C 328.92,198.26 333.83,202.39 339.00,205.98
             343.91,209.38 348.26,211.48 351.00,217.00
             343.63,221.96 330.14,233.86 322.00,235.00
             325.25,228.44 336.92,222.22 343.00,217.00
             343.00,217.00 193.00,217.00 193.00,217.00
             193.00,217.00 162.00,217.00 162.00,217.00
             159.10,217.00 151.53,216.55 149.31,218.02
             146.55,219.86 147.01,224.09 147.00,227.00
             147.00,227.00 147.00,508.00 147.00,508.00
             143.28,505.51 144.01,503.15 144.00,499.00
             144.00,499.00 144.00,451.00 144.00,451.00
             144.00,451.00 144.00,276.00 144.00,276.00
             144.00,276.00 144.00,223.00 144.00,223.00
             144.02,214.36 144.36,214.02 153.00,214.00
             153.00,214.00 343.00,214.00 343.00,214.00
             337.11,209.02 325.24,203.24 322.00,197.00
             322.00,197.00 323.00,196.00 323.00,196.00 Z
           M 594.00,275.00
           C 594.00,275.00 576.00,285.42 576.00,285.42
             576.00,285.42 525.00,313.86 525.00,313.86
             525.00,313.86 413.00,376.31 413.00,376.31
             413.00,376.31 368.00,401.42 368.00,401.42
             363.83,403.81 351.08,411.58 347.00,411.58
             343.71,411.58 339.80,409.02 337.00,407.42
             337.00,407.42 321.00,398.42 321.00,398.42
             321.00,398.42 260.00,364.43 260.00,364.43
             260.00,364.43 241.00,353.85 241.00,353.85
             239.08,352.70 235.48,350.95 236.34,348.14
             237.03,345.88 241.04,343.85 243.00,342.77
             243.00,342.77 259.00,333.86 259.00,333.86
             259.00,333.86 326.00,297.14 326.00,297.14
             326.00,297.14 438.00,235.14 438.00,235.14
             438.00,235.14 469.00,218.14 469.00,218.14
             472.16,216.39 479.64,211.74 483.00,211.66
             486.72,211.57 498.20,218.98 502.00,221.15
             502.00,221.15 546.00,245.70 546.00,245.70
             546.00,245.70 580.00,264.58 580.00,264.58
             585.21,267.53 591.11,269.52 594.00,275.00 Z
           M 482.00,216.00
           C 482.00,216.00 453.00,231.14 453.00,231.14
             453.00,231.14 403.00,258.69 403.00,258.69
             403.00,258.69 338.00,294.69 338.00,294.69
             338.00,294.69 241.00,348.00 241.00,348.00
             241.00,348.00 241.00,350.00 241.00,350.00
             245.50,352.38 259.91,361.59 264.00,361.39
             267.74,361.21 278.39,354.74 282.00,352.60
             282.00,352.60 314.00,334.86 314.00,334.86
             314.00,334.86 386.00,295.14 386.00,295.14
             386.00,295.14 436.00,267.22 436.00,267.22
             436.00,267.22 470.00,248.42 470.00,248.42
             476.88,244.49 481.84,243.68 482.00,235.00
             482.00,235.00 482.00,216.00 482.00,216.00 Z
           M 486.00,216.00
           C 484.28,220.33 484.99,229.06 485.00,234.00
             485.02,243.73 486.15,242.15 501.00,250.30
             501.00,250.30 545.00,274.42 545.00,274.42
             548.53,276.42 563.11,284.96 566.00,285.29
             570.04,285.76 583.29,277.10 588.00,275.00
             588.00,275.00 588.00,273.00 588.00,273.00
             588.00,273.00 549.00,251.31 549.00,251.31
             549.00,251.31 486.00,216.00 486.00,216.00 Z
           M 481.00,246.00
           C 481.00,246.00 462.99,256.63 462.99,256.63
             462.99,256.63 462.00,264.00 462.00,264.00
             462.00,264.00 462.00,344.00 462.00,344.00
             466.25,342.76 478.84,336.46 480.98,332.79
             482.21,330.69 482.00,327.39 482.00,325.00
             482.00,325.00 482.00,273.00 482.00,273.00
             482.00,265.84 482.80,252.32 481.00,246.00 Z
           M 485.00,331.00
           C 488.85,330.08 501.98,323.75 503.98,320.61
             505.02,318.98 504.96,316.86 505.00,315.00
             505.00,315.00 505.00,264.00 505.00,264.00
             505.00,261.72 505.22,258.35 503.98,256.39
             501.83,253.00 489.10,247.17 485.00,246.00
             485.00,246.00 485.00,331.00 485.00,331.00 Z
           M 458.00,259.00
           C 458.00,259.00 399.00,291.31 399.00,291.31
             395.61,293.15 382.91,299.51 381.57,302.39
             380.86,303.92 381.00,307.25 381.00,309.00
             381.00,309.00 381.00,390.00 381.00,390.00
             381.00,390.00 439.00,357.77 439.00,357.77
             442.94,355.63 455.85,349.39 457.40,345.79
             458.12,344.11 458.00,340.88 458.00,339.00
             458.00,339.00 458.00,259.00 458.00,259.00 Z
           M 562.00,287.00
           C 562.00,287.00 527.00,268.14 527.00,268.14
             527.00,268.14 508.00,259.00 508.00,259.00
             508.00,259.00 508.00,318.00 508.00,318.00
             508.00,318.00 531.00,306.42 531.00,306.42
             531.00,306.42 562.00,289.00 562.00,289.00
             562.00,289.00 562.00,287.00 562.00,287.00 Z
           M 371.00,426.00
           C 371.48,424.44 371.45,423.77 372.59,422.39
             374.31,420.31 388.68,412.57 392.00,410.77
             392.00,410.77 452.00,377.58 452.00,377.58
             452.00,377.58 573.00,310.00 573.00,310.00
             573.00,310.00 606.00,291.75 606.00,291.75
             609.70,289.80 614.79,285.95 619.00,286.74
             621.83,287.27 634.64,294.81 638.00,296.72
             638.00,296.72 676.00,317.77 676.00,317.77
             676.00,317.77 715.00,339.30 715.00,339.30
             717.63,340.75 727.90,345.76 728.66,348.17
             729.45,350.64 726.69,352.19 724.98,353.27
             724.98,353.27 709.00,362.14 709.00,362.14
             709.00,362.14 667.00,385.70 667.00,385.70
             667.00,385.70 640.00,400.60 640.00,400.60
             640.00,400.60 528.00,463.00 528.00,463.00
             528.00,463.00 497.00,480.30 497.00,480.30
             493.44,482.26 486.94,486.76 483.00,486.66
             479.95,486.58 474.73,483.65 472.00,482.14
             472.00,482.14 451.00,470.30 451.00,470.30
             451.00,470.30 371.00,426.00 371.00,426.00 Z
           M 616.00,291.00
           C 616.00,291.00 601.00,298.74 601.00,298.74
             601.00,298.74 558.00,322.69 558.00,322.69
             558.00,322.69 431.00,393.31 431.00,393.31
             431.00,393.31 377.00,423.00 377.00,423.00
             377.00,423.00 377.00,425.00 377.00,425.00
             381.47,427.58 395.71,436.59 400.00,436.58
             403.60,436.57 410.65,431.91 414.00,430.00
             414.00,430.00 443.00,414.00 443.00,414.00
             443.00,414.00 576.00,339.85 576.00,339.85
             576.00,339.85 602.00,325.31 602.00,325.31
             605.40,323.47 612.18,320.58 614.40,317.67
             616.31,315.19 615.99,311.96 616.00,309.00
             616.00,309.00 616.00,291.00 616.00,291.00 Z
           M 724.00,348.00
           C 724.00,348.00 644.00,304.22 644.00,304.22
             644.00,304.22 619.00,291.00 619.00,291.00
             619.00,291.00 619.00,309.00 619.00,309.00
             619.02,319.12 619.92,317.96 634.00,326.00
             634.00,326.00 680.00,351.30 680.00,351.30
             684.01,353.51 696.29,361.37 700.00,361.52
             704.43,361.70 718.67,352.38 724.00,350.00
             724.00,350.00 724.00,348.00 724.00,348.00 Z
           M 377.00,304.00
           C 373.16,305.66 359.92,312.20 358.02,315.33
             356.78,317.37 357.00,320.65 357.00,323.00
             357.00,323.00 357.00,403.00 357.00,403.00
             360.65,401.37 374.18,394.50 375.98,391.62
             377.22,389.63 377.00,386.31 377.00,384.00
             377.00,384.00 377.00,304.00 377.00,304.00 Z
           M 354.00,317.00
           C 350.64,318.23 336.72,325.16 334.99,327.63
             333.83,329.30 334.01,332.04 334.00,334.00
             334.00,334.00 334.00,393.00 334.00,393.00
             334.00,395.39 333.79,398.69 335.02,400.79
             337.00,404.18 348.45,411.59 352.98,404.61
             354.13,402.83 353.99,400.05 354.00,398.00
             354.00,398.00 354.00,377.00 354.00,377.00
             354.00,377.00 354.00,353.00 354.00,353.00
             354.00,353.00 354.00,317.00 354.00,317.00 Z
           M 617.00,408.00
           C 621.75,407.10 634.56,400.93 636.98,396.79
             638.21,394.69 638.00,391.39 638.00,389.00
             638.00,389.00 638.00,339.00 638.00,339.00
             637.98,336.85 638.13,334.22 636.98,332.33
             634.74,328.64 622.33,322.82 618.00,322.00
             618.00,322.00 618.00,393.00 618.00,393.00
             618.00,393.00 617.00,408.00 617.00,408.00 Z
           M 614.00,323.00
           C 609.91,324.29 597.07,330.71 595.02,334.21
             593.79,336.31 594.00,339.61 594.00,342.00
             594.00,342.00 594.00,421.00 594.00,421.00
             597.85,420.22 610.98,413.75 612.98,410.61
             614.22,408.66 614.00,405.27 614.00,403.00
             614.00,403.00 614.00,323.00 614.00,323.00 Z
           M 330.00,330.00
           C 330.00,330.00 268.00,364.00 268.00,364.00
             268.00,364.00 296.00,380.31 296.00,380.31
             296.00,380.31 330.00,399.00 330.00,399.00
             330.00,399.00 330.00,330.00 330.00,330.00 Z
           M 642.00,334.00
           C 642.00,334.00 641.00,354.00 641.00,354.00
             641.00,354.00 641.00,395.00 641.00,395.00
             641.00,395.00 676.00,376.30 676.00,376.30
             676.00,376.30 696.00,364.00 696.00,364.00
             696.00,364.00 642.00,334.00 642.00,334.00 Z
           M 591.00,336.00
           C 585.03,337.74 576.76,343.10 571.00,346.23
             571.00,346.23 527.00,370.75 527.00,370.75
             522.61,373.05 510.32,378.79 508.60,383.09
             507.88,384.88 508.00,388.03 508.00,390.00
             508.00,390.00 508.00,469.00 508.00,469.00
             514.94,467.02 521.56,462.20 528.00,458.78
             528.00,458.78 572.00,434.30 572.00,434.30
             576.42,431.88 588.66,426.26 590.40,421.91
             591.12,420.12 591.00,416.97 591.00,415.00
             591.00,415.00 591.00,336.00 591.00,336.00 Z
           M 190.00,352.00
           C 188.27,356.36 188.99,366.87 189.00,372.00
             189.02,381.86 189.99,380.61 204.00,388.30
             204.00,388.30 246.00,411.69 246.00,411.69
             246.00,411.69 324.00,455.14 324.00,455.14
             324.00,455.14 407.00,500.86 407.00,500.86
             407.00,500.86 454.00,527.00 454.00,527.00
             461.11,531.09 474.51,539.60 482.00,541.00
             482.00,535.50 482.74,518.52 480.02,514.53
             478.19,511.84 463.76,504.55 460.00,502.42
             460.00,502.42 408.00,473.69 408.00,473.69
             408.00,473.69 268.00,395.86 268.00,395.86
             268.00,395.86 213.00,365.42 213.00,365.42
             213.00,365.42 190.00,352.00 190.00,352.00 Z
           M 776.00,352.00
           C 776.00,352.00 710.00,388.70 710.00,388.70
             710.00,388.70 554.00,475.70 554.00,475.70
             554.00,475.70 502.00,504.70 502.00,504.70
             498.44,506.65 487.02,512.07 485.57,515.33
             484.86,516.93 485.00,520.20 485.00,522.00
             485.00,522.00 485.00,541.00 485.00,541.00
             492.31,538.92 504.87,530.92 512.00,526.85
             512.00,526.85 556.00,502.30 556.00,502.30
             556.00,502.30 712.00,415.28 712.00,415.28
             712.00,415.28 760.00,388.58 760.00,388.58
             776.26,379.38 775.98,381.33 776.00,372.00
             776.00,372.00 776.00,352.00 776.00,352.00 Z
           M 803.00,369.00
           C 803.00,369.00 853.00,369.00 853.00,369.00
             860.49,369.14 859.99,371.26 860.00,378.00
             860.00,378.00 860.00,546.00 860.00,546.00
             860.00,546.00 875.18,527.71 875.18,527.71
             875.18,527.71 879.00,527.00 879.00,527.00
             875.61,533.59 870.49,539.79 866.33,546.00
             864.99,548.01 862.16,552.82 859.86,553.51
             856.79,554.43 854.20,550.06 852.71,548.00
             848.30,541.90 840.50,533.18 839.00,526.00
             845.57,528.10 852.87,541.16 857.00,547.00
             857.00,547.00 857.00,373.00 857.00,373.00
             857.00,373.00 817.00,373.00 817.00,373.00
             811.74,373.00 805.01,374.75 803.00,369.00 Z
           M 505.00,384.00
           C 501.38,385.06 487.86,391.65 485.99,394.53
             484.76,396.43 485.00,399.77 485.00,402.00
             485.00,402.00 485.00,482.00 485.00,482.00
             488.53,480.88 502.12,474.11 504.01,471.37
             505.26,469.56 505.00,466.15 505.00,464.00
             505.00,464.00 505.00,384.00 505.00,384.00 Z
           M 199.00,389.00
           C 197.27,393.35 198.00,402.05 198.00,407.00
             198.00,407.00 198.00,444.00 198.00,444.00
             198.00,444.00 198.00,573.00 198.00,573.00
             198.00,573.00 198.00,610.00 198.00,610.00
             198.03,611.76 197.94,613.86 198.99,615.37
             200.87,618.05 214.46,623.99 218.00,625.00
             218.00,625.00 218.00,456.00 218.00,456.00
             218.00,456.00 218.00,407.00 218.00,407.00
             218.00,407.00 216.98,400.33 216.98,400.33
             216.98,400.33 199.00,389.00 199.00,389.00 Z
           M 766.00,389.00
           C 766.00,389.00 746.00,400.00 746.00,400.00
             748.24,412.49 745.86,422.65 746.00,435.00
             746.00,435.00 747.00,449.00 747.00,449.00
             747.00,449.00 747.00,476.00 747.00,476.00
             747.00,476.00 747.00,625.00 747.00,625.00
             750.69,623.41 764.17,617.45 765.98,614.61
             767.50,612.22 767.00,604.12 767.00,601.00
             767.00,601.00 767.00,568.00 767.00,568.00
             767.00,568.00 767.00,447.00 767.00,447.00
             767.00,447.00 767.00,410.00 767.00,410.00
             767.00,403.62 767.70,394.97 766.00,389.00 Z
           M 482.00,397.00
           C 478.12,398.11 465.02,404.25 463.02,407.39
             461.98,409.02 462.04,411.14 462.00,413.00
             462.00,413.00 462.00,464.00 462.00,464.00
             462.00,465.88 461.88,469.11 462.60,470.79
             464.07,474.21 477.21,480.97 481.00,483.00
             481.00,483.00 482.00,463.00 482.00,463.00
             482.00,463.00 482.00,413.00 482.00,413.00
             482.00,413.00 482.00,397.00 482.00,397.00 Z
           M 221.00,625.00
           C 224.54,623.99 238.13,618.05 240.01,615.37
             241.25,613.58 241.00,610.13 241.00,608.00
             241.00,608.00 241.00,575.00 241.00,575.00
             241.00,575.00 241.00,454.00 241.00,454.00
             241.00,454.00 241.00,418.00 241.00,418.00
             240.97,416.23 241.06,414.16 240.01,412.63
             238.39,410.29 225.19,403.42 222.00,402.00
             222.00,402.00 221.00,427.00 221.00,427.00
             221.00,427.00 221.00,473.00 221.00,473.00
             221.00,473.00 221.00,625.00 221.00,625.00 Z
           M 743.00,402.00
           C 739.28,403.66 725.82,410.35 724.02,413.33
             722.49,415.85 723.00,423.78 723.00,427.00
             723.00,427.00 723.00,460.00 723.00,460.00
             723.00,460.00 723.00,607.00 723.00,607.00
             723.00,609.27 722.78,612.66 724.02,614.61
             725.83,617.45 739.31,623.41 743.00,625.00
             743.00,625.00 743.00,402.00 743.00,402.00 Z
           M 458.00,410.00
           C 458.00,410.00 423.00,428.70 423.00,428.70
             423.00,428.70 404.00,440.00 404.00,440.00
             404.00,440.00 442.00,461.26 442.00,461.26
             442.00,461.26 458.00,469.00 458.00,469.00
             458.00,469.00 458.00,410.00 458.00,410.00 Z
           M 246.00,415.00
           C 246.00,415.00 245.00,433.00 245.00,433.00
             245.00,433.00 245.00,468.00 245.00,468.00
             245.00,468.00 245.00,590.00 245.00,590.00
             245.00,590.00 307.00,556.70 307.00,556.70
             307.00,556.70 325.01,546.36 325.01,546.36
             325.01,546.36 326.00,539.00 326.00,539.00
             326.00,539.00 326.00,468.00 326.00,468.00
             326.00,468.00 324.98,460.21 324.98,460.21
             324.98,460.21 307.00,449.00 307.00,449.00
             307.00,449.00 246.00,415.00 246.00,415.00 Z
           M 720.00,416.00
           C 713.44,417.25 705.99,422.41 700.00,425.70
             700.00,425.70 658.00,449.14 658.00,449.14
             654.08,451.33 643.22,456.34 641.60,460.18
             640.88,461.90 641.00,465.09 641.00,467.00
             641.00,467.00 641.00,539.00 641.00,539.00
             641.00,540.94 640.88,544.14 641.60,545.90
             643.25,549.93 654.89,555.08 659.00,557.31
             659.00,557.31 698.00,578.86 698.00,578.86
             704.25,582.35 713.46,588.13 720.00,590.00
             720.00,590.00 720.00,416.00 720.00,416.00 Z
           M 638.00,461.00
           C 638.00,461.00 624.00,468.14 624.00,468.14
             624.00,468.14 618.01,472.39 618.01,472.39
             618.01,472.39 618.01,483.00 618.01,483.00
             618.01,483.00 618.01,521.00 618.01,521.00
             618.01,521.00 618.01,695.00 618.01,695.00
             622.11,693.83 634.93,688.26 636.98,684.79
             638.00,683.05 637.96,680.94 638.00,679.00
             638.00,679.00 638.00,635.00 638.00,635.00
             638.00,635.00 638.00,461.00 638.00,461.00 Z
           M 349.12,695.00
           C 349.12,695.00 349.12,581.00 349.12,581.00
             349.12,581.00 349.12,562.00 349.12,562.00
             349.12,562.00 349.12,550.00 349.12,550.00
             349.12,550.00 349.12,541.00 349.12,541.00
             349.12,541.00 349.12,532.00 349.12,532.00
             349.12,532.00 349.12,523.00 349.12,523.00
             349.12,523.00 349.12,480.00 349.12,480.00
             348.98,477.81 349.11,475.15 347.98,473.21
             346.08,469.95 333.85,463.85 330.00,462.00
             328.22,468.28 329.00,482.79 329.06,490.00
             329.06,490.00 329.06,541.00 329.06,541.00
             329.06,541.00 329.06,571.00 329.06,571.00
             329.06,571.00 329.06,658.00 329.06,658.00
             329.06,658.00 330.00,676.00 330.00,676.00
             330.00,678.60 329.65,683.46 331.02,685.61
             332.95,688.64 345.28,693.94 349.12,695.00 Z
           M 614.00,474.00
           C 610.35,475.63 596.82,482.50 595.02,485.38
             593.78,487.37 594.00,490.69 594.00,493.00
             594.00,493.00 594.00,644.00 594.00,644.00
             594.00,644.00 594.00,680.00 594.00,680.00
             594.03,681.79 593.94,683.84 594.99,685.39
             596.86,688.14 610.42,693.98 614.00,695.00
             614.00,695.00 614.00,474.00 614.00,474.00 Z
           M 354.00,475.00
           C 354.00,475.00 353.00,496.00 353.00,496.00
             353.00,496.00 353.00,541.00 353.00,541.00
             353.00,541.00 353.00,695.00 353.00,695.00
             357.12,694.08 369.80,689.02 371.98,685.61
             373.48,683.26 373.00,676.00 373.00,673.00
             373.00,673.00 373.00,643.00 373.00,643.00
             373.00,643.00 373.00,494.00 373.00,494.00
             373.00,492.09 373.12,488.90 372.40,487.18
             370.83,483.45 358.03,477.32 354.00,475.00 Z
           M 591.00,487.00
           C 591.00,487.00 560.00,504.00 560.00,504.00
             564.60,508.18 584.89,519.26 591.00,521.00
             591.00,521.00 591.00,487.00 591.00,487.00 Z
           M 378.00,488.00
           C 374.81,492.33 376.00,498.83 376.00,504.00
             376.00,504.00 376.00,541.00 376.00,541.00
             376.00,541.00 376.00,664.00 376.00,664.00
             376.00,666.27 375.78,669.66 377.02,671.61
             379.10,674.87 386.43,676.44 389.40,680.33
             391.72,683.35 391.07,692.06 391.00,696.00
             390.95,698.51 390.99,700.66 389.40,702.79
             387.51,705.33 382.86,707.30 380.00,708.76
             380.00,708.76 362.00,718.25 362.00,718.25
             358.57,719.96 353.88,722.99 350.00,722.26
             347.13,721.73 341.72,718.37 339.00,716.86
             339.00,716.86 323.00,708.75 323.00,708.75
             320.29,707.39 315.60,705.28 314.02,702.67
             312.46,700.10 312.94,689.47 313.00,686.00
             313.20,675.19 319.97,678.11 324.40,672.61
             326.32,670.24 325.99,666.88 326.00,664.00
             326.00,664.00 326.00,550.00 326.00,550.00
             326.00,550.00 302.00,563.14 302.00,563.14
             302.00,563.14 266.00,582.78 266.00,582.78
             266.00,582.78 251.00,591.14 251.00,591.14
             248.72,592.44 246.05,593.45 245.30,596.21
             243.19,603.92 252.71,604.84 256.69,608.63
             259.00,610.84 258.94,613.02 259.00,616.00
             259.06,619.38 259.49,629.23 257.98,631.79
             256.40,634.47 251.73,636.34 249.00,637.86
             249.00,637.86 228.00,648.75 228.00,648.75
             224.88,650.31 221.61,652.53 218.00,651.58
             218.00,651.58 193.00,638.86 193.00,638.86
             190.66,637.56 184.40,634.16 182.00,633.84
             178.04,633.32 165.98,640.73 162.00,643.00
             162.00,643.00 162.00,645.00 162.00,645.00
             162.00,645.00 281.00,709.69 281.00,709.69
             281.00,709.69 391.00,769.30 391.00,769.30
             391.00,769.30 454.00,803.42 454.00,803.42
             454.00,803.42 474.00,814.25 474.00,814.25
             474.00,814.25 483.00,818.11 483.00,818.11
             483.00,818.11 491.00,814.86 491.00,814.86
             491.00,814.86 507.00,806.26 507.00,806.26
             507.00,806.26 571.00,771.31 571.00,771.31
             571.00,771.31 721.00,689.69 721.00,689.69
             721.00,689.69 776.00,659.69 776.00,659.69
             776.00,659.69 803.00,645.00 803.00,645.00
             803.00,645.00 803.00,643.00 803.00,643.00
             798.77,640.97 786.90,633.40 783.00,633.86
             780.87,634.10 776.09,636.70 774.00,637.76
             774.00,637.76 747.00,651.44 747.00,651.44
             743.04,652.43 739.41,649.95 736.00,648.25
             736.00,648.25 716.00,637.75 716.00,637.75
             713.25,636.38 708.59,634.45 707.02,631.79
             705.51,629.23 705.94,619.38 706.00,616.00
             706.06,612.99 705.98,611.02 708.31,608.79
             711.78,605.48 720.75,603.42 719.63,597.04
             718.78,592.19 705.35,586.56 701.00,584.14
             701.00,584.14 662.00,562.69 662.00,562.69
             655.83,559.35 647.43,553.84 641.00,552.00
             641.00,552.00 641.00,664.00 641.00,664.00
             641.00,666.27 640.78,669.66 642.02,671.61
             645.64,677.29 654.77,674.82 655.00,687.00
             655.06,690.27 655.51,700.19 653.98,702.61
             652.67,704.67 647.28,707.46 645.00,708.69
             645.00,708.69 626.00,718.25 626.00,718.25
             623.42,719.54 618.78,722.22 616.00,722.22
             613.22,722.22 608.58,719.54 606.00,718.25
             606.00,718.25 587.00,708.25 587.00,708.25
             583.96,706.71 579.73,704.98 578.02,701.90
             576.53,699.20 576.94,690.41 577.00,687.00
             577.21,675.60 584.89,678.21 589.40,672.61
             591.32,670.24 590.99,666.88 591.00,664.00
             591.00,664.00 591.00,534.00 591.00,534.00
             590.98,523.58 589.06,524.47 574.00,516.31
             570.57,514.45 558.99,507.60 556.00,507.48
             552.31,507.33 545.49,511.92 542.00,513.75
             542.00,513.75 518.00,527.20 518.00,527.20
             515.74,528.54 510.31,531.35 509.02,533.39
             507.78,535.35 508.00,538.72 508.00,541.00
             508.00,541.00 508.00,734.00 508.00,734.00
             508.00,736.31 507.78,739.63 509.02,741.62
             511.16,745.04 519.17,747.62 521.14,750.10
             522.70,752.07 522.01,762.05 522.00,765.00
             522.00,766.94 522.12,770.14 521.40,771.90
             519.70,776.06 508.24,780.63 504.00,782.75
             500.52,784.49 486.56,792.21 484.00,792.40
             480.04,792.68 473.54,788.22 470.00,786.31
             464.62,783.40 447.69,776.43 445.17,771.90
             443.79,769.39 444.00,765.80 444.00,763.00
             443.99,759.33 443.39,753.18 445.60,750.21
             448.44,746.40 454.72,745.61 456.98,741.79
             458.20,739.71 458.00,736.38 458.00,734.00
             458.00,734.00 458.00,541.00 458.00,541.00
             458.00,539.12 458.12,535.89 457.40,534.21
             455.82,530.53 442.07,523.93 438.00,521.70
             438.00,521.70 378.00,488.00 378.00,488.00 Z
           M 145.00,523.00
           C 145.00,523.00 147.00,523.00 147.00,523.00
             147.00,523.00 147.00,539.00 147.00,539.00
             142.32,535.87 143.64,527.80 145.00,523.00 Z
           M 505.00,535.00
           C 501.16,536.66 487.92,543.20 486.02,546.33
             484.99,548.03 485.04,550.08 485.00,552.00
             485.00,552.00 485.00,597.00 485.00,597.00
             485.00,597.00 485.00,765.00 485.00,765.00
             488.79,763.92 502.05,758.64 503.98,755.61
             505.02,753.98 504.96,751.86 505.00,750.00
             505.00,750.00 505.00,706.00 505.00,706.00
             505.00,706.00 505.00,535.00 505.00,535.00 Z
           M 482.00,765.00
           C 482.00,765.00 482.00,594.00 482.00,594.00
             482.00,594.00 482.00,561.00 482.00,561.00
             482.00,557.39 482.49,549.28 480.71,546.39
             478.80,543.30 465.78,537.08 462.00,536.00
             462.00,536.00 462.00,708.00 462.00,708.00
             462.00,708.00 462.00,750.00 462.00,750.00
             462.04,751.86 461.98,753.98 463.02,755.61
             465.19,759.01 477.89,764.23 482.00,765.00 Z
           M 145.00,557.00
           C 147.86,560.88 147.00,565.32 147.00,570.00
             142.64,567.08 143.72,561.49 145.00,557.00 Z
           M 857.00,579.00
           C 857.00,579.00 860.00,579.00 860.00,579.00
             860.00,579.00 860.00,589.00 860.00,589.00
             860.00,589.00 858.00,589.00 858.00,589.00
             858.00,589.00 857.00,579.00 857.00,579.00 Z
           M 145.00,584.00
           C 145.00,584.00 147.00,584.00 147.00,584.00
             147.00,588.95 148.05,594.85 145.00,599.00
             143.59,594.02 143.59,588.98 145.00,584.00 Z
           M 858.00,602.00
           C 858.00,602.00 860.00,602.00 860.00,602.00
             860.59,606.59 862.20,610.12 857.00,612.00
             857.00,612.00 858.00,602.00 858.00,602.00 Z
           M 195.00,606.00
           C 191.09,606.94 189.20,607.51 187.00,611.00
             187.00,611.00 194.00,614.00 194.00,614.00
             194.00,614.00 195.00,606.00 195.00,606.00 Z
           M 246.00,606.00
           C 246.00,606.00 245.00,614.00 245.00,614.00
             245.00,614.00 252.00,611.00 252.00,611.00
             252.00,611.00 252.00,609.00 252.00,609.00
             252.00,609.00 246.00,606.00 246.00,606.00 Z
           M 719.00,606.00
           C 719.00,606.00 713.00,609.00 713.00,609.00
             713.00,609.00 713.00,611.00 713.00,611.00
             713.00,611.00 720.00,613.00 720.00,613.00
             720.00,613.00 720.00,607.00 720.00,607.00
             720.00,607.00 719.00,606.00 719.00,606.00 Z
           M 777.00,609.00
           C 777.00,609.00 770.00,606.00 770.00,606.00
             770.00,606.00 770.00,614.00 770.00,614.00
             770.00,614.00 777.00,611.00 777.00,611.00
             777.00,611.00 777.00,609.00 777.00,609.00 Z
           M 218.00,647.00
           C 218.00,647.00 218.00,635.00 218.00,635.00
             218.00,635.00 216.40,628.81 216.40,628.81
             216.40,628.81 207.00,623.75 207.00,623.75
             207.00,623.75 184.00,613.00 184.00,613.00
             184.00,613.00 184.00,625.00 184.00,625.00
             184.05,627.24 183.92,629.46 185.60,631.19
             185.60,631.19 194.00,636.00 194.00,636.00
             200.07,639.44 211.44,645.77 218.00,647.00 Z
           M 255.00,613.00
           C 255.00,613.00 230.00,624.75 230.00,624.75
             230.00,624.75 221.57,630.39 221.57,630.39
             221.57,630.39 221.00,648.00 221.00,648.00
             221.00,648.00 245.00,636.25 245.00,636.25
             245.00,636.25 253.98,630.61 253.98,630.61
             253.98,630.61 255.00,613.00 255.00,613.00 Z
           M 743.00,648.00
           C 743.00,648.00 741.98,629.39 741.98,629.39
             741.98,629.39 733.00,623.76 733.00,623.76
             733.00,623.76 709.00,613.00 709.00,613.00
             709.00,613.00 709.00,625.00 709.00,625.00
             709.13,632.26 711.46,631.97 720.00,636.25
             720.00,636.25 743.00,648.00 743.00,648.00 Z
           M 780.00,613.00
           C 780.00,613.00 747.00,628.00 747.00,628.00
             747.00,628.00 747.00,647.00 747.00,647.00
             754.34,645.62 763.00,639.75 770.00,636.25
             772.36,635.07 778.64,632.32 780.00,630.37
             782.06,627.43 780.97,616.43 780.00,613.00 Z
           M 858.00,625.00
           C 861.79,628.84 861.20,631.04 860.00,636.00
             860.00,636.00 858.00,636.00 858.00,636.00
             856.72,631.48 856.72,629.52 858.00,625.00 Z
           M 160.00,647.00
           C 158.21,651.52 158.99,664.49 159.00,670.00
             159.02,679.78 159.17,677.50 175.00,686.42
             175.00,686.42 224.00,712.86 224.00,712.86
             224.00,712.86 398.00,807.31 398.00,807.31
             398.00,807.31 455.00,838.31 455.00,838.31
             461.59,841.88 475.63,850.18 482.00,852.00
             482.00,852.00 481.00,830.00 481.00,830.00
             481.00,830.00 479.98,822.38 479.98,822.38
             479.98,822.38 459.00,809.69 459.00,809.69
             459.00,809.69 391.00,772.75 391.00,772.75
             391.00,772.75 254.00,698.31 254.00,698.31
             254.00,698.31 160.00,647.00 160.00,647.00 Z
           M 806.00,647.00
           C 806.00,647.00 777.00,662.69 777.00,662.69
             777.00,662.69 713.00,697.69 713.00,697.69
             713.00,697.69 612.00,752.69 612.00,752.69
             612.00,752.69 559.00,781.42 559.00,781.42
             559.00,781.42 503.00,812.00 503.00,812.00
             498.97,814.29 487.25,819.36 485.60,823.21
             484.88,824.89 485.00,828.12 485.00,830.00
             485.00,830.00 485.00,852.00 485.00,852.00
             485.00,852.00 513.00,837.31 513.00,837.31
             513.00,837.31 572.00,805.31 572.00,805.31
             572.00,805.31 658.00,758.31 658.00,758.31
             658.00,758.31 733.00,717.42 733.00,717.42
             733.00,717.42 788.00,687.69 788.00,687.69
             804.39,678.81 805.98,680.21 806.00,670.00
             806.00,670.00 806.00,647.00 806.00,647.00 Z
           M 857.00,649.00
           C 857.00,649.00 860.00,649.00 860.00,649.00
             860.81,653.59 862.09,656.21 857.00,658.00
             857.00,658.00 857.00,649.00 857.00,649.00 Z
           M 326.00,677.00
           C 326.00,677.00 320.00,679.00 320.00,679.00
             320.00,679.00 320.00,681.00 320.00,681.00
             320.00,681.00 326.00,684.00 326.00,684.00
             326.00,684.00 326.00,677.00 326.00,677.00 Z
           M 384.00,680.00
           C 384.00,680.00 376.00,677.00 376.00,677.00
             376.00,677.00 377.00,684.00 377.00,684.00
             377.00,684.00 384.00,680.00 384.00,680.00 Z
           M 591.00,677.00
           C 591.00,677.00 584.00,681.00 584.00,681.00
             584.00,681.00 591.00,684.00 591.00,684.00
             591.00,684.00 591.00,677.00 591.00,677.00 Z
           M 648.00,679.00
           C 648.00,679.00 641.00,677.00 641.00,677.00
             641.00,677.00 641.00,684.00 641.00,684.00
             641.00,684.00 648.00,681.00 648.00,681.00
             648.00,681.00 648.00,679.00 648.00,679.00 Z
           M 387.00,683.00
           C 387.00,683.00 364.00,694.25 364.00,694.25
             364.00,694.25 354.02,700.39 354.02,700.39
             354.02,700.39 353.00,718.00 353.00,718.00
             353.00,718.00 378.00,706.25 378.00,706.25
             378.00,706.25 386.43,700.61 386.43,700.61
             386.43,700.61 387.00,683.00 387.00,683.00 Z
           M 349.00,718.00
           C 349.00,718.00 349.00,705.00 349.00,705.00
             349.00,705.00 347.43,698.96 347.43,698.96
             347.43,698.96 332.00,691.14 332.00,691.14
             332.00,691.14 316.00,684.00 316.00,684.00
             316.00,684.00 317.02,700.62 317.02,700.62
             317.02,700.62 326.00,706.74 326.00,706.74
             326.00,706.74 349.00,718.00 349.00,718.00 Z
           M 614.00,718.00
           C 614.00,718.00 614.00,705.00 614.00,705.00
             614.00,705.00 612.40,698.81 612.40,698.81
             612.40,698.81 600.00,692.58 600.00,692.58
             600.00,692.58 580.00,684.00 580.00,684.00
             580.00,684.00 581.02,700.61 581.02,700.61
             581.02,700.61 590.00,706.26 590.00,706.26
             590.00,706.26 614.00,718.00 614.00,718.00 Z
           M 652.00,684.00
           C 644.61,685.39 635.28,691.40 628.00,694.58
             625.25,695.78 619.89,697.56 618.57,700.39
             617.62,702.42 618.00,714.91 618.00,718.00
             618.00,718.00 641.00,707.24 641.00,707.24
             641.00,707.24 650.83,700.62 650.83,700.62
             650.83,700.62 652.00,684.00 652.00,684.00 Z
           M 858.00,710.00
           C 858.00,710.00 860.16,710.00 860.16,710.00
             860.16,710.00 860.16,729.00 860.16,729.00
             860.16,729.00 860.16,747.00 860.16,747.00
             860.16,747.00 860.16,758.00 860.16,758.00
             860.16,758.00 860.16,769.00 860.16,769.00
             860.16,769.00 860.16,848.00 860.16,848.00
             860.16,848.00 860.96,862.00 860.96,862.00
             860.96,862.00 860.96,874.00 860.96,874.00
             860.96,874.00 860.00,890.00 860.00,890.00
             860.00,890.00 858.40,897.89 858.40,897.89
             858.40,897.89 844.01,899.00 844.01,899.00
             844.01,899.00 822.00,899.00 822.00,899.00
             822.00,899.00 700.00,899.00 700.00,899.00
             700.00,899.00 663.00,899.00 663.00,899.00
             663.00,899.00 641.00,898.00 641.00,898.00
             646.48,904.47 659.61,909.81 661.00,918.00
             654.10,915.32 646.99,908.68 641.00,904.13
             639.24,902.79 634.93,899.92 634.34,897.83
             633.44,894.66 637.88,891.76 640.00,890.13
             643.13,887.73 655.36,877.92 658.00,877.02
             659.91,876.41 660.25,876.77 662.00,877.02
             662.00,877.02 641.00,895.00 641.00,895.00
             641.00,895.00 857.00,895.00 857.00,895.00
             857.00,895.00 857.00,769.00 857.00,769.00
             857.00,769.00 857.00,731.00 857.00,731.00
             857.00,731.00 858.00,710.00 858.00,710.00 Z
           M 781.00,735.00
           C 787.16,733.53 807.56,737.02 815.00,738.00
             814.22,745.36 808.91,754.11 805.86,761.00
             803.87,765.50 803.95,768.32 799.00,770.00
             799.00,770.00 808.00,745.00 808.00,745.00
             808.00,745.00 694.00,809.42 694.00,809.42
             694.00,809.42 596.00,864.70 596.00,864.70
             596.00,864.70 522.00,906.14 522.00,906.14
             522.00,906.14 483.00,929.00 483.00,929.00
             483.00,929.00 509.00,932.00 509.00,932.00
             509.00,932.00 509.00,934.00 509.00,934.00
             502.35,935.58 490.21,932.68 483.00,932.08
             479.38,931.79 474.59,932.24 475.68,926.96
             475.68,926.96 484.76,906.00 484.76,906.00
             486.60,902.28 486.94,900.42 491.00,899.00
             491.00,899.00 481.00,924.00 481.00,924.00
             481.00,924.00 506.00,910.43 506.00,910.43
             506.00,910.43 549.00,886.30 549.00,886.30
             549.00,886.30 702.00,800.28 702.00,800.28
             702.00,800.28 773.00,760.28 773.00,760.28
             773.00,760.28 807.00,740.00 807.00,740.00
             807.00,740.00 783.41,737.43 783.41,737.43
             783.41,737.43 781.00,735.00 781.00,735.00 Z
           M 82.00,820.00
           C 82.00,820.00 87.78,801.00 87.78,801.00
             87.50,796.35 77.81,788.16 76.88,784.00
             76.23,781.06 78.24,779.00 80.06,777.00
             80.06,777.00 92.00,765.02 92.00,765.02
             93.76,763.31 96.52,760.45 99.00,760.01
             103.94,759.14 111.24,768.50 116.00,770.44
             119.37,771.81 129.62,767.13 132.94,765.29
             140.33,761.21 136.78,748.13 140.02,743.31
             141.88,740.55 146.07,741.01 149.00,741.00
             157.35,740.98 165.75,740.52 174.00,742.00
             174.31,745.77 175.78,761.24 177.74,763.49
             179.49,765.51 185.27,767.08 188.00,768.31
             190.68,769.51 193.98,771.79 197.00,770.77
             200.86,769.47 209.37,759.53 214.00,759.82
             216.50,759.97 219.24,762.49 221.00,764.09
             223.68,766.54 233.71,776.42 235.26,779.00
             240.80,788.23 223.27,794.39 225.85,803.09
             226.80,806.28 230.86,817.37 233.27,819.02
             238.24,822.40 252.03,819.69 254.40,825.15
             255.12,826.79 255.00,830.15 255.00,832.00
             255.00,832.00 255.00,849.00 255.00,849.00
             254.95,851.58 255.08,854.20 252.69,855.83
             247.12,859.62 234.67,855.38 230.80,863.06
             229.56,865.51 224.98,877.21 225.75,879.28
             227.07,882.82 236.68,891.96 236.68,896.00
             236.68,898.19 234.80,900.26 233.44,901.82
             233.44,901.82 220.00,914.98 220.00,914.98
             218.12,916.77 215.86,919.27 213.00,918.96
             208.33,918.46 200.76,908.58 196.00,907.97
             192.71,907.55 185.47,912.67 177.00,914.00
             177.00,914.00 175.05,929.00 175.05,929.00
             175.05,929.00 173.07,936.40 173.07,936.40
             173.07,936.40 167.00,938.00 167.00,938.00
             167.00,938.00 147.00,938.00 147.00,938.00
             147.00,938.00 140.60,936.40 140.60,936.40
             140.60,936.40 138.58,930.00 138.58,930.00
             138.58,930.00 137.00,914.00 137.00,914.00
             132.14,913.24 128.45,911.74 124.00,909.69
             122.29,908.90 119.44,907.14 117.58,907.41
             113.91,907.94 105.63,917.86 101.00,919.00
             98.08,919.72 96.14,917.90 94.09,916.11
             94.09,916.11 81.02,903.00 81.02,903.00
             79.51,901.42 77.24,899.22 76.82,897.00
             75.86,891.90 86.02,884.39 87.54,879.00
             88.54,875.44 82.91,864.01 82.00,859.00
             82.00,859.00 66.00,857.27 66.00,857.27
             66.00,857.27 59.99,855.26 59.99,855.26
             59.99,855.26 59.00,848.00 59.00,848.00
             59.00,848.00 59.00,830.00 59.00,830.00
             59.00,830.00 59.99,823.74 59.99,823.74
             59.99,823.74 66.00,821.85 66.00,821.85
             66.00,821.85 82.00,820.00 82.00,820.00 Z
           M 171.00,745.00
           C 171.00,745.00 150.00,745.00 150.00,745.00
             148.18,745.01 145.08,744.85 143.60,746.02
             140.65,748.35 141.88,761.52 139.02,765.73
             137.05,768.61 128.54,770.89 125.00,772.44
             123.53,773.08 120.37,774.73 119.00,774.96
             112.60,776.04 104.87,764.14 100.00,764.19
             97.72,764.22 95.54,766.56 94.00,768.02
             91.76,770.15 82.81,778.83 81.82,781.00
             79.45,786.26 89.97,793.87 91.63,799.00
             92.58,801.94 86.85,815.63 85.20,818.96
             81.03,827.40 68.22,822.50 63.57,826.17
             61.59,827.74 62.00,831.70 62.00,834.00
             62.00,834.00 62.00,853.00 62.00,853.00
             66.38,853.80 81.03,855.33 83.57,857.58
             85.67,859.44 87.57,866.05 88.86,869.00
             90.12,871.88 92.53,875.82 91.82,879.00
             90.60,884.43 79.95,891.99 81.32,897.00
             81.87,898.98 84.57,901.53 86.00,903.00
             88.53,905.58 96.69,914.79 100.00,914.80
             104.10,914.82 112.14,904.21 117.00,903.43
             119.67,903.00 124.40,905.99 127.00,907.14
             129.49,908.24 136.10,910.37 137.69,911.72
             141.27,914.76 141.96,929.16 142.00,934.00
             142.00,934.00 171.00,934.00 171.00,934.00
             171.31,930.19 172.53,914.79 174.60,912.56
             176.08,910.97 184.33,908.36 187.00,907.11
             189.88,905.76 193.82,902.70 197.00,903.56
             200.48,904.51 207.50,912.80 215.00,916.00
             221.24,907.29 231.09,902.05 231.99,897.00
             232.87,892.00 222.64,883.23 221.49,879.42
             220.87,877.39 222.23,874.86 223.00,873.00
             223.00,873.00 228.11,860.06 228.11,860.06
             231.83,852.30 244.93,856.40 249.43,852.83
             251.94,850.83 251.01,837.56 251.00,834.00
             251.00,832.01 251.23,828.19 249.98,826.60
             247.76,823.80 235.11,824.98 231.22,822.69
             230.28,822.13 229.76,821.62 229.14,820.72
             229.14,820.72 221.85,804.00 221.85,804.00
             218.12,793.67 238.08,787.95 229.85,778.00
             227.70,775.40 216.92,764.24 213.91,764.09
             209.51,763.88 202.03,773.69 197.00,774.94
             193.83,775.72 189.89,773.14 187.00,771.86
             184.15,770.60 177.22,768.31 175.31,766.49
             172.28,763.61 171.21,749.52 171.00,745.00 Z
           M 458.00,747.00
           C 458.00,747.00 451.00,751.00 451.00,751.00
             451.00,751.00 458.00,754.00 458.00,754.00
             458.00,754.00 458.00,747.00 458.00,747.00 Z
           M 516.00,750.00
           C 516.00,750.00 508.00,747.00 508.00,747.00
             508.00,747.00 509.00,754.00 509.00,754.00
             509.00,754.00 516.00,750.00 516.00,750.00 Z
           M 482.00,788.00
           C 482.00,788.00 480.01,769.63 480.01,769.63
             480.01,769.63 471.00,764.25 471.00,764.25
             471.00,764.25 448.00,754.00 448.00,754.00
             448.00,754.00 449.02,770.79 449.02,770.79
             449.02,770.79 458.00,776.75 458.00,776.75
             458.00,776.75 482.00,788.00 482.00,788.00 Z
           M 519.00,754.00
           C 519.00,754.00 495.00,764.69 495.00,764.69
             495.00,764.69 485.57,770.39 485.57,770.39
             485.57,770.39 485.00,788.00 485.00,788.00
             485.00,788.00 509.00,776.75 509.00,776.75
             509.00,776.75 517.98,770.79 517.98,770.79
             517.98,770.79 519.00,754.00 519.00,754.00 Z
           M 151.00,795.43
           C 188.91,790.75 215.59,833.73 193.21,865.00
             190.09,869.36 185.52,873.67 181.00,876.56
             176.19,879.64 170.65,881.93 165.00,882.86
             149.91,885.34 134.96,881.12 124.17,869.91
             105.87,850.88 109.08,817.96 131.00,803.09
             137.97,798.37 142.84,796.77 151.00,795.43 Z
           M 156.00,798.37
           C 139.34,800.24 126.26,806.85 119.17,823.00
             107.87,848.77 126.39,879.67 155.00,880.00
             162.64,880.08 166.97,879.56 174.00,876.22
             179.70,873.50 183.54,870.82 187.70,866.00
             210.96,839.04 191.12,798.71 156.00,798.37 Z
           M 272.00,803.00
           C 277.06,802.10 278.70,803.56 283.00,806.00
             283.00,806.00 283.00,808.00 283.00,808.00
             283.00,808.00 282.00,809.00 282.00,809.00
             277.29,807.65 275.28,806.72 272.00,803.00 Z
           M 294.00,814.00
           C 298.92,814.53 302.94,815.30 303.00,821.00
             298.53,819.06 296.37,818.48 294.00,814.00 Z
           M 316.00,826.00
           C 316.00,826.00 326.00,830.00 326.00,830.00
             326.00,830.00 325.00,833.00 325.00,833.00
             320.27,831.34 317.67,831.07 316.00,826.00 Z
           M 337.00,839.00
           C 341.78,838.15 345.30,839.15 347.00,844.00
             341.95,843.46 340.40,842.85 337.00,839.00 Z
           M 359.00,849.00
           C 363.87,850.39 366.55,851.37 369.00,856.00
             363.78,855.45 359.97,854.71 359.00,849.00 Z
           M 377.00,865.00
           C 382.84,866.94 381.98,870.63 382.00,876.00
             378.32,873.57 377.74,869.18 377.00,865.00 Z
           M 346.00,894.00
           C 346.00,894.00 364.00,893.00 364.00,893.00
             364.00,893.00 377.00,889.00 377.00,889.00
             376.27,891.42 376.04,892.64 373.85,894.27
             369.00,897.88 351.70,897.39 346.00,896.00
             346.00,896.00 346.00,894.00 346.00,894.00 Z
           M 277.00,894.00
           C 281.08,892.86 283.43,892.16 286.00,896.00
             286.00,896.00 277.00,896.00 277.00,896.00
             277.00,896.00 277.00,894.00 277.00,894.00 Z
           M 299.00,896.00
           C 301.71,891.95 306.29,891.95 309.00,896.00
             309.00,896.00 299.00,896.00 299.00,896.00 Z
           M 323.00,893.00
           C 327.38,893.00 330.37,892.07 333.00,896.00
             328.57,896.75 324.93,897.96 323.00,893.00 Z" />
</svg>
