<?xml version="1.0" encoding="UTF-8" standalone="no"?>
<!DOCTYPE svg PUBLIC "-//W3C//DTD SVG 20010904//EN"
              "http://www.w3.org/TR/2001/REC-SVG-20010904/DTD/svg10.dtd">

<svg xmlns="http://www.w3.org/2000/svg"
     width="100" height="100" fill="none" stroke="#7fa573" stroke-width="10"
     viewBox="0 0 952 952">
  <path d="M 886.00,653.00
           C 886.00,653.00 789.00,653.00 789.00,653.00
             777.92,653.02 771.49,658.22 762.00,663.58
             762.00,663.58 727.00,682.69 727.00,682.69
             727.00,682.69 587.00,759.08 587.00,759.08
             587.00,759.08 533.00,788.69 533.00,788.69
             533.00,788.69 492.00,810.85 492.00,810.85
             492.00,810.85 467.00,824.25 467.00,824.25
             463.57,825.96 458.88,828.99 455.00,828.26
             455.00,828.26 429.00,814.86 429.00,814.86
             429.00,814.86 378.00,787.30 378.00,787.30
             378.00,787.30 209.00,695.70 209.00,695.70
             209.00,695.70 151.00,664.24 151.00,664.24
             140.30,658.80 135.42,653.02 123.00,653.00
             123.00,653.00 84.00,653.00 84.00,653.00
             84.00,653.00 64.00,653.00 64.00,653.00
             46.26,652.79 30.84,640.74 25.36,624.00
             23.56,618.51 23.01,612.74 23.00,607.00
             23.00,607.00 23.00,199.00 23.00,199.00
             23.00,199.00 23.00,125.00 23.00,125.00
             23.04,98.32 40.02,76.04 68.00,76.00
             68.00,76.00 76.00,76.00 76.00,76.00
             85.18,76.12 85.98,77.43 86.00,86.00
             86.00,86.00 86.00,131.00 86.00,131.00
             86.00,131.00 312.00,131.00 312.00,131.00
             312.00,131.00 377.00,131.00 377.00,131.00
             383.38,131.00 402.13,130.07 407.00,132.00
             407.00,132.00 86.00,132.00 86.00,132.00
             86.00,132.00 86.00,436.00 86.00,436.00
             86.00,436.00 86.00,529.00 86.00,529.00
             86.00,529.00 86.00,557.00 86.00,557.00
             86.00,557.00 85.00,574.00 85.00,574.00
             69.87,570.96 61.82,568.37 47.00,576.32
             22.81,589.31 17.10,621.93 38.04,640.70
             51.73,652.97 62.17,651.00 79.00,651.00
             79.00,651.00 130.00,651.00 130.00,651.00
             130.00,651.00 130.00,624.00 130.00,624.00
             130.00,621.85 129.74,618.44 130.99,616.63
             133.15,613.51 150.33,605.97 153.69,603.04
             158.34,598.97 154.42,588.19 156.57,583.33
             158.19,579.68 163.91,578.52 166.69,575.61
             169.37,572.80 168.99,569.58 169.00,566.00
             169.00,566.00 169.00,369.00 169.00,369.00
             169.00,366.60 169.21,363.31 167.98,361.21
             166.46,358.61 163.31,357.58 161.60,355.47
             159.66,353.09 160.01,349.88 160.00,347.00
             159.98,338.63 160.48,330.26 159.00,322.00
             159.00,322.00 195.00,301.69 195.00,301.69
             195.00,301.69 233.00,280.69 233.00,280.69
             233.00,280.69 293.00,247.31 293.00,247.31
             293.00,247.31 386.00,196.00 386.00,196.00
             386.00,196.00 438.00,167.23 438.00,167.23
             452.87,159.15 455.98,160.14 456.00,149.00
             456.00,149.00 456.00,84.00 456.00,84.00
             450.95,89.97 443.43,104.87 438.00,108.00
             441.16,102.36 452.81,83.66 457.00,80.00
             457.00,80.00 469.86,99.00 469.86,99.00
             469.86,99.00 474.00,108.00 474.00,108.00
             474.00,108.00 457.00,83.00 457.00,83.00
             457.00,83.00 457.00,149.00 457.00,149.00
             457.00,151.43 456.80,154.67 458.02,156.82
             460.18,160.60 474.51,167.37 479.00,169.86
             479.00,169.86 548.00,208.25 548.00,208.25
             548.00,208.25 581.00,226.69 581.00,226.69
             581.00,226.69 702.00,293.77 702.00,293.77
             702.00,293.77 740.00,315.00 740.00,315.00
             748.39,319.80 751.84,319.42 752.00,328.00
             752.00,328.00 752.00,342.00 752.00,342.00
             751.97,344.15 751.47,352.17 750.71,353.82
             749.25,356.97 745.67,357.72 744.02,360.38
             742.78,362.38 743.00,365.69 743.00,368.00
             743.00,368.00 743.00,567.00 743.00,567.00
             743.01,569.88 742.68,573.24 744.60,575.61
             747.03,578.63 753.15,579.97 755.01,582.63
             756.51,584.79 755.98,592.15 756.00,595.00
             756.02,597.17 755.89,599.86 757.02,601.79
             759.43,605.87 776.16,612.34 779.40,616.39
             781.60,619.12 780.89,623.65 781.02,627.00
             781.42,635.69 783.19,641.99 781.02,651.00
             781.02,651.00 886.00,651.00 886.00,651.00
             886.00,651.00 864.00,634.00 864.00,634.00
             864.00,634.00 890.00,651.00 890.00,651.00
             885.51,656.38 870.51,667.24 864.00,670.00
             864.00,670.00 886.00,653.00 886.00,653.00 Z
           M 84.00,78.00
           C 71.13,76.96 62.58,75.52 50.00,80.76
             32.80,87.93 24.21,108.36 24.00,126.00
             24.00,126.00 24.00,238.00 24.00,238.00
             24.00,238.00 24.00,461.00 24.00,461.00
             24.00,461.00 24.00,559.00 24.00,559.00
             24.00,559.00 24.00,587.00 24.00,587.00
             24.00,591.54 23.36,597.87 25.00,602.00
             32.21,581.34 46.98,569.90 69.00,570.00
             76.23,570.03 77.29,570.76 84.00,573.00
             84.00,573.00 84.00,78.00 84.00,78.00 Z
           M 585.58,78.02
           C 588.72,76.70 599.61,75.87 602.07,78.60
             603.80,80.52 603.69,84.57 604.72,86.96
             606.13,90.22 609.55,92.16 612.83,93.18
             618.58,94.96 620.84,87.67 625.91,88.15
             627.81,88.33 629.80,90.24 631.16,91.47
             633.42,93.50 637.11,96.71 637.06,100.00
             636.98,105.32 628.46,108.59 634.41,117.86
             637.90,123.29 644.28,120.24 646.98,124.31
             648.01,125.87 647.96,128.21 648.00,130.00
             648.04,132.21 648.34,137.58 647.01,139.27
             645.17,141.58 639.68,141.34 637.22,142.56
             634.75,143.78 633.12,147.46 632.38,150.00
             630.51,156.40 636.56,158.11 636.99,163.00
             637.27,166.26 633.23,169.92 631.00,171.94
             621.50,180.52 621.02,166.95 611.00,170.65
             607.65,171.89 605.34,173.49 604.28,177.02
             603.49,179.59 603.72,184.22 601.42,185.98
             599.59,187.37 593.41,187.04 591.00,187.00
             580.42,186.80 585.36,180.81 581.98,175.21
             580.75,173.16 578.17,171.80 576.09,170.75
             567.82,166.57 566.84,177.44 560.00,174.19
             556.94,172.74 549.65,165.69 550.47,162.00
             551.74,156.36 559.17,156.12 553.30,146.13
             548.63,138.20 539.24,146.31 539.00,133.00
             538.96,130.27 538.56,124.87 540.74,122.95
             543.85,120.22 549.76,122.71 552.59,117.85
             553.96,115.48 555.37,110.67 554.52,108.00
             553.18,103.82 548.59,101.07 551.62,96.00
             553.49,92.85 558.99,87.47 563.00,88.36
             567.59,89.39 569.07,94.42 575.00,92.62
             585.66,89.38 580.94,83.97 585.58,78.02 Z
           M 602.00,78.00
           C 602.00,78.00 585.00,78.00 585.00,78.00
             584.64,85.81 584.64,89.78 577.01,93.26
             575.76,93.84 573.81,94.77 572.42,94.71
             567.51,94.50 564.66,86.50 558.00,91.33
             558.00,91.33 555.06,94.02 555.06,94.02
             547.60,101.94 556.11,103.97 556.72,109.42
             556.88,110.88 555.84,113.58 555.34,115.00
             552.57,122.70 548.57,122.83 541.00,123.00
             540.47,127.03 539.31,134.97 542.01,138.44
             544.01,141.01 548.53,140.53 550.79,141.58
             553.56,142.87 555.89,148.14 556.45,151.00
             557.76,157.68 549.21,159.86 552.65,166.00
             553.33,167.21 554.99,168.94 556.02,169.89
             565.55,178.71 566.69,166.43 575.00,168.94
             578.56,170.01 582.54,172.39 583.77,176.04
             584.61,178.50 584.51,183.36 586.59,184.98
             588.64,186.57 598.97,186.00 602.00,186.00
             602.07,178.03 601.94,173.30 609.99,169.81
             611.50,169.16 613.76,168.10 615.42,168.38
             615.42,168.38 627.00,175.00 627.00,175.00
             629.06,172.12 635.67,165.88 635.67,163.00
             635.66,160.05 631.68,156.82 630.79,154.42
             629.94,152.12 632.04,147.23 633.10,145.06
             636.48,138.15 643.23,141.90 645.98,138.40
             647.12,136.95 647.02,133.79 646.98,132.00
             646.96,130.53 646.88,128.50 646.44,127.11
             644.78,121.83 640.03,123.70 636.22,121.57
             633.67,120.15 632.27,116.69 631.48,114.00
             628.79,104.79 639.92,103.73 633.81,96.00
             631.73,93.37 627.69,89.10 624.00,90.00
             620.03,90.97 618.21,95.48 613.00,94.45
             603.32,92.55 602.67,86.32 602.00,78.00 Z
           M 754.00,291.00
           C 754.00,291.00 751.13,274.00 751.13,274.00
             750.72,271.21 750.57,267.80 748.44,265.70
             746.97,264.25 739.41,261.45 737.00,260.42
             734.66,259.42 730.45,257.20 728.00,257.62
             720.96,258.83 713.48,272.82 706.00,268.38
             703.69,267.01 692.43,255.56 690.17,253.00
             688.57,251.18 686.24,248.55 686.21,246.00
             686.15,241.43 695.86,232.83 697.49,228.00
             698.64,224.60 693.14,212.52 691.29,209.02
             686.46,199.86 673.30,206.07 667.60,200.28
             665.72,198.37 665.70,190.91 665.51,188.00
             665.51,188.00 666.31,170.06 666.31,170.06
             666.69,168.67 667.12,167.85 668.31,166.98
             675.61,161.70 687.38,169.08 692.57,156.00
             693.75,153.03 698.27,142.48 697.88,140.00
             697.19,135.62 686.83,125.99 686.83,121.09
             686.83,116.95 694.44,111.08 697.26,108.26
             700.34,105.17 706.14,96.59 711.00,98.15
             715.42,99.57 724.95,110.81 729.28,110.55
             730.78,110.46 733.56,108.96 735.00,108.31
             739.06,106.47 748.57,103.77 750.42,99.79
             752.35,95.61 751.54,81.56 754.74,78.99
             756.29,77.74 760.05,78.00 762.00,78.00
             762.00,78.00 782.00,78.00 782.00,78.00
             783.98,78.04 786.60,77.89 787.98,79.60
             791.90,84.43 787.76,99.50 795.06,103.20
             798.15,104.77 812.37,110.63 815.00,109.78
             819.38,108.37 828.25,97.79 833.00,97.94
             835.88,98.03 838.48,100.90 840.42,102.75
             840.42,102.75 852.89,115.00 852.89,115.00
             854.66,117.00 856.56,119.12 856.05,122.00
             855.22,126.73 844.80,136.11 844.70,141.00
             844.65,143.28 846.72,146.87 847.69,149.00
             850.00,154.07 851.22,157.46 852.00,163.00
             852.00,163.00 876.00,166.00 876.00,166.00
             876.00,166.00 877.00,187.00 877.00,187.00
             877.00,190.04 876.91,197.97 875.02,200.28
             871.85,204.17 859.75,202.66 855.11,204.60
             853.67,205.20 852.96,205.87 852.08,207.15
             852.08,207.15 844.86,223.83 844.86,223.83
             842.44,230.21 853.37,238.02 855.67,244.00
             857.05,247.60 855.28,249.42 852.94,252.00
             850.30,254.91 837.73,267.78 835.00,268.92
             828.87,271.49 820.93,259.65 815.00,257.81
             811.92,256.86 799.46,262.45 796.06,264.10
             787.75,268.15 792.49,282.52 788.02,288.69
             786.01,291.46 782.04,290.99 779.00,291.00
             779.00,291.00 754.00,291.00 754.00,291.00 Z
           M 755.00,289.00
           C 755.00,289.00 780.00,289.00 780.00,289.00
             781.79,288.99 784.81,289.17 786.26,288.01
             789.38,285.51 789.06,269.66 791.17,266.27
             792.79,263.68 806.46,258.22 810.00,256.81
             818.72,253.35 823.76,265.27 831.00,267.68
             834.01,268.69 835.91,266.82 838.00,264.94
             840.55,262.64 853.16,250.24 854.18,248.00
             856.58,242.72 845.22,233.49 843.49,228.00
             842.41,224.61 848.35,211.78 850.10,208.02
             854.27,199.09 868.45,203.78 873.43,199.83
             875.14,198.47 875.64,189.51 875.82,187.00
             875.98,184.78 874.93,169.82 873.98,168.59
             871.68,165.63 859.11,165.99 855.05,164.27
             850.60,162.37 848.92,155.30 847.20,151.00
             845.95,147.89 842.80,142.14 843.70,139.00
             844.87,134.91 855.02,124.93 854.84,121.00
             854.74,118.69 852.48,116.57 850.98,115.00
             850.98,115.00 837.00,101.32 837.00,101.32
             828.69,95.22 822.24,109.18 815.00,111.30
             811.99,112.18 798.62,106.16 795.02,104.61
             788.06,101.63 789.37,93.50 788.42,87.00
             788.12,84.95 787.95,81.36 786.26,79.99
             784.71,78.74 780.95,79.00 779.00,79.00
             779.00,79.00 755.00,79.00 755.00,79.00
             754.12,83.90 753.11,99.52 750.42,102.50
             748.44,104.69 741.04,107.13 738.00,108.43
             735.25,109.61 730.92,112.33 728.00,111.63
             725.02,110.92 713.15,100.63 709.00,98.00
             709.00,98.00 694.00,113.00 694.00,113.00
             692.11,114.90 688.31,118.23 688.11,121.00
             687.78,125.42 697.57,134.19 699.04,139.00
             700.09,142.42 694.49,155.28 692.75,158.98
             688.07,169.01 674.43,164.38 669.56,168.02
             665.99,170.69 666.99,184.51 667.17,189.00
             667.00,190.92 666.95,194.16 667.17,195.96
             669.19,204.68 682.46,199.84 688.89,203.93
             692.37,206.14 697.11,218.69 698.63,223.00
             702.58,234.19 681.27,240.41 690.15,251.00
             690.15,251.00 703.00,263.98 703.00,263.98
             704.56,265.47 706.74,267.75 709.00,267.97
             713.67,268.44 724.10,256.41 727.42,255.62
             729.65,255.10 734.78,258.16 737.00,259.14
             739.73,260.34 747.95,263.05 749.57,264.56
             751.91,266.75 751.96,270.05 752.42,273.00
             752.42,273.00 755.00,289.00 755.00,289.00 Z
           M 589.00,109.31
           C 591.28,109.16 592.65,108.95 595.00,109.31
             624.04,110.88 621.76,155.98 592.00,153.90
             579.46,153.03 568.70,139.58 571.53,127.00
             573.62,117.68 580.14,112.17 589.00,109.31 Z
           M 592.00,110.31
           C 584.63,111.66 577.98,114.86 574.57,122.00
             573.18,124.91 573.01,127.84 573.01,131.00
             573.01,143.66 582.73,154.50 596.00,152.70
             622.51,149.10 619.39,108.76 592.00,110.31 Z
           M 765.00,136.44
           C 808.10,130.92 834.33,179.88 809.08,214.00
             805.11,219.35 799.82,223.50 794.00,226.69
             784.84,231.71 778.11,232.11 768.00,232.00
             735.05,231.61 714.87,195.39 726.46,166.00
             733.11,149.15 747.81,139.65 765.00,136.44 Z
           M 763.00,138.30
           C 754.92,139.83 747.34,142.99 741.00,148.32
             709.19,175.14 726.51,230.02 769.00,230.99
             781.87,231.28 794.58,227.01 803.83,217.83
             821.36,200.43 822.15,169.86 804.96,152.00
             800.11,146.96 796.37,144.18 790.00,141.31
             781.58,137.51 772.07,137.40 763.00,138.30 Z
           M 750.00,322.00
           C 750.00,322.00 720.00,305.42 720.00,305.42
             720.00,305.42 683.00,284.86 683.00,284.86
             683.00,284.86 535.00,202.69 535.00,202.69
             535.00,202.69 479.00,171.69 479.00,171.69
             474.60,169.31 460.09,159.88 456.00,160.05
             452.44,160.19 436.25,169.92 432.00,172.23
             432.00,172.23 371.00,206.14 371.00,206.14
             371.00,206.14 225.00,287.14 225.00,287.14
             225.00,287.14 162.00,322.00 162.00,322.00
             162.00,322.00 183.00,334.42 183.00,334.42
             183.00,334.42 229.00,360.28 229.00,360.28
             229.00,360.28 375.00,441.30 375.00,441.30
             375.00,441.30 433.00,473.25 433.00,473.25
             437.08,475.39 452.82,484.95 456.00,485.12
             459.50,485.30 474.12,476.49 478.00,474.28
             478.00,474.28 530.00,445.25 530.00,445.25
             530.00,445.25 579.00,417.86 579.00,417.86
             579.00,417.86 674.00,364.86 674.00,364.86
             674.00,364.86 726.00,335.85 726.00,335.85
             726.00,335.85 750.00,322.00 750.00,322.00 Z
           M 296.00,170.00
           C 296.00,170.00 324.00,188.00 324.00,188.00
             320.41,192.12 302.12,204.83 297.00,207.00
             297.00,207.00 319.00,190.00 319.00,190.00
             319.00,190.00 120.00,190.00 120.00,190.00
             120.00,190.00 120.00,392.00 120.00,392.00
             120.00,392.00 120.00,451.00 120.00,451.00
             120.00,451.00 119.00,478.00 119.00,478.00
             119.00,478.00 118.00,452.00 118.00,452.00
             118.00,452.00 118.00,256.00 118.00,256.00
             118.00,256.00 118.00,203.00 118.00,203.00
             118.00,203.00 119.78,188.99 119.78,188.99
             119.78,188.99 127.00,188.00 127.00,188.00
             127.00,188.00 320.00,188.00 320.00,188.00
             320.00,188.00 296.00,170.00 296.00,170.00 Z
           M 210.00,321.00
           C 210.00,321.00 381.00,226.14 381.00,226.14
             381.00,226.14 434.00,196.75 434.00,196.75
             437.90,194.70 451.92,186.26 455.00,185.85
             458.52,185.37 462.07,187.92 465.00,189.58
             465.00,189.58 484.00,200.15 484.00,200.15
             484.00,200.15 540.00,231.58 540.00,231.58
             547.30,235.70 560.89,241.98 566.00,248.00
             566.00,248.00 507.00,281.14 507.00,281.14
             507.00,281.14 388.00,347.42 388.00,347.42
             388.00,347.42 340.00,374.28 340.00,374.28
             335.84,376.64 324.33,383.82 320.00,383.42
             317.09,383.16 312.72,380.21 310.00,378.78
             310.00,378.78 289.00,367.22 289.00,367.22
             289.00,367.22 260.00,350.86 260.00,350.86
             260.00,350.86 210.00,323.00 210.00,323.00
             210.00,323.00 210.00,321.00 210.00,321.00 Z
           M 456.00,187.00
           C 456.00,187.00 377.00,230.14 377.00,230.14
             377.00,230.14 261.00,294.31 261.00,294.31
             261.00,294.31 213.00,321.00 213.00,321.00
             213.00,321.00 213.00,323.00 213.00,323.00
             213.00,323.00 229.00,331.86 229.00,331.86
             229.00,331.86 238.00,335.87 238.00,335.87
             238.00,335.87 256.00,327.00 256.00,327.00
             256.00,327.00 295.00,305.28 295.00,305.28
             295.00,305.28 456.00,216.00 456.00,216.00
             456.00,216.00 456.00,187.00 456.00,187.00 Z
           M 458.00,187.00
           C 456.25,191.42 456.99,202.74 457.00,208.00
             457.02,218.12 458.04,216.01 471.00,223.43
             471.00,223.43 511.00,245.78 511.00,245.78
             511.00,245.78 529.00,256.00 529.00,256.00
             531.54,257.45 536.10,260.28 539.00,260.20
             541.48,260.13 544.79,257.97 547.00,256.77
             547.00,256.77 563.00,248.00 563.00,248.00
             563.00,248.00 563.00,246.00 563.00,246.00
             563.00,246.00 497.00,208.86 497.00,208.86
             497.00,208.86 458.00,187.00 458.00,187.00 Z
           M 456.00,218.00
           C 452.14,219.13 437.07,226.63 434.99,229.63
             433.74,231.44 434.00,234.85 434.00,237.00
             434.00,237.00 434.00,319.00 434.00,319.00
             438.18,317.68 452.93,310.26 454.98,306.79
             456.17,304.76 456.04,301.32 455.99,299.00
             455.99,299.00 455.15,288.00 455.15,288.00
             455.15,288.00 455.15,279.00 455.15,279.00
             455.15,279.00 455.15,259.00 455.15,259.00
             455.15,259.00 456.00,242.00 456.00,242.00
             456.00,242.00 456.00,218.00 456.00,218.00 Z
           M 457.00,306.00
           C 460.65,304.85 476.14,297.17 478.01,294.39
             479.25,292.54 479.00,289.19 479.00,287.00
             479.00,287.00 479.00,237.00 479.00,237.00
             479.00,234.81 479.25,231.46 478.01,229.61
             475.94,226.53 460.95,219.13 457.00,218.00
             457.00,218.00 457.00,306.00 457.00,306.00 Z
           M 432.00,231.00
           C 432.00,231.00 371.00,264.42 371.00,264.42
             371.00,264.42 353.99,274.63 353.99,274.63
             353.99,274.63 353.00,282.00 353.00,282.00
             353.00,282.00 353.00,365.00 353.00,365.00
             353.00,365.00 413.00,331.42 413.00,331.42
             416.80,329.28 429.94,323.04 431.43,319.67
             432.14,318.07 432.00,314.80 432.00,313.00
             432.00,313.00 432.00,231.00 432.00,231.00 Z
           M 482.00,231.00
           C 482.00,231.00 481.00,251.00 481.00,251.00
             481.00,251.00 481.00,293.00 481.00,293.00
             481.00,293.00 505.00,280.28 505.00,280.28
             505.00,280.28 537.00,262.00 537.00,262.00
             537.00,262.00 516.00,249.70 516.00,249.70
             516.00,249.70 482.00,231.00 482.00,231.00 Z
           M 346.00,396.00
           C 346.00,396.00 396.00,368.31 396.00,368.31
             396.00,368.31 522.00,298.14 522.00,298.14
             522.00,298.14 571.00,270.77 571.00,270.77
             571.00,270.77 591.00,260.81 591.00,260.81
             591.00,260.81 601.00,265.22 601.00,265.22
             601.00,265.22 623.00,277.42 623.00,277.42
             623.00,277.42 701.00,321.00 701.00,321.00
             698.08,326.52 689.43,329.73 684.00,332.85
             684.00,332.85 644.00,355.30 644.00,355.30
             644.00,355.30 508.00,431.30 508.00,431.30
             508.00,431.30 472.00,451.30 472.00,451.30
             468.63,453.15 459.42,458.93 456.00,458.87
             453.20,458.82 448.52,455.71 446.00,454.28
             446.00,454.28 427.00,443.75 427.00,443.75
             427.00,443.75 346.00,399.00 346.00,399.00
             346.00,399.00 346.00,396.00 346.00,396.00 Z
           M 590.00,262.00
           C 590.00,262.00 518.00,302.14 518.00,302.14
             518.00,302.14 426.00,353.58 426.00,353.58
             426.00,353.58 372.00,383.58 372.00,383.58
             372.00,383.58 348.00,398.00 348.00,398.00
             348.00,398.00 367.00,408.23 367.00,408.23
             369.83,409.75 372.67,411.71 376.00,410.88
             376.00,410.88 394.00,401.00 394.00,401.00
             394.00,401.00 429.00,381.42 429.00,381.42
             429.00,381.42 542.00,318.42 542.00,318.42
             542.00,318.42 576.00,299.58 576.00,299.58
             589.32,291.96 589.98,294.29 590.00,284.00
             590.00,284.00 590.00,262.00 590.00,262.00 Z
           M 593.00,262.00
           C 591.23,266.47 591.99,278.62 592.00,284.00
             592.02,293.52 592.23,292.17 606.00,299.86
             606.00,299.86 643.00,320.72 643.00,320.72
             643.00,320.72 663.00,331.86 663.00,331.86
             665.69,333.36 669.93,336.24 673.00,336.22
             675.84,336.20 679.53,333.69 682.00,332.28
             682.00,332.28 699.00,323.00 699.00,323.00
             694.22,317.57 674.41,307.77 667.00,303.70
             667.00,303.70 621.00,277.86 621.00,277.86
             621.00,277.86 593.00,262.00 593.00,262.00 Z
           M 351.00,276.00
           C 346.93,277.75 332.02,285.17 330.02,288.38
             328.78,290.37 329.00,293.69 329.00,296.00
             329.00,296.00 329.00,378.00 329.00,378.00
             332.90,376.31 348.09,368.64 349.98,365.62
             351.22,363.63 351.00,360.31 351.00,358.00
             351.00,358.00 351.00,276.00 351.00,276.00 Z
           M 328.00,289.00
           C 323.82,290.32 309.07,297.74 307.02,301.21
             305.89,303.14 306.02,305.83 306.00,308.00
             306.00,308.00 306.00,367.00 306.00,367.00
             306.00,369.23 305.76,372.57 306.99,374.47
             308.30,376.49 321.66,387.05 326.98,378.62
             328.13,376.79 327.99,374.10 328.00,372.00
             328.00,372.00 328.00,351.00 328.00,351.00
             328.00,351.00 328.00,327.00 328.00,327.00
             328.00,327.00 328.00,289.00 328.00,289.00 Z
           M 591.00,293.00
           C 591.00,293.00 590.00,321.00 590.00,321.00
             590.00,321.00 590.00,383.00 590.00,383.00
             590.00,383.00 606.00,374.86 606.00,374.86
             606.00,374.86 611.98,370.61 611.98,370.61
             611.98,370.61 613.00,363.00 613.00,363.00
             613.00,363.00 613.00,321.00 613.00,321.00
             613.00,321.00 611.98,305.39 611.98,305.39
             611.98,305.39 591.00,293.00 591.00,293.00 Z
           M 589.00,294.00
           C 584.93,295.75 570.02,303.17 568.02,306.38
             566.78,308.37 567.00,311.69 567.00,314.00
             567.00,314.00 567.00,396.00 567.00,396.00
             571.01,394.27 586.11,386.95 587.98,383.79
             589.20,381.71 589.00,378.38 589.00,376.00
             589.00,376.00 589.00,294.00 589.00,294.00 Z
           M 305.00,302.00
           C 297.80,304.05 270.12,320.25 262.00,324.99
             255.73,328.65 244.99,333.47 240.00,338.00
             240.00,338.00 305.00,374.00 305.00,374.00
             305.00,374.00 305.00,302.00 305.00,302.00 Z
           M 615.00,306.00
           C 615.00,306.00 614.00,327.00 614.00,327.00
             614.00,327.00 614.00,370.00 614.00,370.00
             614.00,370.00 652.00,349.14 652.00,349.14
             652.00,349.14 671.00,339.00 671.00,339.00
             666.27,333.59 659.14,330.94 653.00,327.42
             653.00,327.42 615.00,306.00 615.00,306.00 Z
           M 566.00,307.00
           C 566.00,307.00 545.00,318.14 545.00,318.14
             545.00,318.14 504.00,341.14 504.00,341.14
             504.00,341.14 488.00,350.14 488.00,350.14
             488.00,350.14 481.01,355.21 481.01,355.21
             481.01,355.21 481.01,370.00 481.01,370.00
             481.01,370.00 481.01,413.00 481.01,413.00
             481.01,413.00 480.00,444.00 480.00,444.00
             480.00,444.00 506.00,430.42 506.00,430.42
             506.00,430.42 546.00,408.30 546.00,408.30
             546.00,408.30 564.01,397.37 564.01,397.37
             564.01,397.37 565.00,390.00 565.00,390.00
             565.00,390.00 565.00,336.00 565.00,336.00
             565.00,336.00 566.00,307.00 566.00,307.00 Z
           M 456.00,517.00
           C 456.00,517.00 456.00,495.00 456.00,495.00
             456.00,493.23 456.14,489.94 455.43,488.38
             453.99,485.24 442.47,479.56 439.00,477.75
             439.00,477.75 390.00,450.77 390.00,450.77
             390.00,450.77 233.00,363.70 233.00,363.70
             233.00,363.70 185.00,336.70 185.00,336.70
             178.46,333.10 167.59,326.08 161.00,324.00
             161.00,324.00 161.00,346.00 161.00,346.00
             161.00,347.82 160.86,351.06 161.57,352.68
             163.20,356.38 174.11,361.38 178.00,363.58
             178.00,363.58 230.00,392.58 230.00,392.58
             230.00,392.58 368.00,468.86 368.00,468.86
             368.00,468.86 425.00,500.31 425.00,500.31
             425.00,500.31 456.00,517.00 456.00,517.00 Z
           M 750.00,324.00
           C 750.00,324.00 723.00,338.70 723.00,338.70
             723.00,338.70 668.00,369.58 668.00,369.58
             668.00,369.58 592.00,411.86 592.00,411.86
             592.00,411.86 527.00,448.23 527.00,448.23
             527.00,448.23 474.00,477.72 474.00,477.72
             457.93,486.85 457.02,484.77 457.00,495.00
             457.00,495.00 457.00,517.00 457.00,517.00
             457.00,517.00 524.00,480.31 524.00,480.31
             524.00,480.31 681.00,392.86 681.00,392.86
             681.00,392.86 733.00,363.86 733.00,363.86
             736.78,361.75 747.83,356.45 749.40,352.79
             750.12,351.11 750.00,347.88 750.00,346.00
             750.00,346.00 750.00,324.00 750.00,324.00 Z
           M 777.00,344.00
           C 777.00,344.00 826.00,344.00 826.00,344.00
             833.49,344.14 832.99,346.26 833.00,353.00
             833.00,353.00 833.00,469.00 833.00,469.00
             833.00,469.00 833.00,509.00 833.00,509.00
             832.91,516.66 831.55,515.75 833.00,524.00
             837.73,516.90 844.56,505.07 851.00,500.00
             851.00,500.00 833.00,528.00 833.00,528.00
             827.63,523.78 816.17,506.50 813.00,500.00
             813.00,500.00 831.00,524.00 831.00,524.00
             831.00,524.00 831.00,345.00 831.00,345.00
             831.00,345.00 795.00,345.00 795.00,345.00
             795.00,345.00 777.00,344.00 777.00,344.00 Z
           M 479.00,356.00
           C 474.82,357.19 460.21,364.31 457.99,367.61
             456.75,369.46 457.00,372.81 457.00,375.00
             457.00,375.00 457.00,458.00 457.00,458.00
             457.00,458.00 471.00,449.86 471.00,449.86
             471.00,449.86 477.98,444.79 477.98,444.79
             477.98,444.79 479.00,437.00 479.00,437.00
             479.00,437.00 479.00,356.00 479.00,356.00 Z
           M 171.00,361.00
           C 171.00,361.00 170.00,383.00 170.00,383.00
             170.00,383.00 170.00,430.00 170.00,430.00
             170.00,430.00 170.00,590.00 170.00,590.00
             170.00,590.00 192.00,600.00 192.00,600.00
             192.00,600.00 192.00,429.00 192.00,429.00
             192.00,429.00 192.00,380.00 192.00,380.00
             191.98,377.85 192.13,375.23 190.98,373.33
             188.91,369.91 175.18,363.21 171.00,361.00 Z
           M 741.00,361.00
           C 737.47,362.53 722.77,370.06 720.99,372.63
             719.94,374.16 720.03,376.23 720.00,378.00
             720.00,378.00 720.00,428.00 720.00,428.00
             720.00,428.00 720.00,538.00 720.00,538.00
             720.00,554.69 721.00,584.84 719.00,600.00
             726.00,598.69 735.59,592.65 742.00,589.00
             742.00,589.00 741.00,562.00 741.00,562.00
             741.00,562.00 741.00,515.00 741.00,515.00
             741.00,515.00 741.00,361.00 741.00,361.00 Z
           M 456.00,368.00
           C 452.32,369.64 436.76,377.65 435.02,380.39
             433.78,382.35 434.00,385.72 434.00,388.00
             434.00,388.00 434.00,438.00 434.00,438.00
             434.00,440.19 433.75,443.54 434.99,445.39
             437.21,448.69 451.87,456.02 456.00,457.00
             456.00,457.00 455.31,445.00 455.31,445.00
             455.31,445.00 455.31,437.00 455.31,437.00
             455.31,437.00 455.31,430.00 455.31,430.00
             455.31,430.00 455.31,409.00 455.31,409.00
             455.31,409.00 456.00,368.00 456.00,368.00 Z
           M 195.00,374.00
           C 192.22,380.51 193.92,384.43 194.00,391.00
             194.00,391.00 194.00,441.00 194.00,441.00
             194.00,441.00 194.00,600.00 194.00,600.00
             197.85,598.90 212.04,592.65 213.98,589.61
             215.50,587.22 215.00,579.12 215.00,576.00
             215.00,576.00 215.00,543.00 215.00,543.00
             215.00,543.00 215.00,393.00 215.00,393.00
             215.00,390.86 215.25,387.42 214.01,385.63
             214.01,385.63 195.00,374.00 195.00,374.00 Z
           M 718.00,374.00
           C 713.87,375.78 699.02,383.03 697.02,386.33
             695.99,388.03 696.04,390.08 696.00,392.00
             696.00,392.00 696.00,435.00 696.00,435.00
             696.00,435.00 696.00,582.00 696.00,582.00
             696.00,584.15 695.74,587.56 696.99,589.37
             699.02,592.31 714.04,599.29 718.00,601.00
             718.00,601.00 718.00,374.00 718.00,374.00 Z
           M 432.00,382.00
           C 432.00,382.00 414.00,391.14 414.00,391.14
             414.00,391.14 376.00,412.00 376.00,412.00
             376.00,412.00 376.00,414.00 376.00,414.00
             376.00,414.00 417.00,436.30 417.00,436.30
             417.00,436.30 432.00,444.00 432.00,444.00
             432.00,444.00 432.00,382.00 432.00,382.00 Z
           M 216.00,566.00
           C 216.00,566.00 240.00,553.31 240.00,553.31
             240.00,553.31 282.00,530.15 282.00,530.15
             282.00,530.15 300.01,519.47 300.01,519.47
             300.01,519.47 301.00,512.00 301.00,512.00
             301.00,512.00 301.00,441.00 301.00,441.00
             301.00,441.00 300.01,433.53 300.01,433.53
             300.01,433.53 282.00,422.70 282.00,422.70
             282.00,422.70 236.00,397.22 236.00,397.22
             236.00,397.22 216.00,387.00 216.00,387.00
             216.00,387.00 216.00,566.00 216.00,566.00 Z
           M 695.00,387.00
           C 695.00,387.00 665.00,403.14 665.00,403.14
             665.00,403.14 613.00,432.00 613.00,432.00
             614.95,440.03 613.91,455.35 613.86,464.00
             613.86,464.00 613.86,474.00 613.86,474.00
             613.86,474.00 613.86,495.00 613.86,495.00
             613.86,495.00 613.86,519.82 613.86,519.82
             615.72,524.19 629.50,530.35 634.00,532.86
             634.00,532.86 676.00,556.31 676.00,556.31
             681.68,559.39 689.03,564.26 695.00,566.00
             695.00,566.00 695.00,387.00 695.00,387.00 Z
           M 612.00,433.00
           C 607.93,434.75 593.02,442.17 591.02,445.38
             589.98,447.04 590.04,449.11 590.00,451.00
             590.00,451.00 590.00,499.00 590.00,499.00
             590.00,499.00 590.00,671.00 590.00,671.00
             593.94,669.30 609.08,662.58 610.98,659.61
             612.02,657.98 611.96,655.86 612.00,654.00
             612.00,654.00 612.00,605.00 612.00,605.00
             612.00,605.00 612.00,433.00 612.00,433.00 Z
           M 303.00,434.00
           C 301.27,438.35 302.00,447.05 302.00,452.00
             302.00,452.00 302.00,488.00 302.00,488.00
             302.00,488.00 302.00,652.00 302.00,652.00
             302.00,654.27 301.78,657.66 303.02,659.61
             304.75,662.32 320.36,669.67 324.00,671.00
             324.00,671.00 324.00,510.00 324.00,510.00
             324.00,510.00 324.00,454.00 324.00,454.00
             324.00,454.00 322.98,446.38 322.98,446.38
             322.98,446.38 303.00,434.00 303.00,434.00 Z
           M 433.00,444.00
           C 433.00,444.00 432.00,444.00 432.00,444.00
             432.00,444.00 433.00,445.00 433.00,445.00
             433.00,445.00 433.00,444.00 433.00,444.00 Z
           M 589.00,446.00
           C 584.68,447.86 570.16,454.80 568.02,458.33
             566.99,460.03 567.04,462.08 567.00,464.00
             567.00,464.00 567.00,506.00 567.00,506.00
             567.00,506.00 567.00,652.00 567.00,652.00
             567.00,654.27 566.78,657.66 568.02,659.61
             569.92,662.58 585.06,669.30 589.00,671.00
             589.00,671.00 589.00,446.00 589.00,446.00 Z
           M 347.00,660.00
           C 347.00,660.00 347.00,609.00 347.00,609.00
             347.00,609.00 347.00,505.00 347.00,505.00
             347.00,505.00 347.00,465.00 347.00,465.00
             346.96,463.05 347.00,460.95 345.98,459.21
             344.15,456.11 328.86,448.22 325.00,447.00
             325.00,447.00 325.00,671.00 325.00,671.00
             325.00,671.00 347.00,660.00 347.00,660.00 Z
           M 565.00,459.00
           C 565.00,459.00 532.00,477.00 532.00,477.00
             532.00,477.00 532.00,479.00 532.00,479.00
             532.00,479.00 565.00,497.00 565.00,497.00
             565.00,497.00 565.00,459.00 565.00,459.00 Z
           M 433.00,506.00
           C 433.00,506.00 376.00,474.70 376.00,474.70
             376.00,474.70 348.00,460.00 348.00,460.00
             348.00,460.00 348.00,638.00 348.00,638.00
             348.00,640.23 347.76,643.57 348.99,645.47
             351.10,648.72 358.80,650.89 360.98,654.38
             362.46,656.75 362.01,663.98 362.00,667.00
             362.00,669.41 362.20,672.74 360.98,674.87
             359.26,677.87 345.75,684.36 342.00,686.25
             338.40,688.05 328.16,694.22 325.00,694.22
             321.88,694.22 317.73,691.37 315.00,689.86
             315.00,689.86 296.00,680.00 296.00,680.00
             293.75,678.71 290.35,677.05 289.02,674.79
             287.53,672.25 287.94,663.28 288.00,660.00
             288.22,648.55 296.13,651.78 299.98,645.62
             301.22,643.63 301.00,640.31 301.00,638.00
             301.00,638.00 301.00,521.00 301.00,521.00
             301.00,521.00 235.00,557.00 235.00,557.00
             231.91,558.77 219.14,565.47 217.60,567.39
             216.35,568.94 215.90,571.01 216.33,572.96
             217.42,577.89 223.46,578.76 226.85,581.63
             229.86,584.18 229.93,586.33 230.00,590.00
             230.05,593.20 230.44,601.28 228.98,603.81
             227.47,606.43 223.61,608.22 221.00,609.63
             221.00,609.63 201.00,620.14 201.00,620.14
             197.82,621.89 194.75,623.87 191.00,622.93
             191.00,622.93 166.00,609.77 166.00,609.77
             163.33,608.32 158.96,605.48 156.00,605.43
             151.60,605.36 137.99,613.77 133.00,616.00
             133.00,616.00 133.00,618.00 133.00,618.00
             133.00,618.00 172.00,639.14 172.00,639.14
             172.00,639.14 217.00,663.69 217.00,663.69
             217.00,663.69 325.00,722.69 325.00,722.69
             325.00,722.69 371.00,747.42 371.00,747.42
             371.00,747.42 435.00,782.22 435.00,782.22
             435.00,782.22 450.00,790.31 450.00,790.31
             450.00,790.31 458.00,792.71 458.00,792.71
             458.00,792.71 469.00,787.22 469.00,787.22
             469.00,787.22 494.00,773.42 494.00,773.42
             494.00,773.42 560.00,737.31 560.00,737.31
             560.00,737.31 710.00,655.30 710.00,655.30
             710.00,655.30 752.00,632.31 752.00,632.31
             752.00,632.31 779.00,617.00 779.00,617.00
             779.00,617.00 764.00,608.58 764.00,608.58
             761.46,607.13 758.02,604.76 755.00,605.08
             752.85,605.31 747.16,608.66 745.00,609.86
             745.00,609.86 721.00,622.83 721.00,622.83
             717.30,623.95 714.22,621.85 711.00,620.25
             711.00,620.25 692.00,610.25 692.00,610.25
             688.51,608.50 683.93,606.56 682.02,602.96
             680.61,600.29 680.95,593.22 681.00,590.00
             681.07,586.28 681.11,584.35 684.15,581.79
             688.05,578.48 696.24,576.93 694.67,570.10
             693.63,565.58 679.35,558.98 675.00,556.76
             675.00,556.76 632.00,532.70 632.00,532.70
             626.42,529.63 618.87,524.71 613.05,523.00
             613.05,523.00 613.05,530.00 613.05,530.00
             613.05,530.00 613.98,541.00 613.98,541.00
             613.98,541.00 613.00,561.00 613.00,561.00
             613.00,561.00 613.00,578.00 613.00,578.00
             613.00,578.00 613.00,626.00 613.00,626.00
             613.00,626.00 613.00,646.00 613.00,646.00
             620.12,649.76 626.83,651.09 627.00,660.00
             627.05,663.16 627.50,672.23 625.98,674.61
             624.60,676.77 620.31,678.58 618.00,679.86
             618.00,679.86 599.00,689.78 599.00,689.78
             596.90,690.88 592.57,693.64 590.42,693.84
             588.01,694.08 584.18,691.85 582.00,690.75
             582.00,690.75 565.00,681.86 565.00,681.86
             561.82,680.10 555.64,677.53 553.60,674.79
             551.32,671.74 551.93,663.87 552.00,660.00
             552.21,648.72 560.31,651.66 564.01,646.37
             565.25,644.58 565.00,641.13 565.00,639.00
             565.00,639.00 565.00,506.00 565.00,506.00
             564.98,495.76 564.16,497.71 548.00,488.58
             544.78,486.75 532.87,479.77 530.00,479.61
             526.47,479.41 519.30,484.31 516.00,486.14
             516.00,486.14 491.00,500.00 491.00,500.00
             488.49,501.42 482.41,504.21 481.02,506.39
             479.78,508.34 480.00,511.73 480.00,514.00
             480.00,514.00 480.00,708.00 480.00,708.00
             480.01,710.76 479.65,714.16 481.60,716.37
             486.32,721.73 493.80,719.26 494.00,730.00
             494.06,733.23 494.48,742.20 492.98,744.67
             491.31,747.43 485.90,749.79 483.00,751.25
             483.00,751.25 458.00,763.83 458.00,763.83
             454.27,764.55 451.09,762.16 448.00,760.42
             448.00,760.42 429.00,750.26 429.00,750.26
             425.95,748.68 421.75,747.01 420.02,743.90
             418.56,741.27 418.94,733.27 419.00,730.00
             419.21,718.85 427.35,721.32 430.98,715.61
             432.22,713.65 432.00,710.28 432.10,708.00
             432.10,708.00 432.10,676.00 432.10,676.00
             432.10,676.00 432.10,666.00 432.10,666.00
             432.10,666.00 432.10,657.00 432.10,657.00
             432.10,657.00 432.10,599.00 432.10,599.00
             432.10,599.00 432.92,586.00 432.92,586.00
             432.92,586.00 432.00,573.00 432.00,573.00
             432.00,573.00 432.00,547.00 432.00,547.00
             432.00,547.00 432.66,536.00 432.66,536.00
             432.66,536.00 432.00,527.00 432.00,527.00
             431.91,519.10 431.86,513.89 433.00,506.00 Z
           M 119.00,496.00
           C 120.51,499.80 120.51,507.20 119.00,511.00
             119.00,511.00 119.00,496.00 119.00,496.00 Z
           M 435.00,507.00
           C 433.27,511.35 434.00,520.05 434.00,525.00
             434.00,525.00 434.00,560.00 434.00,560.00
             434.00,560.00 434.00,722.00 434.00,722.00
             434.00,724.23 433.76,727.57 434.99,729.47
             436.83,732.30 452.26,739.63 455.96,741.00
             455.96,741.00 455.96,728.00 455.96,728.00
             455.96,728.00 455.39,716.00 455.39,716.00
             455.39,716.00 455.39,696.00 455.39,696.00
             455.39,696.00 455.39,686.00 455.39,686.00
             455.39,686.00 455.39,679.00 455.39,679.00
             455.39,679.00 455.39,669.00 455.39,669.00
             455.39,669.00 455.39,655.00 455.39,655.00
             455.39,655.00 456.00,645.00 456.00,645.00
             456.00,645.00 455.99,629.00 455.99,629.00
             455.99,629.00 455.99,584.00 455.99,584.00
             455.99,584.00 455.08,573.00 455.08,573.00
             455.08,573.00 455.95,564.01 455.95,564.01
             455.95,564.01 455.07,552.00 455.07,552.00
             455.07,552.00 455.97,541.96 455.97,541.96
             455.97,541.96 455.97,518.00 455.97,518.00
             455.97,518.00 435.00,507.00 435.00,507.00 Z
           M 478.87,507.00
           C 475.06,508.71 459.89,516.25 458.02,519.33
             456.99,521.03 457.04,523.08 457.00,525.00
             457.00,525.00 457.00,572.00 457.00,572.00
             457.00,572.00 457.00,740.00 457.00,740.00
             461.15,739.22 474.76,733.36 477.40,730.37
             478.85,728.72 478.89,727.07 478.87,725.00
             478.87,725.00 478.87,686.00 478.87,686.00
             478.87,686.00 478.87,673.96 478.87,673.96
             478.87,673.96 478.87,660.00 478.87,660.00
             478.87,660.00 478.87,651.00 478.87,651.00
             478.87,651.00 478.87,613.00 478.87,613.00
             478.87,613.00 478.87,507.00 478.87,507.00 Z
           M 833.00,524.00
           C 833.00,524.00 832.00,524.00 832.00,524.00
             832.00,524.00 833.00,525.00 833.00,525.00
             833.00,525.00 833.00,524.00 833.00,524.00 Z
           M 119.00,529.00
           C 120.48,532.72 120.48,538.28 119.00,542.00
             119.00,542.00 119.00,529.00 119.00,529.00 Z
           M 831.00,552.00
           C 833.45,555.80 833.45,558.20 831.00,562.00
             831.00,562.00 831.00,552.00 831.00,552.00 Z
           M 119.00,559.00
           C 120.39,562.50 120.39,566.50 119.00,570.00
             119.00,570.00 119.00,559.00 119.00,559.00 Z
           M 169.00,577.00
           C 169.00,577.00 158.00,583.00 158.00,583.00
             158.00,583.00 169.00,589.00 169.00,589.00
             169.00,589.00 169.00,577.00 169.00,577.00 Z
           M 695.00,577.00
           C 695.00,577.00 684.00,582.00 684.00,582.00
             684.00,582.00 684.00,584.00 684.00,584.00
             684.00,584.00 695.00,589.00 695.00,589.00
             695.00,589.00 695.00,577.00 695.00,577.00 Z
           M 831.00,576.00
           C 831.00,576.00 833.00,576.00 833.00,576.00
             833.00,576.00 831.00,586.00 831.00,586.00
             831.00,586.00 831.00,576.00 831.00,576.00 Z
           M 227.00,582.00
           C 227.00,582.00 216.00,578.00 216.00,578.00
             216.00,578.00 216.00,589.00 216.00,589.00
             216.00,589.00 227.00,584.00 227.00,584.00
             227.00,584.00 227.00,582.00 227.00,582.00 Z
           M 753.00,582.00
           C 753.00,582.00 743.00,578.00 743.00,578.00
             743.00,578.00 743.00,588.00 743.00,588.00
             743.00,588.00 753.00,584.00 753.00,584.00
             753.00,584.00 753.00,582.00 753.00,582.00 Z
           M 158.00,584.00
           C 156.71,587.25 156.14,600.61 158.00,603.47
             159.34,605.55 164.69,608.27 167.00,609.58
             167.00,609.58 193.00,623.00 193.00,623.00
             193.00,623.00 193.00,608.00 193.00,608.00
             192.87,600.71 190.24,600.87 183.00,597.25
             183.00,597.25 158.00,584.00 158.00,584.00 Z
           M 229.00,584.00
           C 229.00,584.00 204.00,596.76 204.00,596.76
             204.00,596.76 194.60,603.26 194.60,603.26
             194.60,603.26 194.00,622.00 194.00,622.00
             194.00,622.00 218.00,610.25 218.00,610.25
             218.00,610.25 227.98,603.79 227.98,603.79
             227.98,603.79 229.00,584.00 229.00,584.00 Z
           M 755.00,584.00
           C 755.00,584.00 730.00,596.74 730.00,596.74
             730.00,596.74 719.57,603.39 719.57,603.39
             719.57,603.39 719.00,623.00 719.00,623.00
             719.00,623.00 744.00,609.58 744.00,609.58
             744.00,609.58 753.98,602.79 753.98,602.79
             753.98,602.79 755.00,584.00 755.00,584.00 Z
           M 718.00,622.00
           C 718.00,622.00 718.00,608.00 718.00,608.00
             717.87,600.51 715.22,600.98 707.00,596.74
             700.12,593.19 690.09,587.02 683.00,585.00
             682.53,589.42 681.77,600.01 684.02,603.79
             685.71,606.63 691.05,608.71 694.00,610.31
             700.72,613.94 710.88,619.97 718.00,622.00 Z
           M 831.00,598.00
           C 833.72,601.69 833.00,604.56 833.00,609.00
             833.00,609.00 831.00,609.00 831.00,609.00
             831.00,609.00 831.00,598.00 831.00,598.00 Z
           M 194.00,600.00
           C 194.00,600.00 193.00,600.00 193.00,600.00
             193.00,600.00 194.00,601.00 194.00,601.00
             194.00,601.00 194.00,600.00 194.00,600.00 Z
           M 133.00,619.00
           C 131.17,623.62 131.99,638.25 132.00,644.00
             132.02,654.26 134.32,653.51 148.00,660.78
             148.00,660.78 196.00,686.78 196.00,686.78
             196.00,686.78 280.00,732.69 280.00,732.69
             280.00,732.69 374.00,783.31 374.00,783.31
             374.00,783.31 431.00,814.26 431.00,814.26
             437.34,817.54 449.96,825.24 456.00,827.00
             455.97,816.56 453.51,805.24 456.00,795.00
             456.00,795.00 415.00,772.53 415.00,772.53
             415.00,772.53 323.00,722.69 323.00,722.69
             323.00,722.69 191.00,650.69 191.00,650.69
             191.00,650.69 133.00,619.00 133.00,619.00 Z
           M 780.00,619.00
           C 773.65,620.85 765.23,626.52 759.00,629.74
             759.00,629.74 701.00,661.69 701.00,661.69
             701.00,661.69 528.00,756.14 528.00,756.14
             528.00,756.14 474.00,785.42 474.00,785.42
             458.17,794.35 457.02,792.21 457.00,803.00
             457.00,803.00 457.00,827.00 457.00,827.00
             465.73,824.51 476.73,817.17 485.00,812.78
             485.00,812.78 543.00,781.31 543.00,781.31
             543.00,781.31 649.00,723.31 649.00,723.31
             649.00,723.31 709.00,690.58 709.00,690.58
             709.00,690.58 762.00,661.74 762.00,661.74
             765.56,659.90 778.04,653.80 779.43,650.67
             780.14,649.07 780.00,645.80 780.00,644.00
             780.00,644.00 780.00,619.00 780.00,619.00 Z
           M 831.00,622.00
           C 831.00,622.00 833.00,622.00 833.00,622.00
             833.00,622.00 833.00,631.00 833.00,631.00
             833.00,631.00 831.00,631.00 831.00,631.00
             831.00,631.00 831.00,622.00 831.00,622.00 Z
           M 349.00,647.00
           C 349.00,647.00 348.00,659.00 348.00,659.00
             348.00,659.00 359.00,653.00 359.00,653.00
             359.00,653.00 349.00,647.00 349.00,647.00 Z
           M 301.00,648.00
           C 301.00,648.00 290.00,654.00 290.00,654.00
             290.00,654.00 301.00,659.00 301.00,659.00
             301.00,659.00 301.00,648.00 301.00,648.00 Z
           M 565.00,648.00
           C 565.00,648.00 554.00,654.00 554.00,654.00
             554.00,654.00 565.00,659.00 565.00,659.00
             565.00,659.00 565.00,648.00 565.00,648.00 Z
           M 624.00,654.00
           C 624.00,654.00 613.00,648.00 613.00,648.00
             613.00,648.00 613.00,659.00 613.00,659.00
             613.00,659.00 624.00,654.00 624.00,654.00 Z
           M 290.01,655.00
           C 288.67,658.35 288.15,671.63 290.01,674.62
             291.58,677.12 297.30,679.87 300.00,681.24
             300.00,681.24 324.00,693.00 324.00,693.00
             324.00,693.00 324.00,679.00 324.00,679.00
             323.85,671.03 319.60,670.11 313.00,666.76
             313.00,666.76 290.01,655.00 290.01,655.00 Z
           M 360.00,655.00
           C 360.00,655.00 334.00,668.14 334.00,668.14
             334.00,668.14 325.60,674.21 325.60,674.21
             325.60,674.21 325.00,693.00 325.00,693.00
             325.00,693.00 351.00,680.58 351.00,680.58
             351.00,680.58 359.43,674.61 359.43,674.61
             359.43,674.61 360.00,655.00 360.00,655.00 Z
           M 555.01,655.00
           C 553.68,658.32 553.15,671.67 555.01,674.61
             556.32,676.65 561.71,679.29 564.00,680.58
             564.00,680.58 589.00,693.00 589.00,693.00
             589.00,693.00 587.98,673.21 587.98,673.21
             587.98,673.21 578.00,666.75 578.00,666.75
             578.00,666.75 555.01,655.00 555.01,655.00 Z
           M 625.00,655.00
           C 625.00,655.00 600.00,667.25 600.00,667.25
             600.00,667.25 590.57,673.39 590.57,673.39
             590.57,673.39 590.00,693.00 590.00,693.00
             590.00,693.00 625.00,676.00 625.00,676.00
             625.00,676.00 625.00,655.00 625.00,655.00 Z
           M 831.00,684.00
           C 831.00,684.00 833.00,684.00 833.00,684.00
             833.00,684.00 833.00,827.00 833.00,827.00
             833.00,827.00 833.00,858.00 833.00,858.00
             833.00,858.00 831.98,869.40 831.98,869.40
             831.98,869.40 824.00,871.00 824.00,871.00
             824.00,871.00 612.00,871.00 612.00,871.00
             612.00,871.00 633.00,889.00 633.00,889.00
             628.85,886.86 613.05,875.21 610.59,871.83
             609.49,870.30 609.50,869.66 609.00,868.00
             609.00,868.00 633.00,850.00 633.00,850.00
             630.14,855.19 616.34,864.66 611.00,869.00
             611.00,869.00 831.00,869.00 831.00,869.00
             831.00,869.00 831.00,684.00 831.00,684.00 Z
           M 756.00,709.00
           C 756.00,709.00 787.00,712.00 787.00,712.00
             785.35,719.01 781.76,725.38 779.01,732.00
             777.34,736.03 776.78,739.55 773.00,742.00
             773.00,742.00 784.00,716.00 784.00,716.00
             784.00,716.00 723.00,750.14 723.00,750.14
             723.00,750.14 595.00,822.14 595.00,822.14
             595.00,822.14 503.00,873.70 503.00,873.70
             503.00,873.70 470.00,892.15 470.00,892.15
             470.00,892.15 452.00,903.00 452.00,903.00
             458.29,903.00 475.82,904.36 481.00,907.00
             481.00,907.00 449.00,903.00 449.00,903.00
             451.15,896.85 459.10,877.08 463.00,873.00
             463.00,873.00 452.00,900.00 452.00,900.00
             452.00,900.00 499.00,873.86 499.00,873.86
             499.00,873.86 604.00,814.86 604.00,814.86
             604.00,814.86 785.00,713.00 785.00,713.00
             785.00,713.00 756.00,709.00 756.00,709.00 Z
           M 785.00,715.00
           C 785.00,715.00 784.00,715.00 784.00,715.00
             784.00,715.00 785.00,716.00 785.00,716.00
             785.00,716.00 785.00,715.00 785.00,715.00 Z
           M 50.00,755.00
           C 50.00,755.00 64.00,741.00 64.00,741.00
             65.93,739.09 69.31,735.34 72.00,734.82
             77.01,733.86 86.17,744.16 89.58,745.32
             91.83,746.09 103.11,740.86 105.96,739.61
             115.00,735.65 110.57,722.45 114.93,717.60
             116.71,715.62 120.55,716.00 123.00,716.00
             123.00,716.00 138.00,716.00 138.00,716.00
             139.66,716.00 143.15,715.86 144.57,716.57
             148.81,718.70 147.37,732.66 150.02,736.70
             151.05,738.28 164.58,744.12 167.00,744.96
             176.94,748.40 181.61,728.43 192.00,737.15
             192.00,737.15 203.98,749.00 203.98,749.00
             205.48,750.57 207.76,752.77 208.13,755.00
             208.93,759.93 198.59,768.51 197.47,772.58
             196.79,775.02 199.15,778.71 200.13,781.00
             201.44,784.07 203.19,790.34 205.50,792.42
             208.02,794.69 222.65,796.21 227.00,797.00
             227.00,797.00 227.00,821.00 227.00,821.00
             226.99,822.50 227.08,825.25 226.43,826.57
             224.24,830.96 210.58,829.53 206.22,832.17
             203.53,833.81 199.50,844.66 198.39,848.00
             195.75,855.93 206.43,861.40 208.00,868.00
             208.72,871.02 206.82,872.93 204.94,875.00
             202.72,877.45 191.19,889.19 189.00,890.18
             183.39,892.71 175.64,881.07 170.42,879.49
             168.03,878.76 156.84,883.93 154.06,885.22
             145.14,889.34 150.58,904.88 145.28,909.01
             143.91,910.07 141.64,909.97 140.00,910.00
             140.00,910.00 120.00,910.00 120.00,910.00
             118.40,909.97 116.06,910.07 114.74,909.01
             111.65,906.53 112.16,892.06 109.83,888.22
             108.24,885.61 96.47,880.75 93.17,879.67
             85.29,877.09 77.71,894.51 70.00,889.58
             70.00,889.58 55.06,875.00 55.06,875.00
             53.24,873.01 51.21,870.93 51.71,868.00
             52.93,860.73 64.90,855.36 61.68,847.00
             60.18,843.10 56.53,833.53 52.89,831.88
             48.89,830.06 36.30,830.02 34.10,827.52
             31.51,824.20 33.76,809.44 34.10,805.00
             34.07,802.65 33.54,798.78 35.57,797.17
             37.01,796.04 40.18,795.96 42.00,795.72
             42.00,795.72 56.00,794.00 56.00,794.00
             56.00,794.00 59.87,781.00 59.87,781.00
             59.87,781.00 62.59,773.58 62.59,773.58
             62.59,773.58 58.42,767.00 58.42,767.00
             58.42,767.00 50.00,755.00 50.00,755.00 Z
           M 145.00,717.00
           C 145.00,717.00 115.00,717.00 115.00,717.00
             114.90,721.54 113.40,735.37 110.44,738.49
             108.55,740.49 102.83,742.03 100.00,743.31
             97.23,744.56 93.02,747.35 90.00,746.63
             85.96,745.66 77.25,736.16 73.00,736.30
             69.39,736.41 60.78,746.17 58.00,749.00
             56.58,750.45 53.85,753.03 53.33,755.00
             52.10,759.70 62.56,767.76 63.68,773.00
             64.28,775.78 61.84,780.38 60.72,783.00
             59.55,785.73 57.40,792.61 55.49,794.26
             52.93,796.48 39.08,797.46 35.00,798.00
             35.00,798.00 35.00,827.00 35.00,827.00
             39.09,827.74 53.06,829.44 55.59,831.59
             57.83,833.50 59.60,839.14 60.86,842.00
             61.97,844.51 64.27,848.28 63.89,851.00
             63.12,856.47 52.07,865.20 53.33,870.00
             53.85,871.97 56.58,874.55 58.00,876.00
             60.71,878.76 69.60,888.65 73.00,888.89
             77.22,889.19 84.09,880.84 88.00,878.84
             89.48,878.08 90.36,877.92 92.00,878.13
             95.45,878.56 109.24,884.45 110.99,887.22
             112.50,889.61 114.28,904.98 115.00,909.00
             115.00,909.00 145.00,909.00 145.00,909.00
             145.78,904.70 147.62,888.94 149.74,886.43
             151.31,884.55 157.40,882.48 160.00,881.25
             162.58,880.04 167.16,877.63 170.00,878.11
             178.21,879.50 183.54,894.97 192.00,886.37
             194.60,883.72 205.96,872.46 206.55,870.00
             207.69,865.23 197.52,857.56 196.46,852.00
             195.92,849.17 197.92,845.61 198.99,843.00
             200.22,840.01 202.16,833.52 204.42,831.59
             206.88,829.49 221.82,827.76 226.00,827.00
             226.00,827.00 226.00,798.00 226.00,798.00
             221.32,797.62 207.56,796.42 204.42,793.49
             202.12,791.35 200.29,785.14 198.99,782.00
             197.97,779.54 195.74,775.59 196.11,773.00
             196.91,767.35 207.70,759.95 206.55,755.00
             206.13,753.20 204.21,751.31 202.98,750.00
             202.98,750.00 198.00,745.00 198.00,745.00
             195.76,742.76 190.10,736.23 187.00,736.19
             183.09,736.15 174.26,746.50 170.00,746.99
             167.74,747.25 163.31,744.59 161.00,743.61
             158.41,742.52 151.22,740.16 149.58,738.44
             147.02,735.75 145.80,721.43 145.00,717.00 Z
           M 432.00,718.00
           C 432.00,718.00 422.00,723.00 422.00,723.00
             422.00,723.00 433.00,729.00 433.00,729.00
             433.00,729.00 432.00,718.00 432.00,718.00 Z
           M 491.00,724.00
           C 491.00,724.00 480.00,718.00 480.00,718.00
             480.00,718.00 480.00,729.00 480.00,729.00
             480.00,729.00 491.00,724.00 491.00,724.00 Z
           M 422.01,725.00
           C 420.68,728.32 420.15,741.67 422.01,744.61
             423.32,746.65 428.71,749.29 431.00,750.58
             431.00,750.58 456.00,764.00 456.00,764.00
             456.00,764.00 456.00,742.00 456.00,742.00
             456.00,742.00 422.01,725.00 422.01,725.00 Z
           M 492.00,725.00
           C 492.00,725.00 467.00,737.25 467.00,737.25
             467.00,737.25 457.57,743.39 457.57,743.39
             457.57,743.39 457.00,764.00 457.00,764.00
             457.00,764.00 482.00,750.76 482.00,750.76
             482.00,750.76 491.43,744.61 491.43,744.61
             491.43,744.61 492.00,725.00 492.00,725.00 Z
           M 125.00,769.43
           C 144.03,767.08 163.93,778.76 170.45,797.00
             172.80,803.56 173.08,808.16 173.00,815.00
             172.88,825.23 168.34,835.78 160.96,842.91
             149.88,853.62 140.54,855.17 126.00,855.00
             99.93,854.68 81.49,826.28 87.76,802.00
             92.60,783.25 106.42,772.48 125.00,769.43 Z
           M 124.00,771.29
           C 116.80,772.48 110.99,774.05 105.01,778.49
             99.58,782.53 94.38,788.93 91.38,795.00
             88.78,800.24 88.00,806.22 88.00,812.00
             88.00,838.13 110.03,857.41 136.00,853.70
             174.74,848.16 185.19,796.86 152.00,776.76
             142.98,771.30 134.29,770.31 124.00,771.29 Z
           M 247.00,776.00
           C 247.00,776.00 255.00,781.00 255.00,781.00
             255.00,781.00 247.00,776.00 247.00,776.00 Z
           M 268.00,788.00
           C 268.00,788.00 277.00,793.00 277.00,793.00
             277.00,793.00 268.00,788.00 268.00,788.00 Z
           M 290.00,800.00
           C 290.00,800.00 299.00,805.00 299.00,805.00
             299.00,805.00 290.00,800.00 290.00,800.00 Z
           M 311.00,812.00
           C 311.00,812.00 320.00,817.00 320.00,817.00
             320.00,817.00 311.00,812.00 311.00,812.00 Z
           M 332.00,823.00
           C 332.00,823.00 342.00,829.00 342.00,829.00
             337.29,827.65 335.28,826.72 332.00,823.00 Z
           M 351.00,839.00
           C 351.00,839.00 355.00,848.00 355.00,848.00
             355.00,848.00 351.00,839.00 351.00,839.00 Z
           M 348.00,862.00
           C 348.00,862.00 350.00,862.00 350.00,862.00
             343.60,870.42 337.49,869.02 328.00,869.00
             324.03,868.99 322.31,869.44 319.00,867.00
             324.37,867.00 339.87,867.79 343.96,865.69
             346.05,864.60 346.58,863.71 348.00,862.00 Z
           M 250.00,867.00
           C 250.00,867.00 260.00,868.00 260.00,868.00
             255.93,869.07 253.72,869.09 250.00,867.00 Z
           M 273.00,867.00
           C 273.00,867.00 282.00,868.00 282.00,868.00
             282.00,868.00 273.00,867.00 273.00,867.00 Z
           M 295.00,867.00
           C 295.00,867.00 306.00,868.00 306.00,868.00
             301.92,869.09 298.55,869.58 295.00,867.00 Z
           M 611.00,869.00
           C 611.00,869.00 610.00,869.00 610.00,869.00
             610.00,869.00 611.00,870.00 611.00,870.00
             611.00,870.00 611.00,869.00 611.00,869.00 Z
           M 452.00,900.00
           C 452.00,900.00 451.00,900.00 451.00,900.00
             451.00,900.00 452.00,901.00 452.00,901.00
             452.00,901.00 452.00,900.00 452.00,900.00 Z" />
</svg>
