<?xml version="1.0" encoding="UTF-8" standalone="no"?>
<!DOCTYPE svg PUBLIC "-//W3C//DTD SVG 20010904//EN"
              "http://www.w3.org/TR/2001/REC-SVG-20010904/DTD/svg10.dtd">

<svg xmlns="http://www.w3.org/2000/svg"
     width="100" height="100" fill="none" stroke="#7fa573" stroke-width="10"
     viewBox="0 0 837 837">
  <path d="M 663.00,72.00
           C 663.00,72.00 665.00,72.00 665.00,72.00
             665.00,72.00 665.00,104.00 665.00,104.00
             665.00,104.00 663.00,104.00 663.00,104.00
             663.00,104.00 663.00,72.00 663.00,72.00 Z
           M 225.00,84.00
           C 225.00,84.00 228.41,105.00 228.41,105.00
             228.92,108.02 229.20,112.10 231.51,114.30
             231.51,114.30 248.00,121.48 248.00,121.48
             251.59,123.19 257.01,127.34 261.00,126.34
             265.26,125.26 281.61,111.31 287.00,111.50
             289.53,111.59 292.04,113.44 294.00,114.90
             299.40,118.92 308.96,128.63 313.11,134.00
             314.82,136.21 318.13,140.21 318.30,143.00
             318.46,145.74 316.12,148.80 314.67,151.00
             312.32,154.56 304.59,165.56 303.80,169.00
             303.05,172.26 304.87,175.12 306.14,178.00
             306.14,178.00 312.99,194.94 312.99,194.94
             315.02,199.33 317.77,198.84 322.00,199.61
             325.73,200.29 340.38,202.79 342.72,204.30
             345.80,206.28 345.80,209.73 346.27,213.00
             347.32,220.27 347.08,227.67 347.00,235.00
             346.96,238.22 346.28,248.04 344.18,250.27
             342.64,251.89 339.15,252.38 337.00,252.88
             330.56,254.38 315.84,255.01 312.80,261.06
             312.80,261.06 309.94,269.00 309.94,269.00
             309.94,269.00 305.42,279.00 305.42,279.00
             304.51,281.09 302.87,283.99 303.43,286.28
             304.00,288.62 312.46,301.17 314.33,304.00
             317.17,308.29 319.74,310.95 316.84,316.00
             313.13,322.47 301.08,334.24 295.00,338.87
             291.89,341.23 288.21,344.92 284.00,343.65
             281.16,342.79 270.02,334.99 267.00,332.86
             263.91,330.68 261.02,327.99 257.00,329.18
             257.00,329.18 240.00,337.19 240.00,337.19
             236.89,338.40 232.90,339.34 230.93,342.22
             228.39,345.94 226.85,366.07 224.07,369.49
             221.45,372.71 206.40,373.89 202.00,373.99
             197.45,374.09 188.60,373.14 184.00,372.41
             181.81,372.06 178.38,371.71 176.72,370.18
             174.87,368.45 174.29,364.42 173.80,362.00
             173.80,362.00 170.11,344.05 170.11,344.05
             167.96,338.99 155.13,335.37 150.00,332.74
             148.17,331.80 143.66,329.05 142.00,328.78
             138.93,328.28 136.35,330.66 134.00,332.28
             130.70,334.56 119.12,342.77 116.00,343.44
             111.97,344.30 107.94,341.07 105.00,338.69
             99.07,333.90 85.00,320.95 82.57,314.00
             81.34,310.50 83.26,307.88 85.05,305.00
             87.30,301.39 96.27,289.07 96.77,286.00
             97.03,284.43 96.68,283.44 96.15,282.00
             96.15,282.00 89.05,266.00 89.05,266.00
             87.83,262.69 87.22,259.23 83.87,257.43
             83.87,257.43 64.00,253.00 64.00,253.00
             61.67,252.54 57.47,252.15 55.85,250.41
             54.33,248.76 53.94,245.18 53.59,243.00
             52.66,237.12 52.99,229.13 53.00,223.00
             53.01,218.88 53.46,207.60 56.56,204.85
             58.36,203.26 62.62,202.66 65.00,202.25
             65.00,202.25 82.95,198.77 82.95,198.77
             84.40,198.27 85.16,197.90 86.16,196.69
             86.16,196.69 94.14,178.00 94.14,178.00
             94.90,176.29 96.83,172.31 96.77,170.58
             96.61,165.88 83.57,150.84 82.12,145.00
             81.11,140.90 84.66,137.01 87.01,134.00
             92.05,127.57 98.55,121.03 105.00,116.02
             107.41,114.14 110.78,111.39 114.00,111.50
             119.47,111.67 135.43,126.02 140.00,126.52
             142.10,126.74 144.20,125.62 146.00,124.69
             152.38,121.40 154.17,120.46 161.00,117.95
             164.14,116.80 168.00,115.88 169.84,112.86
             171.48,110.17 173.20,97.04 174.00,93.00
             174.46,90.69 174.97,86.50 176.73,84.90
             179.23,82.65 187.61,82.19 191.00,81.92
             208.36,80.53 208.55,81.78 225.00,84.00 Z
           M 190.00,83.28
           C 186.67,83.77 180.02,84.11 177.73,86.56
             172.22,92.47 176.87,112.44 166.98,117.20
             166.98,117.20 158.00,120.45 158.00,120.45
             158.00,120.45 148.00,125.25 148.00,125.25
             145.36,126.56 142.05,128.67 139.00,127.94
             136.78,127.41 124.00,118.31 121.00,116.33
             117.67,114.14 115.09,111.80 111.00,113.62
             104.79,116.38 92.39,129.36 88.13,135.00
             85.95,137.89 82.96,141.11 83.92,145.00
             85.18,150.10 97.61,164.96 98.17,170.00
             98.51,173.06 96.07,177.24 94.78,180.00
             94.78,180.00 88.29,195.94 88.29,195.94
             83.82,204.12 62.90,201.33 57.58,205.93
             54.62,208.51 53.98,224.70 54.00,229.00
             54.02,232.80 54.82,247.70 57.56,249.83
             62.66,253.79 83.98,251.83 88.44,260.05
             88.44,260.05 95.26,277.00 95.26,277.00
             96.50,279.58 98.68,283.07 98.28,286.00
             97.62,290.92 84.56,306.85 83.92,311.00
             83.37,314.62 87.11,318.40 89.25,321.00
             93.77,326.49 106.25,340.33 113.00,342.03
             116.39,342.88 119.34,340.42 122.00,338.67
             125.29,336.49 137.25,327.68 140.00,327.23
             141.55,326.97 142.58,327.31 144.00,327.85
             144.00,327.85 159.00,335.40 159.00,335.40
             162.47,336.80 168.13,338.29 170.41,341.22
             172.64,344.10 174.20,356.80 174.92,361.00
             175.41,363.86 175.84,368.06 178.43,369.83
             180.61,371.32 189.14,371.96 192.00,372.00
             198.16,372.07 208.22,372.31 214.00,371.41
             216.25,371.06 220.59,370.59 222.28,369.10
             224.15,367.44 224.71,363.39 225.20,361.00
             225.97,357.23 227.93,344.58 229.31,342.11
             231.53,338.12 236.06,337.44 240.00,335.94
             240.00,335.94 257.00,327.74 257.00,327.74
             262.55,326.01 273.93,336.12 279.00,339.19
             281.83,340.91 284.57,342.96 288.00,341.76
             289.95,341.08 294.25,337.73 296.00,336.33
             300.87,332.46 312.98,320.37 315.53,315.00
             317.39,311.08 315.39,308.31 313.30,305.00
             310.95,301.26 303.22,290.43 302.26,287.00
             301.24,283.41 303.23,280.14 304.76,277.00
             304.76,277.00 311.39,261.02 311.39,261.02
             315.73,250.84 334.61,255.00 341.70,250.02
             345.31,247.48 345.94,234.43 346.00,230.00
             346.05,225.76 345.32,209.42 343.02,206.56
             341.40,204.55 337.43,204.09 335.00,203.60
             335.00,203.60 315.13,199.49 315.13,199.49
             312.02,197.93 311.38,195.04 310.33,192.00
             310.33,192.00 302.31,172.00 302.31,172.00
             301.04,164.88 314.87,150.46 316.50,145.00
             317.63,141.24 314.50,137.76 312.33,135.00
             307.43,128.75 299.37,120.60 293.00,115.90
             291.33,114.67 289.14,113.03 287.00,112.92
             284.36,112.80 281.14,115.25 279.00,116.67
             275.41,119.04 263.46,127.86 260.00,128.11
             258.17,128.24 256.60,127.45 255.00,126.68
             255.00,126.68 239.00,119.20 239.00,119.20
             236.22,118.10 231.63,116.85 229.73,114.58
             226.44,110.65 225.73,91.22 223.49,87.31
             221.91,84.56 217.82,84.39 215.00,83.92
             207.78,82.72 197.31,82.60 190.00,83.28 Z
           M 563.00,115.00
           C 568.53,118.96 581.04,131.47 585.00,137.00
             585.00,137.00 573.00,127.00 573.00,127.00
             573.00,127.00 563.00,115.00 563.00,115.00 Z
           M 764.00,115.00
           C 763.95,118.64 761.45,120.50 759.00,123.00
             754.37,127.71 748.91,134.21 743.00,137.00
             743.00,137.00 764.00,115.00 764.00,115.00 Z
           M 628.00,345.00
           C 617.93,339.31 625.23,331.78 624.35,325.00
             622.41,310.17 618.97,295.42 610.28,283.00
             610.28,283.00 593.44,261.00 593.44,261.00
             583.74,245.76 579.79,229.95 580.00,212.00
             580.11,203.04 582.27,192.39 585.42,184.00
             606.02,129.26 674.46,111.18 719.00,149.30
             728.37,157.32 735.11,166.88 740.29,178.00
             744.68,187.40 747.87,199.59 748.00,210.00
             748.21,228.13 746.33,240.91 737.13,257.00
             732.20,265.62 726.29,272.18 720.48,280.00
             713.22,289.76 709.74,297.11 707.21,309.00
             706.15,314.00 706.33,323.11 702.00,326.00
             708.56,334.34 706.86,339.72 700.00,347.00
             705.95,350.15 707.94,357.38 703.49,362.79
             701.15,365.63 698.23,366.08 695.81,369.21
             693.36,372.39 691.29,380.13 681.00,386.89
             669.17,394.67 652.25,391.78 642.29,382.38
             635.94,376.39 635.56,372.50 633.04,369.21
             630.56,365.99 627.78,365.54 625.43,362.79
             620.10,356.55 624.42,350.45 628.00,345.00 Z
           M 702.00,326.00
           C 704.61,320.36 704.32,315.01 705.46,309.00
             706.61,302.90 709.23,295.48 712.12,290.00
             717.16,280.44 725.46,271.99 731.48,263.00
             741.28,248.39 747.39,230.71 746.99,213.00
             746.27,181.55 727.96,151.38 699.00,138.31
             684.17,131.62 674.87,130.82 659.00,131.00
             619.77,131.46 582.46,168.77 582.00,208.00
             581.77,228.06 582.83,240.15 593.45,258.00
             593.45,258.00 613.30,285.00 613.30,285.00
             618.16,292.55 622.33,303.10 623.71,312.00
             624.21,315.27 624.22,323.12 627.31,324.98
             629.11,325.91 632.88,325.13 635.00,324.98
             635.00,324.98 654.00,324.98 654.00,324.98
             654.00,324.98 651.83,292.00 651.83,292.00
             651.83,292.00 649.83,267.00 649.83,267.00
             649.83,267.00 647.00,241.00 647.00,241.00
             642.33,240.99 639.47,241.05 635.00,239.24
             632.36,238.16 630.17,236.80 628.10,234.81
             624.71,231.54 622.17,226.83 623.43,222.00
             625.73,213.22 635.71,211.32 641.47,218.11
             643.55,220.55 644.50,222.97 645.36,226.00
             646.54,230.20 647.42,234.67 648.00,239.13
             648.00,239.13 671.00,239.13 671.00,239.13
             672.99,239.18 677.92,239.13 679.41,237.98
             681.18,236.60 681.54,232.19 682.01,230.00
             683.42,223.55 687.65,212.82 696.00,213.87
             701.51,214.56 707.87,222.51 703.85,230.01
             701.51,234.39 696.71,238.25 692.00,239.78
             686.34,241.61 683.33,240.17 681.74,243.29
             680.56,245.59 679.20,262.31 678.83,266.00
             678.83,266.00 677.00,282.00 677.00,282.00
             677.00,282.00 677.00,291.00 677.00,291.00
             677.00,291.00 676.00,303.00 676.00,303.00
             676.00,303.00 675.00,325.00 675.00,325.00
             675.00,325.00 702.00,326.00 702.00,326.00 Z
           M 189.00,151.44
           C 203.54,149.57 220.83,151.78 234.00,158.37
             276.65,179.69 291.06,235.76 262.10,274.00
             254.75,283.70 246.61,290.09 236.00,295.82
             221.59,303.60 209.83,304.18 194.00,304.00
             187.15,303.92 180.46,302.18 174.00,300.00
             132.65,285.99 113.57,241.23 127.86,201.00
             137.55,173.75 161.23,156.57 189.00,151.44 Z
           M 196.00,152.28
           C 196.00,152.28 182.00,154.47 182.00,154.47
             162.11,159.42 143.88,172.85 134.12,191.00
             112.57,231.07 128.93,279.30 171.00,297.28
             179.02,300.70 188.26,302.89 197.00,303.00
             211.74,303.17 221.65,301.41 235.00,294.73
             244.11,290.17 249.99,285.47 256.91,278.00
             294.26,237.71 273.29,169.84 221.00,155.15
             213.57,153.07 203.68,151.57 196.00,152.28 Z
           M 194.00,182.44
           C 237.13,176.91 260.44,226.59 236.53,256.00
             232.82,260.57 228.12,264.74 223.00,267.66
             213.37,273.15 207.62,273.12 197.00,273.00
             189.36,272.91 183.59,270.93 177.00,267.13
             155.57,254.74 148.80,227.75 159.98,206.00
             167.11,192.14 179.17,185.18 194.00,182.44 Z
           M 197.00,183.29
           C 184.21,185.40 172.65,190.04 164.79,201.00
             144.05,229.91 162.29,271.58 199.00,272.00
             207.00,272.09 212.66,271.11 220.00,267.68
             224.87,265.40 228.21,262.83 231.96,258.99
             259.81,230.47 237.59,179.81 197.00,183.29 Z
           M 477.00,208.00
           C 482.80,210.74 487.52,216.43 492.00,221.00
             493.63,222.67 496.80,225.51 496.80,228.00
             496.80,230.49 493.63,233.33 492.00,235.00
             488.16,238.92 481.87,245.68 477.00,248.00
             477.00,248.00 489.00,235.00 489.00,235.00
             489.00,235.00 493.96,228.00 493.96,228.00
             493.96,228.00 489.00,221.00 489.00,221.00
             489.00,221.00 477.00,208.00 477.00,208.00 Z
           M 524.00,214.00
           C 530.26,214.00 548.17,213.09 553.00,215.00
             546.74,215.00 528.83,215.91 524.00,214.00 Z
           M 646.00,240.00
           C 645.96,235.18 645.81,233.75 644.79,229.00
             644.19,226.23 643.50,223.55 642.17,221.02
             635.06,207.55 618.08,219.18 626.72,231.96
             628.25,234.22 630.57,236.09 633.00,237.31
             636.20,238.93 642.29,239.51 646.00,240.00 Z
           M 683.22,240.00
           C 686.94,239.04 691.41,239.09 695.00,237.44
             697.29,236.39 699.59,234.70 701.15,232.70
             710.67,220.46 693.86,207.20 686.28,221.02
             685.08,223.19 683.96,227.51 683.22,230.00
             682.67,233.83 682.21,236.13 683.22,240.00 Z
           M 775.00,214.00
           C 781.26,214.00 799.17,213.09 804.00,215.00
             797.74,215.00 779.83,215.91 775.00,214.00 Z
           M 403.00,227.00
           C 403.00,227.00 404.00,227.00 404.00,227.00
             404.00,227.00 403.00,228.00 403.00,228.00
             403.00,228.00 403.00,227.00 403.00,227.00 Z
           M 407.00,227.00
           C 407.00,227.00 408.00,227.00 408.00,227.00
             408.00,227.00 407.00,228.00 407.00,228.00
             407.00,228.00 407.00,227.00 407.00,227.00 Z
           M 431.00,227.00
           C 431.00,227.00 432.00,227.00 432.00,227.00
             432.00,227.00 431.00,228.00 431.00,228.00
             431.00,228.00 431.00,227.00 431.00,227.00 Z
           M 444.00,227.00
           C 444.00,227.00 445.00,227.00 445.00,227.00
             445.00,227.00 444.00,228.00 444.00,228.00
             444.00,228.00 444.00,227.00 444.00,227.00 Z
           M 482.00,228.00
           C 482.00,228.00 485.00,229.00 485.00,229.00
             485.00,229.00 482.00,228.00 482.00,228.00 Z
           M 374.00,228.00
           C 374.00,228.00 380.00,229.00 380.00,229.00
             380.00,229.00 374.00,228.00 374.00,228.00 Z
           M 472.00,228.00
           C 472.00,228.00 473.00,228.00 473.00,228.00
             473.00,228.00 472.00,229.00 472.00,229.00
             472.00,229.00 472.00,228.00 472.00,228.00 Z
           M 480.00,228.00
           C 480.00,228.00 481.00,228.00 481.00,228.00
             481.00,228.00 480.00,229.00 480.00,229.00
             480.00,229.00 480.00,228.00 480.00,228.00 Z
           M 680.00,241.00
           C 680.00,241.00 648.00,241.00 648.00,241.00
             648.00,241.00 652.09,278.00 652.09,278.00
             652.09,278.00 654.00,308.00 654.00,308.00
             654.00,308.00 655.00,325.00 655.00,325.00
             658.48,325.00 670.99,325.92 672.98,323.40
             674.23,321.81 674.00,317.99 674.00,316.00
             674.00,316.00 674.91,300.00 674.91,300.00
             674.91,300.00 676.17,276.00 676.17,276.00
             676.17,276.00 680.00,241.00 680.00,241.00 Z
           M 582.00,287.00
           C 581.95,290.64 579.45,292.50 577.00,295.00
             572.37,299.71 567.32,305.19 562.00,309.00
             565.80,301.93 576.03,292.97 582.00,287.00 Z
           M 745.00,287.00
           C 750.72,291.09 763.09,302.85 766.00,309.00
             760.28,304.91 747.91,293.15 745.00,287.00 Z
           M 366.00,324.42
           C 370.88,323.83 384.71,323.18 388.27,326.73
             391.27,329.74 390.80,340.19 393.01,343.87
             394.74,346.75 403.57,350.22 407.00,351.72
             418.18,356.62 422.32,339.89 432.00,344.59
             436.81,346.92 450.03,359.36 449.44,365.00
             449.00,369.20 441.92,376.63 441.03,381.00
             440.44,383.86 444.20,393.20 445.71,395.94
             449.73,403.26 460.25,399.12 465.57,403.73
             468.14,405.96 468.57,413.56 468.82,417.00
             469.10,421.00 468.43,432.27 464.75,434.35
             460.97,436.48 451.67,436.38 448.22,438.85
             445.88,440.54 441.48,450.79 440.55,453.83
             438.66,460.02 447.66,466.24 449.22,472.00
             450.82,477.94 437.68,489.81 433.00,492.74
             423.93,498.41 419.84,487.02 412.00,485.47
             409.25,484.93 401.01,489.04 398.00,490.36
             388.22,494.66 392.85,504.63 388.69,510.49
             386.06,514.19 375.24,514.05 371.00,514.00
             367.25,513.95 359.35,513.60 356.85,510.57
             351.92,504.58 357.21,494.84 347.98,490.62
             345.38,489.43 335.96,484.90 333.72,485.34
             325.77,486.91 320.70,499.70 311.00,491.77
             306.98,488.49 294.97,477.50 296.31,472.00
             297.98,465.11 307.07,460.94 304.17,453.00
             303.01,449.82 299.31,439.89 296.73,438.31
             293.88,436.58 282.76,436.47 279.60,433.28
             276.96,430.61 276.96,419.81 277.00,416.00
             277.04,412.91 277.34,405.94 279.59,403.73
             284.62,398.81 295.53,403.92 299.95,394.98
             301.63,391.57 305.44,383.55 304.38,380.00
             302.78,374.67 294.12,367.55 296.28,362.00
             297.54,358.75 307.05,349.71 310.00,347.19
             311.95,345.52 314.27,343.58 317.00,343.69
             321.30,343.87 328.29,350.89 332.00,352.22
             335.69,353.55 346.45,348.59 349.86,346.47
             356.27,342.49 352.92,330.99 357.56,326.74
             359.44,325.01 363.49,324.81 366.00,324.42 Z
           M 466.00,433.00
           C 466.00,433.00 467.00,422.00 467.00,422.00
             467.00,422.00 467.00,417.00 467.00,417.00
             466.99,413.50 467.28,407.36 464.44,404.85
             459.87,400.82 448.71,404.49 444.55,396.94
             442.76,393.69 438.60,383.40 439.62,380.00
             441.01,375.39 448.30,368.27 448.07,364.00
             447.85,359.81 435.71,348.00 432.00,345.93
             424.00,341.48 416.71,356.53 409.83,354.39
             409.83,354.39 394.15,347.45 394.15,347.45
             392.85,346.67 392.24,346.15 391.56,344.78
             389.35,340.32 390.54,329.06 385.75,326.74
             381.62,324.74 369.72,325.02 365.00,325.73
             362.46,326.11 359.67,326.18 357.98,328.43
             355.56,331.68 355.81,342.15 353.15,345.61
             352.00,347.10 338.45,353.74 336.28,354.42
             329.90,356.42 321.64,342.91 315.00,345.45
             309.95,347.37 296.17,360.07 297.90,366.00
             299.09,370.09 306.05,377.79 306.20,382.00
             306.26,383.88 301.96,394.77 300.90,396.94
             297.14,404.64 285.19,400.53 280.74,404.82
             278.98,406.52 278.37,414.35 278.18,417.00
             277.95,420.33 278.55,430.82 281.31,432.70
             285.11,435.29 295.36,435.08 298.59,437.74
             300.79,439.55 305.11,450.66 306.20,453.83
             308.90,461.66 295.97,467.69 297.99,475.00
             298.95,478.50 310.74,490.43 314.00,492.21
             320.29,495.63 326.92,485.59 333.00,484.20
             336.04,483.51 346.71,488.36 349.95,489.94
             358.26,493.98 353.49,505.68 358.56,510.15
             360.66,512.00 364.35,511.96 367.00,512.00
             371.27,512.05 383.51,512.89 386.49,510.26
             390.00,507.17 389.49,497.13 391.98,493.13
             393.62,490.51 404.71,485.65 408.00,484.44
             415.50,481.69 420.88,491.27 427.00,492.93
             432.19,494.33 443.52,482.05 446.26,478.00
             451.73,469.91 440.26,464.45 438.91,457.00
             438.35,453.91 440.47,450.72 441.69,448.00
             442.99,445.09 444.20,440.57 446.42,438.43
             449.06,435.87 461.79,433.85 466.00,433.00 Z
           M 630.02,327.14
           C 622.18,330.69 622.83,339.60 627.39,343.26
             629.95,345.31 633.89,344.99 637.00,345.00
             637.00,345.00 692.00,345.00 692.00,345.00
             695.01,344.99 698.30,345.27 700.83,343.40
             705.70,339.89 706.24,331.41 700.83,328.17
             698.44,326.78 694.68,327.00 692.00,327.14
             692.00,327.14 652.00,327.14 652.00,327.14
             652.00,327.14 630.02,327.14 630.02,327.14 Z
           M 630.02,347.60
           C 623.67,351.16 622.01,358.52 628.13,363.35
             631.75,366.21 635.68,365.99 640.00,366.00
             640.00,366.00 689.00,366.00 689.00,366.00
             693.21,365.99 697.31,366.22 700.78,363.35
             705.90,359.10 704.99,351.04 699.89,348.17
             697.43,346.79 693.77,347.00 691.00,347.00
             691.00,347.00 652.00,347.00 652.00,347.00
             646.11,347.00 635.30,346.46 630.02,347.60 Z
           M 694.00,367.00
           C 694.00,367.00 635.00,367.00 635.00,367.00
             639.25,389.62 670.31,398.67 687.19,379.83
             690.91,375.68 692.96,372.47 694.00,367.00 Z
           M 367.00,372.44
           C 406.53,367.37 433.87,411.99 411.90,445.00
             408.90,449.50 403.50,454.90 399.00,457.90
             393.18,461.77 385.90,464.47 379.00,465.56
             373.35,466.45 368.54,465.98 363.00,464.79
             334.05,458.54 318.37,428.23 329.45,401.00
             336.22,384.37 349.91,375.60 367.00,372.44 Z
           M 365.00,374.15
           C 350.81,376.98 338.07,385.61 331.90,399.00
             318.75,427.55 336.99,463.61 370.00,464.00
             388.28,464.21 403.45,457.94 412.51,441.00
             427.49,413.02 409.55,374.40 376.00,374.15
             376.00,374.15 365.00,374.15 365.00,374.15 Z
           M 191.00,399.00
           C 191.00,399.00 193.00,399.00 193.00,399.00
             193.00,399.00 192.00,417.00 192.00,417.00
             192.00,417.00 192.00,465.00 192.00,465.00
             192.00,465.00 191.00,496.00 191.00,496.00
             191.00,496.00 191.00,399.00 191.00,399.00 Z
           M 664.00,417.00
           C 664.00,417.00 665.00,438.00 665.00,438.00
             665.00,438.00 665.00,481.00 665.00,481.00
             665.00,481.00 664.00,505.00 664.00,505.00
             664.00,505.00 664.00,417.00 664.00,417.00 Z
           M 494.00,420.00
           C 494.00,420.00 549.00,420.00 549.00,420.00
             549.00,420.00 569.00,420.00 569.00,420.00
             584.56,420.19 598.73,430.72 604.55,445.00
             610.13,458.73 606.29,476.66 607.10,491.00
             607.57,496.80 609.21,503.42 607.10,509.00
             607.10,509.00 606.00,488.00 606.00,488.00
             606.00,488.00 606.00,459.00 606.00,459.00
             605.75,437.64 586.86,421.10 566.00,421.00
             566.00,421.00 517.00,421.00 517.00,421.00
             511.47,421.00 498.55,421.80 494.00,420.00 Z
           M 586.00,498.00
           C 586.00,498.00 607.00,517.00 607.00,517.00
             607.00,517.00 608.00,513.00 608.00,513.00
             609.60,515.26 611.48,512.43 613.02,510.96
             618.02,506.18 620.73,502.37 627.00,499.00
             627.00,499.00 614.00,513.00 614.00,513.00
             614.00,513.00 607.00,517.80 607.00,517.80
             607.00,517.80 600.00,513.00 600.00,513.00
             600.00,513.00 586.00,498.00 586.00,498.00 Z
           M 64.00,623.00
           C 64.00,623.00 80.00,620.27 80.00,620.27
             82.75,619.87 87.50,619.51 89.78,618.02
             93.11,615.83 95.93,605.98 97.61,602.00
             97.61,602.00 100.71,595.00 100.71,595.00
             101.49,591.53 99.15,588.73 97.33,586.00
             88.67,573.02 84.43,571.40 90.68,563.00
             94.93,557.28 108.27,542.66 115.00,540.97
             118.22,540.16 120.52,542.14 123.00,543.86
             125.65,545.70 136.81,553.75 139.00,554.29
             141.88,554.99 144.55,553.05 147.00,551.78
             147.00,551.78 160.96,545.89 160.96,545.89
             169.53,541.87 166.21,526.11 170.43,519.31
             171.97,516.82 175.37,516.67 178.00,516.27
             186.27,515.03 187.62,514.91 196.00,515.00
             199.78,515.05 210.69,515.79 213.15,518.56
             218.62,524.72 213.72,541.36 223.04,545.64
             223.04,545.64 238.00,552.25 238.00,552.25
             240.67,553.58 242.94,555.14 246.00,554.08
             253.08,551.64 263.49,538.22 271.00,541.61
             277.90,544.72 286.84,555.11 291.71,561.00
             293.99,563.75 297.06,567.14 296.19,571.00
             294.57,578.25 281.98,587.94 283.57,595.00
             283.57,595.00 290.32,612.00 290.32,612.00
             291.43,614.83 292.14,617.07 295.11,618.44
             300.99,621.15 316.58,619.95 319.83,625.23
             322.71,629.90 322.26,650.14 321.42,656.00
             320.93,659.39 320.96,663.66 317.72,665.69
             313.29,668.48 297.00,668.52 293.30,671.59
             291.75,672.88 285.52,688.03 284.30,691.00
             280.56,700.15 294.09,709.33 296.24,718.00
             297.24,722.01 294.10,725.14 291.75,728.00
             286.18,734.80 279.59,741.90 272.00,746.50
             270.74,747.27 269.53,747.98 268.00,747.98
             261.82,747.98 249.30,732.74 242.00,734.90
             242.00,734.90 227.00,741.54 227.00,741.54
             223.47,742.92 220.42,743.21 218.72,747.06
             218.72,747.06 215.34,765.00 215.34,765.00
             214.88,767.11 214.28,770.48 212.47,771.83
             208.86,774.51 191.14,774.01 186.00,774.00
             182.39,773.99 173.32,773.82 170.73,771.26
             167.45,768.01 166.70,749.65 164.69,746.22
             162.74,742.90 151.07,739.25 147.00,737.24
             145.11,736.31 142.07,734.54 140.00,734.51
             134.97,734.44 121.20,747.07 117.00,747.88
             113.08,748.63 106.87,742.98 104.00,740.56
             99.48,736.75 86.56,724.22 87.75,718.00
             88.91,711.99 100.49,700.18 100.50,695.00
             100.50,693.26 99.28,690.62 98.58,689.00
             96.94,685.19 92.55,672.76 89.78,671.01
             85.38,668.23 68.38,668.83 64.74,664.57
             62.65,662.13 62.16,655.22 62.00,652.00
             61.38,639.17 61.61,635.70 64.00,623.00 Z
           M 213.00,771.00
           C 213.00,771.00 216.25,752.00 216.25,752.00
             216.75,749.04 216.99,745.68 219.31,743.51
             219.31,743.51 234.00,737.00 234.00,737.00
             236.67,735.84 242.83,731.97 245.28,732.62
             254.40,735.05 262.98,750.71 273.00,744.21
             279.63,739.91 284.92,734.03 289.92,728.00
             291.57,726.01 294.74,722.62 294.92,720.00
             295.08,717.75 293.11,714.86 291.95,713.00
             291.95,713.00 281.64,696.42 281.64,696.42
             280.89,693.86 282.67,691.23 283.74,689.00
             283.74,689.00 290.27,673.06 290.27,673.06
             294.71,665.44 310.83,668.15 316.69,664.57
             320.34,662.34 321.13,647.30 320.96,643.00
             320.82,639.26 320.02,627.14 317.44,624.85
             311.87,619.93 294.49,624.72 289.80,614.98
             289.80,614.98 283.52,599.00 283.52,599.00
             282.23,596.19 280.69,594.17 281.87,591.00
             284.24,584.60 297.23,573.75 294.24,567.00
             291.85,561.59 280.82,550.64 276.00,546.81
             273.12,544.52 269.95,541.67 266.00,542.78
             258.81,544.80 249.19,557.65 242.00,555.54
             242.00,555.54 229.00,549.45 229.00,549.45
             224.96,547.81 219.62,547.09 217.43,542.89
             215.20,538.60 214.67,522.54 212.07,519.59
             210.96,518.34 209.53,518.10 207.98,517.77
             197.57,515.55 192.23,516.12 182.00,517.07
             179.47,517.31 173.65,517.80 171.95,519.74
             169.81,522.20 168.82,537.39 166.97,541.96
             164.81,547.31 154.39,549.55 149.00,552.25
             147.19,553.15 142.72,555.66 141.00,555.91
             135.34,556.74 123.86,544.27 118.00,542.83
             114.51,541.97 111.63,544.44 109.00,546.38
             102.26,551.35 98.31,555.34 93.24,562.00
             91.34,564.49 88.62,567.64 89.36,571.00
             90.48,576.16 102.40,587.96 102.67,593.00
             102.80,595.61 100.41,599.61 99.26,602.00
             99.26,602.00 94.06,614.98 94.06,614.98
             89.65,624.42 74.05,620.12 67.28,624.31
             62.85,627.05 62.95,641.06 63.00,646.00
             63.05,649.77 63.79,661.73 66.56,664.07
             71.98,668.64 89.05,665.02 93.73,673.06
             93.73,673.06 100.24,689.00 100.24,689.00
             101.52,691.65 102.91,693.96 102.06,697.00
             101.34,699.53 94.56,709.14 92.67,712.00
             91.22,714.19 88.84,717.25 89.14,720.00
             89.42,722.53 92.42,726.01 94.00,728.00
             98.94,734.21 104.36,739.67 111.00,744.07
             112.52,745.08 114.10,746.15 116.00,746.15
             120.62,746.15 133.81,733.70 139.00,732.97
             141.99,732.55 147.07,735.84 150.00,737.14
             153.28,738.59 162.59,741.57 164.57,743.51
             166.96,745.84 167.22,749.84 167.75,753.00
             167.75,753.00 171.00,771.00 171.00,771.00
             188.49,773.31 195.17,774.20 213.00,771.00 Z
           M 459.00,545.00
           C 459.00,545.00 459.00,528.00 459.00,528.00
             459.04,525.86 458.96,523.23 460.60,521.60
             462.52,519.68 466.46,520.01 469.00,520.00
             469.00,520.00 485.00,520.00 485.00,520.00
             485.00,520.00 497.00,520.91 497.00,520.91
             522.87,522.72 552.16,529.22 575.00,541.86
             581.43,545.42 590.14,550.59 596.00,554.88
             598.50,556.72 604.02,561.55 607.00,561.55
             609.88,561.55 614.63,557.37 617.00,555.64
             622.03,551.97 631.46,546.12 637.00,543.26
             662.29,530.21 686.58,522.99 715.00,520.91
             715.00,520.91 727.00,520.00 727.00,520.00
             727.00,520.00 747.00,520.00 747.00,520.00
             748.95,520.04 751.63,519.90 752.98,521.60
             754.23,523.19 754.00,527.01 754.00,529.00
             754.00,529.00 754.00,545.00 754.00,545.00
             754.00,545.00 771.00,545.00 771.00,545.00
             771.00,545.00 776.98,546.60 776.98,546.60
             776.98,546.60 778.00,554.00 778.00,554.00
             778.00,554.00 778.00,569.00 778.00,569.00
             778.00,569.00 793.00,569.00 793.00,569.00
             794.95,569.04 797.63,568.90 798.98,570.60
             800.23,572.19 800.00,576.01 800.00,578.00
             800.00,578.00 800.00,734.00 800.00,734.00
             800.00,734.00 800.00,780.00 800.00,780.00
             799.86,787.49 797.74,786.99 791.00,787.00
             791.00,787.00 650.00,787.00 650.00,787.00
             645.10,787.01 642.46,786.85 638.00,789.36
             633.02,792.17 627.97,798.01 623.00,799.99
             618.92,801.63 603.25,801.06 598.00,801.00
             584.73,800.84 583.85,793.26 574.00,788.45
             570.63,786.80 567.63,787.01 564.00,787.00
             564.00,787.00 449.00,787.00 449.00,787.00
             449.00,787.00 423.00,787.00 423.00,787.00
             421.01,787.00 417.19,787.23 415.60,785.98
             413.62,784.41 414.00,780.30 414.00,778.00
             414.00,778.00 414.00,618.00 414.00,618.00
             414.00,618.00 414.00,584.00 414.00,584.00
             414.00,581.23 413.50,572.52 415.02,570.60
             416.59,568.62 420.70,569.00 423.00,569.00
             423.00,569.00 436.00,569.00 436.00,569.00
             436.00,569.00 436.00,552.00 436.00,552.00
             436.00,552.00 437.60,546.02 437.60,546.02
             437.60,546.02 445.00,545.00 445.00,545.00
             445.00,545.00 459.00,545.00 459.00,545.00 Z
           M 606.00,773.00
           C 606.00,773.00 606.00,572.00 606.00,572.00
             606.00,569.59 606.22,566.42 604.98,564.30
             603.70,562.11 599.16,558.97 597.00,557.38
             590.63,552.66 582.05,547.42 575.00,543.75
             547.96,529.67 519.49,522.35 489.00,522.00
             489.00,522.00 475.00,521.04 475.00,521.04
             475.00,521.04 461.00,522.00 461.00,522.00
             461.00,522.00 461.00,735.00 461.00,735.00
             461.00,735.00 486.00,733.00 486.00,733.00
             508.50,732.74 537.12,737.15 558.00,745.60
             570.21,750.55 576.97,754.13 588.00,761.34
             593.61,765.01 600.13,770.72 606.00,773.00 Z
           M 753.00,522.00
           C 753.00,522.00 735.00,521.04 735.00,521.04
             735.00,521.04 719.00,522.00 719.00,522.00
             719.00,522.00 703.00,523.72 703.00,523.72
             679.31,526.81 660.27,532.94 639.00,543.76
             632.07,547.28 623.24,552.84 617.00,557.48
             615.05,558.92 610.15,562.56 608.99,564.46
             607.76,566.50 608.00,569.67 608.00,572.00
             608.00,572.00 608.00,774.00 608.00,774.00
             608.00,774.00 627.00,760.69 627.00,760.69
             636.00,754.90 649.02,748.40 659.00,744.45
             675.15,738.06 703.59,733.21 721.00,733.00
             721.00,733.00 753.00,735.00 753.00,735.00
             753.00,735.00 753.00,522.00 753.00,522.00 Z
           M 459.00,547.00
           C 459.00,547.00 437.00,547.00 437.00,547.00
             437.00,547.00 437.00,764.00 437.00,764.00
             437.00,764.00 568.00,764.00 568.00,764.00
             575.56,764.09 582.91,766.62 590.00,769.08
             593.89,770.43 597.86,773.04 602.00,772.00
             591.08,764.69 580.98,757.14 569.00,751.48
             537.11,736.41 511.46,734.60 477.00,735.00
             472.19,735.06 461.88,738.11 459.60,732.85
             458.88,731.21 459.00,727.85 459.00,726.00
             459.00,726.00 459.00,547.00 459.00,547.00 Z
           M 613.00,773.00
           C 627.26,769.66 632.15,764.03 649.00,764.00
             649.00,764.00 739.00,764.00 739.00,764.00
             739.00,764.00 765.00,764.00 765.00,764.00
             767.41,764.00 773.60,764.40 775.40,762.98
             777.38,761.41 777.00,757.30 777.00,755.00
             777.00,755.00 777.00,595.00 777.00,595.00
             777.00,595.00 777.00,561.00 777.00,561.00
             777.00,558.34 777.48,550.49 775.98,548.60
             774.41,546.62 770.30,547.00 768.00,547.00
             768.00,547.00 754.00,547.00 754.00,547.00
             754.00,547.00 754.00,736.00 754.00,736.00
             754.00,736.00 736.00,735.00 736.00,735.00
             736.00,735.00 715.00,735.00 715.00,735.00
             691.55,735.04 663.91,742.32 643.00,752.75
             633.89,757.30 619.17,765.10 613.00,773.00 Z
           M 488.00,563.00
           C 510.18,563.00 533.04,567.07 554.00,574.34
             560.82,576.71 574.08,582.08 579.00,587.00
             573.01,585.29 567.71,581.87 562.00,579.43
             552.07,575.18 540.57,571.46 530.00,569.21
             530.00,569.21 503.00,565.17 503.00,565.17
             497.15,564.61 493.62,565.87 488.00,563.00 Z
           M 635.00,586.00
           C 658.85,573.40 673.26,568.58 700.00,564.87
             705.92,564.05 720.95,562.00 726.00,564.00
             701.47,565.99 686.78,567.56 663.00,575.19
             657.10,577.09 650.53,579.96 645.00,582.76
             641.65,584.45 638.81,586.78 635.00,586.00 Z
           M 436.00,571.00
           C 436.00,571.00 415.00,571.00 415.00,571.00
             415.00,571.00 415.00,785.00 415.00,785.00
             415.00,785.00 563.00,785.00 563.00,785.00
             566.49,785.01 569.72,784.83 573.00,786.28
             573.00,786.28 590.00,797.91 590.00,797.91
             594.14,799.70 611.52,799.07 617.00,799.00
             627.54,798.85 628.80,793.41 637.00,788.48
             642.59,785.11 645.73,785.01 652.00,785.00
             652.00,785.00 799.00,785.00 799.00,785.00
             799.00,785.00 799.00,571.00 799.00,571.00
             799.00,571.00 778.00,571.00 778.00,571.00
             778.00,571.00 778.00,720.00 778.00,720.00
             778.00,720.00 778.00,750.00 778.00,750.00
             778.00,752.90 778.45,760.47 776.98,762.69
             775.14,765.45 770.91,764.99 768.00,765.00
             768.00,765.00 651.00,765.00 651.00,765.00
             640.35,765.02 632.93,767.16 623.00,770.69
             618.14,772.42 610.98,776.23 606.00,775.64
             602.75,775.25 594.70,771.91 591.00,770.67
             580.23,767.04 573.57,765.02 562.00,765.00
             562.00,765.00 436.00,765.00 436.00,765.00
             436.00,765.00 436.00,571.00 436.00,571.00 Z
           M 187.00,578.42
           C 195.11,577.43 205.25,579.12 213.00,581.67
             221.14,584.35 228.42,588.39 234.99,593.92
             244.27,601.75 250.55,611.52 254.33,623.00
             265.21,656.03 251.29,688.83 220.00,704.24
             212.41,707.98 199.45,711.31 191.00,710.68
             175.18,709.49 161.27,705.20 149.00,694.70
             116.36,666.76 119.05,616.60 153.00,590.90
             164.21,582.41 173.56,580.45 187.00,578.42 Z
           M 183.00,580.29
           C 171.13,582.25 160.34,586.54 151.00,594.32
             122.86,617.76 119.81,660.76 144.17,688.00
             150.57,695.16 156.38,699.17 165.00,703.22
             172.01,706.51 182.25,708.91 190.00,709.00
             214.51,709.28 236.39,697.79 248.49,676.00
             266.81,643.01 251.71,597.62 216.00,584.06
             205.42,580.05 194.19,579.23 183.00,580.29 Z
           M 488.00,594.00
           C 509.48,594.02 534.88,598.88 555.00,606.32
             561.20,608.61 574.60,613.64 579.00,618.00
             573.44,616.89 563.03,611.35 557.00,608.86
             547.75,605.05 532.88,600.82 523.00,599.08
             523.00,599.08 500.00,596.17 500.00,596.17
             495.15,595.71 492.11,597.03 488.00,594.00 Z
           M 636.00,617.00
           C 656.86,605.13 680.20,598.21 704.00,595.83
             709.35,595.30 721.52,593.23 726.00,595.00
             726.00,595.00 703.00,597.28 703.00,597.28
             691.24,598.71 678.24,601.59 667.00,605.33
             667.00,605.33 647.00,613.26 647.00,613.26
             643.49,614.96 639.98,617.54 636.00,617.00 Z
           M 488.00,625.00
           C 488.00,625.00 499.00,625.91 499.00,625.91
             518.10,627.25 537.00,630.61 555.00,637.32
             561.09,639.59 574.18,645.17 579.00,649.00
             579.00,649.00 547.00,636.35 547.00,636.35
             529.34,630.47 506.59,627.00 488.00,627.00
             488.00,627.00 488.00,625.00 488.00,625.00 Z
           M 636.00,650.00
           C 639.42,644.30 650.82,640.69 657.00,638.20
             676.14,630.49 704.35,625.45 725.00,625.00
             725.00,625.00 725.00,627.00 725.00,627.00
             705.89,627.00 684.08,630.59 666.00,636.86
             666.00,636.86 636.00,650.00 636.00,650.00 Z
           M 345.00,645.00
           C 345.00,645.00 375.00,645.00 375.00,645.00
             375.00,645.00 391.00,646.00 391.00,646.00
             391.00,646.00 361.00,646.00 361.00,646.00
             361.00,646.00 345.00,645.00 345.00,645.00 Z
           M 488.00,657.00
           C 511.14,657.00 534.28,660.93 556.00,669.05
             562.72,671.56 574.39,675.77 579.00,681.00
             579.00,681.00 561.00,673.01 561.00,673.01
             549.15,668.08 541.50,665.67 529.00,662.88
             529.00,662.88 505.00,659.09 505.00,659.09
             499.88,658.74 492.80,658.92 488.00,657.00 Z
           M 636.00,681.00
           C 640.37,676.04 647.03,673.72 653.00,671.15
             669.59,664.02 684.20,660.86 702.00,658.21
             707.75,657.64 720.94,655.99 726.00,658.21
             726.00,658.21 715.00,658.91 715.00,658.91
             698.35,660.06 681.88,662.61 666.00,668.08
             666.00,668.08 648.00,675.31 648.00,675.31
             648.00,675.31 636.00,681.00 636.00,681.00 Z
           M 488.00,688.00
           C 488.00,688.00 500.00,688.91 500.00,688.91
             519.64,690.28 538.56,693.66 557.00,700.81
             563.00,703.13 574.69,707.69 579.00,712.00
             579.00,712.00 547.00,699.08 547.00,699.08
             528.14,692.61 507.84,690.00 488.00,690.00
             488.00,690.00 488.00,688.00 488.00,688.00 Z
           M 636.00,711.00
           C 663.63,695.27 694.57,689.44 726.00,688.00
             726.00,688.00 726.00,690.00 726.00,690.00
             707.64,690.00 684.38,693.12 667.00,699.08
             667.00,699.08 647.00,707.26 647.00,707.26
             643.49,708.96 639.98,711.54 636.00,711.00 Z" />
</svg>
