<?xml version="1.0" encoding="UTF-8" standalone="no"?>
<!DOCTYPE svg PUBLIC "-//W3C//DTD SVG 20010904//EN"
              "http://www.w3.org/TR/2001/REC-SVG-20010904/DTD/svg10.dtd">

<svg xmlns="http://www.w3.org/2000/svg"
     width="100" height="100" fill="none" stroke="#7fa573" stroke-width="10"
     viewBox="0 0 992 992">
  <path d="M 441.00,81.00
           C 446.68,61.12 468.97,48.26 489.00,49.04
             495.20,49.28 501.27,50.89 507.00,53.21
             515.87,56.80 525.43,63.89 529.00,73.00
             539.00,70.17 543.05,66.14 555.00,66.00
             571.84,65.81 586.45,73.03 596.23,87.00
             599.58,91.79 601.74,97.34 603.10,103.00
             603.87,106.17 603.75,110.03 606.31,112.30
             608.63,114.35 615.71,115.73 623.00,120.77
             636.81,130.33 644.61,145.24 644.99,162.00
             645.44,182.19 634.83,201.25 616.00,209.56
             612.18,211.25 608.18,212.60 604.00,212.91
             601.13,213.12 596.91,212.46 594.72,214.60
             594.72,214.60 588.12,229.00 588.12,229.00
             582.56,238.74 574.43,246.30 564.00,250.55
             556.69,253.52 548.82,254.70 541.00,253.57
             537.26,253.03 529.93,250.09 527.01,252.46
             527.01,252.46 517.63,265.00 517.63,265.00
             517.63,265.00 495.02,297.00 495.02,297.00
             491.62,301.91 487.09,310.15 482.00,313.00
             482.00,313.00 481.00,298.00 481.00,298.00
             481.00,298.00 481.00,289.00 481.00,289.00
             481.00,289.00 479.00,254.00 479.00,254.00
             474.53,255.92 470.73,257.93 466.00,259.25
             450.78,263.53 434.48,259.98 422.00,250.32
             416.88,246.35 413.21,241.61 410.04,236.00
             408.45,233.18 406.65,227.56 403.79,226.09
             402.22,225.44 391.63,226.03 389.00,226.09
             356.88,225.62 335.76,189.95 347.45,161.00
             350.15,154.31 353.57,149.00 359.00,144.18
             361.62,141.86 368.70,137.94 369.57,135.67
             371.17,132.90 368.98,126.63 369.57,122.00
             371.41,94.20 391.06,75.68 419.00,76.00
             428.97,76.12 432.31,78.97 441.00,81.00 Z
           M 529.00,75.00
           C 527.00,70.32 524.62,67.58 520.99,64.04
             501.06,44.60 465.85,46.65 448.90,69.00
             445.36,73.66 443.09,77.20 442.00,83.00
             430.83,79.99 424.59,75.65 412.00,77.29
             383.46,81.00 363.80,109.11 373.00,137.00
             359.40,143.07 348.48,154.86 346.15,170.00
             346.15,170.00 346.15,181.00 346.15,181.00
             346.13,191.85 350.82,202.97 358.30,210.83
             371.01,224.20 388.65,227.60 406.00,223.00
             408.77,230.98 411.40,237.57 417.18,243.99
             433.76,262.38 458.33,263.76 479.00,252.00
             479.00,252.00 481.09,277.00 481.09,277.00
             481.09,277.00 483.00,310.00 483.00,310.00
             488.15,305.64 491.55,299.47 495.42,294.00
             495.42,294.00 514.58,267.00 514.58,267.00
             516.87,263.79 524.49,252.32 527.17,250.78
             530.00,249.16 536.50,251.50 540.00,252.00
             548.10,253.14 554.18,252.72 562.00,249.91
             572.75,246.04 581.57,237.85 587.13,228.00
             587.13,228.00 593.70,213.60 593.70,213.60
             595.69,211.71 606.20,211.71 611.00,210.23
             622.70,206.62 634.81,195.23 639.54,184.00
             647.73,164.55 643.55,139.28 627.00,125.32
             623.30,122.21 618.45,119.33 614.00,117.43
             611.75,116.47 606.03,114.73 604.60,113.28
             602.83,111.48 602.55,106.58 601.99,104.00
             600.80,98.55 598.93,93.71 595.91,89.00
             587.43,75.75 573.66,67.99 558.00,67.09
             547.76,66.51 538.13,71.07 529.00,75.00 Z
           M 270.00,329.00
           C 270.00,329.00 228.00,294.20 228.00,294.20
             219.61,287.39 217.19,282.02 206.00,282.00
             206.00,282.00 123.00,282.00 123.00,282.00
             101.19,281.74 87.03,269.23 87.00,247.00
             87.00,247.00 87.00,167.00 87.00,167.00
             87.03,147.05 100.07,134.03 120.00,134.00
             120.00,134.00 280.00,134.00 280.00,134.00
             300.48,134.03 311.97,148.23 312.00,168.00
             312.00,168.00 312.00,234.00 312.00,234.00
             312.00,245.11 313.59,257.22 307.17,267.00
             297.64,281.50 284.48,282.00 269.00,282.00
             269.00,282.00 270.00,329.00 270.00,329.00 Z
           M 269.00,327.00
           C 269.00,327.00 269.00,310.00 269.00,310.00
             269.00,310.00 268.00,294.00 268.00,294.00
             268.00,290.87 267.37,283.83 269.60,281.60
             271.80,279.40 277.96,280.03 281.00,280.00
             301.15,279.76 310.97,264.75 311.00,246.00
             311.00,246.00 311.00,168.00 311.00,168.00
             310.75,147.26 298.73,135.03 278.00,135.00
             278.00,135.00 122.00,135.00 122.00,135.00
             99.63,135.03 88.03,148.02 88.00,170.00
             88.00,170.00 88.00,246.00 88.00,246.00
             88.03,265.78 99.50,279.97 120.00,280.00
             120.00,280.00 205.00,280.00 205.00,280.00
             216.75,280.02 220.36,286.06 229.00,293.42
             229.00,293.42 269.00,327.00 269.00,327.00 Z
           M 460.00,152.74
           C 473.62,152.88 472.31,169.50 462.00,170.73
             452.08,171.92 446.91,156.53 460.00,152.74 Z
           M 494.00,152.67
           C 508.82,153.56 504.86,172.64 493.00,170.57
             484.28,169.04 481.62,155.41 494.00,152.67 Z
           M 459.02,154.43
           C 447.68,159.13 455.35,171.19 462.98,169.53
             468.97,168.22 470.70,160.33 466.69,156.31
             464.29,153.92 462.06,154.07 459.02,154.43 Z
           M 492.04,154.43
           C 482.85,158.45 487.53,171.06 496.00,169.34
             501.76,168.16 504.30,160.96 500.30,156.57
             497.92,153.96 495.22,154.04 492.04,154.43 Z
           M 524.04,153.74
           C 527.39,152.93 530.69,152.55 533.61,154.89
             538.94,159.17 537.29,167.86 530.98,170.26
             521.55,173.84 513.35,159.97 524.04,153.74 Z
           M 526.00,154.33
           C 515.17,158.51 520.97,170.88 529.00,169.47
             537.47,167.97 539.27,153.47 526.00,154.33 Z
           M 835.00,318.00
           C 818.29,352.25 775.69,365.66 743.00,345.53
             736.07,341.26 730.00,335.39 725.02,329.00
             723.14,326.59 719.00,319.22 716.79,318.35
             714.39,317.39 708.59,319.58 706.00,320.27
             701.56,321.44 691.59,322.78 687.00,322.96
             680.29,323.22 672.29,321.59 666.00,319.31
             637.20,308.82 622.77,280.14 632.03,251.00
             636.77,236.07 647.62,223.79 662.00,217.44
             662.00,217.44 680.69,211.41 680.69,211.41
             683.06,209.37 683.09,205.87 683.61,203.00
             684.59,197.70 685.47,193.92 687.78,189.00
             696.51,170.40 714.34,156.47 735.00,154.17
             747.99,152.72 760.53,154.82 772.00,161.34
             772.00,161.34 789.00,173.28 789.00,173.28
             791.50,173.71 798.25,169.43 801.00,168.18
             808.20,164.90 816.07,163.09 824.00,163.00
             846.50,162.75 865.66,174.86 875.73,195.00
             877.93,199.39 879.23,203.19 880.19,208.00
             880.69,210.49 880.86,214.48 882.60,216.30
             882.60,216.30 897.00,223.46 897.00,223.46
             907.32,229.75 914.25,238.65 918.30,250.00
             920.89,257.23 922.17,264.32 921.99,272.00
             921.87,276.78 920.66,281.44 919.28,286.00
             908.58,321.47 866.26,332.46 835.00,318.00 Z
           M 719.00,315.00
           C 721.08,322.30 725.81,328.59 731.04,334.00
             750.92,354.57 781.95,360.04 807.00,345.54
             814.18,341.38 820.26,336.43 825.54,330.00
             827.69,327.37 832.58,319.33 835.18,318.35
             837.67,317.40 842.41,319.54 845.00,320.26
             850.09,321.67 857.74,322.94 863.00,323.00
             885.62,323.26 907.52,311.50 916.54,290.00
             920.10,281.50 920.10,274.95 920.00,266.00
             919.81,249.85 911.15,234.56 898.00,225.44
             890.30,220.10 883.32,219.91 881.01,216.58
             879.84,214.91 878.75,207.54 878.10,205.00
             876.65,199.30 873.53,192.87 870.25,188.00
             857.38,168.85 833.14,160.52 811.00,165.90
             800.00,168.57 793.03,174.31 791.00,174.89
             787.15,175.99 784.60,172.45 782.00,170.17
             777.77,166.46 772.10,162.70 767.00,160.32
             748.58,151.73 728.06,153.61 711.00,164.44
             700.47,171.13 691.91,181.20 687.70,193.00
             687.70,193.00 682.40,212.27 682.40,212.27
             680.75,213.90 676.32,214.56 674.00,215.13
             668.75,216.41 663.81,217.75 659.00,220.32
             639.18,230.94 630.75,249.34 631.00,271.00
             631.34,299.36 656.42,320.96 684.00,321.00
             703.25,321.03 702.20,318.83 719.00,315.00 Z
           M 130.00,176.00
           C 130.00,176.00 270.00,176.00 270.00,176.00
             270.00,176.00 270.00,178.00 270.00,178.00
             270.00,178.00 130.00,178.00 130.00,178.00
             130.00,178.00 130.00,176.00 130.00,176.00 Z
           M 130.00,207.00
           C 130.00,207.00 227.00,207.00 227.00,207.00
             227.00,207.00 255.00,207.00 255.00,207.00
             255.00,207.00 270.00,208.00 270.00,208.00
             270.00,208.00 173.00,208.00 173.00,208.00
             173.00,208.00 145.00,208.00 145.00,208.00
             145.00,208.00 130.00,207.00 130.00,207.00 Z
           M 130.00,237.00
           C 130.00,237.00 188.00,237.00 188.00,237.00
             188.00,237.00 215.00,238.00 215.00,238.00
             215.00,238.00 184.96,238.85 184.96,238.85
             184.96,238.85 130.00,238.85 130.00,238.85
             130.00,238.85 130.00,237.00 130.00,237.00 Z
           M 690.00,346.56
           C 694.35,345.80 699.94,345.42 704.00,347.45
             722.39,356.67 714.70,385.85 694.00,383.80
             674.56,381.88 669.19,353.83 690.00,346.56 Z
           M 692.00,347.39
           C 688.45,348.45 685.90,349.55 683.19,352.21
             670.21,364.90 682.62,386.16 701.00,381.58
             711.10,379.07 716.04,365.98 711.55,357.00
             707.58,349.09 700.35,346.29 692.00,347.39 Z
           M 215.00,586.00
           C 215.00,586.00 167.00,561.75 167.00,561.75
             167.00,561.75 150.00,561.75 150.00,561.75
             134.81,560.38 122.81,557.61 109.00,550.89
             96.20,544.66 83.88,535.13 75.00,524.00
             65.01,511.46 59.40,500.34 55.00,485.00
             51.84,473.98 51.52,465.32 51.96,454.00
             53.92,404.13 89.81,364.05 139.00,355.92
             139.00,355.92 156.00,354.01 156.00,354.01
             175.67,354.01 196.60,361.13 213.00,371.70
             226.41,380.34 238.03,393.13 245.85,407.00
             253.84,421.18 260.60,444.66 259.96,461.00
             259.02,485.18 249.63,508.85 233.71,527.00
             229.00,532.37 223.73,537.25 218.00,541.52
             215.38,543.48 210.63,546.05 209.45,549.09
             208.30,552.05 210.13,557.86 210.79,561.00
             212.22,567.78 214.86,579.51 215.00,586.00 Z
           M 214.00,584.00
           C 214.00,584.00 209.00,559.00 209.00,559.00
             208.42,556.09 206.86,550.77 208.11,548.09
             209.47,545.19 215.28,541.85 218.00,539.84
             223.07,536.10 227.62,531.61 231.91,527.00
             246.32,511.51 257.75,486.39 258.00,465.00
             258.27,441.73 254.62,423.00 241.95,403.00
             231.51,386.52 220.94,377.31 204.00,367.86
             186.08,357.87 170.08,355.77 150.00,356.00
             139.64,356.12 122.36,360.38 113.00,364.78
             98.93,371.40 86.28,381.05 76.32,393.00
             42.33,433.80 45.74,495.21 84.00,531.96
             91.72,539.38 103.15,547.17 113.00,551.42
             124.45,556.35 136.44,559.98 149.00,560.00
             149.00,560.00 162.00,560.00 162.00,560.00
             169.55,560.10 172.44,562.47 179.00,565.75
             179.00,565.75 214.00,584.00 214.00,584.00 Z
           M 365.00,518.00
           C 365.00,518.00 342.00,518.00 342.00,518.00
             326.93,517.98 313.16,510.41 308.93,495.00
             306.56,486.36 307.08,469.41 307.24,459.97
             307.24,459.97 308.00,411.00 308.00,411.00
             308.00,411.00 307.04,400.00 307.04,400.00
             306.46,386.60 308.93,374.11 320.00,365.39
             322.49,363.43 326.01,361.60 329.00,360.55
             333.45,358.98 336.41,359.01 341.00,359.00
             341.00,359.00 499.00,359.00 499.00,359.00
             503.54,359.06 505.72,359.41 510.00,361.07
             538.47,372.07 530.00,407.42 530.00,431.00
             530.00,431.00 591.00,431.50 591.00,431.50
             598.61,431.55 616.60,430.96 623.00,433.10
             638.90,438.43 645.98,452.05 646.00,468.00
             646.00,468.00 646.00,557.00 646.00,557.00
             645.97,579.13 633.89,593.96 611.00,594.00
             611.00,594.00 596.00,594.00 596.00,594.00
             589.40,594.13 588.13,595.40 588.13,602.00
             588.13,602.00 588.13,625.00 588.13,625.00
             587.91,634.52 587.74,638.41 589.00,648.00
             582.30,645.72 577.27,639.96 572.00,635.42
             572.00,635.42 540.00,607.73 540.00,607.73
             536.21,604.49 527.14,595.75 523.00,594.51
             521.00,593.91 518.12,594.00 516.00,594.00
             516.00,594.00 471.00,594.00 471.00,594.00
             454.00,594.00 439.52,595.27 429.53,578.00
             424.14,568.68 425.00,561.19 425.00,551.00
             425.00,551.00 425.00,518.00 425.00,518.00
             418.25,520.88 415.34,525.01 410.00,529.72
             410.00,529.72 380.00,556.42 380.00,556.42
             374.76,560.97 371.53,565.21 365.00,568.00
             365.00,568.00 365.00,518.00 365.00,518.00 Z
           M 367.00,566.00
           C 367.00,566.00 408.00,529.72 408.00,529.72
             416.06,522.65 418.84,517.02 430.00,517.00
             430.00,517.00 497.00,517.00 497.00,517.00
             516.53,516.77 528.97,503.25 529.00,484.00
             529.00,484.00 529.00,394.00 529.00,394.00
             528.97,372.93 516.07,360.03 495.00,360.00
             495.00,360.00 343.00,360.00 343.00,360.00
             322.05,360.03 309.03,371.69 309.00,393.00
             309.00,393.00 309.00,484.00 309.00,484.00
             309.05,495.12 312.67,504.53 322.00,511.21
             333.40,519.37 353.20,517.00 367.00,517.00
             367.00,517.00 367.00,566.00 367.00,566.00 Z
           M 655.00,391.65
           C 660.51,390.56 664.90,391.39 668.57,396.05
             673.53,402.37 670.82,412.88 663.00,415.35
             647.79,420.15 638.29,398.72 655.00,391.65 Z
           M 657.00,392.38
           C 641.89,396.55 646.23,416.24 660.00,414.75
             669.59,413.71 672.63,402.60 667.35,396.22
             664.61,392.91 661.04,392.23 657.00,392.38 Z
           M 354.00,405.00
           C 354.00,405.00 444.00,405.00 444.00,405.00
             444.00,405.00 469.00,405.00 469.00,405.00
             469.00,405.00 483.00,406.00 483.00,406.00
             483.00,406.00 393.00,406.00 393.00,406.00
             393.00,406.00 368.00,406.00 368.00,406.00
             368.00,406.00 354.00,405.00 354.00,405.00 Z
           M 751.00,618.00
           C 751.00,618.00 751.00,583.00 751.00,583.00
             751.00,579.87 751.64,572.83 749.40,570.60
             747.14,568.33 740.17,569.03 737.00,569.00
             718.71,568.78 708.20,553.06 708.00,536.00
             708.00,536.00 708.00,471.00 708.00,471.00
             708.00,459.62 706.50,447.26 712.36,437.00
             720.18,423.31 733.58,421.02 748.00,421.08
             748.00,421.08 817.13,421.08 817.13,421.08
             817.13,421.08 843.28,421.08 843.28,421.08
             843.28,421.08 899.00,421.08 899.00,421.08
             905.45,421.01 914.12,421.83 920.00,424.52
             933.48,430.68 937.98,444.24 938.00,458.00
             938.00,458.00 938.00,519.00 938.00,519.00
             938.00,529.49 939.18,542.43 934.67,552.00
             927.79,566.61 914.82,569.98 900.00,570.00
             900.00,570.00 814.00,570.00 814.00,570.00
             811.91,570.00 808.94,569.88 807.00,570.60
             804.10,571.67 794.94,580.34 792.00,582.95
             792.00,582.95 767.00,605.17 767.00,605.17
             762.00,609.67 757.14,615.12 751.00,618.00 Z
           M 752.00,616.00
           C 752.00,616.00 791.00,582.07 791.00,582.07
             794.65,578.76 803.93,569.73 808.00,568.51
             810.00,567.91 812.88,568.00 815.00,568.00
             815.00,568.00 905.00,568.00 905.00,568.00
             923.82,567.97 935.97,557.17 936.00,538.00
             936.00,538.00 936.00,507.00 936.00,507.00
             936.00,507.00 936.67,494.00 936.67,494.00
             936.67,494.00 936.00,470.00 936.00,470.00
             936.07,463.81 936.67,450.55 935.24,445.00
             931.34,429.86 919.93,423.02 905.00,423.00
             905.00,423.00 741.00,423.00 741.00,423.00
             736.42,423.01 734.47,422.90 730.00,424.36
             707.56,431.68 708.83,453.73 709.03,473.00
             709.03,473.00 709.03,502.00 709.03,502.00
             709.03,502.00 709.91,513.00 709.91,513.00
             708.96,529.72 705.80,552.01 722.00,562.90
             731.69,569.41 741.00,568.00 752.00,568.00
             752.00,568.00 752.00,616.00 752.00,616.00 Z
           M 587.00,646.00
           C 587.00,646.00 587.00,601.00 587.00,601.00
             587.15,592.85 589.78,593.01 597.00,593.00
             611.40,592.97 623.57,594.90 634.96,583.91
             639.38,579.65 641.63,575.92 643.10,570.00
             645.57,560.09 644.01,558.42 644.39,549.00
             644.39,549.00 644.39,509.00 644.39,509.00
             644.39,509.00 644.39,489.00 644.39,489.00
             644.39,489.00 644.39,466.58 644.39,466.58
             644.40,462.82 643.71,456.43 642.44,453.00
             637.64,440.01 625.28,433.06 612.00,433.00
             612.00,433.00 530.00,433.00 530.00,433.00
             530.00,433.00 531.00,456.00 531.00,456.00
             531.00,456.00 530.18,473.09 530.18,473.09
             530.48,480.92 531.25,487.12 528.78,495.00
             524.44,508.87 511.26,517.93 497.00,518.00
             497.00,518.00 444.00,518.00 444.00,518.00
             440.61,518.00 429.00,517.10 427.02,519.60
             425.77,521.19 426.00,525.01 426.00,527.00
             426.00,527.00 426.00,556.00 426.00,556.00
             426.02,560.70 426.53,565.45 427.76,570.00
             431.62,584.42 444.45,592.83 459.00,593.00
             459.00,593.00 516.00,593.00 516.00,593.00
             528.92,593.02 532.54,599.62 542.00,607.73
             542.00,607.73 587.00,646.00 587.00,646.00 Z
           M 354.00,435.00
           C 354.00,435.00 483.00,435.00 483.00,435.00
             483.00,435.00 483.00,437.00 483.00,437.00
             483.00,437.00 354.00,437.00 354.00,437.00
             354.00,437.00 354.00,435.00 354.00,435.00 Z
           M 118.04,451.65
           C 131.51,449.17 133.51,465.60 123.98,469.10
             113.63,472.89 106.04,457.13 118.04,451.65 Z
           M 120.00,452.45
           C 108.40,455.42 112.74,469.75 122.00,468.25
             130.56,466.85 131.96,452.92 120.00,452.45 Z
           M 151.02,451.74
           C 164.93,448.70 167.71,465.46 157.00,469.07
             147.98,472.11 138.68,458.53 151.02,451.74 Z
           M 153.00,452.47
           C 150.01,453.61 147.76,454.72 146.61,458.02
             144.69,463.54 150.25,469.36 155.98,468.09
             164.31,466.26 164.68,451.93 153.00,452.47 Z
           M 185.02,451.66
           C 198.72,449.44 200.90,466.25 190.00,469.16
             180.15,471.78 172.47,457.14 185.02,451.66 Z
           M 187.00,452.33
           C 174.33,455.34 180.24,469.24 189.00,468.13
             197.51,467.04 198.87,453.45 187.00,452.33 Z
           M 751.00,464.00
           C 751.00,464.00 784.00,464.00 784.00,464.00
             784.00,464.00 851.00,464.00 851.00,464.00
             851.00,464.00 880.00,464.00 880.00,464.00
             880.00,464.00 895.00,465.00 895.00,465.00
             895.00,465.00 795.00,465.00 795.00,465.00
             795.00,465.00 766.00,465.00 766.00,465.00
             766.00,465.00 751.00,464.00 751.00,464.00 Z
           M 354.00,466.00
           C 354.00,466.00 407.00,466.00 407.00,466.00
             407.00,466.00 432.00,467.00 432.00,467.00
             432.00,467.00 379.00,467.00 379.00,467.00
             379.00,467.00 354.00,466.00 354.00,466.00 Z
           M 751.00,494.00
           C 751.00,494.00 851.00,494.00 851.00,494.00
             851.00,494.00 880.00,494.00 880.00,494.00
             880.00,494.00 895.00,495.00 895.00,495.00
             895.00,495.00 795.00,495.00 795.00,495.00
             795.00,495.00 766.00,495.00 766.00,495.00
             766.00,495.00 751.00,494.00 751.00,494.00 Z
           M 751.00,524.00
           C 751.00,524.00 845.00,524.00 845.00,524.00
             845.00,524.00 845.00,526.00 845.00,526.00
             845.00,526.00 751.00,526.00 751.00,526.00
             751.00,526.00 751.00,524.00 751.00,524.00 Z
           M 289.00,592.65
           C 293.67,591.70 298.09,591.75 301.78,595.28
             308.54,601.74 305.89,613.54 297.00,616.35
             282.29,620.99 272.19,599.77 289.00,592.65 Z
           M 291.00,593.41
           C 287.25,594.59 284.27,596.09 282.74,600.02
             279.61,608.00 286.32,617.12 295.00,615.43
             308.29,612.84 307.04,591.96 291.00,593.41 Z
           M 252.00,626.64
           C 256.50,625.73 261.75,625.54 266.00,627.57
             283.90,636.12 276.74,665.85 256.00,663.80
             237.09,661.93 231.00,634.56 252.00,626.64 Z
           M 254.00,627.39
           C 248.18,629.14 243.66,632.13 241.34,638.00
             236.34,650.63 247.31,665.13 261.00,662.31
             274.57,659.50 279.71,642.29 270.47,632.33
             266.03,627.54 260.17,626.58 254.00,627.39 Z
           M 705.00,655.00
           C 711.31,656.84 716.58,661.05 722.00,664.67
             722.00,664.67 749.00,682.67 749.00,682.67
             752.21,684.81 759.81,690.47 763.00,691.16
             765.56,691.99 770.84,691.04 774.00,691.16
             794.22,690.77 814.26,694.64 833.00,702.20
             859.47,712.88 887.85,737.22 888.00,768.00
             888.00,768.00 888.00,774.00 888.00,774.00
             887.98,783.77 885.46,793.50 880.54,802.00
             875.57,810.59 868.57,818.33 861.00,824.72
             819.46,859.71 750.06,862.05 703.00,837.30
             677.49,823.88 655.66,801.52 656.00,771.00
             656.27,747.42 670.61,728.49 689.00,715.16
             694.23,711.36 699.21,708.96 705.00,706.23
             707.10,705.24 710.74,703.88 711.81,701.73
             713.02,699.28 710.77,691.01 710.25,688.00
             710.25,688.00 705.00,655.00 705.00,655.00 Z
           M 707.00,656.00
           C 705.99,659.56 707.15,663.39 707.75,667.00
             707.75,667.00 711.92,690.00 711.92,690.00
             712.50,693.37 714.63,699.87 712.96,702.78
             711.53,705.28 707.54,706.58 705.00,707.78
             699.52,710.38 692.88,713.93 688.00,717.49
             668.95,731.40 659.00,747.52 657.51,771.00
             655.59,801.21 681.30,824.90 706.00,837.25
             739.69,854.09 784.23,856.83 820.00,845.26
             827.76,842.74 833.77,839.87 841.00,836.25
             864.44,824.50 886.68,801.78 887.00,774.00
             887.44,734.66 856.28,711.09 822.00,699.67
             810.72,695.91 797.93,693.02 786.00,693.00
             786.00,693.00 770.00,693.00 770.00,693.00
             758.49,692.98 754.32,687.88 745.00,681.67
             745.00,681.67 707.00,656.00 707.00,656.00 Z
           M 237.00,694.00
           C 252.84,687.70 267.94,683.69 285.00,687.51
             314.68,694.16 332.54,723.74 326.55,753.00
             323.37,768.54 313.07,782.36 299.00,789.74
             295.07,791.80 291.29,793.66 287.00,794.84
             284.64,795.49 280.28,796.06 278.60,797.73
             276.75,799.57 276.86,804.34 276.39,807.00
             275.33,812.93 273.73,818.59 271.03,824.00
             262.22,841.61 242.18,856.76 222.00,857.00
             222.00,857.00 212.00,857.00 212.00,857.00
             203.20,856.89 192.28,853.15 185.00,848.25
             182.17,846.35 174.35,839.14 172.00,838.95
             169.63,838.77 162.68,843.82 160.00,845.22
             153.41,848.66 145.45,850.91 138.00,851.00
             116.05,851.25 97.01,842.39 85.45,823.00
             82.74,818.44 80.87,814.10 79.43,809.00
             78.71,806.48 78.15,802.39 76.42,800.51
             74.85,798.80 69.42,796.92 67.00,795.74
             61.09,792.87 55.72,789.63 51.04,784.96
             28.95,762.94 29.97,725.97 54.04,705.81
             68.59,693.61 80.76,691.79 99.00,692.00
             103.86,692.06 107.31,692.73 112.00,693.89
             114.14,694.42 117.56,695.78 119.62,694.80
             121.76,693.78 126.03,686.31 127.76,684.00
             131.79,678.60 138.33,672.37 144.00,668.70
             168.44,652.87 199.71,654.13 222.00,673.30
             228.10,678.54 234.55,686.26 237.00,694.00 Z
           M 79.00,798.00
           C 80.30,826.31 106.09,849.35 134.00,849.99
             142.33,850.17 151.60,848.06 159.00,844.21
             161.73,842.80 169.84,836.90 172.00,837.01
             174.36,837.12 182.75,845.20 186.00,847.30
             194.40,852.74 204.99,855.88 215.00,856.00
             239.71,856.29 260.38,843.86 270.69,821.00
             273.15,815.54 274.28,810.86 275.25,805.00
             275.64,802.60 275.88,798.45 277.60,796.72
             279.30,795.01 283.63,794.25 286.00,793.57
             290.80,792.19 294.65,790.61 299.00,788.13
             312.96,780.16 323.60,766.16 325.85,750.00
             325.85,750.00 325.85,738.00 325.85,738.00
             325.75,716.69 309.99,697.11 290.00,690.52
             280.64,687.43 276.51,687.99 267.00,688.00
             260.05,688.01 255.61,688.82 249.00,691.08
             246.46,691.94 240.66,694.65 238.21,694.08
             235.33,693.40 231.95,686.55 230.08,684.00
             225.61,677.94 219.43,672.38 213.00,668.46
             179.58,648.11 136.88,662.44 121.00,698.00
             99.57,690.99 78.20,690.28 59.00,703.72
             53.30,707.71 49.52,711.17 45.60,717.00
             28.42,742.53 36.22,776.81 63.00,792.13
             68.41,795.22 72.73,797.43 79.00,798.00 Z
           M 430.00,728.00
           C 436.69,730.62 442.64,737.05 448.00,741.84
             448.00,741.84 472.00,763.07 472.00,763.07
             475.20,765.98 484.65,774.98 488.00,776.26
             490.28,777.13 493.55,777.00 496.00,777.00
             496.00,777.00 575.00,777.00 575.00,777.00
             596.14,777.25 606.97,793.19 607.00,813.00
             607.00,813.00 607.00,901.00 607.00,901.00
             606.89,923.81 594.25,937.96 571.00,938.00
             571.00,938.00 413.00,938.00 413.00,938.00
             391.48,937.97 376.04,926.70 376.00,904.00
             376.00,904.00 376.00,811.00 376.00,811.00
             376.02,799.78 379.65,789.80 389.00,782.93
             400.13,774.75 416.72,777.00 430.00,777.00
             430.00,777.00 430.00,728.00 430.00,728.00 Z
           M 431.90,730.00
           C 429.97,735.15 431.51,743.53 431.90,749.00
             432.02,753.39 430.61,754.39 431.17,763.68
             431.71,772.84 434.20,777.81 424.00,778.00
             424.00,778.00 409.00,778.00 409.00,778.00
             404.77,778.05 402.06,778.41 398.00,779.75
             386.11,783.68 378.48,794.77 377.04,807.00
             377.04,807.00 377.04,822.00 377.04,822.00
             377.04,822.00 377.04,843.00 377.04,843.00
             377.04,843.00 377.04,902.00 377.04,902.00
             377.06,915.26 382.26,927.65 395.00,933.48
             403.62,937.43 418.29,935.91 428.00,936.10
             428.00,936.10 438.00,936.10 438.00,936.10
             438.00,936.10 492.00,936.10 492.00,936.10
             492.00,936.10 519.09,936.73 519.09,936.73
             519.09,936.73 537.43,936.73 537.43,936.73
             537.43,936.73 561.16,936.73 561.16,936.73
             561.16,936.73 577.00,936.73 577.00,936.73
             589.60,935.08 599.95,927.26 603.78,915.00
             605.05,910.92 604.99,908.17 605.00,904.00
             605.00,904.00 605.00,810.00 605.00,810.00
             604.97,788.54 591.66,778.03 571.00,778.00
             571.00,778.00 495.00,778.00 495.00,778.00
             492.88,778.00 490.00,778.09 488.00,777.49
             483.93,776.27 474.65,767.24 471.00,763.93
             471.00,763.93 431.90,730.00 431.90,730.00 Z
           M 454.04,850.74
           C 457.22,849.97 460.01,849.55 462.89,851.60
             468.73,855.75 468.05,865.18 460.98,867.84
             451.48,871.41 442.06,857.65 454.04,850.74 Z
           M 456.00,851.33
           C 444.33,855.82 450.19,869.15 459.98,866.57
             468.22,864.39 468.53,850.51 456.00,851.33 Z
           M 487.04,851.02
           C 490.87,849.73 494.51,849.53 497.77,852.43
             503.87,857.85 499.58,867.02 493.00,868.34
             485.60,869.82 476.39,858.94 487.04,851.02 Z
           M 489.02,851.43
           C 478.54,855.83 484.17,868.64 493.00,866.67
             499.27,865.27 501.84,856.94 496.61,852.74
             494.23,850.82 491.81,851.08 489.02,851.43 Z
           M 521.09,850.85
           C 524.44,849.91 527.77,849.52 530.79,851.74
             536.59,855.99 535.47,864.48 528.98,867.34
             519.04,871.71 510.11,857.66 521.09,850.85 Z
           M 523.02,851.43
           C 512.20,855.91 517.95,868.69 527.00,866.67
             535.93,864.68 535.61,849.94 523.02,851.43 Z" />
</svg>
