<?xml version="1.0" encoding="UTF-8" standalone="no"?>
<!DOCTYPE svg PUBLIC "-//W3C//DTD SVG 20010904//EN"
              "http://www.w3.org/TR/2001/REC-SVG-20010904/DTD/svg10.dtd">

<svg xmlns="http://www.w3.org/2000/svg"
     width="100" height="100" fill="none" stroke="#7fa573" stroke-width="10"
     viewBox="0 0 1030 1030">
  <path d="M 127.00,278.00
           C 127.00,278.00 127.00,171.00 127.00,171.00
             127.03,148.72 142.72,133.03 165.00,133.00
             165.00,133.00 679.00,133.00 679.00,133.00
             679.00,133.00 868.00,133.00 868.00,133.00
             894.52,133.04 906.96,152.35 907.00,177.00
             907.00,177.00 907.00,513.00 907.00,513.00
             907.00,513.00 905.00,513.00 905.00,513.00
             905.00,513.00 905.00,237.00 905.00,237.00
             905.00,237.00 128.00,237.00 128.00,237.00
             128.00,237.00 128.00,264.00 128.00,264.00
             128.00,264.00 127.00,278.00 127.00,278.00 Z
           M 905.00,236.00
           C 905.00,236.00 905.00,172.00 905.00,172.00
             904.96,148.40 889.23,134.04 866.00,134.00
             866.00,134.00 299.00,134.00 299.00,134.00
             299.00,134.00 167.00,134.00 167.00,134.00
             143.15,134.04 128.04,149.14 128.00,173.00
             128.00,173.00 128.00,236.00 128.00,236.00
             128.00,236.00 905.00,236.00 905.00,236.00 Z
           M 190.00,179.71
           C 204.04,180.00 202.52,197.32 192.00,198.57
             181.60,199.80 175.52,183.42 190.00,179.71 Z
           M 244.00,179.66
           C 259.49,178.97 256.93,200.80 244.00,198.57
             234.36,196.90 232.53,183.77 244.00,179.66 Z
           M 189.02,181.45
           C 178.32,185.82 183.53,198.91 193.00,196.68
             201.51,194.68 201.34,180.24 189.02,181.45 Z
           M 243.04,181.51
           C 234.40,185.53 236.06,195.55 244.00,196.76
             256.46,198.66 257.46,179.36 243.04,181.51 Z
           M 296.04,180.74
           C 299.36,179.93 302.82,179.54 305.78,181.74
             311.93,186.32 309.96,195.58 303.00,198.10
             293.32,201.59 284.36,187.53 296.04,180.74 Z
           M 298.02,181.45
           C 287.32,185.82 292.53,198.91 302.00,196.68
             310.51,194.68 310.34,180.24 298.02,181.45 Z
           M 202.60,305.02
           C 206.41,303.40 210.90,304.00 215.00,304.00
             215.00,304.00 237.00,304.00 237.00,304.00
             237.00,304.00 317.00,304.00 317.00,304.00
             317.00,304.00 341.00,304.00 341.00,304.00
             343.15,304.03 346.52,303.89 348.01,305.74
             349.25,307.28 349.00,311.06 349.00,313.00
             349.00,313.00 349.00,420.00 349.00,420.00
             349.00,420.00 349.00,444.00 349.00,444.00
             348.99,445.82 349.15,448.92 347.98,450.40
             346.41,452.38 342.30,452.00 340.00,452.00
             340.00,452.00 233.00,452.00 233.00,452.00
             233.00,452.00 209.00,452.00 209.00,452.00
             207.18,451.99 204.08,452.15 202.60,450.98
             200.62,449.41 201.00,445.30 201.00,443.00
             201.00,443.00 201.00,343.00 201.00,343.00
             201.00,343.00 201.00,317.00 201.00,317.00
             201.00,313.01 200.20,308.37 202.60,305.02 Z
           M 394.60,305.02
           C 398.41,303.40 402.90,304.00 407.00,304.00
             407.00,304.00 429.00,304.00 429.00,304.00
             429.00,304.00 509.00,304.00 509.00,304.00
             509.00,304.00 533.00,304.00 533.00,304.00
             534.82,304.01 537.92,303.85 539.40,305.02
             541.38,306.59 541.00,310.70 541.00,313.00
             541.00,313.00 541.00,420.00 541.00,420.00
             541.00,420.00 541.00,444.00 541.00,444.00
             540.99,445.82 541.15,448.92 539.98,450.40
             538.41,452.38 534.30,452.00 532.00,452.00
             532.00,452.00 425.00,452.00 425.00,452.00
             425.00,452.00 401.00,452.00 401.00,452.00
             399.18,451.99 396.08,452.15 394.60,450.98
             392.62,449.41 393.00,445.30 393.00,443.00
             393.00,443.00 393.00,343.00 393.00,343.00
             393.00,343.00 393.00,317.00 393.00,317.00
             393.00,313.01 392.20,308.37 394.60,305.02 Z
           M 347.00,306.00
           C 347.00,306.00 202.00,306.00 202.00,306.00
             202.00,306.00 203.00,359.00 203.00,359.00
             203.00,359.00 203.00,450.00 203.00,450.00
             203.00,450.00 347.00,450.00 347.00,450.00
             347.00,450.00 347.00,306.00 347.00,306.00 Z
           M 540.00,306.00
           C 540.00,306.00 395.00,306.00 395.00,306.00
             395.00,306.00 395.00,450.00 395.00,450.00
             395.00,450.00 540.00,450.00 540.00,450.00
             540.00,450.00 540.00,306.00 540.00,306.00 Z
           M 77.00,307.21
           C 77.00,307.21 92.00,307.21 92.00,307.21
             106.92,307.02 127.39,311.74 136.04,325.00
             143.11,335.86 142.00,347.70 142.00,360.00
             142.00,360.00 142.00,418.00 142.00,418.00
             142.00,418.00 142.00,790.00 142.00,790.00
             142.00,792.67 142.07,795.38 141.47,798.00
             141.47,798.00 129.25,825.00 129.25,825.00
             129.25,825.00 105.25,875.00 105.25,875.00
             105.25,875.00 96.20,893.96 96.20,893.96
             94.60,896.70 92.44,899.18 89.00,899.27
             81.16,899.46 75.67,882.04 72.74,876.00
             72.74,876.00 47.74,824.00 47.74,824.00
             42.78,813.76 36.02,803.63 36.00,792.00
             36.00,792.00 36.00,425.00 36.00,425.00
             36.00,425.00 36.00,358.00 36.00,358.00
             36.00,345.85 34.20,334.47 41.79,324.00
             50.00,312.66 64.01,309.39 77.00,307.21 Z
           M 140.00,381.00
           C 140.00,381.00 140.00,345.00 140.00,345.00
             139.99,340.25 140.02,337.63 138.48,333.00
             132.60,315.36 114.47,310.48 98.00,308.83
             93.67,308.40 92.87,307.92 88.00,308.02
             88.00,308.02 79.00,308.92 79.00,308.92
             69.02,309.71 58.30,311.82 50.00,317.79
             35.54,328.18 37.00,341.44 37.00,357.00
             37.00,357.00 37.00,381.00 37.00,381.00
             37.00,381.00 140.00,381.00 140.00,381.00 Z
           M 720.00,315.42
           C 726.79,314.60 738.02,315.90 745.00,316.87
             777.88,321.45 806.37,337.61 831.00,359.28
             838.45,365.84 845.23,373.37 851.57,381.00
             853.59,383.43 857.50,387.70 857.30,391.00
             857.12,393.88 853.59,397.76 851.80,400.00
             845.68,407.66 839.20,414.46 832.00,421.08
             801.29,449.35 764.13,466.49 722.00,466.00
             683.58,465.55 643.13,445.46 616.00,418.99
             608.62,411.78 604.04,407.11 597.60,399.00
             595.44,396.28 591.97,392.77 592.98,389.00
             593.64,386.57 597.55,382.06 599.25,380.00
             604.31,373.87 609.35,368.58 615.00,363.00
             634.74,343.49 663.10,326.98 690.00,319.88
             690.00,319.88 710.00,316.17 710.00,316.17
             710.00,316.17 720.00,315.42 720.00,315.42 Z
           M 593.00,391.00
           C 606.95,408.47 620.28,423.53 639.00,436.25
             687.91,469.49 744.91,474.21 797.00,445.14
             814.66,435.29 830.82,422.14 844.15,407.00
             847.04,403.72 856.29,394.30 855.72,390.00
             855.28,386.64 846.51,376.79 843.91,374.00
             831.88,361.08 819.01,349.77 804.00,340.42
             764.52,315.85 718.86,309.43 675.00,326.06
             659.17,332.07 644.47,340.95 631.00,351.13
             618.66,360.46 600.68,377.65 593.00,391.00 Z
           M 717.00,339.23
           C 720.32,339.00 722.68,338.99 726.00,339.23
             733.23,339.03 739.39,340.31 746.00,343.31
             778.67,358.15 786.27,400.71 760.99,425.99
             755.89,431.09 749.82,435.22 743.00,437.65
             736.31,440.04 731.12,441.15 724.00,440.99
             689.56,440.20 665.46,405.41 677.09,373.00
             683.81,354.27 698.06,343.55 717.00,339.23 Z
           M 682.00,365.00
           C 678.48,373.19 676.11,376.67 676.00,386.00
             675.88,396.68 676.44,405.49 682.09,415.00
             700.75,446.40 745.21,447.35 766.21,418.00
             771.31,410.87 774.01,400.68 774.68,392.00
             774.89,389.19 774.36,386.78 774.05,384.00
             770.75,354.77 744.66,336.02 716.00,341.08
             708.31,342.44 700.63,345.49 695.00,351.00
             699.62,350.73 702.54,350.26 707.00,352.21
             712.87,354.78 717.35,360.55 717.89,367.00
             718.87,378.61 706.01,389.77 694.00,384.08
             691.39,382.85 689.13,381.13 687.22,378.96
             682.21,373.27 684.25,370.62 682.00,365.00 Z
           M 695.00,351.00
           C 695.00,351.00 694.00,351.00 694.00,351.00
             694.00,351.00 695.00,352.00 695.00,352.00
             695.00,352.00 695.00,351.00 695.00,351.00 Z
           M 697.00,352.33
           C 675.64,357.65 683.16,387.26 703.00,384.34
             717.01,382.28 721.42,365.43 711.81,356.22
             707.51,352.10 702.61,351.72 697.00,352.33 Z
           M 140.00,382.00
           C 140.00,382.00 37.00,382.00 37.00,382.00
             37.00,382.00 37.00,423.00 37.00,423.00
             37.00,423.00 140.00,423.00 140.00,423.00
             140.00,423.00 140.00,382.00 140.00,382.00 Z
           M 88.00,425.00
           C 88.00,425.00 37.00,425.00 37.00,425.00
             37.00,425.00 37.00,796.00 37.00,796.00
             37.00,796.00 88.00,796.00 88.00,796.00
             88.00,796.00 88.00,425.00 88.00,425.00 Z
           M 140.00,425.00
           C 140.00,425.00 89.00,425.00 89.00,425.00
             89.00,425.00 89.00,796.00 89.00,796.00
             89.00,796.00 140.00,796.00 140.00,796.00
             140.00,796.00 140.00,425.00 140.00,425.00 Z
           M 202.60,498.02
           C 206.41,496.40 210.90,497.00 215.00,497.00
             215.00,497.00 237.00,497.00 237.00,497.00
             237.00,497.00 317.00,497.00 317.00,497.00
             317.00,497.00 341.00,497.00 341.00,497.00
             342.82,497.01 345.92,496.85 347.40,498.02
             349.38,499.59 349.00,503.70 349.00,506.00
             349.00,506.00 349.00,613.00 349.00,613.00
             349.00,613.00 349.00,637.00 349.00,637.00
             348.99,638.82 349.15,641.92 347.98,643.40
             346.41,645.38 342.30,645.00 340.00,645.00
             340.00,645.00 233.00,645.00 233.00,645.00
             233.00,645.00 209.00,645.00 209.00,645.00
             207.18,644.99 204.08,645.15 202.60,643.98
             200.62,642.41 201.00,638.30 201.00,636.00
             201.00,636.00 201.00,536.00 201.00,536.00
             201.00,536.00 201.00,510.00 201.00,510.00
             201.00,506.01 200.20,501.37 202.60,498.02 Z
           M 347.00,498.00
           C 347.00,498.00 238.00,498.00 238.00,498.00
             238.00,498.00 210.00,498.00 210.00,498.00
             208.01,498.01 204.38,497.74 203.04,499.60
             202.22,500.90 203.00,508.83 203.04,511.00
             203.04,511.00 203.04,598.00 203.04,598.00
             203.00,607.62 203.87,634.31 202.00,642.00
             202.00,642.00 220.00,643.00 220.00,643.00
             220.00,643.00 249.00,643.00 249.00,643.00
             249.00,643.00 347.00,643.00 347.00,643.00
             347.00,643.00 347.00,498.00 347.00,498.00 Z
           M 394.60,498.02
           C 398.41,496.40 402.90,497.00 407.00,497.00
             407.00,497.00 429.00,497.00 429.00,497.00
             429.00,497.00 509.00,497.00 509.00,497.00
             509.00,497.00 533.00,497.00 533.00,497.00
             534.82,497.01 537.92,496.85 539.40,498.02
             541.38,499.59 541.00,503.70 541.00,506.00
             541.00,506.00 541.00,613.00 541.00,613.00
             541.00,613.00 541.00,637.00 541.00,637.00
             540.99,638.82 541.15,641.92 539.98,643.40
             538.41,645.38 534.30,645.00 532.00,645.00
             532.00,645.00 426.00,645.00 426.00,645.00
             426.00,645.00 402.00,645.00 402.00,645.00
             399.65,644.98 396.39,645.19 394.60,643.40
             392.68,641.48 393.01,637.54 393.00,635.00
             393.00,635.00 393.00,535.00 393.00,535.00
             393.00,535.00 393.00,510.00 393.00,510.00
             393.00,506.01 392.20,501.37 394.60,498.02 Z
           M 540.00,643.00
           C 540.00,643.00 540.00,532.00 540.00,532.00
             540.00,532.00 540.00,507.00 540.00,507.00
             540.00,507.00 538.98,499.60 538.98,499.60
             538.98,499.60 531.00,498.00 531.00,498.00
             531.00,498.00 395.00,498.00 395.00,498.00
             395.00,498.00 395.00,643.00 395.00,643.00
             395.00,643.00 540.00,643.00 540.00,643.00 Z
           M 799.00,531.21
           C 799.00,531.21 834.00,531.21 834.00,531.21
             844.24,531.12 861.85,534.58 872.00,537.13
             924.77,550.38 974.85,585.74 994.58,638.00
             1001.65,656.75 1003.23,673.20 1003.00,693.00
             1002.88,703.20 999.23,719.23 996.00,729.00
             990.34,746.13 981.45,761.82 970.34,776.00
             955.71,794.68 937.35,810.27 917.00,822.40
             888.63,839.31 855.90,849.45 823.00,852.08
             823.00,852.08 813.00,853.00 813.00,853.00
             791.13,853.25 756.28,853.67 748.22,828.00
             746.93,823.89 746.05,817.33 746.00,813.00
             745.82,797.46 746.92,779.47 733.99,768.21
             722.32,758.06 704.43,759.21 690.00,757.83
             661.79,755.13 636.61,747.37 626.34,718.00
             623.45,709.72 622.01,702.79 622.00,694.00
             621.98,678.00 621.90,671.85 626.43,656.00
             643.24,597.08 698.39,556.59 755.00,539.72
             769.52,535.39 784.10,533.55 799.00,531.21 Z
           M 805.00,532.28
           C 805.00,532.28 787.00,534.28 787.00,534.28
             774.15,536.01 756.21,540.34 744.00,544.69
             681.03,567.12 622.89,619.85 623.00,691.00
             623.04,716.91 633.59,740.21 659.00,749.94
             670.56,754.36 682.78,755.66 695.00,756.83
             711.50,758.41 730.89,757.58 740.65,774.00
             742.67,777.40 744.13,781.17 745.10,785.00
             747.42,794.09 746.99,796.96 747.00,806.00
             747.01,815.59 748.22,829.32 754.39,836.99
             762.99,847.69 780.06,850.41 793.00,851.04
             793.00,851.04 804.00,851.99 804.00,851.99
             804.00,851.99 814.00,850.96 814.00,850.96
             814.00,850.96 824.00,850.96 824.00,850.96
             842.71,849.04 861.27,844.81 879.00,838.66
             934.61,819.35 983.32,775.22 997.87,717.00
             1000.08,708.17 1001.89,697.09 1002.00,688.00
             1002.19,671.31 998.50,652.61 992.68,637.00
             987.84,624.03 978.62,608.55 969.71,598.00
             951.21,576.12 932.44,563.26 907.00,550.76
             879.45,537.21 835.60,529.44 805.00,532.28 Z
           M 438.00,534.00
           C 438.00,534.00 482.00,554.75 482.00,554.75
             487.68,557.57 494.89,559.12 498.00,565.00
             498.00,565.00 476.00,571.00 476.00,571.00
             478.28,576.87 490.00,592.14 494.37,598.00
             496.23,600.48 501.73,607.18 501.99,609.96
             502.40,614.50 495.48,617.15 492.00,618.00
             492.00,618.00 464.00,580.00 464.00,580.00
             460.84,586.15 454.49,594.87 449.00,599.00
             449.00,599.00 438.00,534.00 438.00,534.00 Z
           M 441.00,536.00
           C 439.35,540.52 441.60,548.17 442.41,553.00
             442.41,553.00 447.25,581.00 447.25,581.00
             448.03,585.51 449.04,593.16 451.00,597.00
             451.00,597.00 465.00,578.00 465.00,578.00
             465.00,578.00 493.00,617.00 493.00,617.00
             493.00,617.00 502.00,610.00 502.00,610.00
             502.00,610.00 484.86,587.00 484.86,587.00
             484.86,587.00 474.00,570.00 474.00,570.00
             479.41,569.51 491.40,565.82 496.00,563.00
             496.00,563.00 481.00,555.74 481.00,555.74
             481.00,555.74 460.00,545.26 460.00,545.26
             460.00,545.26 441.00,536.00 441.00,536.00 Z
           M 825.00,566.53
           C 830.41,565.64 835.85,565.68 841.00,567.76
             867.77,578.60 859.13,620.69 830.00,618.91
             809.29,617.64 797.43,594.05 809.64,577.00
             813.68,571.36 818.48,568.46 825.00,566.53 Z
           M 828.00,567.30
           C 823.32,568.21 819.82,569.36 816.00,572.39
             795.95,588.29 808.22,620.61 835.00,617.04
             854.16,614.48 862.22,590.71 850.47,576.04
             845.07,569.30 836.39,566.54 828.00,567.30 Z
           M 736.00,586.87
           C 740.80,585.67 747.32,585.53 752.00,586.87
             776.53,595.35 775.48,631.56 750.00,637.76
             747.38,638.40 744.70,638.91 742.00,638.67
             722.05,636.95 710.20,615.23 721.13,598.00
             724.91,592.04 729.53,589.02 736.00,586.87 Z
           M 739.00,587.33
           C 730.58,589.34 723.21,594.62 720.13,603.00
             718.99,606.11 719.00,608.76 719.00,612.00
             719.00,625.91 727.55,636.63 742.00,636.99
             749.33,637.16 755.27,635.89 760.82,630.67
             774.06,618.20 768.89,594.96 752.00,588.47
             747.52,586.74 743.68,586.81 739.00,587.33 Z
           M 909.00,602.47
           C 919.74,601.00 930.09,605.44 935.64,615.00
             944.30,629.93 936.66,651.20 919.00,654.53
             892.96,659.46 875.34,627.79 895.18,609.47
             899.31,605.65 903.62,603.75 909.00,602.47 Z
           M 908.00,604.33
           C 879.34,611.21 882.59,652.10 912.00,653.91
             938.15,655.51 947.60,620.40 926.00,606.99
             920.53,603.60 914.18,603.64 908.00,604.33 Z
           M 682.00,655.52
           C 686.59,654.79 691.54,654.61 696.00,656.10
             713.24,661.89 719.87,683.72 708.47,697.96
             704.40,703.05 698.28,706.02 692.00,707.33
             675.78,710.72 660.64,696.09 661.26,680.00
             661.74,667.57 670.46,658.63 682.00,655.52 Z
           M 685.00,656.30
           C 679.06,657.42 674.58,658.85 670.10,663.18
             658.51,674.41 661.30,694.68 675.00,703.00
             679.65,705.82 686.67,706.48 692.00,705.82
             711.44,703.40 718.54,679.71 707.21,665.09
             702.02,658.39 693.21,655.56 685.00,656.30 Z
           M 931.00,686.53
           C 936.97,685.55 944.57,685.46 950.00,688.41
             969.01,698.75 968.91,727.02 949.00,736.20
             945.27,737.92 940.11,739.16 936.00,738.81
             906.96,736.40 901.52,695.32 931.00,686.53 Z
           M 933.00,687.33
           C 923.45,689.61 916.53,695.34 913.79,705.00
             909.44,720.29 919.67,736.59 936.00,736.99
             944.89,737.20 951.80,735.22 957.61,727.99
             967.53,715.64 962.67,695.17 948.00,688.95
             943.09,686.87 938.21,686.75 933.00,687.33 Z
           M 201.00,837.00
           C 201.00,837.00 201.00,724.00 201.00,724.00
             201.00,724.00 201.00,699.00 201.00,699.00
             201.00,699.00 202.02,691.60 202.02,691.60
             202.02,691.60 210.00,690.00 210.00,690.00
             210.00,690.00 317.00,690.00 317.00,690.00
             317.00,690.00 341.00,690.00 341.00,690.00
             341.00,690.00 347.40,691.02 347.40,691.02
             347.40,691.02 349.00,699.00 349.00,699.00
             349.00,699.00 349.00,837.00 349.00,837.00
             349.00,837.00 201.00,837.00 201.00,837.00 Z
           M 347.00,691.00
           C 347.00,691.00 203.00,691.00 203.00,691.00
             203.00,691.00 203.00,802.00 203.00,802.00
             203.00,802.00 203.00,818.00 203.00,818.00
             203.00,818.00 202.30,831.49 202.30,831.49
             202.65,836.85 206.78,835.99 211.00,836.00
             211.00,836.00 347.00,836.00 347.00,836.00
             347.00,836.00 347.00,691.00 347.00,691.00 Z
           M 541.00,837.00
           C 541.00,837.00 428.00,837.00 428.00,837.00
             428.00,837.00 402.00,837.00 402.00,837.00
             402.00,837.00 394.60,835.98 394.60,835.98
             394.60,835.98 393.00,828.00 393.00,828.00
             393.00,828.00 393.00,722.00 393.00,722.00
             393.00,722.00 393.00,698.00 393.00,698.00
             393.00,698.00 394.02,691.60 394.02,691.60
             394.02,691.60 402.00,690.00 402.00,690.00
             402.00,690.00 541.00,690.00 541.00,690.00
             541.00,690.00 541.00,837.00 541.00,837.00 Z
           M 540.00,836.00
           C 540.00,836.00 540.00,725.00 540.00,725.00
             540.00,725.00 540.00,700.00 540.00,700.00
             540.00,700.00 538.98,692.60 538.98,692.60
             538.98,692.60 531.00,691.00 531.00,691.00
             531.00,691.00 395.00,691.00 395.00,691.00
             395.00,691.00 395.00,836.00 395.00,836.00
             395.00,836.00 540.00,836.00 540.00,836.00 Z
           M 817.00,749.38
           C 818.63,749.31 819.30,749.18 821.00,749.38
             838.26,750.82 851.99,765.33 850.91,783.00
             849.90,799.36 834.73,814.08 818.00,812.82
             789.84,810.68 778.66,778.26 796.33,759.17
             802.17,752.85 808.84,750.73 817.00,749.38 Z
           M 814.00,751.30
           C 783.08,757.35 780.80,799.67 809.00,809.61
             813.49,811.20 820.29,811.40 825.00,810.70
             845.29,807.70 855.37,783.33 845.47,766.00
             838.62,754.00 827.11,749.99 814.00,751.30 Z
           M 140.00,798.00
           C 140.00,798.00 37.00,798.00 37.00,798.00
             37.00,798.00 69.00,865.00 69.00,865.00
             74.80,862.70 83.74,859.88 90.00,860.21
             97.61,860.60 102.32,862.97 109.00,864.00
             109.00,864.00 140.00,798.00 140.00,798.00 Z
           M 70.00,866.00
           C 71.26,870.43 78.83,886.43 81.26,891.00
             82.90,894.07 84.94,897.74 88.96,897.63
             91.93,897.54 93.70,895.27 95.12,892.96
             95.12,892.96 103.75,875.00 103.75,875.00
             104.79,872.91 107.15,868.74 106.32,866.42
             105.37,863.74 99.50,862.66 97.00,862.30
             87.85,860.98 78.36,862.14 70.00,866.00 Z
           M 905.00,864.00
           C 905.00,864.00 907.00,864.00 907.00,864.00
             907.00,879.84 905.25,893.79 890.00,902.64
             879.37,908.81 862.23,907.00 850.00,907.00
             850.00,907.00 766.00,907.00 766.00,907.00
             766.00,907.00 300.00,907.00 300.00,907.00
             300.00,907.00 161.00,907.00 161.00,907.00
             157.46,906.95 154.33,906.74 151.00,905.39
             143.84,902.48 135.90,893.08 139.00,885.00
             141.16,900.22 150.39,905.83 165.00,906.00
             165.00,906.00 309.00,906.00 309.00,906.00
             309.00,906.00 767.00,906.00 767.00,906.00
             767.00,906.00 848.00,906.00 848.00,906.00
             860.11,906.00 877.40,907.55 888.00,901.65
             904.60,892.43 905.00,880.61 905.00,864.00 Z" />
</svg>
